<svg width="913" height="882" viewBox="0 0 913 882" fill="none" xmlns="http://www.w3.org/2000/svg">
<path d="M443.48 168.53C443.31 160.96 448.82 155.15 456.34 154.98C463.91 154.81 469.72 160.32 469.89 167.83C470.06 175.4 464.55 181.21 457.04 181.38C449.47 181.55 443.66 176.04 443.49 168.53H443.48ZM455.92 248.65C464.83 249.1 472.63 241.73 472.72 232.78C472.81 224.15 465.68 216.78 457.04 216.58C448.42 216.38 440.96 223.42 440.64 232.06C440.32 240.65 447.29 248.22 455.92 248.65ZM455.93 114.13C461.84 114.79 466.94 110.05 467.15 104.11C467.35 98.4899 463.07 93.7201 457.45 93.3101C451.52 92.8701 446.23 97.4399 446.28 103.38C446.33 109.62 449.68 113.43 455.93 114.13ZM423.77 10.8198C427.15 11.1798 429.51 9.44021 429.81 5.97021C430.1 2.56021 428.22 0.52 424.39 0C421.43 0.28 419.21 1.84012 419.1 5.37012C419.01 8.46012 420.77 10.4901 423.77 10.8101V10.8198ZM489.54 214.94C497.41 214.62 503.57 208.08 503.45 200.17C503.33 192.26 496.99 185.94 489.08 185.86C480.83 185.77 474.24 192.38 474.36 200.63C474.48 208.85 481.3 215.28 489.54 214.94ZM488.59 80.29C493.8 80.53 497.28 77.46 497.64 72.23C498.03 66.6 494.77 63.4301 489.16 62.6201C484.02 62.9701 480.5 65.5798 480.15 70.8198C479.78 76.4398 482.97 80.02 488.58 80.29H488.59ZM360.45 78.0098C365.53 77.8398 367.95 74.6399 368.26 69.6299C367.68 64.7499 365.08 61.7598 359.99 61.7998C354.95 61.8398 351.97 64.7002 351.92 69.7402C351.87 75.2002 355.01 78.1998 360.44 78.0098H360.45ZM457.37 46.6499C461.66 46.2899 463.86 43.3099 464.19 39.1499C463.54 34.7399 461.11 31.9299 456.8 31.9399C452.1 31.9399 449.14 34.9101 449.33 39.6001C449.53 44.2601 452.65 47.0402 457.37 46.6602V46.6499ZM521.51 248.32C529.74 248.08 536.81 240.84 536.83 232.64C536.83 224.13 529.22 216.67 520.75 216.92C512.52 217.16 505.45 224.4 505.43 232.6C505.42 241.12 513.04 248.57 521.51 248.32ZM489.35 12.6802C492.65 12.4102 494.39 10.17 494.59 6.95996C494.08 3.51996 492.18 1.39 488.85 1.5C485.13 1.62 482.98 4.00998 483.35 7.72998C483.67 11.04 486.03 12.9599 489.35 12.6899V12.6802ZM391.63 179.49C398.97 179.82 405.04 174.13 405.16 166.79C405.28 159.75 399.87 153.97 392.86 153.65C385.52 153.32 379.45 159.01 379.33 166.35C379.21 173.39 384.62 179.17 391.63 179.49ZM391.71 246.71C400.16 247.06 407.85 239.68 407.94 231.14C408.02 222.96 401.02 215.65 392.77 215.31C384.32 214.96 376.63 222.34 376.54 230.88C376.46 239.06 383.46 246.38 391.7 246.71H391.71ZM392.1 112.15C397.94 112.23 402.41 107.92 402.22 102.08C402.03 96.0801 398.78 92.6302 392.79 92.1602C386.97 91.7102 382.41 96 382.23 101.79C382.05 107.64 386.28 112.07 392.1 112.15ZM360.21 10.4199C362.79 10.0999 364.81 8.76002 364.86 5.52002C364.9 2.74002 363.38 0.960176 360.66 0.680176C357.59 0.360176 355.48 1.8598 355.22 5.0498C354.96 8.1798 356.67 9.96018 360.21 10.4302V10.4199ZM391.77 44.54C396.19 44.76 398.71 42.4402 399.17 37.9302C398.99 33.5802 396.83 30.8899 392.33 30.8599C387.87 30.8199 385.38 33.3501 385.4 37.8101C385.41 41.8701 387.71 44.33 391.76 44.54H391.77ZM423.98 78.6201C429.68 78.8601 433.18 75.5398 433.18 69.7998C433.18 64.4698 429.84 61.6101 424.35 61.0601C419.29 61.5601 415.89 64.2801 415.74 69.6401C415.59 74.9601 418.67 78.4099 423.98 78.6299V78.6201ZM423.81 146.02C430.55 146.35 435.8 141.65 436.13 135.01C436.46 128.27 431.76 123.01 425.12 122.69C418.38 122.36 413.13 127.06 412.8 133.7C412.47 140.44 417.17 145.7 423.81 146.02ZM424.95 213.31C432.78 213.06 439.03 206.55 438.99 198.7C438.95 190.84 432.64 184.42 424.79 184.26C416.62 184.09 409.9 190.7 409.95 198.87C409.99 207.05 416.78 213.57 424.96 213.31H424.95ZM489.4 147.67C496.04 147.42 500.76 142.37 500.61 135.66C500.46 129.01 495.47 124.2 488.8 124.25C482.14 124.31 477.24 129.2 477.19 135.86C477.14 142.84 482.41 147.93 489.4 147.66V147.67ZM617.5 279.44C625.78 279.58 632.34 273.17 632.37 264.92C632.41 256.65 625.92 250.19 617.65 250.25C609.4 250.31 603.01 256.89 603.18 265.17C603.34 273.08 609.58 279.31 617.5 279.45V279.44ZM585.14 45.5698C589.25 45.8198 591.38 43.2899 591.97 39.3999C591.55 35.6899 589.64 33.22 585.98 33.04C581.91 32.84 579.39 35.22 579.29 39.29C579.2 42.98 581.51 45.3601 585.14 45.5801V45.5698ZM617.36 213.07C623.79 213.31 629.81 207.93 630.4 201.41C631.01 194.73 625.4 188.25 618.58 187.75C611.89 187.26 605.47 192.98 605.1 199.78C604.73 206.5 610.56 212.81 617.36 213.06V213.07ZM520.79 181.12C527.91 181.29 533.69 175.97 534.06 168.91C534.45 161.49 528.85 155.41 521.45 155.23C514.34 155.06 508.55 160.38 508.18 167.44C507.79 174.86 513.39 180.94 520.78 181.11L520.79 181.12ZM617.33 145.82C623.24 146.09 627.06 142.96 627.59 137C628.15 130.73 625 126.66 618.63 126.13C612.29 125.6 608.76 129.09 607.78 135.19C608 141.53 610.91 145.52 617.34 145.82H617.33ZM649.92 377.35C658.35 377.4 665.81 370.02 665.86 361.57C665.91 353.14 658.53 345.68 650.08 345.63C641.65 345.58 634.19 352.96 634.14 361.41C634.09 369.85 641.47 377.3 649.92 377.35ZM618.93 313.02C609.62 312.47 602.07 319.02 601.53 328.11C600.97 337.42 607.53 344.97 616.62 345.51C625.93 346.07 633.48 339.51 634.02 330.42C634.57 321.11 628.02 313.56 618.93 313.02ZM618.16 78.7002C622.51 78.4802 624.76 75.6698 625.05 71.3398C624.56 66.9898 622.14 64.3001 617.79 64.3501C613.01 64.4001 610.32 67.3901 610.62 72.1001C610.89 76.4401 613.83 78.9202 618.16 78.7002ZM618.04 11.1099C620.48 10.9299 621.74 9.28016 621.88 6.91016C621.39 4.42016 619.98 2.86982 617.51 3.06982C615.09 3.25982 613.57 4.88986 613.76 7.35986C613.95 9.77986 615.58 11.3001 618.05 11.1201L618.04 11.1099ZM586.07 280.65C576.51 280.41 569.2 287.44 569.15 296.94C569.1 306.16 575.9 313.23 585.05 313.46C594.61 313.7 601.91 306.66 601.96 297.16C602.01 287.94 595.22 280.88 586.07 280.65ZM553.26 281.01C562.4 281.05 569.57 273.85 569.51 264.71C569.45 255.59 562.16 248.49 553.02 248.66C544.23 248.82 537.31 255.76 537.16 264.55C537.02 273.69 544.13 280.96 553.26 281.01ZM520.98 46.2798C525.34 46.0398 528.01 43.8298 528.01 39.3198C528.01 34.8298 525.4 32.3702 520.93 32.4302C516.85 32.4802 514.41 34.8402 514.24 38.9102C514.05 43.3602 516.45 45.8398 520.98 46.2798ZM134.12 370.25C140.05 370.7 144.93 365.83 144.92 359.49C144.41 353.67 141.14 349.98 134.89 349.52C128.95 349.08 123.9 353.96 124.14 359.9C124.39 366.15 127.89 369.78 134.13 370.26L134.12 370.25ZM521.51 113.72C527.89 113.52 530.91 109.57 531.25 103.32C530.47 97.1298 527.07 93.53 520.73 93.77C514.39 94.01 510.93 97.8499 511.14 104.13C511.36 110.46 515.21 113.92 521.5 113.72H521.51ZM553.07 147.24C559.48 147.39 564.8 142.03 564.62 135.63C564.44 129.54 559.3 124.61 553.21 124.68C547.12 124.75 542.1 129.8 542.06 135.89C542.02 141.99 546.98 147.1 553.07 147.24ZM585.19 180.21C591.71 180.41 597.15 175.45 597.57 168.95C598 162.12 592.76 156.36 585.93 156.15C579.41 155.95 573.96 160.91 573.55 167.41C573.12 174.24 578.36 180 585.19 180.21ZM552.94 12.1001C556.07 12.1001 558.1 10.7202 558.3 7.49023C558.5 4.36023 556.96 2.35014 553.73 2.14014C550.6 1.94014 548.59 3.47996 548.38 6.70996C548.17 9.83996 549.76 11.7099 552.93 12.1099L552.94 12.1001ZM585.28 247.08C593.13 247.23 599.76 240.93 600.02 233.09C600.28 225.27 594.05 218.52 586.23 218.15C578.09 217.77 571.13 224.38 571.09 232.54C571.05 240.39 577.44 246.94 585.28 247.08ZM553.35 79.8599C558.37 79.4299 561.43 76.9201 561.54 71.8501C561.66 66.4301 558.71 63.3401 553.26 63.3301C548.23 63.3301 545.29 66.17 545.14 71.21C544.98 76.68 548.07 79.4199 553.35 79.8599ZM327.73 311.8C336.99 311.84 344.03 304.96 344.17 295.73C344.3 286.46 337.49 279.31 328.3 279.09C318.68 278.85 311.4 285.97 311.46 295.56C311.51 304.79 318.5 311.76 327.73 311.8ZM199.14 108.24C202.86 108.12 204.78 105.6 205.19 101.96C204.51 98.32 202.48 95.8698 198.73 96.0298C195.04 96.1898 192.69 98.6198 192.83 102.34C192.97 106.03 195.41 108.37 199.14 108.24ZM230.54 341.83C237.84 342.2 244.65 336.12 245.28 328.67C245.92 321.1 239.49 313.88 231.77 313.49C224.47 313.12 217.66 319.19 217.03 326.65C216.39 334.22 222.82 341.44 230.54 341.83ZM231.23 406.82C239.6 406.78 245.91 400.41 245.88 392.02C245.85 383.65 239.48 377.33 231.08 377.37C222.71 377.41 216.4 383.78 216.43 392.17C216.47 400.55 222.83 406.86 231.23 406.82ZM198.47 174.9C203.84 175.11 207.1 172.3 207.26 166.84C207.42 161.41 204.37 158.58 198.64 158.1C193.75 158.61 190.5 161.17 190.59 166.71C190.67 171.73 193.45 174.71 198.47 174.91V174.9ZM231.09 75.5898C234.43 75.2898 236.59 73.4999 236.76 70.1699C236.93 66.8199 234.9 64.5401 231.61 64.3301C227.91 64.0901 225.54 66.31 225.57 70.04C225.58 73.37 227.76 75.2098 231.09 75.5898ZM263.32 440.54C272.49 440.56 279.57 433.52 279.59 424.36C279.61 415.2 272.57 408.11 263.41 408.09C254.24 408.07 247.16 415.11 247.14 424.27C247.11 433.43 254.16 440.52 263.31 440.54H263.32ZM230.77 275.92C237.55 276.16 243.74 270.24 243.85 263.41C243.97 256.62 237.95 250.52 231.14 250.53C224.66 250.53 218.8 256.13 218.46 262.64C218.1 269.39 223.94 275.69 230.77 275.92ZM230.59 142.7C235.36 142.56 238.81 140.51 239.31 135.4C239.83 130.07 237.27 126.6 231.8 126.16C226.86 125.77 223.54 128.26 223 133.31C222.42 138.68 225.16 141.8 230.59 142.7ZM230.55 209.59C236.22 209.95 241.59 205.15 241.95 199.39C242.31 193.72 237.51 188.35 231.75 187.99C226.08 187.63 220.71 192.43 220.35 198.19C219.99 203.86 224.79 209.23 230.55 209.59ZM198.34 241.64C204.11 241.99 209.58 237.22 209.51 231.4C209.44 225.23 206.1 221.35 199.92 220.48C194.18 219.67 188.81 224.35 188.34 230.2C187.87 235.95 192.53 241.28 198.34 241.63V241.64ZM134.18 239C139.24 239.23 141.88 236.2 142.72 230.95C142.12 226.56 139.93 223.17 134.82 223.01C129.81 222.86 126.72 225.68 126.51 230.69C126.31 235.69 129.17 238.77 134.18 239ZM134.7 172.68C138.42 172.56 140.34 170.04 140.75 166.39C140.07 162.75 138.04 160.31 134.29 160.47C130.6 160.63 128.25 163.06 128.39 166.78C128.53 170.47 130.98 172.81 134.7 172.68ZM134.22 304.92C140.25 305.13 143.35 301.35 144.19 295.52C143.45 289.69 140.41 285.92 134.37 285.96C128.78 286 125.25 289.43 125.02 294.97C124.77 300.94 128.26 304.71 134.22 304.92ZM166.93 339.06C173.2 338.95 178.02 334.12 178.11 327.85C178.21 321.26 173.09 316.16 166.5 316.27C159.93 316.39 155 321.68 155.32 328.28C155.63 334.5 160.66 339.16 166.93 339.06ZM198.67 372.99C206.18 373.12 211.91 367.61 212.04 360.14C212.17 352.63 206.66 346.9 199.19 346.77C191.68 346.64 185.94 352.15 185.81 359.62C185.68 367.14 191.19 372.87 198.66 373L198.67 372.99ZM198.92 307.66C205.6 307.67 211.26 301.93 211.15 295.26C211.04 288.57 205.2 283 198.55 283.23C192.18 283.45 186.85 288.85 186.72 295.23C186.59 301.91 192.23 307.65 198.92 307.66ZM360.2 145.56C366.25 145.46 371.34 140.21 371.24 134.18C371.14 128.14 365.89 123.04 359.85 123.14C353.81 123.24 348.72 128.48 348.81 134.52C348.91 140.56 354.16 145.65 360.19 145.56H360.2ZM167.1 273.2C173.48 273 176.5 269.05 176.85 262.8C176.07 256.62 172.68 253.01 166.34 253.25C160 253.49 156.53 257.32 156.75 263.61C156.97 269.94 160.82 273.4 167.11 273.2H167.1ZM166.63 207.02C172.14 207.04 174.77 203.84 175.06 198.49C174.5 193.51 171.89 190.54 166.8 190.56C161.33 190.58 158.36 193.66 158.5 199.1C158.62 204.16 161.58 206.99 166.63 207.02ZM167.03 140.59C170.65 140.47 172.96 138.08 172.97 134.44C172.97 130.36 170.38 128.35 166.47 127.97C162.87 128.63 160.46 130.6 160.48 134.27C160.51 138.31 163 140.73 167.03 140.59ZM327.44 245.46C335.54 245.67 342.4 238.88 342.26 230.78C342.13 222.98 335.57 216.54 327.78 216.56C319.98 216.58 313.46 223.04 313.37 230.84C313.27 238.63 319.65 245.25 327.45 245.46H327.44ZM328.09 178.49C334.95 178.34 340.1 172.77 339.73 165.89C339.38 159.37 334.1 154.5 327.53 154.65C320.97 154.79 315.95 159.88 315.89 166.45C315.82 173.33 321.21 178.64 328.09 178.49ZM649.65 311.56C657.44 311.74 664.09 305.57 664.49 297.8C664.89 289.7 658.45 282.75 650.34 282.56C642.55 282.38 635.9 288.55 635.5 296.32C635.1 304.43 641.54 311.37 649.65 311.57V311.56ZM295.59 9.47021C298.02 9.23021 299.53 7.92998 299.52 5.47998C299.52 3.04998 298.03 1.5498 295.59 1.5498C293.15 1.5498 291.67 3.03998 291.66 5.47998C291.66 7.91998 293.17 9.23021 295.59 9.47021ZM328.15 111.46C333.69 110.92 336.62 107.47 337.27 102.01C336.43 96.5398 333.44 92.8901 327.87 92.8701C322.32 92.8501 318.99 96.3499 318.49 101.88C318.04 106.87 323.17 111.95 328.15 111.46ZM359.39 279.4C368.53 279.72 375.98 272.76 376.2 263.66C376.42 254.51 369.38 247.17 360.26 247.05C351.12 246.93 343.87 254.06 343.85 263.19C343.83 272.01 350.61 279.09 359.39 279.4ZM263.64 375.78C272.15 375.61 279.43 368.07 279.27 359.61C279.1 351.1 271.56 343.82 263.1 343.99C254.59 344.16 247.31 351.7 247.48 360.16C247.65 368.67 255.19 375.96 263.65 375.79L263.64 375.78ZM359.91 212.73C367.28 212.81 373.79 206.5 373.98 199.1C374.18 191.74 367.97 185.15 360.55 184.83C353.24 184.51 346.54 190.65 346.1 198.06C345.65 205.68 352.21 212.65 359.91 212.73ZM327.21 43.9199C331.27 44.2999 333.47 41.81 334.19 37.98C333.91 34.26 332 31.7702 328.41 31.4702C324.39 31.1302 321.8 33.4702 321.57 37.4902C321.35 41.1702 323.65 43.6002 327.21 43.9302V43.9199ZM295.15 77.0298C299.87 77.2298 302.74 74.5198 302.7 69.7598C302.66 65.4098 299.97 63.08 295.62 62.71C291.29 63.04 288.59 65.3302 288.46 69.6802C288.33 74.0202 290.81 76.8398 295.15 77.0298ZM262.99 243.78C269.82 244 275.92 238.26 276.14 231.39C276.36 224.56 270.62 218.46 263.75 218.24C256.92 218.01 250.82 223.76 250.6 230.62C250.37 237.45 256.12 243.55 262.98 243.77L262.99 243.78ZM262.8 177.09C268.56 177.69 273.72 172.78 273.94 166.95C274.16 161.14 269.38 156.11 263.54 156C257.71 155.9 252.58 160.77 252.84 166.59C253.12 172.78 256.65 176.46 262.79 177.09H262.8ZM262.67 309.94C270.78 310.32 277.71 303.86 277.88 295.75C278.04 287.95 271.86 281.32 264.09 280.95C255.98 280.56 249.05 287.03 248.88 295.14C248.72 302.94 254.9 309.57 262.67 309.95V309.94ZM263.24 110.01C268.26 110.13 270.79 106.92 271.45 102.08C270.72 97.2401 268.14 94.1102 263.12 94.2402C258.55 94.3602 255.64 97.2398 255.5 101.8C255.34 106.77 258.29 109.89 263.25 110.01H263.24ZM295.28 211.39C302.05 211.59 308.25 205.49 308.19 198.7C308.14 192.21 302.4 186.37 295.9 186.19C289.13 186 282.93 192.09 282.99 198.88C283.04 205.37 288.78 211.21 295.28 211.39ZM295.39 277.79C303.62 277.9 310.16 271.44 310.16 263.23C310.16 255.01 303.62 248.55 295.39 248.66C287.5 248.76 281.21 254.96 281.02 262.82C280.82 271.04 287.19 277.69 295.38 277.79H295.39ZM295.76 144.2C302.19 144.13 305.22 140.22 305.62 133.92C304.81 127.74 301.41 124.18 295.04 124.49C289.09 124.78 285.71 128.35 285.74 134.31C285.78 140.67 289.41 144.26 295.76 144.2ZM263.22 42.52C265.99 42.64 267.81 41.1599 268.16 38.4399C268.56 35.3599 267.08 33.2201 263.92 32.8901C260.83 32.5701 258.96 34.1998 258.49 37.3398C258.57 40.4498 260.02 42.38 263.22 42.52ZM295.42 343.94C304.68 344.02 311.79 337.07 311.87 327.84C311.95 318.58 304.99 311.48 295.77 311.39C286.51 311.31 279.4 318.27 279.32 327.49C279.24 336.75 286.19 343.86 295.42 343.94ZM553.19 214.35C560.55 214.44 567.07 208.16 567.29 200.76C567.5 193.41 561.31 186.8 553.9 186.46C546.28 186.11 539.37 192.78 539.4 200.46C539.43 207.84 545.8 214.26 553.2 214.36L553.19 214.35ZM682.26 277.53C689.08 277.5 695.06 271.38 694.91 264.59C694.76 257.77 688.54 251.87 681.77 252.14C675.26 252.4 669.61 258.18 669.52 264.68C669.42 271.48 675.46 277.56 682.26 277.53ZM681.84 343.45C689.16 343.68 695.89 337.48 696.37 330.06C696.86 322.47 690.3 315.35 682.6 315.11C675.28 314.88 668.55 321.08 668.07 328.5C667.58 336.09 674.14 343.21 681.84 343.45ZM681.78 77.1099C685.48 77.3399 687.84 75.1099 687.81 71.3799C687.78 68.0499 685.59 66.2101 682.13 65.8301C678.96 66.1901 676.76 67.9298 676.61 71.2798C676.46 74.6398 678.49 76.8999 681.78 77.1099ZM506.4 406.4C512.53 397.99 511.57 385.81 504.19 378.43C496.82 371.05 484.63 370.09 476.22 376.2C467.72 382.39 464.95 393.82 469.63 403.48C470.65 405.59 471.77 407.66 472.85 409.75C474.94 410.83 477.01 411.94 479.12 412.97C488.79 417.66 500.21 414.89 506.4 406.39V406.4ZM713.74 374.56C721.29 374.91 727.26 369.45 727.5 361.98C727.74 354.42 722.22 348.56 714.72 348.42C707.17 348.27 701.4 353.88 701.36 361.41C701.32 368.64 706.58 374.24 713.74 374.56ZM682.07 144.19C687.54 144.2 690.53 141.15 690.43 135.7C690.34 130.65 687.41 127.78 682.35 127.73C676.84 127.68 674.18 130.85 673.86 136.19C674.38 141.18 676.98 144.17 682.07 144.19ZM682 211.2C687.74 211.32 692.88 206.38 693.01 200.61C693.14 194.87 688.19 189.73 682.42 189.6C676.68 189.48 671.54 194.42 671.41 200.19C671.29 205.93 676.23 211.07 682 211.2ZM472.73 409.7C472.73 409.7 472.77 409.74 472.79 409.77C472.83 409.81 472.87 409.84 472.91 409.87C472.91 409.87 472.75 409.71 472.73 409.7ZM521.8 341.59C510.58 341.25 501.57 349.66 501.22 360.81C500.87 372.03 509.29 381.04 520.44 381.39C531.66 381.73 540.67 373.32 541.02 362.17C541.37 350.95 532.95 341.94 521.8 341.59ZM472.85 409.76C472.85 409.76 472.77 409.72 472.73 409.7L472.91 409.88C472.91 409.88 472.87 409.8 472.85 409.76ZM489.96 309.83C478.71 309.32 469.66 317.7 469.44 328.81C469.23 339.69 477.48 348.43 488.24 348.73C499.14 349.03 507.96 340.88 508.35 330.13C508.75 319.21 500.69 310.31 489.96 309.83ZM440.4 375.73C440.38 375.85 440.37 375.97 440.37 376.08C440.48 376.08 440.59 376.06 440.71 376.04C440.67 375.98 440.64 375.91 440.6 375.85C440.54 375.81 440.47 375.77 440.41 375.73H440.4ZM435.85 373.71C425.78 368.04 413.79 370.31 407.13 379.19C400.93 387.47 401.73 399.69 408.96 407.15C416.4 414.82 429.01 415.8 437.5 409.36C446.35 402.64 448.53 390.7 442.78 380.6C441.93 379.12 440.28 378.02 440.37 376.08C438.41 376.24 437.33 374.54 435.85 373.7V373.71ZM484.74 480.04C496.68 481.72 508.12 472.47 509.27 459.97C509.84 453.84 507.89 448.31 503.85 443.66C496.73 435.47 487.38 435.21 476.94 437.49C480.79 426.74 480.05 417.66 472.8 409.77C460.08 397.64 439.95 403.15 434.88 419.6C432.77 426.46 434.8 432.72 437.4 438.94C427.73 433.32 418.05 433.4 408.35 438.84C409.38 436.98 410.53 435.18 411.42 433.25C416.54 422.03 411.42 409.26 400 404.69C388.94 400.27 376.69 405.75 372.45 417.02C368.27 428.15 374.05 440.28 385.37 444.32C392.53 446.87 399.02 444.85 405.37 441.59C404.55 443.53 403.74 445.46 402.9 447.39C399.14 456.09 400.31 464.24 406.56 471.2C412.81 478.16 420.88 480.34 429.84 477.34C438.82 474.33 443.52 467.6 444.83 458.38C445.66 452.53 442.35 447.63 441.04 442.28C448.61 449.67 457.62 449.69 467.22 446.72C463.2 465.98 469.65 477.94 484.73 480.06L484.74 480.04ZM714.62 309.27C721.31 309.16 726.88 303.32 726.65 296.67C726.43 290.29 721.03 284.96 714.65 284.84C707.98 284.71 702.23 290.35 702.22 297.04C702.22 303.72 707.95 309.38 714.62 309.27ZM542.18 426.03C542.23 414.38 533.21 405.09 521.63 404.87C509.62 404.64 500.12 413.88 500.07 425.82C500.02 437.47 509.05 446.76 520.62 446.98C532.63 447.21 542.13 437.97 542.18 426.03ZM572.89 393.41C572.76 382.52 564.36 374.2 553.44 374.15C542.19 374.1 533.65 382.72 533.78 394C533.91 404.89 542.31 413.21 553.23 413.26C564.48 413.31 573.02 404.69 572.89 393.41ZM713.93 243.2C719.68 243.77 724.89 238.75 725.07 232.93C725.25 227.13 720.37 222.05 714.55 221.99C708.73 221.93 703.54 226.91 703.86 232.71C704.21 238.9 707.78 242.58 713.93 243.2ZM810.68 272.24C815.3 272.52 817.92 269.61 818.66 264.96C818.17 260.48 815.75 257.48 811.11 257.4C806.86 257.33 804 260.04 803.68 264.22C803.33 268.85 806.11 271.95 810.68 272.23V272.24ZM439.83 349.15C433.3 358.25 435.39 367.11 440.6 375.85C443.49 377.58 446.24 379.65 449.32 380.9C459.43 385.02 470.96 380.28 475.62 370.39C480.15 360.75 476.74 349.31 467.69 343.75C458.29 337.98 446.19 340.29 439.83 349.15ZM843.14 368.99C847.44 368.63 850.38 366.32 850.66 362.06C850.97 357.37 848.17 354.31 843.47 354.11C839.15 353.93 836.23 356.66 835.93 360.91C835.61 365.61 838.47 368.28 843.13 368.98L843.14 368.99ZM811.28 337.63C816.78 337.54 819.34 334.23 819.56 328.89C818.93 323.49 815.89 320.63 810.5 320.92C805.47 321.2 802.69 324.24 802.73 329.27C802.77 334.72 805.86 337.72 811.29 337.63H811.28ZM843.21 303.46C847.38 303.54 849.44 301 849.84 296.95C849.32 292.92 847.17 290.49 843.01 290.64C839.29 290.77 837.02 293.03 836.9 296.75C836.77 300.87 839.08 303.37 843.21 303.45V303.46ZM875.85 334.54C878.42 334.28 880.51 332.92 880.7 329.77C880.9 326.33 879.16 324.21 875.63 324.11C872.54 324.02 870.58 325.71 870.37 328.8C870.13 332.24 871.93 334.21 875.85 334.54ZM875.35 268.94C877.72 268.8 879.37 267.53 879.55 265.1C879.73 262.63 878.21 261 875.79 260.81C873.32 260.62 871.69 262.15 871.5 264.56C871.3 267.04 872.86 268.44 875.34 268.93L875.35 268.94ZM843.43 237.62C846.67 237.56 848.23 235.67 848.37 232.2C848.05 229.35 846.43 227.52 843.18 227.61C839.94 227.7 838.24 229.54 838.3 232.74C838.37 235.97 840.22 237.68 843.43 237.62ZM779.08 174.29C782.8 174.17 784.72 171.65 785.17 167.62C784.31 164.51 782.49 161.88 778.67 162.07C774.98 162.26 772.63 164.67 772.77 168.39C772.91 172.08 775.36 174.42 779.08 174.29ZM811.42 206.27C814.9 205.51 817.22 203.48 816.81 199.75C816.46 196.52 814.14 194.4 810.84 194.65C807.21 194.92 804.99 197.34 805.38 201.04C805.72 204.28 808.05 206.01 811.42 206.27ZM746.61 340.61C752.88 340.64 757.87 335.78 757.99 329.52C758.12 323.26 753.33 318.16 747.1 317.93C740.83 317.7 735.65 322.41 735.32 328.62C734.96 335.2 740.04 340.59 746.61 340.61ZM746.54 274.81C752.9 274.9 756.16 271.17 756.82 264.53C756.18 258.83 753.19 254.86 746.75 254.85C740.43 254.85 736.73 258.4 736.67 264.72C736.61 271.04 740.2 274.72 746.54 274.81ZM714.59 110C718.24 109.34 720.68 107.31 720.54 103.57C720.4 99.8798 717.97 97.5199 714.25 97.6499C710.56 97.7799 708.22 100.21 708.33 103.94C708.44 107.66 710.95 109.59 714.59 110.01V110ZM714.38 176.68C719.32 176.32 722.7 173.89 722.8 168.35C722.89 163.34 720.24 160.19 715.19 159.84C709.85 159.47 706.41 162.14 706.08 167.62C705.76 173.01 708.66 176.04 714.37 176.69L714.38 176.68ZM778.88 240.59C783.92 240.62 786.43 237.47 787.02 232.61C786.42 227.74 783.9 224.61 778.87 224.64C773.89 224.67 770.9 227.64 770.91 232.62C770.91 237.6 773.9 240.57 778.88 240.59ZM747.01 208.62C752.11 208.49 754.61 205.41 754.99 200.45C754.65 195.47 752.17 192.35 747.08 192.18C741.66 192 738.45 194.88 738.43 200.36C738.41 205.84 741.57 208.76 747.01 208.62ZM778.57 371.86C784.5 372.26 789.34 367.35 789.29 361.4C789.24 355.74 784.83 351.24 779.18 351.08C773.23 350.91 768.22 355.65 768.5 361.59C768.8 367.84 772.33 371.44 778.57 371.87V371.86ZM778.89 306.75C784.72 305.95 788.46 302.87 788.36 296.83C788.26 291.25 784.8 287.75 779.25 287.58C773.28 287.4 769.54 290.92 769.4 296.88C769.26 302.91 773.06 305.98 778.9 306.75H778.89ZM746.28 142.2C750.36 142.41 752.47 139.87 753.1 135.59C752.44 132.47 750.71 129.85 747.03 129.72C742.98 129.57 740.48 131.96 740.42 135.99C740.36 139.64 742.68 142.02 746.29 142.21L746.28 142.2ZM486.48 604.75C496.35 605.18 504.71 597.47 505.03 587.63C505.35 577.76 497.56 569.5 487.71 569.28C478.15 569.07 470.1 576.5 469.58 586.01C469.04 595.87 476.67 604.32 486.49 604.75H486.48ZM390.47 571.63C400.67 571.72 408.87 563.76 409.07 553.56C409.27 543.36 401.39 535.07 391.2 534.76C381 534.45 372.63 542.25 372.21 552.44C371.78 562.95 379.95 571.54 390.47 571.63ZM325.79 506.95C336.19 507.15 344.3 499.31 344.4 488.96C344.5 478.57 336.59 470.56 326.21 470.55C315.83 470.55 307.91 478.55 308 488.95C308.09 499 315.76 506.76 325.79 506.95ZM358.27 539.77C368.49 539.86 377.25 531.15 377.21 520.92C377.17 510.68 368.35 502.01 358.15 502.18C348.21 502.34 339.83 510.68 339.62 520.63C339.39 530.82 348.02 539.67 358.27 539.77ZM422.81 603.16C432.73 603.18 440.69 595.18 440.6 585.25C440.52 575.65 432.88 567.88 423.29 567.66C413.35 567.43 405.22 575.25 405.1 585.17C404.97 595.1 412.89 603.14 422.81 603.17V603.16ZM329.38 341.99C318.87 341.23 310.34 348.64 309.88 358.9C309.43 369.08 316.69 377.25 326.63 377.78C336.79 378.32 345.08 371.13 345.7 361.24C346.34 351.06 339.24 342.69 329.38 341.98V341.99ZM455.07 573.98C465.25 573.98 474 565.42 474.25 555.21C474.5 544.75 465.58 535.63 455.08 535.63C444.9 535.63 436.14 544.19 435.89 554.4C435.64 564.86 444.56 573.98 455.06 573.98H455.07ZM360.49 309.54C350.41 309.33 342.42 316.67 341.93 326.59C341.42 337.02 348.91 345.35 359.16 345.76C369.56 346.17 377.83 338.57 378.14 328.32C378.46 317.93 370.77 309.75 360.49 309.54ZM294.14 474.09C303.56 473.99 311.51 465.98 311.54 456.57C311.57 447.18 303.63 439.12 294.22 438.97C284.87 438.82 276.69 446.7 276.42 456.09C276.14 465.74 284.47 474.19 294.14 474.09ZM295.87 374.6C286.52 374.43 278.27 382.42 278.1 391.82C277.93 401.17 285.92 409.42 295.32 409.6C304.67 409.77 312.92 401.77 313.1 392.38C313.27 383.03 305.27 374.78 295.87 374.6ZM519.79 573.24C529.99 573.08 537.99 564.94 537.94 554.73C537.9 544.51 529.85 536.44 519.63 536.37C509.12 536.3 500.8 544.78 501.07 555.29C501.33 565.49 509.58 573.4 519.79 573.24ZM649.73 442.15C658.9 442.28 666.09 435.33 666.22 426.2C666.35 417.03 659.4 409.84 650.27 409.71C641.09 409.58 633.91 416.53 633.77 425.66C633.64 434.83 640.6 442.02 649.73 442.15ZM649.72 111.63C654.69 111.74 657.8 108.78 657.87 103.82C657.95 98.7998 654.71 96.2999 649.39 95.6099C645.21 96.6099 641.87 98.9598 642.09 104.07C642.29 108.63 645.15 111.53 649.72 111.64V111.63ZM649.65 44.1299C652.79 44.2799 654.71 42.6202 654.81 39.4502C654.91 36.2702 653.06 34.6602 649.95 34.4102C646.82 34.7202 645.06 36.3898 645.18 39.5498C645.27 42.3098 646.89 43.9901 649.66 44.1201L649.65 44.1299ZM649.71 178.82C655.51 178.99 660.58 174.09 660.63 168.27C660.68 162.45 655.68 157.27 649.88 157.61C643.69 157.97 640.01 161.55 639.41 167.71C638.85 173.46 643.88 178.65 649.7 178.83L649.71 178.82ZM392.1 277.61C382.1 277.68 374.34 285.56 374.41 295.59C374.48 305.59 382.36 313.35 392.39 313.28C402.39 313.21 410.15 305.33 410.08 295.3C410.01 285.3 402.13 277.54 392.1 277.61ZM551.78 541.42C562.01 541.39 570.73 532.52 570.57 522.33C570.41 512.08 561.44 503.44 551.28 503.74C541.3 504.03 532.99 512.48 532.89 522.43C532.79 532.65 541.55 541.45 551.78 541.42ZM615.79 475.76C625.49 475.99 633.79 467.85 633.78 458.13C633.78 448.72 625.97 440.76 616.55 440.54C606.85 440.31 598.55 448.44 598.56 458.17C598.56 467.58 606.37 475.54 615.79 475.76ZM649.81 245.42C656.73 245.53 662.69 239.73 662.8 232.8C662.91 225.88 657.11 219.92 650.18 219.81C643.26 219.7 637.3 225.5 637.19 232.43C637.08 239.35 642.88 245.31 649.81 245.42ZM583.78 508.63C594.1 508.71 602.13 500.83 602.21 490.52C602.29 480.2 594.41 472.17 584.11 472.09C573.78 472.01 565.76 479.89 565.68 490.2C565.6 500.52 573.48 508.55 583.78 508.63ZM340.45 391.8C340.32 403.1 348.86 411.73 360.13 411.68C371.08 411.64 379.48 403.32 379.61 392.4C379.75 381.1 371.21 372.47 359.93 372.52C348.99 372.57 340.59 380.89 340.45 391.8ZM540.04 490.17C539.91 479.12 530.31 469.7 519.31 469.84C508.26 469.98 498.84 479.57 498.98 490.57C499.11 501.62 508.71 511.04 519.7 510.9C530.75 510.77 540.17 501.17 540.03 490.17H540.04ZM390.35 509.26C401.32 509.45 410.95 500.09 411.14 489.03C411.33 478.06 401.97 468.43 390.91 468.24C379.94 468.05 370.31 477.41 370.12 488.47C369.93 499.44 379.29 509.07 390.35 509.26ZM476.36 490.18C476.28 478.14 466.96 468.99 454.88 469.08C442.85 469.16 433.69 478.48 433.78 490.56C433.86 502.59 443.18 511.75 455.26 511.66C467.29 511.58 476.45 502.26 476.36 490.18ZM486.86 542.58C498.28 542.82 507.38 533.84 507.28 522.42C507.19 511.31 498.43 502.62 487.32 502.6C476.2 502.59 467.42 511.25 467.3 522.36C467.18 533.47 475.77 542.35 486.86 542.58ZM423.16 541.02C434.24 540.85 442.96 531.96 442.9 520.87C442.84 509.78 434.04 500.98 422.95 500.92C411.87 500.87 402.97 509.58 402.8 520.67C402.63 532.06 411.76 541.19 423.15 541.01L423.16 541.02ZM424.81 308.25C414.01 308.09 405.31 316.41 405.05 327.12C404.78 338.24 413.43 347.11 424.52 347.08C435.29 347.05 443.81 338.57 443.88 327.81C443.95 317.02 435.55 308.41 424.81 308.25ZM358.33 476.27C369.62 476.31 378.2 467.71 378.15 456.42C378.09 445.14 369.42 436.65 358.1 436.8C347.16 436.94 338.81 445.3 338.68 456.25C338.55 467.57 347.05 476.23 358.33 476.27ZM372.39 359.74C372.32 370.97 380.89 379.66 392.1 379.73C403.34 379.8 412.02 371.23 412.09 360.01C412.16 348.78 403.59 340.09 392.37 340.02C381.14 339.95 372.45 348.52 372.38 359.73L372.39 359.74ZM308.88 424.66C309.11 434.62 317.6 443.07 327.55 443.24C337.75 443.41 346.69 434.61 346.73 424.38C346.77 414.13 337.9 405.3 327.66 405.4C317.43 405.5 308.65 414.5 308.88 424.67V424.66ZM552.8 311.13C542.81 311.37 535.23 319.17 535.19 329.21C535.16 339.58 543.1 347.49 553.47 347.42C563.82 347.35 571.64 339.33 571.48 328.94C571.32 318.63 563.19 310.87 552.8 311.13ZM521.88 279.19C511.52 278.83 503.33 286.62 503.26 296.9C503.18 306.89 510.83 314.76 520.77 314.93C530.77 315.09 538.74 307.52 538.99 297.61C539.24 287.59 531.76 279.54 521.88 279.19ZM425.06 246.05C415.75 245.67 407.42 253.63 407.3 263.04C407.18 272.1 414.75 280.03 423.89 280.4C433.2 280.78 441.53 272.82 441.65 263.41C441.77 254.35 434.2 246.42 425.06 246.05ZM489.63 247.57C480.41 247.1 471.98 254.95 471.63 264.32C471.29 273.57 479.24 281.91 488.59 282.12C497.89 282.33 506.11 274.32 506.19 264.97C506.27 255.97 498.72 248.05 489.64 247.58L489.63 247.57ZM456.95 278.54C446.78 278.38 438.44 286.4 438.17 296.58C437.89 307.04 446.34 315.64 456.81 315.56C466.97 315.48 475.15 307.28 475.19 297.12C475.23 286.95 467.12 278.69 456.94 278.54H456.95ZM571.54 457.97C571.45 446.76 562.8 438.25 551.55 438.34C540.34 438.42 531.83 447.09 531.92 458.33C532 469.54 540.66 478.05 551.91 477.97C563.13 477.88 571.63 469.22 571.55 457.98L571.54 457.97ZM585.88 343.56C575.76 343.41 567.85 350.95 567.62 360.97C567.38 371.41 575.24 379.46 585.64 379.43C595.7 379.39 603.44 371.67 603.49 361.62C603.55 351.51 595.94 343.7 585.88 343.56ZM585.41 444.81C595.64 444.92 604.47 436.12 604.44 425.88C604.4 415.64 595.5 406.88 585.31 407.05C575.36 407.21 566.91 415.62 566.68 425.58C566.44 435.75 575.18 444.71 585.41 444.81ZM617.45 411.21C626.78 411.42 635.07 403.44 635.28 394.04C635.48 384.71 627.5 376.42 618.11 376.21C608.78 376 600.49 383.98 600.28 393.38C600.08 402.71 608.06 411 617.45 411.21ZM584.86 113.07C590.83 113.52 594.05 109.8 595.11 104.11C594.6 98.5699 591.76 94.7899 586.27 94.4199C580.34 94.0199 576.52 97.5599 576.23 103.44C575.95 108.98 579.41 112.66 584.86 113.07ZM616.29 571.98C607.96 571.92 601.48 578.04 601.13 586.3C600.76 594.95 607.07 601.79 615.65 602.06C624.3 602.32 631.04 595.94 631.21 587.33C631.37 578.69 624.91 572.04 616.29 571.97V571.98ZM616.77 705.09C611.1 704.73 605.73 709.54 605.37 715.29C605.01 720.96 609.81 726.33 615.57 726.69C621.24 727.05 626.61 722.25 626.97 716.49C627.33 710.82 622.53 705.45 616.77 705.09ZM615.62 839.99C612.94 840.25 611.33 841.98 611.37 844.73C611.41 847.85 613.2 849.64 616.31 849.55C619.45 849.46 620.92 847.49 621.02 844.41C620.5 841.35 618.69 839.7 615.61 839.99H615.62ZM616.68 638.46C609.23 638.2 603.32 643.74 603.16 651.15C603 658.6 608.62 664.41 616.05 664.47C623.51 664.53 629.21 658.84 629.17 651.39C629.13 644.26 623.77 638.72 616.68 638.47V638.46ZM616.83 772.46C611.86 772.07 608.64 774.96 608.29 779.87C607.95 784.89 611.1 787.53 615.88 788.41C620.77 787.89 623.96 785.42 624.06 780.4C624.15 775.79 621.32 772.81 616.82 772.46H616.83ZM583.9 738.11C577.7 738.75 574 741.96 574.12 748.35C574.24 754.29 577.67 757.78 583.59 757.93C589.9 758.09 593.64 754.62 593.77 748.26C593.89 741.87 590.12 738.7 583.9 738.11ZM583.57 670.93C576.74 671.16 570.98 677.28 571.2 684.06C571.43 690.89 577.55 696.65 584.33 696.43C591.16 696.21 596.92 690.08 596.7 683.3C596.47 676.47 590.35 670.71 583.57 670.93ZM583.98 805.67C579.49 805.7 576.99 808.26 577.07 812.73C577.15 817.26 579.91 819.37 584.25 819.53C588.81 819 591.11 816.41 590.83 812C590.58 807.93 588.05 805.65 583.98 805.68V805.67ZM584.64 604.4C575.89 604.06 569.15 610.46 569.1 619.16C569.06 627.56 575.29 633.95 583.66 634.09C592.07 634.22 598.56 628.06 598.79 619.73C599.02 611.3 592.94 604.72 584.63 604.4H584.64ZM681.24 640.2C675.15 639.86 669.69 644.73 669.35 650.84C669 656.93 673.88 662.38 679.98 662.73C686.07 663.07 691.52 658.2 691.87 652.1C692.21 646.01 687.34 640.55 681.24 640.21V640.2ZM615.69 506.02C606.57 506.24 599.66 513.3 599.6 522.46C599.53 531.97 606.73 539.19 616.24 539.15C625.73 539.11 632.87 531.82 632.73 522.31C632.6 512.86 625.19 505.78 615.69 506.02ZM680.96 773.93C677.2 774.17 674.69 776.06 674.36 779.68C673.98 783.73 676.3 786.35 680.35 786.61C684.05 786.85 686.5 784.59 686.86 780.99C687.27 776.9 684.81 774.67 680.96 773.93ZM680.71 706.92C675.52 706.8 672.03 710.05 671.66 715.2C671.26 720.8 674.59 724.51 680.1 724.85C685.67 725.2 688.84 721.7 689.73 716.1C689.2 710.68 686.3 707.05 680.7 706.92H680.71ZM648.54 540.04C640.19 539.97 633.79 546.15 633.63 554.45C633.46 563.12 639.98 569.68 648.64 569.56C656.95 569.44 663.17 563.09 663.15 554.75C663.12 546.4 656.88 540.11 648.54 540.04ZM648.3 474.33C639.66 474.38 632.41 481.61 632.34 490.26C632.27 499.2 639.95 506.7 648.87 506.41C657.5 506.13 664.58 498.7 664.42 490.08C664.26 481.45 656.92 474.28 648.29 474.33H648.3ZM648.57 739.68C643.22 739.6 640.05 742.55 639.95 747.93C639.85 753.28 642.82 756.43 648.2 756.55C653.58 756.66 656.42 753.61 656.93 748.28C656.61 743 653.98 739.76 648.56 739.68H648.57ZM648.33 806.96C644.61 807.08 642.46 809.47 642.83 813.19C643.15 816.5 645.51 818.42 648.83 818.15C652.13 817.88 653.87 815.64 654.07 812.47C653.58 808.99 651.66 806.86 648.33 806.97V806.96ZM648.32 672.49C642.31 672.53 637.16 677.74 637.19 683.74C637.23 689.75 642.44 694.91 648.44 694.87C654.45 694.83 659.61 689.62 659.57 683.62C659.53 677.61 654.32 672.45 648.32 672.49ZM102.44 204.65C105.68 204.16 107.94 202.33 108.02 199.05C108.12 195.37 105.81 192.97 102.15 193.05C98.49 193.13 96.25 195.64 96.54 199.3C96.79 202.53 99.0901 204.35 102.44 204.64V204.65ZM583.8 537.74C574.61 537.83 566.92 545.57 566.89 554.75C566.85 564.23 575.06 572.21 584.5 571.86C593.7 571.52 601.22 563.59 601.01 554.45C600.8 545.26 592.96 537.65 583.8 537.74ZM487.02 770.79C481.08 770.97 477.6 774.66 477.75 780.61C477.9 786.6 481.74 789.54 487.61 790.08C493.35 789.17 497.05 786.06 496.84 780.05C496.63 774.11 492.96 770.61 487.02 770.79ZM455.2 602.76C445.93 602.7 438.84 609.52 438.6 618.72C438.35 628.32 445.42 635.67 454.96 635.73C464.23 635.79 471.32 628.97 471.56 619.77C471.81 610.18 464.73 602.82 455.2 602.76ZM487.42 838.42C483.74 838.29 481.35 840.46 480.97 844.05C480.55 848.08 482.77 850.74 486.76 851.1C490.82 851.46 493.04 849.03 493.76 845.14C493.47 841.12 491.49 838.57 487.41 838.42H487.42ZM487 703.29C480.5 703.47 474.76 709.3 474.7 715.79C474.63 722.59 480.82 728.68 487.6 728.5C494.1 728.33 499.84 722.49 499.91 716C499.98 709.21 493.79 703.11 487.01 703.29H487ZM455.36 736.9C449.33 736.74 444.02 741.78 443.86 747.82C443.7 753.85 448.74 759.16 454.78 759.32C460.81 759.48 466.11 754.44 466.28 748.4C466.44 742.37 461.4 737.07 455.36 736.9ZM454.92 804.55C449.9 804.69 446.99 807.69 447.08 812.7C447.17 817.71 450.2 820.61 455.22 820.55C460.28 820.48 462.74 817.31 463.28 811.81C462.4 807.67 460.03 804.41 454.91 804.55H454.92ZM454.88 872.34C452.14 872.52 450.38 874.24 450.44 876.99C450.51 880.13 452.54 881.96 455.65 881.61C458.3 881.31 459.75 879.39 459.8 876.17C459.04 874.15 457.76 872.15 454.88 872.34ZM455.04 669.61C447.73 669.63 441.22 675.98 441 683.31C440.77 690.9 447.48 697.77 455.11 697.75C462.42 697.73 468.92 691.39 469.15 684.05C469.39 676.47 462.67 669.59 455.05 669.61H455.04ZM486.89 636.36C478.59 636.56 472.3 642.93 472.19 651.25C472.08 659.9 478.65 666.55 487.28 666.55C495.92 666.55 502.49 659.9 502.38 651.26C502.27 642.64 495.53 636.15 486.88 636.36H486.89ZM551.93 771.28C546.41 771.16 542.81 774.63 542.68 780.13C542.55 785.65 546.03 789.24 551.53 789.39C557.07 789.54 560.12 785.98 560.96 780.47C560.36 775.07 557.46 771.4 551.93 771.28ZM551.39 570.35C542.25 570.52 535.19 577.61 535.06 586.76C534.93 596.26 542.18 603.66 551.67 603.69C561.16 603.72 568.47 596.37 568.4 586.88C568.32 577.41 560.88 570.17 551.39 570.35ZM551.75 838.87C548.45 838.79 546.18 840.97 545.85 844.17C545.48 847.85 547.75 850.35 551.31 850.65C554.97 850.96 557.05 848.56 557.74 844.92C557.32 841.38 555.4 838.97 551.74 838.88L551.75 838.87ZM552.39 704.1C545.71 703.76 540.39 708.43 539.96 715.04C539.5 722.05 544.51 727.56 551.47 727.7C558.16 727.83 563.3 723 563.53 716.36C563.77 709.68 559 704.43 552.39 704.1ZM519.59 872.58C517.16 872.48 515.53 874.12 515.16 876.33C514.7 879.1 516.47 880.99 519.05 881.35C521.8 881.73 523.32 879.83 524.1 876.9C523.56 874.7 522.39 872.69 519.58 872.58H519.59ZM551.84 636.99C543.68 636.93 536.98 643.79 537.26 651.95C537.52 659.79 544.18 666.08 552.02 665.92C559.87 665.76 566.25 659.21 566.2 651.36C566.15 643.51 559.69 637.04 551.84 636.98V636.99ZM519.64 737.1C513.71 737.02 508.33 742.47 508.49 748.39C508.65 754.04 513.73 759.06 519.37 759.14C525.3 759.22 530.68 753.77 530.52 747.85C530.36 742.2 525.28 737.18 519.64 737.1ZM520.22 603.11C511.2 602.73 503.64 609.74 503.38 618.73C503.11 627.76 510.19 635.21 519.2 635.37C528.23 635.53 535.58 628.37 535.64 619.35C535.69 610.64 528.89 603.47 520.22 603.11ZM519.7 804.73C514.64 804.65 512.11 807.89 511.49 812.7C512.25 817.26 514.69 820.35 519.32 820.39C524.32 820.42 527.4 817.35 527.33 812.35C527.26 807.77 524.29 804.81 519.7 804.74V804.73ZM519.37 670.14C512.02 670.22 506.2 675.9 505.97 683.22C505.73 690.89 511.61 697.08 519.26 697.22C526.91 697.36 533.03 691.39 533.06 683.73C533.1 676.08 527.03 670.05 519.38 670.13L519.37 670.14ZM809.46 513.74C804.16 514.24 800.85 517.07 800.76 522.41C800.67 527.73 803.8 531.13 809.11 531.29C814.83 531.46 818.27 528.08 818.2 522.35C818.13 517.01 814.75 514.2 809.46 513.73V513.74ZM423.08 634.69C414.46 634.56 407.71 641.2 407.69 649.82C407.68 658.12 413.95 664.68 422.22 665.01C430.83 665.35 437.78 658.86 438.01 650.28C438.24 641.66 431.68 634.81 423.08 634.69ZM809.62 448.8C804.55 448.42 799.56 453.57 800.12 458.6C800.73 464.15 804.21 467.06 809.7 467.63C815.17 466.72 818.82 463.7 818.76 458.1C818.71 452.54 815.18 449.22 809.62 448.8ZM810.96 384.39C805.45 385.25 801.82 388.3 801.96 393.89C802.09 399.43 805.7 402.96 811.27 402.84C816.81 402.72 820.33 399.1 820.23 393.53C820.13 387.95 816.42 385.03 810.97 384.38L810.96 384.39ZM809.48 579.08C804.93 579.73 801.83 582.16 801.71 586.83C801.59 591.5 804.51 594.58 809.08 594.77C814.1 594.98 817.27 591.86 817.23 586.83C817.19 582.18 814.03 579.74 809.48 579.09V579.08ZM777.46 479.61C771.74 479.49 766.62 484.4 766.5 490.16C766.38 495.89 771.29 501 777.05 501.12C782.78 501.24 787.89 496.32 788.01 490.57C788.13 484.84 783.21 479.73 777.45 479.61H777.46ZM841.72 613.6C838.71 613.85 836.36 615.43 836.17 618.89C835.98 622.3 837.94 624.55 841.35 624.76C844.76 624.97 847.01 622.99 847.22 619.58C847.43 616.18 845.44 614.17 841.72 613.59V613.6ZM778.78 415C773.07 415.06 768.01 420.11 767.94 425.83C767.88 431.53 772.84 436.68 778.56 436.87C784.52 437.06 789.98 431.61 789.8 425.64C789.62 419.92 784.47 414.95 778.77 415H778.78ZM809.48 711.87C807.03 711.87 805.46 713.44 805.46 715.89C805.46 718.34 807.03 719.91 809.48 719.91C811.95 719.91 813.27 718.32 813.58 715.89C813.27 713.45 811.94 711.85 809.48 711.86V711.87ZM809.5 645.18C805.43 645.26 803.02 647.76 803.21 651.83C803.38 655.47 805.77 657.77 809.45 657.73C813.55 657.69 815.56 655.09 815.88 651.12C815.19 647.52 813.21 645.11 809.49 645.18H809.5ZM841.52 482.75C836.93 482.89 833.96 485.93 834.09 490.54C834.21 495.12 837.27 498.08 841.88 497.98C846.5 497.87 848.92 494.73 849.5 490.22C848.69 485.69 846.17 482.61 841.52 482.75ZM874.11 452.03C870.38 451.95 867.95 454.26 867.81 457.95C867.68 461.67 870.03 464.1 873.72 464.25C877.47 464.4 879.49 461.95 880.23 457.96C879.59 454.81 877.91 452.11 874.11 452.03ZM906.14 486.34C903.69 486.34 902.12 487.91 902.12 490.37C902.12 492.82 903.69 494.38 906.14 494.39C908.61 494.39 909.93 492.8 910.24 490.37C909.93 487.94 908.6 486.34 906.14 486.34ZM875.81 387.82C872.14 387.7 869.71 389.99 869.64 393.62C869.56 397.29 872.03 399.24 875.59 399.73C879.21 399.11 881.56 397.09 881.42 393.41C881.29 390.16 879.07 387.93 875.81 387.82ZM908.17 421.72C905.45 421.51 903.65 423.18 903.53 425.9C903.42 428.29 905.06 429.93 907.33 430.14C910.08 430.4 911.58 428.62 912.12 425.77C911.69 423.7 910.5 421.91 908.18 421.73L908.17 421.72ZM841.7 548.14C837.22 548.19 834.87 550.77 835.04 555.19C835.2 559.25 837.63 561.49 841.68 561.46C846.19 561.43 848.28 558.79 848.43 554.43C847.94 550.42 845.76 548.09 841.69 548.14H841.7ZM874.02 516.99C870.28 516.99 868.08 519.37 868.33 523.06C868.56 526.34 870.85 528.36 874.2 528.18C877.52 528 879.31 525.83 879.59 522.49C879.19 519.16 877.34 516.99 874.01 516.99H874.02ZM777.75 545.13C771.76 544.86 768.17 548.14 767.55 554.11C766.96 559.83 771.43 564.62 777.16 564.52C783.23 564.42 786.31 560.94 787.11 555.18C786.69 549.19 783.79 545.39 777.75 545.12V545.13ZM843.38 418.18C838.76 418.18 835.69 421.08 835.59 425.66C835.48 430.66 838.63 433.79 843.64 433.65C848.25 433.53 850.67 430.35 851.27 425.47C850.38 421.4 848.07 418.19 843.38 418.19V418.18ZM874.38 582.39C871.6 582.06 869.66 583.72 869.31 586.36C868.9 589.48 870.71 591.51 873.84 591.66C876.61 591.79 878.12 589.97 878.65 587.31C878.51 584.54 877.07 582.71 874.38 582.39ZM680.88 508.19C673.11 508.03 666.37 514.52 666.21 522.31C666.05 530.08 672.53 536.82 680.33 536.98C688.1 537.14 694.83 530.66 695 522.86C695.16 515.09 688.67 508.35 680.88 508.19ZM713.12 608.1C707.13 607.93 701.52 613.14 701.75 619.14C701.99 625.65 705.74 629.53 712.14 630.31C718.03 631.02 723.67 625.74 723.96 619.74C724.25 613.78 719.13 608.28 713.12 608.1ZM712.78 542.15C706.01 542.18 700.02 548.3 700.17 555.05C700.31 561.5 706.01 567.25 712.47 567.46C719.19 567.68 725.38 561.74 725.48 554.96C725.57 548.21 719.53 542.12 712.78 542.15ZM713.24 477.07C705.7 476.87 699.83 482.3 699.53 489.75C699.22 497.59 705.01 503.65 712.81 503.66C720.32 503.66 726.01 498.07 726.12 490.58C726.23 483.05 720.72 477.27 713.24 477.07ZM714.32 412.39C706.98 412.45 701.14 418.13 700.89 425.45C700.63 433.12 706.5 439.33 714.15 439.48C721.81 439.63 727.93 433.67 727.98 426.02C728.02 418.37 721.97 412.33 714.32 412.39ZM713.02 674.58C707.47 674.46 703.86 677.96 703.72 683.48C703.59 689.03 707.09 692.63 712.62 692.78C718.2 692.93 721.24 689.34 722.11 683.83C721.49 678.4 718.58 674.7 713.02 674.58ZM713.12 741.59C708.67 741.46 706.18 743.95 706.29 748.41C706.39 752.5 708.92 754.48 713.54 754.79C716.72 754.17 719.39 752.41 719.37 748.21C719.36 744.15 717.17 741.7 713.11 741.58L713.12 741.59ZM681.64 574.08C674.17 573.53 667.96 578.98 667.63 586.39C667.3 593.87 672.92 599.87 680.37 600C687.53 600.12 693.26 594.77 693.57 587.66C693.89 580.5 688.7 574.6 681.64 574.08ZM777.14 610.89C772.12 610.97 769.13 613.75 768.93 618.77C768.72 624.14 771.52 627.4 776.98 627.57C782.41 627.73 785.24 624.69 785.73 618.95C785.22 614.07 782.68 610.81 777.13 610.9L777.14 610.89ZM682.49 379.02C674.14 378.89 667.66 385.13 667.52 393.43C667.39 401.78 673.63 408.26 681.93 408.39C690.28 408.52 696.76 402.28 696.9 393.98C697.03 385.63 690.79 379.15 682.49 379.02ZM680.98 443.3C672.25 443.12 665.65 449.65 665.77 458.37C665.88 466.75 672.24 473 680.64 472.98C689.04 472.97 695.37 466.69 695.46 458.31C695.54 449.91 689.34 443.46 680.99 443.29L680.98 443.3ZM777.35 743.61C774.71 744.01 772.89 745.44 772.86 748.19C772.83 750.58 774.51 752.23 776.75 752.49C779.5 752.81 781.38 751.06 781.63 748.42C781.88 745.67 780 744.18 777.35 743.61ZM747.03 381.55C740.35 381.33 734.59 386.82 734.49 393.53C734.38 400.23 739.97 405.89 746.67 405.88C753.38 405.87 758.95 400.19 758.82 393.5C758.7 387.11 753.43 381.77 747.04 381.56L747.03 381.55ZM745.24 445.77C738.69 445.65 732.78 451.36 732.66 457.95C732.54 464.5 738.26 470.41 744.84 470.53C751.39 470.65 757.3 464.94 757.42 458.35C757.54 451.8 751.83 445.89 745.24 445.77ZM777.1 677.14C773.04 677.25 770.71 679.59 770.72 683.64C770.75 688.14 773.4 690.47 777.8 690.2C781.87 689.96 783.76 687.32 783.88 683.23C783.35 679.35 781.17 677.03 777.09 677.14H777.1ZM744.79 576.39C738.96 576.54 733.93 581.71 734.47 587.48C735.04 593.63 738.71 597.23 744.9 597.61C750.7 597.97 755.71 592.8 755.68 586.98C755.65 581.16 750.6 576.25 744.79 576.4V576.39ZM745.76 642.56C740.18 642.14 736.48 645.44 736.12 650.93C735.76 656.48 739.21 659.66 744.82 660.55C750.21 660.06 753.83 657.18 753.97 651.6C754.1 646.42 750.9 642.95 745.76 642.56ZM745.05 709.24C741 709.2 738.57 711.43 738.39 715.5C738.19 719.96 740.63 722.29 744.97 722.65C749.04 722.38 751.55 720.38 751.7 716.3C751.87 711.88 749.54 709.3 745.05 709.24ZM745.67 776.04C742.87 775.66 741.02 777.39 740.73 780.11C740.46 782.58 742.18 784.28 744.43 784.63C747.24 785.07 748.8 783.21 749.57 780.25C749.17 778.24 748.01 776.36 745.68 776.04H745.67ZM745.69 510.99C738.98 510.67 733.77 515.32 733.45 521.93C733.13 528.64 737.78 533.85 744.39 534.17C751.1 534.49 756.31 529.84 756.63 523.23C756.95 516.52 752.3 511.31 745.69 510.99ZM648.54 606.13C641.03 606.05 635.35 611.6 635.27 619.08C635.19 626.59 640.74 632.27 648.22 632.35C655.73 632.43 661.41 626.88 661.49 619.39C661.57 611.88 656.02 606.2 648.53 606.12L648.54 606.13ZM133.08 609.4C127.62 609.36 124.6 612.38 124.66 617.83C124.73 622.89 127.63 625.77 132.69 625.85C138.19 625.93 140.88 622.78 141.23 617.45C140.74 612.44 138.16 609.43 133.07 609.39L133.08 609.4ZM132.55 675.56C128.42 675.76 126.2 678.3 126.38 682.4C126.57 686.57 129.16 688.5 133.29 688.67C137.28 688.1 139.61 685.86 139.4 681.73C139.19 677.59 136.66 675.37 132.56 675.56H132.55ZM133.45 543.5C127.74 542.98 123.01 547.5 123.19 553.23C123.38 559.29 126.9 562.31 131.73 562.92C138.14 563.02 142.59 558.94 142.59 553.56C142.59 547.57 139.41 544.05 133.45 543.51V543.5ZM133.27 742.12C130.52 741.91 128.67 743.65 128.52 746.32C128.36 749.08 130.27 750.51 133.27 751.08C135.33 750.3 137.44 749.16 137.3 746.29C137.18 743.93 135.56 742.29 133.28 742.12H133.27ZM101.08 643.61C97.04 643.4 94.52 645.79 94.42 649.82C94.34 653.48 96.65 655.86 100.25 656.08C104.33 656.32 106.44 653.79 107.05 649.93C106.62 646.25 104.71 643.78 101.08 643.6V643.61ZM102.42 382.84C96.86 382.76 93.52 386.26 92.96 391.77C92.46 396.77 97.53 401.87 102.54 401.43C108.1 400.94 111.04 397.51 111.73 392.05C110.95 386.59 107.97 382.92 102.41 382.85L102.42 382.84ZM100.5 577.5C95.99 578.27 92.9301 580.74 92.9301 585.39C92.9301 590 95.8601 593.06 100.45 593.13C105.45 593.21 108.56 590.04 108.39 585.04C108.23 580.45 105.06 578.03 100.5 577.5ZM100.29 512.46C94.89 512.68 91.95 516 92.16 521.35C92.37 526.76 95.69 529.68 101.05 529.49C106.48 529.29 109.07 525.91 109.3 520.63C108.66 515.25 105.67 512.24 100.29 512.46ZM100.83 447.28C95.27 447.19 91.92 450.68 91.35 456.18C90.83 461.18 95.88 466.28 100.9 465.86C106.47 465.39 109.4 461.96 110.12 456.5C109.35 451.03 106.39 447.36 100.83 447.27V447.28ZM132.9 478.18C126.71 478.46 122.99 482.01 122.31 488.15C121.68 493.89 126.65 499.15 132.47 499.39C138.26 499.63 143.39 494.8 143.52 488.97C143.64 483.16 138.71 477.92 132.9 478.18ZM166.41 379.88C160.04 380.05 154.67 385.42 154.5 391.8C154.32 398.47 159.93 404.26 166.62 404.32C173.3 404.38 179 398.68 178.93 392C178.87 385.31 173.07 379.71 166.41 379.89V379.88ZM164.84 444.32C158.47 444.48 153.08 449.83 152.89 456.2C152.69 462.86 158.28 468.67 164.97 468.75C171.65 468.83 177.36 463.15 177.32 456.47C177.28 449.78 171.51 444.16 164.84 444.32ZM197.47 739.96C193.42 739.89 190.94 742.1 190.8 746.16C190.64 750.61 193.11 753.12 197.58 753.03C201.67 752.95 203.67 750.44 203.97 746.44C203.61 742.45 201.58 740.02 197.48 739.96H197.47ZM165.65 509.47C158.96 509.19 153.78 513.99 153.6 520.63C153.43 527.32 158.29 532.4 164.96 532.48C171.65 532.56 176.63 527.61 176.61 520.93C176.58 514.57 171.97 509.74 165.66 509.48L165.65 509.47ZM165.88 574.86C160.15 574.15 154.81 579.01 154.47 584.82C154.13 590.59 158.9 595.81 164.72 596.04C170.51 596.26 175.85 591.4 175.68 585.59C175.49 579.4 172.03 575.62 165.88 574.86ZM164.82 774.51C162.19 774.83 160.49 776.64 160.94 779.39C161.3 781.63 163 782.93 165.4 783.03C167.96 782.34 169.74 780.82 169.28 778.05C168.91 775.82 167.22 774.21 164.82 774.5V774.51ZM165.11 707.63C161.06 707.59 158.64 709.82 158.45 713.89C158.25 718.35 160.69 720.68 165.03 721.04C169.1 720.77 171.6 718.77 171.76 714.69C171.93 710.27 169.6 707.69 165.11 707.63ZM135.31 413.41C129.67 412.93 124.23 417.54 123.63 423.31C123.01 429.24 128.05 434.99 134.1 435.24C139.73 435.48 145.08 430.62 145.44 424.92C145.8 419.3 141.04 413.89 135.32 413.41H135.31ZM165.55 640.98C159.92 640.77 156.34 644.15 156.24 649.8C156.15 655.05 159.45 658.5 164.66 658.71C170.31 658.94 173.43 655.49 174.12 649.94C173.59 644.66 170.78 641.18 165.54 640.98H165.55ZM422.69 701.59C416.19 701.69 410.41 707.34 410.16 713.85C409.9 720.62 415.8 726.84 422.62 726.98C429.41 727.12 435.53 721.13 435.55 714.32C435.57 707.52 429.48 701.49 422.68 701.59H422.69ZM4.02002 484.73C1.56002 484.73 0 486.3 0 488.75C0 491.22 1.59002 492.54 4.02002 492.85C6.45002 492.54 8.05005 491.21 8.05005 488.75C8.05005 486.3 6.48003 484.73 4.03003 484.73H4.02002ZM37.83 332.97C40.61 332.87 42.75 331.47 43.05 328.35C43.37 324.93 41.71 322.66 38.13 322.44C35.03 322.25 32.95 323.88 32.64 326.98C32.3 330.4 34 332.52 37.83 332.96V332.97ZM5.87 363.81C8.29 363.65 9.71005 362.07 9.55005 359.63C9.39005 357.2 7.79996 355.99 5.45996 355.88C2.95996 356.28 1.53006 357.68 1.69006 360.12C1.85006 362.55 3.43 363.96 5.87 363.8V363.81ZM69.91 367.29C74.54 367.4 77.04 364.4 77.63 359.85C76.99 355.27 74.47 352.35 69.83 352.45C65.6 352.54 62.8 355.32 62.65 359.52C62.49 364.14 65.31 367.18 69.92 367.29H69.91ZM37.75 267.55C40.2 267.71 41.89 266 42.15 263.71C42.46 260.91 40.63 259.36 37.98 258.8C35.49 259.04 33.77 260.45 33.53 262.74C33.24 265.52 34.99 267.37 37.74 267.55H37.75ZM101.81 336.01C107.22 336.28 110.19 333.33 110.75 327.94C110.48 322.58 107.85 319.37 102.36 319.29C97.34 319.22 94.2301 321.95 93.9301 326.98C93.6101 332.33 96.3201 335.73 101.81 336V336.01ZM101.82 270.64C106.44 270.88 109.51 268.08 109.69 263.49C109.88 258.86 106.91 256.31 102.32 255.66C97.7901 256.23 94.84 258.71 94.86 263.35C94.87 267.6 97.6401 270.42 101.82 270.64ZM69.9301 236.01C73.1501 236.08 74.86 234.34 75.11 231.08C74.98 227.96 73.4301 226.06 70.1801 226.01C66.9801 225.95 65.1201 227.65 65.0601 230.89C64.9901 234.09 66.7101 235.95 69.9301 236.02V236.01ZM69.29 301.82C73.38 302.26 76.0801 300.11 76.4501 296.02C76.8301 291.91 74.46 289.61 70.48 288.93C66.38 289.15 63.81 291.11 63.65 295.28C63.5 299.02 65.61 301.44 69.29 301.83V301.82ZM35.64 580.73C33.61 581.54 31.4901 582.74 31.7001 585.6C31.9001 588.31 33.66 590.07 36.42 589.93C39.11 589.78 40.87 587.99 40.74 585.22C40.61 582.49 38.75 581.07 35.64 580.73ZM67.99 481.33C63.8 481.57 61.03 484.37 61.03 488.62C61.03 493.24 63.91 496.2 68.52 496.17C73.15 496.14 75.56 493.06 76.03 488.48C75.21 483.99 72.65 481.07 67.99 481.33ZM68.47 546.66C63.97 546.7 61.65 549.36 61.92 553.76C62.17 557.83 64.81 559.72 69.55 559.83C72.57 559.07 75.17 557.2 74.99 553.02C74.83 548.96 72.52 546.63 68.46 546.66H68.47ZM68.74 612.41C65.64 612.22 63.56 613.85 63.26 616.95C62.92 620.37 64.6201 622.49 68.4401 622.94C71.2201 622.84 73.36 621.44 73.66 618.32C73.98 614.91 72.32 612.63 68.74 612.42V612.41ZM69.9301 416.38C65.4001 417.12 62.32 419.58 62.29 424.25C62.26 428.9 65.18 431.96 69.78 432.06C74.81 432.17 77.94 429.01 77.8 423.99C77.68 419.36 74.5 416.93 69.92 416.38H69.9301ZM35.62 515.63C32.6 515.91 30.81 517.92 30.87 521C30.95 524.48 33.03 526.21 36.61 526.42C39.85 525.91 41.85 524.01 41.59 520.55C41.33 517.07 39.01 515.31 35.62 515.62V515.63ZM37.65 386.09C34.04 386.24 31.7 388.65 31.85 392.29C31.99 395.9 34.4 398.22 38.05 398.1C41.69 397.98 43.59 395.49 44 391.94C43.33 388.35 41.32 385.94 37.65 386.09ZM5.77002 419.92C3.35002 419.74 1.71004 421.4 1.29004 423.6C0.770039 426.39 2.54998 428.27 5.09998 428.67C7.84998 429.1 9.39 427.2 10.12 424.62C9.88 421.94 8.47001 420.12 5.76001 419.92H5.77002ZM197.53 672.96C191.98 672.86 188.37 676.34 188.23 681.86C188.1 687.41 191.6 691.01 197.13 691.16C202.71 691.31 205.75 687.72 206.65 681.98C205.92 676.85 203.12 673.05 197.53 672.96ZM36.4301 450.54C32.7901 450.4 30.38 452.74 30.23 456.35C30.08 460.02 32.49 462.02 36.4 462.75C39.51 462.14 42.16 460.44 42.25 456.74C42.34 453.09 40.0401 450.68 36.4301 450.54ZM100.94 710.25C98.4701 710.09 96.84 711.6 96.65 714.01C96.46 716.48 97.99 718.11 100.41 718.3C102.88 718.5 104.29 716.94 104.85 714.12C104.49 712.23 103.43 710.41 100.95 710.25H100.94ZM326.38 602.78C317.98 602.7 311.53 608.9 311.36 617.24C311.18 625.66 317.31 632.2 325.62 632.47C334.37 632.75 341.06 626.31 341.05 617.6C341.05 609.21 334.77 602.87 326.39 602.78H326.38ZM358.04 602.08C367.53 602.27 374.99 595.05 375.08 585.58C375.17 576.09 367.88 568.72 358.39 568.74C349.22 568.75 342.03 575.7 341.74 584.83C341.45 594.32 348.59 601.89 358.04 602.08ZM197.91 606.49C191.96 606.15 186.42 611.25 186.19 617.25C185.97 623.22 191.15 628.89 197.15 628.71C203.66 628.51 207.57 624.8 208.39 618.41C209.15 612.52 203.91 606.84 197.91 606.5V606.49ZM326.29 669.3C319.44 669.25 313.49 675.11 313.43 681.98C313.38 688.84 319.24 694.78 326.11 694.84C332.97 694.89 338.91 689.03 338.97 682.16C339.02 675.31 333.15 669.36 326.29 669.3ZM326.4 570.13C335.62 570.01 343.13 562.41 343.13 553.2C343.13 543.98 335.62 536.38 326.4 536.27C317.19 536.15 309.5 543.57 309.27 552.8C309.03 562.31 316.88 570.25 326.4 570.13ZM294.04 570.42C285.66 570.39 279.22 576.61 278.99 584.95C278.75 593.67 285.23 600.36 293.92 600.4C302.3 600.43 308.74 594.21 308.97 585.87C309.21 577.15 302.73 570.46 294.04 570.42ZM358.22 769.62C352.69 769.77 349.19 773.37 349.32 778.92C349.45 784.44 353.06 787.94 358.62 787.82C364.18 787.7 367.09 784.01 367.72 778.43C366.8 773.1 363.8 769.46 358.22 769.61V769.62ZM326.32 736.65C319.96 736.63 316.33 740.22 316.35 746.58C316.37 753.01 320.25 756.08 326.97 756.56C332.55 755.6 336.38 752.48 336.07 746.03C335.79 740.08 332.28 736.67 326.32 736.65ZM326.04 804.05C321.96 804.09 319.49 806.43 319.31 810.5C319.11 814.92 321.43 817.68 325.95 817.82C330.43 817.96 332.81 815.43 333.17 810.96C332.85 806.54 330.54 804 326.04 804.05ZM390.47 802.89C385.89 803.64 382.8 806.08 382.77 810.76C382.74 815.8 385.81 818.87 390.85 818.8C395.48 818.73 398.42 815.77 398.5 811.13C398.58 806.03 395.34 803.5 390.48 802.9L390.47 802.89ZM423.1 836.63C419.04 836.95 416.51 838.96 416.44 843.14C416.38 846.89 418.56 849.25 422.23 849.56C426.31 849.9 428.97 847.71 429.25 843.59C429.53 839.45 427.11 837.24 423.1 836.63ZM358.05 702.44C351.48 702.63 346.59 707.66 346.57 714.25C346.55 721.15 351.87 726.32 358.78 726.13C365.65 725.93 370.65 720.44 370.24 713.52C369.85 706.99 364.64 702.25 358.04 702.44H358.05ZM390.11 668.42C382.8 668.7 377.03 674.66 376.99 681.99C376.95 689.63 383.12 695.78 390.76 695.71C398.39 695.64 404.46 689.37 404.28 681.75C404.1 674.13 397.72 668.14 390.12 668.43L390.11 668.42ZM422.76 769.15C416.78 769.24 413.23 772.84 413.29 778.82C413.35 784.8 416.97 788.33 422.95 788.29C428.99 788.26 431.98 784.47 432.63 778.62C431.86 772.79 428.8 769.06 422.76 769.15ZM390.11 601.46C381.33 601.71 374.5 608.74 374.46 617.55C374.42 626.69 381.62 633.86 390.75 633.8C399.88 633.74 406.97 626.45 406.81 617.31C406.65 608.21 399.26 601.19 390.11 601.46ZM390.51 735.45C384.85 735.53 379.75 740.56 379.59 746.23C379.43 752.18 384.81 757.63 390.77 757.55C396.43 757.47 401.53 752.44 401.69 746.77C401.85 740.82 396.47 735.37 390.51 735.45ZM390.84 870.86C388.08 870.72 386.28 872.48 386.13 875.18C385.98 877.94 387.75 879.73 390.45 879.89C393.23 880.06 394.7 878.2 395.29 875.56C394.99 872.87 393.58 871 390.84 870.87V870.86ZM358.85 635.35C350.73 635.11 343.93 641.7 343.92 649.82C343.9 657.62 350.2 664.12 357.99 664.35C366.11 664.59 372.91 658 372.92 649.89C372.93 642.08 366.64 635.58 358.85 635.36V635.35ZM293.59 636.84C286.19 637.04 280.68 642.98 280.97 650.43C281.25 657.51 286.84 662.84 293.96 662.85C301.41 662.85 307.07 657.12 306.97 649.66C306.88 642.24 301.03 636.64 293.58 636.84H293.59ZM358.79 837.27C355.12 837.08 352.67 839.36 352.53 842.98C352.39 846.65 354.84 848.63 358.42 849.18C362.01 848.61 364.38 846.64 364.3 842.95C364.23 839.67 362.01 837.45 358.78 837.27H358.79ZM229.72 638.59C223.6 638.49 218.38 643.55 218.28 649.68C218.19 655.8 223.24 661.02 229.37 661.12C235.49 661.22 240.71 656.16 240.81 650.03C240.91 643.9 235.85 638.69 229.72 638.59ZM229.91 572.47C222.48 572.27 216.58 578.02 216.6 585.45C216.62 592.56 222.09 598.17 229.18 598.36C236.61 598.56 242.51 592.81 242.49 585.38C242.47 578.27 237 572.66 229.91 572.47ZM230.17 506.61C222.5 506.24 215.56 512.6 215.18 520.35C214.81 528.02 221.17 534.96 228.92 535.33C236.59 535.7 243.53 529.34 243.91 521.59C244.28 513.91 237.92 506.98 230.17 506.6V506.61ZM229.31 705.31C224.13 705.41 220.73 708.76 220.57 713.92C220.4 719.49 223.81 723.12 229.37 723.24C234.96 723.36 237.97 719.76 238.69 714.1C237.87 708.8 234.93 705.2 229.3 705.31H229.31ZM229.78 772.24C225.8 772.6 223.27 774.61 223.19 778.7C223.12 782.39 225.33 784.74 228.93 785.05C232.95 785.4 235.59 783.16 235.88 779.14C236.17 775.06 233.7 772.9 229.78 772.24ZM198.07 540.6C191.35 540.15 184.94 546.04 184.72 552.85C184.52 559.29 190.06 565.34 196.58 565.78C203.3 566.24 209.71 560.35 209.93 553.54C210.13 547.1 204.59 541.05 198.07 540.61V540.6ZM230.06 441.78C221.69 441.54 215.13 447.58 214.79 455.83C214.44 464.53 220.79 471.24 229.44 471.3C237.79 471.35 244.17 465.16 244.31 456.86C244.46 448.51 238.32 442.02 230.06 441.79V441.78ZM197.39 475.51C189.9 475.47 184.21 481.02 184.08 488.5C183.95 496 189.42 501.79 196.86 502.01C204.69 502.25 210.64 496.44 210.57 488.62C210.5 481.14 204.87 475.54 197.38 475.51H197.39ZM198.74 410.68C191.43 410.78 185.51 416.61 185.29 423.91C185.06 431.52 191.11 437.84 198.72 437.96C206.36 438.08 212.57 431.96 212.57 424.32C212.57 416.68 206.37 410.56 198.73 410.67L198.74 410.68ZM262 538.43C253.65 538.32 247.2 544.47 247 552.75C246.8 561.11 252.87 567.65 261.12 567.95C269.82 568.26 276.5 561.88 276.52 553.23C276.54 544.89 270.31 538.54 262 538.43ZM294.19 703.48C288.45 703.36 283.31 708.3 283.18 714.07C283.06 719.81 288 724.95 293.77 725.08C299.51 725.21 304.65 720.26 304.78 714.49C304.91 708.75 299.96 703.61 294.19 703.48ZM294.14 838.33C291.37 838.21 289.55 839.69 289.2 842.41C288.8 845.49 290.28 847.63 293.43 847.96C296.52 848.28 298.39 846.65 298.86 843.51C298.78 840.4 297.33 838.47 294.13 838.33H294.14ZM294.26 537.48C303.47 537.35 310.43 530.33 310.48 521.1C310.54 511.51 303.31 504.33 293.7 504.47C284.49 504.6 277.53 511.62 277.47 520.85C277.41 530.44 284.65 537.61 294.26 537.48ZM293.46 770.83C288.94 771.16 286.06 774.05 286.1 778.65C286.13 783.62 289.15 786.66 294.11 786.6C299.12 786.54 301.57 783.27 302.1 777.85C300.97 773.8 298.55 770.46 293.46 770.83ZM261.63 805.21C257.97 805.29 255.73 807.8 256.02 811.46C256.27 814.69 258.57 816.5 261.83 816.8C265.18 816.34 267.41 814.48 267.5 811.21C267.61 807.53 265.29 805.13 261.63 805.22V805.21ZM262.04 738.02C256.69 737.88 253.43 740.82 253.28 746.23C253.13 751.58 256.08 754.82 261.48 754.99C266.86 755.15 269.78 752.12 270.35 746.76C270.07 741.48 267.46 738.17 262.03 738.02H262.04ZM261.98 504.77C270.56 504.64 277.79 497.3 277.77 488.73C277.76 480.15 270.51 472.84 261.93 472.74C253.36 472.63 245.95 479.78 245.74 488.38C245.51 497.26 253.09 504.91 261.98 504.77ZM262.25 604.56C254.69 604.32 248.83 609.84 248.69 617.34C248.55 624.89 254.15 630.66 261.68 630.7C269.23 630.74 274.9 625.06 274.84 617.51C274.78 610.31 269.42 604.78 262.26 604.55L262.25 604.56ZM261.71 670.88C255.7 670.91 250.54 676.11 250.57 682.12C250.6 688.13 255.8 693.29 261.81 693.26C267.82 693.23 272.98 688.02 272.95 682.02C272.92 676.01 267.71 670.85 261.71 670.88Z" fill="#E0B2D3"/>
</svg>
