<svg width="560" height="499" viewBox="0 0 560 499" fill="none" xmlns="http://www.w3.org/2000/svg">
<path d="M290.86 143.16C293.24 140.02 289.37 138.83 289.37 138.83C291.16 136.44 288.47 135.099 286.24 135.839C284.01 136.579 273.87 142.109 273.13 142.399C272.38 142.699 267.16 142.109 267.16 142.109C267.16 142.109 274.91 139.119 276.69 138.529C278.48 137.939 280.57 136.739 280.12 134.799C279.68 132.859 276.24 134.06 270.44 134.95C264.62 135.85 253.45 138.38 248.97 142.419C244.84 146.149 201.09 180.669 194.4 185.919C194.3 185.929 194.23 185.95 194.2 185.95C193.89 185.98 193.64 186.239 193.6 186.549C193.57 186.579 193.51 186.62 193.51 186.62C187.9 187.01 184.11 188.679 183.26 189.069C183.17 189.049 183.09 189.039 183 189.049L178.47 182.96V182.79C178.49 182.53 178.49 182.26 178.46 181.99C178.46 181.92 178.45 181.849 178.45 181.779C178.44 181.729 178.43 181.66 178.42 181.6C178.38 181.39 178.35 181.17 178.29 180.95C178.27 180.85 178.25 180.729 178.22 180.629C178.12 180.289 178.01 179.95 177.85 179.6C177.78 179.41 177.69 179.21 177.58 178.99C177.55 178.92 177.51 178.829 177.47 178.759C177.39 178.609 177.32 178.459 177.23 178.299C177.19 178.199 177.13 178.09 177.08 177.99C177 177.83 176.91 177.68 176.82 177.5C176.76 177.38 176.69 177.269 176.63 177.149C176.54 176.979 176.43 176.81 176.33 176.62C176.25 176.48 176.19 176.35 176.11 176.21C176.01 176.03 175.89 175.839 175.78 175.629C175.7 175.499 175.62 175.36 175.54 175.23C175.42 175.01 175.28 174.789 175.15 174.549L174.91 174.16C174.75 173.89 174.57 173.59 174.41 173.31C168.2 163.01 156.03 144.869 150.16 134.509C142.71 121.369 134.95 115.689 121.25 107.919C121.23 107.909 121.22 107.9 121.19 107.89L121.23 107.81C119.22 106.67 117.52 105.709 116.07 104.879C115.74 104.379 113.29 100.4 114.55 96.4297C114.7 95.9597 114.84 95.4996 115 95.0596C115.16 94.6096 115.32 94.1696 115.47 93.7496C115.47 93.7496 115.47 93.7398 115.49 93.7398C116.28 91.6198 117.06 89.9094 117.44 89.0894C117.44 89.0894 117.44 89.0797 117.46 89.0797C117.52 88.9296 117.59 88.8098 117.62 88.7198C117.62 88.7198 117.62 88.7095 117.64 88.7095C117.67 88.6395 117.69 88.5997 117.69 88.5997C127.53 90.6197 136.24 87.6997 141.61 79.8697C146.97 72.0297 146.31 66.6498 146.53 57.2398C146.76 47.8298 147.43 34.1696 142.29 24.3096C140.33 20.5596 136.85 17.6694 132.37 15.6094C126.91 12.7394 116.62 8.52953 105.4 10.2095C102.42 10.6495 99.4805 11.5198 96.7305 12.7398C96.4505 10.8798 95.1204 8.60959 90.6504 7.51959C90.6504 7.51959 89.5401 2.35979 84.6201 1.46979C79.7001 0.569788 78.3603 5.27936 78.3603 5.27936C78.3603 5.27936 73.0004 1.91946 69.6504 4.37946C66.2904 6.83946 68.0801 11.7696 68.0801 11.7696C68.0801 11.7696 63.3898 14.4595 63.8398 19.3795C64.2798 24.3095 68.3096 25.6495 68.3096 25.6495C68.3096 25.6495 66.7303 31.0198 70.3203 33.4898C73.8903 35.9498 76.3603 34.3995 76.3603 34.3995C76.3603 34.3995 76.7404 38.3696 79.9404 38.9996C80.0104 40.1296 80.1499 41.2798 80.3799 42.4498C83.3899 58.3798 91.3096 72.3095 92.8496 74.9395C93.0196 75.2295 93.1201 75.3795 93.1201 75.3795L85.3701 95.1895C84.2501 95.5695 82.5803 96.1595 80.5703 96.8995L80.6504 97.0093C74.2004 99.3793 64.0998 103.42 56.5898 107.94C44.6598 115.12 31.2502 134.23 26.4902 164.69C21.7202 195.16 16.95 213.969 9.79003 239.359C5.62003 254.179 2.16034 263.909 2.61034 271.049C2.53034 271.179 2.4196 271.31 2.3496 271.43C2.2596 271.59 2.2398 271.78 2.2998 271.94L2.19042 272.049C1.59042 275.689 3.7896 278.509 6.0996 280.419C4.1596 282.4 1.85999 285.48 0.999992 289.52C-0.560008 296.91 2.79027 308.779 7.03027 321.549C11.2803 334.319 33.1904 341.49 33.1904 341.49L6.99023 476.29C6.76023 477.46 7.46987 478.579 8.62987 478.879L8.99023 478.97C10.1502 479.25 11.3201 478.58 11.6601 477.43L50.6396 341.95H54.8896V346.96L54.46 476.6C54.46 477.83 55.4499 478.819 56.6699 478.819C57.8099 478.819 58.7701 477.939 58.8701 476.799L69.4101 356.109L69.4697 356.149L70.6601 341.95H70.6504V341.83L110.13 341.48L118.46 476.87C118.54 478.15 119.64 479.12 120.92 479.04C122.13 478.97 123.07 477.96 123.09 476.74L123.95 341.37L133.49 341.29C132.67 351.5 131.72 364.16 131.72 368.7C131.72 369.09 131.83 369.45 132 369.77C132.54 370.85 133.87 371.689 135.76 372.359C135.77 372.359 135.78 372.37 135.78 372.37C136.22 372.53 136.71 372.67 137.2 372.81C137.25 372.82 137.29 372.829 137.34 372.839C137.83 372.979 138.35 373.1 138.9 373.21C138.94 373.23 138.96 373.23 138.99 373.24C140.16 373.49 141.43 373.69 142.78 373.87C142.82 373.87 142.87 373.879 142.9 373.879C142.43 384.929 141.51 405.699 141.19 411.859C140.93 416.809 141.36 420.16 142.82 422.19C142.84 422.21 142.85 422.24 142.88 422.27C143.06 422.52 143.26 422.75 143.48 422.96C143.52 422.99 143.54 423.019 143.57 423.049C144.05 423.479 144.6 423.829 145.24 424.089C145.32 424.119 145.4 424.14 145.48 424.18C145.72 424.27 145.98 424.339 146.25 424.399C146.34 424.429 146.44 424.45 146.55 424.47C146.91 424.54 147.29 424.609 147.68 424.629C149.81 424.809 156.61 424.839 165.12 424.799L163.03 442.47L169.14 442.35C169.14 442.35 169.13 442.41 169.12 442.49C169.08 442.73 169.02 443.299 168.91 444.109C168.49 447.509 167.53 455.279 166.68 463.149C165.57 473.679 166.25 477.49 170.93 477.49H231.07C242.24 477.49 240.02 464.939 231.07 463.379C222.12 461.809 216.76 460.679 205.58 458.899C198.7 457.789 197.5 451.529 197.59 446.859C197.63 444.309 198.06 442.24 198.18 441.75V441.73L205.65 441.569C205.65 441.569 206.98 434.43 208.95 423.85C209.18 423.81 209.41 423.76 209.64 423.72C209.79 423.68 209.95 423.649 210.09 423.609C210.35 423.559 210.59 423.49 210.84 423.41C210.96 423.38 211.08 423.339 211.21 423.299C211.55 423.179 211.88 423.07 212.19 422.95C212.29 422.9 212.37 422.859 212.47 422.819C212.68 422.729 212.89 422.629 213.1 422.529C213.24 422.459 213.36 422.39 213.48 422.31C213.63 422.24 213.78 422.149 213.91 422.069C214.04 421.989 214.17 421.899 214.28 421.819C214.4 421.739 214.51 421.649 214.62 421.569C214.75 421.479 214.87 421.38 214.98 421.29C215.07 421.21 215.15 421.129 215.24 421.049C215.69 420.629 216.09 420.17 216.41 419.71C216.45 419.66 216.48 419.619 216.51 419.569C216.62 419.409 216.71 419.269 216.8 419.109C216.83 419.049 216.85 419 216.89 418.94C216.96 418.78 217.04 418.61 217.12 418.45C217.15 418.41 217.16 418.359 217.18 418.319C217.26 418.139 217.33 417.96 217.38 417.77C218.89 413.19 216.08 407.65 212.18 406.45C217.04 380.42 223.12 347.77 224.99 337.68C228.27 320.06 223.2 297.66 199.65 290.48C199.65 290.48 204.12 266.589 207.11 248.359C209.86 231.529 200.91 217.259 188.49 211.879C193.89 211.959 196.94 213.149 200.55 212.819C205.47 212.379 216.8 211.329 220.23 211.169C223.65 211.029 227.39 210.119 228.13 208.629C228.88 207.139 228.28 206.24 228.28 206.24C228.28 206.24 230.51 205.19 230.67 203.85C230.76 202.99 230.55 202.33 230.4 201.94C230.4 201.93 230.4 201.919 230.38 201.919C230.38 201.91 230.37 201.909 230.37 201.899C230.29 201.719 230.23 201.62 230.23 201.62C230.23 201.62 231.71 200.42 231.71 198.77C231.71 197.12 230.23 196.24 230.23 196.24C233.06 193.54 229.79 191.759 229.79 191.759C229.79 191.759 246.03 176.829 248.42 174.279C250.81 171.749 254.24 166.959 257.05 166.069C259.89 165.169 272.85 166.069 276.72 164.129C280.59 162.189 288.48 154.719 291.03 152.779C293.56 150.839 291.77 147.71 291.77 147.71C293.66 145.17 290.84 143.23 290.84 143.23L290.86 143.16ZM129 184.669C129 184.669 129.01 184.69 129.03 184.74C129.05 184.8 129.1 184.87 129.17 184.99C129.21 185.08 129.27 185.189 129.34 185.319C129.48 185.599 129.67 185.97 129.92 186.41C131.17 188.78 133.5 193.15 135.62 196.99C130.82 197.54 125.65 198.13 121.74 198.56L129.01 184.669H129ZM559.42 317.29C558.98 339.84 546.77 353.25 521.91 353.35L538.27 475.879C538.47 477.379 537.43 478.789 535.94 479.029C534.45 479.279 533.02 478.299 532.72 476.819L507.48 353.359H471.42L466.7 477.66C466.65 479.17 465.4 480.389 463.87 480.379C462.36 480.359 461.11 479.16 461.07 477.64L457.2 353.359H416.89C415.95 376.179 414.36 413.86 413.46 432.14C413.31 435.09 413.19 437.51 413.09 439.31C413.04 440.03 413.01 440.659 412.97 441.169C412.07 454.609 413.41 456.18 414.31 466.71C415.21 477.23 410.96 479.48 405.6 481.94C400.24 484.4 381.68 491.579 368.04 495.609C354.41 499.639 352.4 488.66 358.21 483.96C364.03 479.26 366.25 476.79 366.25 476.79H322.69C321.73 476.79 320.93 476.06 320.87 475.1C320.67 472.39 321.03 467.209 326.22 465.589C333.38 463.359 338.74 460.219 347.02 454.839C353.64 450.529 355.97 444.78 354.66 436.22C354.65 436.14 354.64 436.07 354.63 436C354.32 434.08 353.85 432.02 353.2 429.81C353.15 429.64 353.11 429.48 353.05 429.31C349.25 416.77 329.58 350.23 324.21 329.62C318.85 309.01 328.24 292.65 338.74 287.06C349.25 281.46 367.58 271.819 367.58 271.819C367.58 271.819 379.66 266.66 393.97 259.72C397.74 257.89 400.88 256.4 403.49 255.18L383.12 264.06C383.47 263.8 383.82 263.52 384.15 263.23C382.24 264.84 380.15 266.04 377.87 266.66C363.13 270.7 347.48 268.899 343.89 249.629C342.46 241.939 340.17 228.02 337.94 214.08C337.94 214.05 337.93 214.029 337.93 214.009C334.59 193.079 331.37 172.129 331.37 172.129C331.37 172.129 331.37 170.11 330.03 169.43C328.69 168.75 324.44 167.64 318.41 166.97C312.38 166.3 306.33 163.609 302.99 159.129C299.63 154.649 299.63 153.76 300.3 151.74C300.97 149.72 305.44 147.71 305.44 147.71C306.78 145.47 309.01 147.029 313.27 150.399C317.51 153.759 321.39 154.88 324.06 155.1C326.75 155.33 331.58 156.009 331.58 156.009C331.58 156.009 323.98 152.43 322.19 151.08C320.4 149.73 320.4 146.149 324.42 147.259C328.45 148.379 338.96 151.3 346.1 155.33C353.26 159.37 355.05 167.649 355.05 167.649L367.82 201.529C367.87 200.279 368.01 196.43 368.47 184.68C369.15 167.21 375.63 147.27 385.68 137.87C393.65 130.42 404.69 121.429 408.95 118.009C408.96 115.239 408.83 112.099 408.39 108.899C408.27 107.929 408.11 106.96 407.92 105.99C407.91 105.96 407.91 105.919 407.89 105.879C407.7 104.909 407.49 103.95 407.23 102.99C407.23 102.99 407.17 102.98 407.07 102.94C407.05 102.93 407.01 102.919 406.97 102.919C406.54 102.809 405.58 102.55 404.28 102.22C403.55 102.04 402.74 101.84 401.85 101.6C391.65 105.23 374.53 102.25 374.53 102.25C377.22 96.8496 379.01 87.6595 379.9 82.1695C379.42 79.0795 379.2 75.5598 379.37 71.4898C379.37 71.4898 374.6 69.6994 374.16 62.8394C373.72 55.9794 379.08 53.5797 379.08 53.5797C379.08 53.5797 378.86 44.7398 380.04 36.2398C378.58 36.6298 377.67 36.8497 377.67 36.8497C377.67 36.8497 375.65 20.4994 387.73 15.3394C399.81 10.1894 406.51 11.0897 420.38 12.4297C434.24 13.7697 448.1 24.0696 451.45 41.7696C454.8 59.4696 458.61 91.0493 448.54 95.7593C443.16 98.2793 437.15 98.9296 432.72 98.9996C433.18 99.9396 433.85 101.2 434.83 102.85C438.11 108.38 441.38 109.87 441.38 109.87L441.43 110.1C446.65 111.05 457.31 111.95 472.02 112.33C489 112.77 500.18 117.26 510.46 134.73C520.75 152.2 537.96 186.26 546.23 208.66C554.51 231.06 553.17 248.759 553.39 262.649C553.42 263.709 553.33 264.67 553.18 265.56C555.27 265.82 556.92 267.499 557.12 269.609C557.95 278.019 559.81 299.53 559.45 317.31L559.42 317.29Z" fill="#BAE0E6"/>
<path d="M65.1998 326.84H134.65C134.65 326.84 134.079 333.31 133.429 341.26L123.9 341.34L123.03 476.71C123.02 477.93 122.08 478.93 120.87 479.01C119.59 479.1 118.48 478.12 118.41 476.84L110.07 341.45L70.61 341.8L58.8395 476.78C58.7395 477.92 57.7793 478.8 56.6393 478.8C55.4093 478.8 54.4193 477.81 54.4293 476.58L54.8697 341.93H50.6197L11.6295 477.41C11.2995 478.56 10.1296 479.24 8.95957 478.95L8.59922 478.86C7.45922 478.57 6.73957 477.45 6.95957 476.27L33.15 341.47C33.15 341.47 11.2496 334.29 6.99961 321.53C2.75961 308.76 -0.600662 296.89 0.969338 289.5C1.87934 285.18 4.46934 281.94 6.46934 279.98C7.58934 281.12 8.96 282.19 10.65 283.23C10.65 283.23 10.8 284.19 11.19 285.78C20.02 289.27 44.8592 300.88 64.3092 326.81C64.6292 326.8 64.9196 326.82 65.2096 326.82L65.1998 326.84ZM413 441.17C413.11 439.4 413.28 436.26 413.48 432.14L381.48 434.38L381.179 428.4L353.23 429.8C356.83 442.04 355.209 449.53 347.049 454.83C338.779 460.2 333.419 463.34 326.259 465.58C321.059 467.22 320.71 472.39 320.9 475.09C320.97 476.05 321.769 476.78 322.719 476.78H366.29C366.29 476.78 364.06 479.24 358.24 483.96C352.42 488.66 354.44 499.63 368.08 495.6C381.71 491.56 400.259 484.4 405.629 481.94C410.989 479.48 415.249 477.23 414.349 466.7C413.439 456.16 412.1 454.59 413 441.15V441.17ZM546.23 208.65C537.95 186.25 520.74 152.2 510.45 134.72C500.16 117.25 488.979 112.77 472.009 112.32C455.019 111.88 443.39 110.75 439.36 109.63C439.36 109.63 441.379 114.1 451.879 152.41C462.379 190.72 491.899 208.42 512.469 213.8C533.029 219.17 538.179 275.18 538.179 275.18C538.179 275.18 553.599 276.52 553.389 262.64C553.159 248.75 554.5 231.04 546.23 208.65ZM396 197.22C404.71 178.64 407.62 133.91 408.29 127.93C408.97 121.95 410.75 116.58 410.75 116.58C410.75 116.58 395.76 128.46 385.71 137.87C375.65 147.28 369.16 167.21 368.5 184.68L367.82 202.15L375.87 222.76C375.87 222.76 387.28 215.81 396 197.22ZM399.799 233.95C399.799 233.95 394.349 255.81 383.139 264.04L414.12 250.56C401.48 250.3 399.799 233.95 399.799 233.95Z" fill="#7B8CC6"/>
<path d="M83.9199 49.6001C80.5699 33.0201 88.3897 14.4302 104.93 12.4102C121.48 10.3902 137.11 14.4301 142.26 24.2901C147.4 34.1501 146.73 47.8102 146.5 57.2202C146.28 66.6202 146.94 71.9899 141.58 79.8399C136.23 87.6799 127.5 90.5898 117.66 88.5698C117.66 88.5698 115.87 92.1502 114.53 96.4102C113.19 100.67 116.1 104.92 116.1 104.92L108.12 126.28L85.04 95.98L93.0898 75.3799C93.0898 75.3799 87.2699 66.1899 83.9199 49.6099V49.6001ZM290.86 143.16C293.24 140.02 289.37 138.83 289.37 138.83C291.16 136.44 288.47 135.1 286.24 135.84C284.01 136.58 273.87 142.11 273.13 142.4C272.38 142.7 267.16 142.11 267.16 142.11C267.16 142.11 274.91 139.12 276.69 138.53C278.48 137.94 280.57 136.74 280.12 134.8C279.68 132.86 276.24 134.06 270.44 134.95C264.62 135.85 253.45 138.38 248.97 142.42C244.5 146.45 193.53 186.62 193.53 186.62C187.12 187.06 183.09 189.16 183.09 189.16L176.54 180.34C169.54 182.13 149.12 195.43 149.12 195.43C149.12 195.43 117.66 199.17 115.43 199.17C113.2 199.17 107.39 198.42 106.49 197.52C105.59 196.62 97.0996 184.53 97.0996 184.53C82.6396 186.47 60.8799 201.7 60.8799 201.7C60.8799 201.7 68.1901 211.71 77.5801 222.91C86.9701 234.11 97.5504 231.73 113.65 228.6C129.74 225.46 171.18 213.82 181.46 212.32C191.75 210.83 195.62 213.22 200.53 212.76C205.45 212.32 216.77 211.27 220.21 211.11C223.63 210.97 227.37 210.06 228.11 208.57C228.85 207.08 228.26 206.18 228.26 206.18C228.26 206.18 230.48 205.13 230.64 203.79C230.79 202.45 230.2 201.56 230.2 201.56C230.2 201.56 231.69 200.36 231.69 198.71C231.69 197.06 230.2 196.18 230.2 196.18C233.04 193.48 229.76 191.7 229.76 191.7C229.76 191.7 246.01 176.77 248.39 174.22C250.78 171.69 254.21 166.9 257.03 166.01C259.87 165.11 272.82 166.01 276.7 164.07C280.57 162.13 288.46 154.66 291 152.72C293.54 150.78 291.75 147.65 291.75 147.65C293.67 145.11 290.85 143.17 290.85 143.17L290.86 143.16ZM331.39 172.13L355.09 167.65C355.09 167.65 353.3 159.36 346.14 155.33C338.98 151.29 328.48 148.38 324.46 147.27C320.43 146.15 320.43 149.73 322.23 151.08C324.02 152.42 331.62 156.01 331.62 156.01C331.62 156.01 326.77 155.33 324.1 155.11C321.41 154.88 317.55 153.76 313.3 150.4C309.06 147.04 306.82 145.47 305.48 147.71C305.48 147.71 301.01 149.73 300.33 151.74C299.66 153.76 299.66 154.65 303.02 159.13C306.38 163.61 312.41 166.31 318.45 166.97C324.48 167.65 328.74 168.77 330.06 169.43C331.39 170.11 331.39 172.13 331.39 172.13ZM379.38 71.4702C378.64 90.2902 385.64 98.3599 391.75 99.3999C397.87 100.45 407.26 102.98 407.26 102.98C410.39 114.62 408.3 127.92 408.3 127.92C430.21 132.55 443.78 121.8 443.78 121.8L441.39 109.84C441.39 109.84 438.11 108.35 434.84 102.82C431.56 97.2999 431.71 96.2598 431.71 96.2598L437.53 85.0601L445.72 65.7901C445.72 65.7901 445.72 43.9901 442.15 32.3501C438.58 20.7001 429.04 15.0201 414.73 12.3301C400.42 9.6401 390.44 15.7601 384.48 22.7901C378.52 29.8101 379.12 53.5601 379.12 53.5601C379.12 53.5601 373.76 55.9498 374.2 62.8198C374.62 69.6798 379.39 71.46 379.39 71.46L379.38 71.4702ZM448.1 220.52C443.63 219.18 438.93 215.36 436.02 214.69C433.11 214.01 431.77 215.59 433.11 216.92C434.45 218.26 440.49 221.85 440.49 221.85C440.49 221.85 424.84 218.71 422.15 218.49C419.46 218.26 418.58 220.06 419.02 220.95C419.46 221.85 432.88 225.2 432.88 225.2C432.88 225.2 420.36 224.3 418.57 224.3C416.78 224.3 416.12 226.76 417.67 227.43C419.23 228.11 433.54 231.91 433.54 231.91C433.54 231.91 419.69 231.01 418.34 230.8C417 230.57 415.65 233.03 417.66 233.71C419.68 234.38 433.08 237.74 433.08 237.74C433.08 237.74 419.89 237.52 418.78 237.3C417.66 237.08 417.21 240.21 419 240.21C420.79 240.21 438.45 244.03 443.37 245.14C448.29 246.26 457.68 244.7 457.68 244.7L458.12 222.98C458.12 222.98 452.54 221.87 448.07 220.53L448.1 220.52ZM400.85 280.55L389.53 287.5C389.53 287.5 383.49 274.28 367.62 271.82C367.62 271.82 349.28 281.45 338.78 287.06C328.27 292.65 318.89 309.01 324.24 329.62C329.6 350.23 349.28 416.77 353.09 429.31C353.14 429.48 353.18 429.64 353.23 429.81L381.18 428.41L381.48 434.39L413.48 432.15C414.82 404.89 417.69 334.55 417.69 334.55H449.44C449.44 334.55 443.54 291.99 400.85 280.56V280.55Z" fill="#AF7141"/>
<path d="M101.58 184.229C101.82 184.969 101.41 186.509 99.9199 188.519C98.3299 186.299 97.0996 184.519 97.0996 184.519C82.6396 186.459 60.8799 201.7 60.8799 201.7C60.8799 201.7 62.3601 203.73 64.8301 206.97C56.5501 209.42 51.7095 209.919 51.2695 209.319C50.5895 208.419 45.4502 201.029 45.4502 201.029C45.4502 201.029 56.18 190.05 70.04 183.99C83.9 177.95 96.2002 175.259 96.2002 175.259C96.2002 175.259 100.9 182.209 101.57 184.229H101.58ZM176.54 180.339L178.49 182.959C178.58 181.899 178.38 180.779 177.88 179.589C177.28 178.219 175.99 175.909 174.22 173.009C151.75 179.569 137.86 194.83 135.99 196.97C143.01 196.15 149.1 195.43 149.1 195.43C149.1 195.43 169.54 182.15 176.54 180.35V180.339ZM116.11 104.93L108.13 126.299L85.04 95.9696L85.3398 95.1693C84.2198 95.5593 82.55 96.1396 80.54 96.8896L105.82 133.83H112.08L121.23 107.819C119.23 106.679 117.53 105.72 116.07 104.89C116.1 104.92 116.11 104.939 116.11 104.939V104.93ZM211.56 406.22C204.4 404.88 189.65 402.18 182.04 399.95C174.43 397.72 171.54 393.679 171.75 388.069C171.98 382.479 173.77 367.019 173.77 367.019C152.98 362.319 143.14 366.799 143.14 366.799C143.14 366.799 141.56 403.31 141.12 411.829C140.68 420.329 142.24 424.15 147.61 424.6C152.97 425.04 188.07 424.6 205.5 424.16C222.95 423.71 218.71 407.579 211.55 406.229L211.56 406.22ZM231.01 463.359C222.06 461.789 216.7 460.659 205.53 458.879C194.35 457.079 198.15 441.629 198.15 441.629L169.1 442.309C169.1 442.309 167.76 452.62 166.64 463.14C165.53 473.67 166.2 477.479 170.89 477.479H231.02C242.19 477.469 239.96 464.919 231.01 463.359ZM377.66 36.8193C377.66 36.8193 375.65 20.4695 387.72 15.3095C399.8 10.1595 406.5 11.0593 420.37 12.3993C434.23 13.7393 448.1 24.0397 451.44 41.7397C454.8 59.4397 458.6 91.0194 448.54 95.7294C438.47 100.429 426.18 98.6396 426.18 98.6396L428.2 91.6894C428.2 91.6894 425.07 97.5194 421.71 97.9594C418.36 98.3994 416.13 95.4994 416.13 95.4994C425.29 77.7994 425.08 48.4496 425.08 48.4496C425.08 48.4496 415.46 43.7492 413 37.0292C410.54 30.3092 410.54 22.9194 410.54 22.9194C410.54 22.9194 406.74 26.4893 398.7 30.0893C390.65 33.6693 377.68 36.8095 377.68 36.8095L377.66 36.8193ZM430.87 52.0595L431.22 69.7592C431.22 69.7592 437.89 69.3193 438.24 60.1293C438.59 50.9493 430.87 52.0595 430.87 52.0595ZM401.87 101.6C398.75 100.84 394.84 99.9193 391.75 99.3993C386.96 98.5793 381.63 93.4193 379.92 82.1493C379.03 87.6493 377.23 96.8394 374.55 102.229C374.54 102.239 391.69 105.229 401.87 101.589V101.6ZM414.9 48.2494C415.23 47.8094 411.77 43.9992 407.3 43.5492C402.83 43.1092 398.46 43.6596 398.35 44.4496C398.13 46.0096 398.02 46.1297 399.58 46.2397C401.15 46.3597 402.48 46.3596 406.06 46.6796C409.63 47.0096 414.55 48.6894 414.9 48.2494ZM384.16 45.2294C381.7 45.8994 379.91 47.0193 380.13 48.3593C380.24 49.0693 381.24 48.2493 385.16 47.5693C389.07 46.8993 391.74 47.4592 392.09 46.7792C392.42 46.1092 392.53 44.3194 391.76 44.2094C390.99 44.0994 386.62 44.5494 384.17 45.2294H384.16ZM539.08 289.729C539.98 310.569 510.24 334.309 487.66 334.309H449.4C449.02 331.169 441.83 291.209 400.84 280.259L389.51 287.499C389.51 287.499 383.48 274.279 367.61 271.819C367.61 271.819 379.69 266.67 393.99 259.72C408.3 252.77 413.89 250.539 413.89 250.539C413.89 250.539 424.84 249.419 462.84 246.059C471.92 247.02 480.69 247.789 488.82 248.399C488.64 248.389 488.44 248.369 488.24 248.359C486.62 243.589 488.23 236.91 493.89 233.74C497.25 231.86 501.92 231.93 505.5 233.93C508.55 235.63 510.32 238.409 510.46 241.749C510.6 244.839 509.82 247.55 508.83 249.72C524.01 250.57 533.9 250.759 533.9 250.759C533.9 250.759 538.16 268.92 539.06 289.74L539.08 289.729ZM490.76 248.549C493.73 248.759 496.63 248.969 499.38 249.149C499.97 248.679 500.49 248.11 500.87 247.37C501.31 246.51 501.38 245.749 501.08 245.049C500.32 243.279 497.45 242.099 496.42 241.789C495.82 241.619 495.48 240.989 495.65 240.399C495.82 239.809 496.44 239.47 497.02 239.64C497.51 239.77 501.81 241.11 503.1 244.16C503.68 245.48 503.57 246.95 502.83 248.39C502.66 248.72 502.45 249.03 502.23 249.33C503.64 249.42 505.03 249.5 506.38 249.58C507.43 247.55 508.34 244.879 508.2 241.839C508.09 239.309 506.74 237.18 504.38 235.87C501.48 234.26 497.61 234.179 494.94 235.669C490.07 238.399 488.85 244.279 490.52 248.169C490.61 248.299 490.68 248.419 490.74 248.539L490.76 248.549ZM429.52 151.45C429.97 151.04 430.01 150.329 429.6 149.859C429.2 149.409 428.49 149.379 428.03 149.779C427.79 149.999 422.12 155.199 422.12 162.999C422.12 166.339 423.76 169.199 426.72 171.039C428.69 172.259 431.03 172.89 433.33 172.89C435.09 172.89 436.81 172.529 438.31 171.779C444.41 168.719 446.21 161.57 444.38 156.7C443.52 154.4 441.27 152.86 438.34 152.62C434.87 152.34 431.6 153.939 430.01 156.709C429.2 158.119 429.04 159.57 429.55 160.93C430.71 164.04 434.94 165.549 435.42 165.729C436.01 165.929 436.64 165.619 436.84 165.029C437.03 164.449 436.73 163.809 436.14 163.609C435.12 163.259 432.32 161.949 431.65 160.149C431.38 159.429 431.48 158.67 431.96 157.83C433.36 155.39 436.2 154.699 438.17 154.859C440.21 155.029 441.75 156.009 442.3 157.479C443.78 161.449 442.3 167.269 437.31 169.769C434.58 171.129 430.72 170.87 427.9 169.14C425.62 167.73 424.36 165.549 424.36 162.999C424.35 156.229 429.46 151.519 429.51 151.459L429.52 151.45ZM354.52 217.41C353.65 215.1 351.4 213.57 348.47 213.33C345 213.05 341.73 214.649 340.14 217.419C339.33 218.829 339.17 220.28 339.68 221.64C340.84 224.75 345.07 226.259 345.55 226.439C346.14 226.639 346.77 226.33 346.97 225.74C347.16 225.16 346.86 224.519 346.28 224.319C345.25 223.969 342.45 222.659 341.78 220.859C341.51 220.129 341.61 219.379 342.09 218.539C343.5 216.099 346.33 215.409 348.3 215.569C350.34 215.739 351.88 216.719 352.43 218.189C353.91 222.149 352.43 227.969 347.45 230.479C345.51 231.449 343.01 231.579 340.71 230.959C340.85 231.779 340.97 232.56 341.11 233.33C341.9 233.48 342.68 233.58 343.46 233.58C345.22 233.58 346.94 233.219 348.44 232.459C354.53 229.429 356.33 222.28 354.51 217.41H354.52ZM339.66 212.16C340.11 211.75 340.14 211.039 339.73 210.569C339.33 210.119 338.62 210.07 338.16 210.49C338.11 210.54 337.88 210.749 337.51 211.149C337.66 212.129 337.81 213.1 337.97 214.08C338.88 212.87 339.62 212.18 339.65 212.16H339.66ZM451.63 208.289C452.6 210.559 454.92 211.98 457.86 212.08C461.36 212.22 464.52 210.459 466 207.629C466.75 206.179 466.84 204.719 466.27 203.399C464.96 200.339 460.67 199.02 460.19 198.87C459.59 198.7 458.98 199.04 458.81 199.64C458.65 200.24 458.98 200.859 459.58 201.029C460.62 201.329 463.49 202.519 464.24 204.289C464.53 204.999 464.48 205.75 464.04 206.6C462.74 209.11 459.96 209.93 457.96 209.85C455.92 209.77 454.32 208.869 453.71 207.419C452.05 203.529 453.27 197.649 458.14 194.919C460.81 193.429 464.68 193.51 467.56 195.12C469.9 196.42 471.28 198.55 471.39 201.08C471.69 207.86 466.81 212.799 466.76 212.859C466.33 213.289 466.32 214 466.75 214.45C466.96 214.66 467.25 214.779 467.55 214.779C467.85 214.779 468.12 214.679 468.34 214.459C468.56 214.229 473.99 208.78 473.63 200.99C473.48 197.65 471.71 194.88 468.65 193.16C465.08 191.17 460.41 191.09 457.05 192.97C451.08 196.3 449.6 203.519 451.65 208.299L451.63 208.289ZM411.78 212.799C405.2 214.369 399.42 210.479 399.37 210.439C398.86 210.089 398.16 210.229 397.81 210.729C397.46 211.239 397.59 211.929 398.09 212.269C398.31 212.419 402.7 215.41 408.51 215.41C409.71 215.41 410.97 215.28 412.29 214.97C415.53 214.19 417.92 211.95 419.03 208.62C420.32 204.72 419.53 200.11 417.06 197.16C412.68 191.92 405.33 191.81 401.02 194.72C398.98 196.1 398.03 198.649 398.48 201.559C398.99 204.999 401.31 207.819 404.37 208.729C405.94 209.189 407.38 209.01 408.57 208.2C411.33 206.34 411.83 201.869 411.87 201.359C411.93 200.739 411.49 200.199 410.87 200.149C410.24 200.089 409.71 200.529 409.65 201.149C409.55 202.229 408.92 205.269 407.34 206.339C406.69 206.769 405.95 206.839 405.03 206.559C402.31 205.749 401 203.17 400.7 201.2C400.4 199.18 400.99 197.439 402.3 196.569C405.8 194.209 411.8 194.309 415.38 198.589C417.34 200.939 417.99 204.77 416.95 207.91C416.08 210.5 414.26 212.229 411.8 212.809L411.78 212.799ZM381.47 434.39L354.64 435.999C354.79 436.959 355.25 438.739 355.31 439.629L382.37 438.579L381.47 434.399V434.39ZM383.26 444.979L412.92 442.439C412.94 442.019 412.96 441.62 413 441.18C413.03 440.68 413.06 440.039 413.11 439.319L382.37 441.839L383.26 444.979Z" fill="#DDE0EC"/>
<path d="M193.599 186.689C193.569 186.319 193.83 185.98 194.21 185.95C194.8 185.89 208.59 184.459 212.59 184.299C215.08 184.209 216.5 184.549 217.17 185.409C217.84 186.249 217.54 187.35 217.44 187.7C217 189.34 215.26 189.859 213.26 190.479C212.73 190.639 212.199 190.799 211.639 191.009C211.219 191.159 210.76 191.3 210.28 191.45L228.83 190.879C229.17 190.879 229.51 191.159 229.53 191.539C229.54 191.909 229.24 192.23 228.86 192.24L204.57 192.979H204.55C204.21 192.979 203.92 192.739 203.87 192.389C203.83 192.049 204.04 191.709 204.38 191.629C204.42 191.619 208.69 190.58 211.17 189.7C211.74 189.5 212.3 189.329 212.84 189.159C214.71 188.589 215.87 188.189 216.11 187.319C216.3 186.609 216.19 186.369 216.09 186.229C215.88 185.969 215.15 185.539 212.62 185.629C208.66 185.779 194.47 187.259 194.33 187.279C193.98 187.309 193.63 187.039 193.59 186.669L193.599 186.689ZM276.389 146.679C276.499 146.679 276.62 146.659 276.72 146.599C276.82 146.539 287.13 140.789 289 140.069C289.35 139.929 289.53 139.539 289.38 139.189C289.25 138.839 288.85 138.659 288.5 138.799C286.55 139.559 276.47 145.179 276.05 145.419C275.73 145.599 275.61 146.009 275.79 146.339C275.92 146.549 276.149 146.679 276.389 146.679ZM141.07 49.5994C141.07 50.5494 141.84 51.3294 142.79 51.3294C143.74 51.3294 144.51 50.5494 144.51 49.5994C144.51 48.6494 143.73 47.8792 142.79 47.8792C141.85 47.8792 141.07 48.6594 141.07 49.5994ZM276.139 151.769C276.269 151.959 276.48 152.049 276.7 152.049C276.84 152.049 276.98 152.009 277.09 151.919C277.18 151.869 286.009 145.689 290.349 144.089C290.699 143.959 290.89 143.58 290.74 143.22C290.62 142.87 290.21 142.679 289.88 142.819C285.37 144.479 276.669 150.559 276.309 150.819C276.009 151.029 275.929 151.459 276.139 151.769ZM316.11 158.609H316.18C316.52 158.609 316.81 158.369 316.86 158.019C316.9 157.639 316.65 157.309 316.26 157.259C310.66 156.549 304.85 149.079 304.79 148.999C304.57 148.709 304.139 148.649 303.849 148.879C303.549 149.109 303.5 149.529 303.72 149.829C303.98 150.169 309.94 157.839 316.11 158.609ZM317.43 156.529C317.43 156.529 317.5 156.539 317.54 156.539C317.86 156.539 318.15 156.3 318.21 155.95C318.27 155.58 318.009 155.229 317.639 155.169C313.889 154.609 307.37 147.679 307.3 147.619C307.04 147.349 306.619 147.329 306.349 147.579C306.079 147.829 306.059 148.269 306.309 148.539C306.579 148.849 313.22 155.899 317.43 156.529ZM140.769 41.7591C142.059 41.8891 144.87 41.3692 146.49 42.3592C146.43 41.4692 146.37 40.5695 146.29 39.6795C144.54 38.9095 142.259 38.2691 140.639 39.0691C139.879 39.4391 139.3 41.5991 140.78 41.7591H140.769ZM513.01 199.99C515.15 200.77 544.529 218.229 551.18 238.349C551.27 238.639 551.53 238.819 551.82 238.819C551.89 238.819 551.97 238.799 552.04 238.779C552.39 238.669 552.59 238.289 552.46 237.929C545.53 216.959 515.43 199.389 513.41 198.689C513.22 198.629 512.87 198.629 512.69 198.749C512.39 198.949 512.3 199.379 512.51 199.689C512.62 199.859 512.81 199.959 513 199.979L513.01 199.99ZM164.91 391.97C163.37 392.99 161.76 394.039 159.88 394.129C155.52 394.359 145.5 395.469 143.66 395.949C143.3 396.039 143.07 396.399 143.17 396.769C143.25 397.069 143.52 397.279 143.83 397.279C143.89 397.279 143.95 397.269 143.99 397.249C145.76 396.809 155.75 395.71 159.96 395.47C162.19 395.36 163.95 394.209 165.65 393.099C167.31 392.029 168.86 391 170.58 391.22C170.95 391.25 171.29 390.989 171.34 390.619C171.38 390.249 171.11 389.909 170.74 389.869C168.52 389.609 166.69 390.799 164.91 391.959V391.97ZM198.84 291.439C198.65 292.189 179.159 366.12 178.429 368.47C178.339 368.75 178.25 369.019 178.15 369.269C177.61 367.739 173.79 367.029 173.79 367.029L173.12 373.599C173.12 373.599 173.26 373.539 173.5 373.439C173.62 373.589 173.8 373.679 173.99 373.679H174.03C176.89 373.539 178.74 371.959 179.71 368.869C180.46 366.499 199.329 294.829 200.139 291.789C200.229 291.429 200.02 291.049 199.67 290.949C199.31 290.849 198.93 291.059 198.84 291.429V291.439ZM178.2 180.459C177.43 180.279 176.54 180.339 176.54 180.339L178.49 182.959C178.55 182.169 178.46 181.33 178.2 180.47V180.459ZM150.599 195.95C150.599 195.95 150.67 195.949 150.7 195.939C150.94 195.909 174.43 192.349 178.54 191.909C182.66 191.469 183.53 190.449 183.71 190.009C183.86 189.669 183.72 189.229 183.38 189.079C183.04 188.939 182.659 189.059 182.519 189.399C182.499 189.409 181.87 190.189 178.41 190.559C174.26 190.999 151.48 194.449 150.51 194.599C150.15 194.659 149.88 194.989 149.94 195.379C149.98 195.699 150.279 195.95 150.599 195.95ZM229.08 196.139C224.6 197.739 210.76 198.619 210.63 198.639C210.25 198.659 209.96 198.969 209.98 199.359C210.01 199.709 210.3 199.999 210.66 199.999H210.7C211.29 199.969 224.869 199.069 229.519 197.429C229.859 197.299 230.06 196.919 229.92 196.559C229.81 196.209 229.41 196.019 229.07 196.149L229.08 196.139ZM407.45 77.5491C408.19 75.9491 408.11 74.5495 407.22 73.7195C406.04 72.5895 403.74 72.8091 400.93 74.3191C396.41 76.7391 390.49 75.4893 390.44 75.4793C390.08 75.4093 389.71 75.6291 389.63 76.0091C389.55 76.3691 389.77 76.7391 390.13 76.8191C390.39 76.8791 396.59 78.1893 401.55 75.5193C404.18 74.1093 405.74 74.2093 406.28 74.7093C406.71 75.1193 406.67 75.9595 406.21 76.9895C404.96 79.7095 401.109 81.5292 395.93 81.8592C395.56 81.8892 395.27 82.1994 395.29 82.5794C395.31 82.9294 395.61 83.2293 395.97 83.2293H396.01C401.81 82.8493 405.97 80.7891 407.45 77.5691V77.5491ZM404.309 102.22C406.089 102.68 407.26 102.99 407.26 102.99C407.77 104.94 408.16 106.929 408.42 108.899C412.38 107.369 417.299 105.219 417.68 104.039C418.359 102.019 418.12 100.679 411.2 101.809C408.69 102.199 406.309 102.28 404.309 102.22ZM379.559 70.8894C379.939 70.8894 380.24 70.5793 380.24 70.2093C380.24 67.2093 379.91 55.0793 379.9 54.9593C379.89 54.5893 379.56 54.2891 379.2 54.2991C378.83 54.3091 378.53 54.6093 378.54 54.9993C378.54 55.1193 378.88 67.2293 378.88 70.2093C378.89 70.5693 379.179 70.8894 379.559 70.8894ZM390.84 255.279C396.85 245.759 399.8 233.95 399.8 233.95C396.9 218.94 396.45 199.679 396.45 199.679C390.86 221.299 390.809 249.499 390.849 255.279H390.84ZM458.15 223.169C458.21 223.499 458.49 223.74 458.83 223.74C458.86 223.74 458.9 223.739 458.94 223.729L512.44 214.909C512.81 214.859 513.06 214.509 513.01 214.129C512.95 213.759 512.59 213.499 512.23 213.569L458.72 222.389C458.34 222.449 458.08 222.799 458.15 223.169ZM475.07 170.72C475.24 170.72 475.41 170.659 475.53 170.539C475.8 170.279 475.81 169.849 475.55 169.579C457.76 150.879 455.79 114.819 455.76 114.459C455.74 114.089 455.409 113.799 455.059 113.809C454.679 113.829 454.39 114.149 454.41 114.519C454.44 114.879 456.43 151.439 474.58 170.499C474.7 170.649 474.879 170.72 475.059 170.72H475.07ZM399.8 233.95C399.8 233.95 399.86 234.559 400.05 235.539C399.98 235.039 399.91 234.51 399.8 233.95ZM382.809 60.7893C383.009 60.7893 383.21 60.6993 383.36 60.5193C383.44 60.4193 385.34 58.0095 389.11 59.9295C389.44 60.0895 389.849 59.9592 390.019 59.6292C390.189 59.2992 390.05 58.8895 389.73 58.7195C384.91 56.2495 382.31 59.6695 382.29 59.6995C382.06 59.9895 382.13 60.4192 382.42 60.6492C382.53 60.7592 382.68 60.7893 382.82 60.7893H382.809ZM389.93 61.8494C389.84 61.8894 389.759 61.9391 389.68 62.0091C388.43 63.3491 385.69 63.5892 385.65 63.5892C385.28 63.6092 384.999 63.9391 385.019 64.3191C385.049 64.6691 385.34 64.9495 385.7 64.9495H385.75C385.83 64.9395 387.08 64.8494 388.42 64.3494C387.22 66.2594 386.32 67.8194 386.99 69.3494C387.24 69.9294 387.84 70.3595 388.58 70.6995C388.56 70.7395 388.529 70.7791 388.519 70.8191C388.509 70.8591 387.62 74.5792 384.38 77.3992C384.1 77.6492 384.079 78.0692 384.309 78.3592C384.449 78.4992 384.63 78.5794 384.82 78.5794C384.98 78.5794 385.14 78.5295 385.26 78.4095C388.76 75.3395 389.75 71.4594 389.82 71.1394C391.65 71.6794 393.76 71.8292 394.38 71.8592H394.41C394.76 71.8592 395.08 71.5795 395.09 71.2195C395.11 70.8395 394.83 70.5195 394.45 70.4895C391.73 70.3495 388.58 69.6393 388.21 68.7693C387.79 67.8093 388.6 66.5095 389.73 64.7195C390.21 63.9395 390.77 63.0694 391.32 62.0794C393.33 58.3994 392.21 54.2391 392.16 54.0691C392.06 53.7091 391.69 53.4992 391.33 53.6092C390.97 53.7092 390.749 54.0693 390.849 54.4393C390.869 54.4793 391.87 58.2692 390.13 61.4393C390.08 61.5993 390.009 61.7092 389.93 61.8392V61.8494ZM405.849 64.2693C405.849 64.2693 405.92 64.2791 405.95 64.2791C406.28 64.2791 406.57 64.0392 406.63 63.6893C406.68 63.3293 406.42 62.9695 406.05 62.9295C400.46 62.0995 399.16 58.3092 399.11 58.1292C398.99 57.7792 398.62 57.5693 398.26 57.6893C397.9 57.8092 397.7 58.1793 397.82 58.5393C397.87 58.7293 399.349 63.3193 405.849 64.2693ZM400.769 68.2093C400.529 67.9293 400.109 67.8894 399.809 68.1194C399.529 68.3594 399.49 68.7891 399.71 69.0691C399.87 69.2591 403.48 73.6092 411.69 73.6092C412.09 73.6092 412.5 73.5991 412.91 73.5691C413.28 73.5491 413.57 73.2292 413.55 72.8592C413.53 72.4892 413.25 72.1895 412.84 72.2195C404.51 72.6495 400.809 68.2495 400.769 68.1995V68.2093ZM401.03 57.5594C401.17 57.5594 401.29 57.5193 401.41 57.4393C401.54 57.3493 404.59 55.3295 409.62 57.1795C409.97 57.3095 410.36 57.1393 410.49 56.7893C410.61 56.4394 410.43 56.0392 410.09 55.9192C404.34 53.7992 400.779 56.2192 400.639 56.3392C400.329 56.5492 400.26 56.9791 400.47 57.2791C400.61 57.4491 400.82 57.5594 401.04 57.5594H401.03ZM379.2 232.859C379.3 233.119 379.56 233.289 379.83 233.289C379.91 233.289 380 233.28 380.08 233.24C380.43 233.11 380.61 232.699 380.45 232.359L370.92 208.169C372.26 207.119 391.11 192.11 391.98 169.47C391.99 169.09 391.71 168.779 391.33 168.759C390.9 168.729 390.63 169.029 390.62 169.409C389.81 190.399 373.059 204.689 370.389 206.839L368.97 203.24C368.84 202.89 368.43 202.709 368.09 202.869C367.74 202.999 367.56 203.409 367.72 203.749L379.19 232.859H379.2ZM168.86 444.079L197.53 446.839C197.59 443.919 198.15 441.619 198.15 441.619L169.099 442.289C169.099 442.289 169.02 442.949 168.87 444.089L168.86 444.079ZM227.41 206.299C221.06 208.909 210.039 208.929 209.929 208.929C209.549 208.929 209.25 209.239 209.25 209.609C209.25 209.979 209.559 210.289 209.929 210.289C210.389 210.289 221.31 210.249 227.92 207.549C228.25 207.409 228.42 207.009 228.29 206.659C228.14 206.329 227.74 206.169 227.4 206.309L227.41 206.299ZM136.11 50.8191C136.11 50.8191 137.189 53.5794 139.269 57.8894C139.929 59.2594 140.11 60.3093 139.83 61.0193C139.49 61.8893 138.42 62.2795 137.4 62.6795L137.099 62.7893C136.749 62.9193 136.57 63.3192 136.72 63.6692C136.82 63.9392 137.08 64.0994 137.36 64.0994C137.44 64.0994 137.519 64.0891 137.599 64.0491L137.88 63.9393C139.05 63.4993 140.52 62.9391 141.09 61.5291C141.52 60.4291 141.32 59.0494 140.48 57.3094C138.43 53.0494 137.38 50.3592 137.37 50.3392C137.24 49.9892 136.83 49.8095 136.49 49.9495C136.17 50.0895 135.99 50.4794 136.12 50.8294L136.11 50.8191ZM138.57 271.799C136.73 289.019 133.58 325.169 133.55 325.589C133.51 325.969 133.78 326.299 134.16 326.329H134.22C134.57 326.329 134.87 326.069 134.9 325.709C134.94 325.209 139.23 275.869 140.7 265.109C142.13 254.609 147.009 249.719 147.059 249.669C147.319 249.409 147.34 248.969 147.08 248.709C146.82 248.439 146.39 248.44 146.12 248.7C145.9 248.9 140.869 253.909 139.349 264.929C139.169 266.239 138.96 268.119 138.7 270.409L106.349 256.689L105.22 248.509C105.18 248.129 104.84 247.859 104.46 247.919C104.08 247.959 103.83 248.299 103.87 248.689L104.88 256.069L94.2195 251.549C93.8895 251.399 93.4799 251.559 93.3299 251.909C93.1899 252.249 93.35 252.659 93.7 252.799L105.23 257.699C105.36 257.829 105.53 257.939 105.73 257.939H105.78L138.4 271.769C138.47 271.779 138.509 271.779 138.559 271.789L138.57 271.799ZM143.16 366.799C143.16 366.799 133.23 367.37 131.97 369.74C133.05 371.89 137.34 373.129 142.72 373.839L143.15 366.799H143.16ZM82.9695 228.859C82.7795 228.929 63.6498 237.459 41.9998 246.319C20.6898 255.029 5.00988 266.679 2.32988 271.389C2.23988 271.559 2.21934 271.739 2.26934 271.919C2.23934 271.959 2.20973 271.989 2.16973 272.019C0.979727 279.199 10.66 283.22 10.66 283.22L12.2596 264.059C19.1596 259.029 29.6393 252.829 42.5193 247.559C64.1893 238.689 83.3401 230.159 83.5301 230.069C83.8701 229.929 84.0199 229.519 83.8699 229.169C83.7199 228.859 83.3195 228.709 82.9695 228.859ZM383.04 438.47C382.43 434.25 380.98 423.289 379.15 409.409C375.59 382.579 370.71 345.809 368.73 333.319C365.73 314.329 370.02 301.169 381.86 293.059C393.7 284.949 419.27 270.169 427.11 265.919C434.7 261.799 432.21 255.279 432.19 255.209C432.05 254.859 431.649 254.699 431.309 254.839C430.959 254.979 430.81 255.38 430.94 255.72C431.03 255.94 433.02 261.169 426.48 264.729C418.62 268.999 393.01 283.819 381.12 291.939C368.8 300.369 364.32 313.969 367.41 333.519C369.4 345.999 374.27 382.749 377.82 409.579C379.66 423.459 381.1 434.419 381.71 438.649C381.98 440.549 382.27 442.299 382.54 443.939C384.05 453.089 384.96 458.609 378.63 464.959C370.99 472.599 367.09 475.939 367.04 475.979C366.76 476.209 366.73 476.649 366.96 476.939C367.1 477.089 367.29 477.169 367.47 477.169C367.63 477.169 367.78 477.119 367.9 477.009C367.93 476.979 371.879 473.619 379.559 465.929C386.389 459.079 385.39 452.969 383.86 443.729C383.6 442.089 383.3 440.35 383.04 438.47ZM557.099 269.599C556.899 267.489 555.26 265.809 553.16 265.549C553.16 265.549 551.15 275.179 532.37 275.179C513.59 275.179 501.51 274.96 488.33 294.22C475.14 313.49 460.17 334.549 460.17 334.549H419.03V328.279C419.03 327.909 418.73 327.599 418.36 327.599C417.99 327.599 417.68 327.909 417.68 328.279V334.699L416.79 353.369H457.22L461.08 477.629C461.12 479.139 462.36 480.359 463.88 480.369C465.4 480.379 466.66 479.169 466.72 477.649L471.43 353.359H507.49L532.73 476.819C533.04 478.289 534.46 479.269 535.95 479.029C537.45 478.779 538.47 477.379 538.28 475.869L521.92 353.339C546.78 353.239 558.99 339.829 559.43 317.279C559.75 299.489 557.9 277.979 557.09 269.579L557.099 269.599ZM333.12 160.549C333.06 160.539 327.03 159.799 320.63 160.099C314.5 160.379 311.729 159.999 308.43 157.269C305.07 154.489 301.809 151.229 301.769 151.189C301.519 150.929 301.08 150.929 300.82 151.189C300.56 151.449 300.56 151.889 300.82 152.149C300.85 152.179 304.16 155.489 307.57 158.319C311.28 161.379 314.47 161.749 320.71 161.459C326.97 161.159 332.9 161.889 332.97 161.899H333.05C333.39 161.899 333.68 161.649 333.72 161.299C333.76 160.939 333.5 160.589 333.13 160.539L333.12 160.549ZM290.45 147.849C290.45 147.849 288.6 149.219 283.36 152.289C282.09 153.029 281.129 153.679 280.349 154.209C277.859 155.929 277.19 156.38 272.69 155.2C266.37 153.54 259.73 154.399 259.46 154.429C259.09 154.469 258.83 154.81 258.87 155.2C258.92 155.57 259.259 155.839 259.639 155.779C259.709 155.769 266.29 154.919 272.34 156.509C274.13 156.979 275.41 157.209 276.46 157.209C278.26 157.209 279.35 156.549 281.12 155.339C281.87 154.829 282.82 154.179 284.03 153.459C289.37 150.329 291.18 148.989 291.25 148.929C291.54 148.709 291.61 148.28 291.38 147.99C291.18 147.69 290.74 147.639 290.45 147.859V147.849ZM229.46 201.549C222.24 205.009 210.219 204.619 210.099 204.609C209.759 204.579 209.409 204.879 209.389 205.269C209.379 205.639 209.66 205.959 210.04 205.979C210.14 205.979 210.67 205.999 211.5 205.999C215 205.999 223.97 205.699 230.03 202.769C230.37 202.619 230.509 202.199 230.349 201.869C230.189 201.529 229.79 201.389 229.45 201.559L229.46 201.549ZM164.62 417.419C151.4 414.809 143.06 418.129 141.45 418.849C142.19 422.499 144.07 424.279 147.63 424.599C152.99 425.039 188.089 424.599 205.519 424.159C212.739 423.979 216.229 421.099 217.349 417.699C214.719 417.079 211.239 416.609 206.639 416.539C191.669 416.319 179.38 420.349 164.62 417.429V417.419ZM137.769 169.129C141.209 159.929 140.45 148.979 140.41 148.479C140.39 148.109 140.049 147.829 139.679 147.849C139.309 147.879 139.03 148.199 139.05 148.589C139.06 148.699 139.77 158.789 136.9 167.499C135.52 170.849 132.34 178.299 128.99 184.669C128.99 184.669 131.27 189.039 133.78 193.659C134.95 190.209 137.879 180.329 137.769 169.129ZM130.559 75.1292H130.63C130.97 75.1292 131.269 74.8693 131.309 74.5193C131.339 74.1493 131.08 73.8091 130.7 73.7791C126.86 73.3691 123.56 70.5693 122.74 68.7893C122.32 67.8793 122.2 66.6092 122.69 66.1492C123.15 65.7392 124.329 65.9794 125.809 66.8294C130.699 69.5794 135.67 69.3091 135.88 69.2991C136.25 69.2791 136.539 68.9594 136.519 68.5794C136.489 68.2094 136.18 67.9092 135.8 67.9392C135.75 67.9392 131 68.1792 126.49 65.6292C124.33 64.4192 122.74 64.2592 121.78 65.1492C120.77 66.0892 120.879 67.9792 121.519 69.3592C122.469 71.3892 125.979 74.6194 130.559 75.1194V75.1292ZM68.2693 25.6194C68.2693 25.6194 66.6901 30.9893 70.2801 33.4593C73.8501 35.9193 76.3094 34.3592 76.3094 34.3592C76.3094 34.3592 76.6994 38.3295 79.8895 38.9695C79.9695 40.0895 80.1099 41.2492 80.3299 42.4192C83.6899 60.1192 93.0799 75.3494 93.0799 75.3494C93.0799 75.3494 97.7693 62.1291 93.5193 60.7791C89.2693 59.4391 87.0301 55.6295 87.0301 50.4695C87.0301 45.3095 91.2798 41.9691 93.2898 43.2991C95.3098 44.6391 101.34 46.6591 102.91 43.2991C104.47 39.9391 107.38 37.4691 109.84 30.2991C112.29 23.1291 114.98 21.7995 124.37 20.4495C133.76 19.0995 136.45 17.9895 136.45 17.9895C136.45 17.9895 121.92 7.67921 105.38 10.1492C102.4 10.5892 99.4598 11.4592 96.7098 12.6692C96.4298 10.8092 95.0997 8.5495 90.6297 7.4495C90.6297 7.4495 89.5194 2.29946 84.5994 1.40946C79.6794 0.499465 78.3396 5.21952 78.3396 5.21952C78.3396 5.21952 72.9797 1.85913 69.6297 4.31913C66.2697 6.77913 68.0594 11.6995 68.0594 11.6995C68.0594 11.6995 63.3701 14.3991 63.8201 19.3191C64.2301 24.2591 68.2596 25.5994 68.2596 25.5994L68.2693 25.6194ZM126.08 48.1692C125.14 48.1692 124.36 48.9492 124.36 49.8992C124.36 50.8492 125.14 51.6194 126.08 51.6194C127.02 51.6194 127.809 50.8392 127.809 49.8992C127.819 48.9492 127.04 48.1692 126.08 48.1692ZM54.8396 346.949L69.41 356.139L70.6102 341.939H54.8494V346.949H54.8396ZM132.429 40.2591C132.579 38.7691 129.16 38.4693 125.72 38.7693C122.3 39.0693 118.42 41.6194 118.42 41.6194C118.42 41.6194 118.42 42.8092 119.76 42.3592C121.1 41.9192 124.819 41.9192 127.809 41.9192C130.799 41.9192 132.27 41.7693 132.42 40.2693L132.429 40.2591ZM109.47 91.7791C111.21 93.3791 113.29 94.4093 114.98 95.0393C116.24 91.4093 117.66 88.5594 117.66 88.5594C117.66 88.5594 113.63 87.8891 109.03 85.7991C104.41 83.7091 105.9 88.4991 109.47 91.7791ZM44.9197 201.429C45.0497 201.609 45.2595 201.7 45.4695 201.7C45.5995 201.7 45.7502 201.659 45.8602 201.569C46.1602 201.339 46.2198 200.909 45.9998 200.619L33.9998 184.409C33.7698 184.119 33.3496 184.049 33.0496 184.279C32.7596 184.499 32.6897 184.93 32.9197 185.22L44.9197 201.429ZM64.8396 206.97C62.3797 203.73 60.8895 201.7 60.8895 201.7C60.8895 201.7 53.7503 205.959 51.2303 209.249C51.2403 209.269 51.2701 209.309 51.2801 209.319C51.7201 209.919 56.5597 209.41 64.8396 206.97ZM76.8201 139.72C76.4901 139.89 76.3698 140.309 76.5398 140.629L94.8797 175.429C94.9997 175.659 95.2303 175.789 95.4803 175.789C95.5903 175.789 95.6996 175.769 95.7996 175.709C96.1296 175.539 96.2499 175.129 96.0799 174.799L77.7303 139.999C77.5603 139.669 77.1501 139.55 76.8201 139.72ZM97.0994 184.519L99.9197 188.519C99.9197 188.519 102.01 185.559 101.58 184.229C101.14 182.889 97.1102 184.519 97.1102 184.519H97.0994ZM390.34 310.129C389.98 310.059 389.6 310.289 389.53 310.659C389.51 310.699 388.65 314.72 385.72 317.22C385.44 317.46 385.409 317.899 385.639 318.179C385.779 318.339 385.96 318.419 386.15 318.419C386.31 318.419 386.47 318.359 386.59 318.259C389.85 315.449 390.8 311.119 390.83 310.939C390.91 310.579 390.69 310.209 390.33 310.129H390.34ZM340.94 310.339C340.57 310.379 340.3 310.709 340.33 311.089C340.34 311.239 340.67 315.059 337.2 318.119C336.92 318.369 336.9 318.799 337.15 319.079C337.28 319.229 337.46 319.309 337.65 319.309C337.81 319.309 337.97 319.249 338.09 319.139C342.11 315.599 341.68 311.129 341.66 310.939C341.63 310.589 341.29 310.319 340.92 310.339H340.94Z" fill="#1A1B37"/>
</svg>
