<svg width="560" height="417" viewBox="0 0 560 417" fill="none" xmlns="http://www.w3.org/2000/svg">
<path d="M555.561 198.54C550.611 179.93 545.061 166.12 538.531 154.21C538.431 153.83 538.341 153.45 538.241 153.08C538.161 152.81 537.931 152.64 537.661 152.63C529.581 138.32 520.021 126.62 508.231 112.33C486.331 85.7804 466.631 77.5704 446.091 78.3904C425.571 79.2104 419.821 74.0101 419.821 74.0101L418.891 75.0603L418.491 74.9402L418.581 74.8201C416.681 73.6101 415.691 72.3902 415.281 70.9202C415.081 70.1702 415.011 69.3603 415.081 68.4603C415.281 65.7903 416.101 62.5102 420.001 48.9602C423.901 35.4002 416.921 25.5605 407.891 22.6805C398.861 19.8105 382.431 20.4201 373.411 25.5501C364.381 30.6801 364.581 45.8705 365.201 51.2005C365.811 56.5405 365.811 57.9701 364.581 61.0501C363.351 64.1301 362.94 64.1304 360.891 67.6204C358.841 71.1104 360.691 71.9303 361.301 72.5403C361.921 73.1503 365.201 73.5603 365.201 73.5603C365.201 73.5603 365.201 74.3805 365.811 82.1805C366.271 87.8505 369.641 90.8005 371.451 91.9905C371.631 92.1105 371.791 92.2101 371.941 92.3001H371.951C372.331 92.5301 372.581 92.6302 372.581 92.6302C372.581 92.6302 373.401 94.8903 375.251 101.25C377.091 107.61 377.501 110.28 377.301 113.15C377.101 115.82 376.561 119.911 376.491 120.471H374.901C374.901 120.471 367.241 169.45 366.961 187.79C366.691 206.13 371.611 221.46 380.911 224.19C381.031 224.12 381.141 224.051 381.261 223.991L381.301 224.1C370.181 230.74 368.801 244.18 370.781 260.32C372.961 278.1 384.731 327.92 386.101 336.12C387.461 344.33 388.841 366.77 389.661 366.77C389.811 366.77 391.57 366.59 394.38 366.29C394.451 366.58 394.561 367.04 394.701 367.7C395.401 370.72 396.79 377.21 397.391 382.22C397.75 385.18 396.931 387.71 395.291 390.07C393.161 393.14 389.651 395.93 385.491 399.05C378.101 404.59 370.711 408.08 368.241 410.54C365.771 413.01 364.351 416.491 369.691 416.491H432.911C439.471 416.491 444.401 415.26 443.581 406.02C443.141 401.07 442.001 396.24 440.931 392.15C440.001 388.61 439.151 385.65 438.861 383.64C438.491 381.03 437.731 373.44 437.201 367.87C437.131 367.02 437.041 366.221 436.981 365.491C436.981 365.451 436.971 365.42 436.971 365.38C436.901 364.64 436.831 364 436.781 363.44C436.781 363.38 436.771 363.33 436.771 363.26C436.751 363.01 436.731 362.79 436.711 362.58C436.711 362.55 436.701 362.521 436.701 362.491C436.691 362.311 436.661 362.18 436.651 362.04C436.641 361.89 436.631 361.77 436.621 361.69C440.531 361.26 443.031 360.991 443.031 360.991C443.031 360.991 440.851 301.6 440.561 291.46C440.291 281.34 439.201 264.64 439.201 264.64H515.291C531.661 264.64 545.13 259.2 551.891 251.39L552.781 252.34C552.781 252.34 566.741 240.63 555.531 198.48L555.561 198.54ZM400.111 107.05C400.491 105.76 401.081 103.961 401.651 102.241C401.771 101.881 401.891 101.53 402.011 101.18C402.021 101.15 402.031 101.13 402.041 101.09C402.141 100.8 402.251 100.51 402.331 100.23C402.351 100.15 402.391 100.08 402.411 100C402.471 99.8003 402.551 99.6002 402.611 99.4202C404.561 101.18 406.971 103.53 408.041 105.21C409.341 107.23 409.76 110.13 409.891 111.81C409.75 111.98 409.701 112.21 409.791 112.41C409.791 112.43 409.861 112.58 409.951 112.84C409.961 113.04 409.961 113.16 409.961 113.16L401.751 131.77L401.481 120.54H399.461C399.391 117.47 399.291 109.81 400.111 107.05ZM440.741 185.94L423.251 190.79C423.221 190.69 423.151 190.6 423.061 190.54L434.031 161.44L441.551 169.241L440.741 185.94ZM363.571 271.06C365.611 271.06 367.261 269.41 367.261 267.37C367.261 265.33 365.611 263.68 363.571 263.68H354.951V251.36H342.641V247.8H325.121V251.36H314.451V248.35H296.38V251.36H282.971V247.8H265.451V251.36H254.241V248.35H236.171V251.36H224.681V263.68H217.981C215.941 263.68 214.291 265.33 214.291 267.37C214.291 269.41 215.941 271.06 217.981 271.06H275.081V389.56C275.081 405.69 265.531 414.93 248.881 414.93C246.531 414.93 244.361 414.66 242.401 414.13C245.191 413.16 246.511 408.48 241.371 406.51C239.081 405.65 235.351 404.63 231.291 403.4C230.431 400.41 230.261 397.021 230.881 393.491C231.761 388.381 234.921 385.82 237.401 384.56C241.451 382.52 246.951 382.44 250.791 384.35C254.101 386 256.611 389.85 257.021 393.94C257.331 396.99 256.421 399.59 254.501 401.1C252.391 402.76 250.031 403.17 248.041 402.2C246.291 401.36 245.111 399.56 245.111 397.75C245.111 397.42 244.831 397.14 244.501 397.14C244.171 397.14 243.881 397.42 243.881 397.75C243.881 400.03 245.341 402.27 247.511 403.32C249.951 404.51 252.771 404.05 255.291 402.07C257.531 400.29 258.621 397.28 258.271 393.81C257.791 389.25 255.081 385.1 251.351 383.241C247.131 381.121 241.291 381.21 236.841 383.45C234.101 384.82 230.641 387.65 229.661 393.26C229.061 396.68 229.161 400 229.881 402.96C224.091 401.18 217.861 398.991 214.281 396.241C207.841 391.32 206.201 386.94 204.971 382.29C203.951 378.41 203.311 374.93 203.121 373.87C203.091 373.65 203.061 373.53 203.061 373.53L202.491 373.6C205.441 373.13 207.381 372.77 207.431 372.57C207.701 371.75 200.871 273.23 197.041 251.88C193.211 230.54 182.001 222.32 161.461 216.85C152.291 214.41 140.111 211.85 129.451 209.78C129.631 206.44 126.921 203.78 122.821 202.34C125.411 198.23 151.021 157.7 156.871 149.13C163.031 140.1 168.571 133.53 168.571 127.37C168.571 121.21 168.161 115.471 168.161 115.471C171.851 114.851 172.681 107.68 169.611 105.83C169.241 105.6 168.791 105.33 168.281 105.04C168.201 104.76 167.951 104.57 167.631 104.6C167.611 104.6 167.591 104.61 167.571 104.62C166.381 103.92 165.001 103.11 163.641 102.31C163.611 102.16 163.591 102.09 163.591 102.06C163.511 101.73 163.161 101.52 162.831 101.6C162.751 101.62 162.671 101.65 162.601 101.7C159.971 100.15 157.701 98.8504 157.701 98.8504L157.911 96.3802C157.911 96.3802 161.201 92.0605 162.831 90.2205C164.471 88.3705 162.831 85.5005 160.571 86.7205C158.321 87.9505 153.181 92.4601 152.361 96.5701C151.611 100.36 150.151 108.81 149.931 110.14C149.931 110.14 149.924 110.144 149.911 110.15C149.911 110.15 149.861 110.191 149.841 110.221C149.291 109.331 145.271 102.74 143.741 99.8602C142.101 96.7902 138.001 96.9902 139.221 101.71C140.451 106.43 142.091 110.32 145.161 117.71C148.241 125.11 147.631 128.39 145.371 131.06C143.261 133.56 117.611 163.68 114.161 167.75C114.001 167.61 113.811 167.58 113.621 167.61L111.931 160.58C114.221 160.03 116.361 159.5 116.831 159.38C117.921 159.11 109.711 128.73 104.521 108.76C99.6506 89.9901 93.8007 85.4701 83.6007 77.5101C83.3407 77.3001 83.0807 77.1002 82.8107 76.9002L82.7806 76.4705L86.3805 72.4402L91.4005 66.8201C91.4005 66.8201 95.9206 69.8903 101.251 72.9803C106.591 76.0603 112.331 74.8303 114.601 69.2903C116.861 63.7503 119.321 59.0301 119.321 59.0301C119.321 59.0301 125.261 59.2303 126.501 58.0003C127.731 56.7703 125.061 51.2305 124.251 47.7405C123.431 44.2405 123.221 43.0203 124.251 39.7303C124.441 39.1303 124.651 38.5503 124.851 37.9803C124.941 37.7503 125.05 37.5001 125.131 37.2601C125.461 36.4501 125.801 35.6004 126.171 34.5804C126.841 32.7504 127.561 30.4101 128.341 26.8001C128.561 25.8201 128.651 24.8404 128.651 23.8704C129.731 24.1404 131.061 24.2501 132.721 24.0701C138.461 23.3801 139.421 20.9301 138.881 20.1101C138.331 19.2901 134.641 18.6004 134.641 18.6004C134.641 18.6004 137.511 17.0902 137.381 16.4202C137.241 15.7302 132.461 14.6402 127.261 10.1302C122.061 5.60017 119.191 3.96015 113.041 1.36015C106.871 -1.23985 88.8205 0.400072 81.4305 4.78007C74.0305 9.17007 71.9805 26.4102 72.3905 31.4602C72.8005 36.5302 74.7907 48.7703 74.7907 48.7703L61.8407 61.9505C61.8407 61.9505 61.8206 61.9701 61.7706 62.0101C61.7106 62.0601 61.5707 62.1603 61.3707 62.2903C61.2807 62.3603 61.1506 62.4603 61.0106 62.5403C57.9006 64.7903 46.4805 73.0303 36.6605 80.2903C25.1705 88.7703 17.7707 104.36 12.8507 116.96C7.93072 129.55 0.260659 146.25 0.540659 147.61C0.620659 148.04 3.30055 149.35 6.93055 150.93L6.84071 150.9C6.84071 150.9 4.93053 169.79 4.66053 181.28C4.41053 191.87 10.9007 196.18 21.1207 198.5L21.0206 199.16L20.4306 203.08L17.1305 224.69C16.9205 226.07 18.1506 227.241 19.5206 226.971L22.1605 226.45V226.7C22.1505 229.99 22.6207 267.5 50.3507 267.5H126.711C126.711 267.5 84.8307 357.54 85.1107 358.63C85.1807 358.9 87.0707 360.15 89.8707 361.86C89.8107 362.19 89.5305 362.99 88.3905 364.79C86.7405 367.39 82.5005 373.4 78.6605 379.44C74.8305 385.46 75.6506 389.43 76.4806 389.83C77.3106 390.23 84.6905 397.08 92.9105 402.55C101.121 408.03 107.951 413.09 114.111 413.09H136.831C141.481 413.09 140.661 405.29 136.831 404.32C133.001 403.36 126.021 402.141 121.791 400.22C117.551 398.31 110.841 390.65 110.431 384.9C110.271 382.72 110.461 380.57 110.741 378.76C110.791 378.41 110.841 378.07 110.911 377.75C110.921 377.69 110.931 377.61 110.941 377.56C110.981 377.3 111.041 377.05 111.091 376.81C111.101 376.75 111.111 376.7 111.131 376.63C111.19 376.38 111.241 376.13 111.311 375.92C111.321 375.89 111.321 375.87 111.331 375.83C111.451 375.31 111.581 374.88 111.671 374.54C111.691 374.5 111.701 374.48 111.701 374.45C111.731 374.33 111.761 374.2 111.791 374.12C111.801 374.08 111.821 374.05 111.831 374.03C111.851 373.95 111.871 373.88 111.891 373.82C111.891 373.81 111.901 373.79 111.901 373.78C111.911 373.74 111.921 373.71 111.921 373.71L111.601 373.52C114.591 374.85 116.731 375.54 117.111 375.07C118.761 373.15 156.801 313.491 156.801 313.491C156.801 313.491 156.831 313.671 156.901 313.991C156.921 314.111 156.941 314.25 156.971 314.41C157.011 314.63 157.061 314.87 157.111 315.14C157.111 315.16 157.121 315.18 157.121 315.2C157.141 315.35 157.181 315.49 157.211 315.66C157.241 315.83 157.271 316 157.311 316.17C157.531 317.35 157.821 318.85 158.161 320.63C158.181 320.77 158.211 320.89 158.231 321.04C158.301 321.4 158.391 321.78 158.451 322.16C158.531 322.6 158.621 323.04 158.711 323.5C158.731 323.62 158.751 323.76 158.781 323.9C158.831 324.13 158.871 324.35 158.921 324.59C158.981 324.86 159.021 325.14 159.091 325.42C159.131 325.67 159.171 325.91 159.241 326.15C159.261 326.29 159.291 326.44 159.311 326.58C159.391 326.98 159.471 327.38 159.551 327.81C159.561 327.87 159.571 327.95 159.581 328.01C163.231 346.7 169.241 376.9 170.191 377.28C170.441 377.37 171.821 377.31 173.901 377.14H173.881C173.881 377.14 173.921 377.3 173.961 377.59C173.961 377.6 173.961 377.61 173.971 377.62C174.061 378.13 174.221 379 174.421 380.15C175.171 384.46 176.471 392.45 176.751 397.53C177.161 404.79 174.281 414.36 183.051 414.36H239.201C241.951 415.57 245.191 416.21 248.851 416.21C265.391 416.21 275.221 407.46 276.191 392.13H288.611V413.12C288.611 413.45 288.891 413.73 289.221 413.73C289.551 413.73 289.841 413.45 289.841 413.12V392.13H302.38C303.35 407.46 313.181 416.21 329.721 416.21C336.501 416.21 341.891 414.07 345.301 410.01C348.751 405.9 350.091 399.8 348.951 393.3C347.961 387.69 344.501 384.861 341.761 383.491C337.311 381.251 331.481 381.16 327.251 383.28C323.531 385.15 320.811 389.29 320.331 393.85C319.981 397.32 321.071 400.33 323.311 402.11C325.821 404.09 328.661 404.54 331.091 403.36C333.261 402.32 334.721 400.07 334.721 397.79C334.721 397.46 334.441 397.18 334.111 397.18C333.781 397.18 333.491 397.46 333.491 397.79C333.491 399.61 332.311 401.401 330.561 402.241C328.571 403.211 326.221 402.8 324.101 401.14C322.201 399.63 321.281 397.03 321.591 393.98C322.011 389.89 324.511 386.04 327.811 384.39C331.641 382.48 337.151 382.56 341.211 384.61C343.691 385.86 346.841 388.43 347.731 393.53C348.791 399.67 347.561 405.391 344.351 409.22C341.181 412.99 336.131 414.96 329.721 414.96C313.911 414.96 304.511 406.61 303.621 391.94C303.731 391.84 303.801 391.67 303.801 391.5C303.801 391.31 303.711 391.16 303.581 391.04C303.561 390.55 303.531 390.08 303.531 389.58V271.06H363.561H363.571ZM288.651 390.84H276.281C276.291 390.41 276.321 389.99 276.321 389.55V271.06H288.651V390.84ZM289.901 390.84V271.06H302.341V389.56C302.341 390 302.371 390.41 302.391 390.85H289.901V390.84Z" fill="#7B8CC6"/>
<path d="M555.56 198.539C544.35 156.389 530.1 138.879 508.23 112.329C486.33 85.7794 466.63 77.5694 446.09 78.3894C425.57 79.2094 419.82 73.9993 419.82 73.9993L399.84 96.9895C399.84 96.9895 406.13 102.189 408.05 105.209C409.96 108.219 409.96 113.149 409.96 113.149L401.75 131.749L401.48 120.539H374.94C374.94 120.539 367.28 169.529 367 187.859C366.73 206.199 371.65 221.529 380.95 224.269C385.87 221.249 388.35 220.699 388.35 220.699L399.56 216.869H456.22C477.02 216.869 480.85 210.039 480.85 210.039L512.32 209.49L552.82 252.459C552.82 252.459 566.77 240.689 555.56 198.549V198.539ZM440.74 185.939L422.96 190.859L434.04 161.439L441.56 169.24L440.74 185.939ZM365.83 82.2195C365.22 74.4295 365.22 73.6091 365.22 73.6091L385.95 63.7493C385.95 63.7493 386.97 61.4991 388.42 56.3591C389.87 51.2191 389.87 46.9192 386.78 44.4592C383.7 41.9792 378.57 40.3493 375.9 36.0393C373.24 31.7193 373.43 25.5691 373.43 25.5691C382.46 20.4291 398.89 19.8295 407.91 22.6995C416.94 25.5695 423.92 35.4193 420.02 48.9793C416.12 62.5293 415.3 65.7993 415.1 68.4793C415.03 69.3893 415.09 70.1892 415.3 70.9392L402.17 60.8894C402.17 60.8894 406.27 57.3991 405.46 51.8591C404.64 46.3191 400.74 44.4695 398.27 44.4695C395.8 44.4695 393.56 45.0793 394.78 49.9993C396.01 54.9193 397.44 61.4993 397.44 61.4993L396.42 90.6492C396.42 90.6492 395.6 91.2591 392.52 92.0891C389.45 92.9091 385.54 94.3492 379.8 93.9392C376.79 93.7192 374.19 93.3894 371.97 92.3694C370.39 91.4194 366.34 88.4793 365.84 82.2293L365.83 82.2195ZM367.68 48.1492C368.5 47.5992 375.75 47.4592 376.57 47.8792C377.39 48.2892 377.39 49.2392 376.84 50.2092C376.29 51.1692 369.18 50.4794 368.23 50.3494C367.26 50.1994 366.88 48.6892 367.68 48.1492ZM103.17 124.229H95.78V120.669H103.17V124.229ZM82.1599 99.6692L58.4199 64.4392C60.5399 62.8992 61.8401 61.9592 61.8401 61.9592L83.5901 94.5193L82.8 76.8992C83.61 77.5192 84.3999 78.1593 85.1699 78.7493L86.0601 99.2493L82.1499 99.6594L82.1599 99.6692ZM136.83 413.099H114.11C107.95 413.099 101.12 408.019 92.9099 402.559C84.6999 397.089 77.31 390.249 76.48 389.839C75.66 389.429 74.8399 385.459 78.6599 379.449C82.4899 373.419 86.7399 367.399 88.3899 364.799C90.0299 362.199 89.8999 361.659 89.8999 361.659L111.92 373.699C111.92 373.699 110.01 379.179 110.41 384.929C110.82 390.669 117.54 398.339 121.77 400.249C126.01 402.159 132.98 403.389 136.81 404.349C140.65 405.309 141.47 413.109 136.82 413.109L136.83 413.099ZM241.39 414.319H183.1C174.35 414.319 177.22 404.74 176.81 397.49C176.4 390.24 173.94 377.109 173.94 377.109L203.09 373.539C203.09 373.539 203.78 377.639 205 382.309C206.23 386.959 207.87 391.339 214.3 396.259C220.73 401.179 235.65 404.329 241.39 406.519C247.13 408.719 244.8 414.319 241.39 414.319ZM296.38 248.339H314.45V251.349H296.38V248.339ZM236.19 248.339H254.25V251.349H236.19V248.339ZM443.62 406.109C444.44 415.349 439.52 416.579 432.95 416.579H369.73C364.39 416.579 365.83 413.089 368.28 410.639C370.75 408.159 378.14 404.689 385.53 399.139C389.69 396.019 393.2 393.219 395.33 390.159L400.93 395.039L406.88 389.089C406.88 389.089 414.06 395.259 417.75 397.919C421.45 400.589 424.12 399.369 430.07 396.079C432.69 394.629 436.99 393.299 440.96 392.269C442.05 396.339 443.19 401.159 443.62 406.109Z" fill="#1A1B37"/>
<path d="M168.171 115.47C168.171 115.47 168.581 121.21 168.581 127.37C168.581 133.53 163.051 140.099 156.881 149.129C151.031 157.699 125.421 198.249 122.831 202.339C127.031 203.809 129.771 206.56 129.451 210.02L121.241 208.66C121.241 208.66 103.171 213.04 92.5113 212.22C81.8313 211.4 35.5814 201.279 23.8114 199.089C12.0414 196.909 4.39122 192.789 4.66122 181.299C4.93122 169.809 6.84139 150.919 6.84139 150.919L36.4012 162.149L34.4913 172.54C34.4913 172.54 90.5912 199.36 94.6912 201C97.4712 202.11 100.771 202.22 105.411 201.91C106.011 199.05 107.451 191.65 107.631 186.29C107.831 179.52 105.641 162.14 105.641 162.14L111.931 160.49L113.781 168.22C113.781 168.22 143.131 133.739 145.391 131.069C147.641 128.409 148.261 125.13 145.181 117.72C142.111 110.33 140.471 106.44 139.241 101.72C138.011 96.9998 142.111 96.7997 143.761 99.8697C145.401 102.95 149.921 110.339 149.921 110.339C149.921 110.339 151.561 100.699 152.391 96.5894C153.211 92.4894 158.341 87.9798 160.601 86.7398C162.861 85.5098 164.501 88.3798 162.861 90.2398C161.221 92.0798 157.941 96.3994 157.941 96.3994L157.731 98.8697C157.731 98.8697 166.561 104.01 169.641 105.85C172.721 107.69 171.901 114.87 168.201 115.48L168.171 115.47ZM83.6014 94.5396L82.7813 76.4795L91.4012 66.8394C91.4012 66.8394 95.9213 69.9095 101.251 72.9995C106.591 76.0795 112.331 74.8496 114.601 69.3096C116.861 63.7696 119.321 59.0493 119.321 59.0493C119.321 59.0493 125.261 59.2496 126.501 58.0196C127.731 56.7896 125.061 51.2493 124.251 47.7593C123.431 44.2593 123.221 43.0395 124.251 39.7495C125.271 36.4595 126.721 34.4094 128.351 26.8194C129.991 19.2294 125.481 11.4194 111.311 5.87942C97.1514 0.349424 82.9812 5.87972 77.4412 13.6797C71.9112 21.4697 74.7813 48.7696 74.7813 48.7696L61.8514 61.9698L83.6014 94.5396ZM397.441 201.68C397.441 201.68 390.881 211.12 386.971 218.5C383.081 225.89 385.131 232.66 385.131 232.66C385.131 232.66 394.161 220.129 402.981 217.069C400.521 208.659 397.441 201.68 397.441 201.68ZM438.901 383.74C438.281 379.43 436.641 361.58 436.641 361.58L394.361 366.1C394.361 366.1 396.611 375.539 397.431 382.319C397.791 385.269 396.971 387.8 395.331 390.16L400.931 395.04L406.881 389.089C406.881 389.089 414.061 395.259 417.751 397.919C421.451 400.589 424.121 399.37 430.071 396.08C432.691 394.63 436.991 393.3 440.961 392.27C440.041 388.72 439.191 385.75 438.901 383.74ZM385.951 63.7398L365.221 73.5996C365.221 73.5996 361.931 73.1894 361.321 72.5694C360.711 71.9494 358.851 71.1194 360.911 67.6494C362.961 64.1494 363.381 64.1494 364.601 61.0894C365.831 58.0094 365.831 56.5695 365.221 51.2295C364.601 45.8895 364.401 30.7096 373.431 25.5796C373.431 25.5796 373.231 31.7393 375.901 36.0493C378.571 40.3493 383.691 41.9898 386.781 44.4698C389.861 46.9398 389.861 51.2297 388.421 56.3697C386.991 61.5097 385.941 63.7593 385.941 63.7593L385.951 63.7398ZM376.581 47.8794C375.761 47.4694 368.511 47.6094 367.691 48.1494C366.891 48.6794 367.281 50.1996 368.241 50.3296C369.201 50.4596 376.311 51.1495 376.851 50.1895C377.391 49.2295 377.391 48.2797 376.581 47.8697V47.8794ZM371.961 92.3394H371.971C371.811 92.2494 371.651 92.1493 371.461 92.0293C371.651 92.1493 371.811 92.2694 371.961 92.3394ZM376.501 120.609L399.481 121.839C399.481 121.839 399.071 110.55 400.101 107.06C401.121 103.56 403.601 96.5894 403.601 96.5894L412.211 104.81L408.711 88.5796L418.571 74.8394C416.671 73.6194 415.681 72.3997 415.271 70.9297L402.141 60.8794C402.141 60.8794 406.241 57.3796 405.431 51.8496C404.611 46.3096 400.711 44.4595 398.241 44.4595C395.771 44.4595 393.531 45.0698 394.751 49.9898C395.981 54.9098 397.411 61.4898 397.411 61.4898L396.391 90.6397C396.391 90.6397 395.571 91.2496 392.491 92.0796C389.421 92.8996 385.511 94.3397 379.771 93.9297C376.771 93.7097 374.171 93.3794 371.951 92.3594C372.331 92.5894 372.581 92.6997 372.581 92.6997C372.581 92.6997 373.401 94.9496 375.251 101.31C377.091 107.68 377.501 110.34 377.301 113.21C377.091 116.08 376.481 120.609 376.481 120.609H376.501Z" fill="#D39C71"/>
<path d="M454.64 190.86C454.64 198.59 452.79 202.33 441.8 204.06C431.41 205.7 402.12 210.35 402.12 210.35L401.92 209.12C401.92 209.12 431.21 204.47 441.61 202.83C451.62 201.26 453.4 198.31 453.4 190.86C453.4 182.93 454.23 128.92 454.49 118.33C454.76 107.19 458.57 87.5096 458.6 87.2996C458.67 86.9696 459 86.7396 459.34 86.7996C459.67 86.8696 459.89 87.1998 459.83 87.5398C459.8 87.7298 456 107.32 455.74 118.35C455.47 128.95 454.64 182.94 454.64 190.86ZM475.95 92.8196C475.61 92.7896 475.32 93.0597 475.29 93.3997C475.27 93.7097 473.64 125.14 472.28 148.13C471.95 153.61 471.65 159.19 471.35 164.61C470.39 181.91 469.49 198.26 468.46 204.71C467.17 212.69 453.2 215.94 453.06 215.98C452.72 216.05 452.52 216.39 452.58 216.72C452.65 217.01 452.91 217.21 453.19 217.21C453.23 217.21 453.27 217.21 453.33 217.2C453.93 217.06 468.26 213.71 469.67 204.92C470.71 198.4 471.63 182.01 472.57 164.68C472.87 159.25 473.17 153.68 473.5 148.2C474.85 125.2 476.5 93.7797 476.51 93.4597C476.54 93.1297 476.28 92.8398 475.94 92.8098L475.95 92.8196ZM489.07 151.21C488.85 150.94 488.46 150.9 488.21 151.1C487.94 151.32 487.88 151.7 488.1 151.97L504.79 173.55L503.77 209.66C503.76 210 504.03 210.29 504.37 210.31H504.39C504.73 210.31 505 210.04 505.01 209.71L506.03 173.38C506.03 173.23 505.99 173.1 505.89 172.98L489.07 151.22V151.21ZM487.03 177.91C486.82 177.63 486.45 177.58 486.17 177.76C485.89 177.97 485.83 178.34 486.03 178.63L492.22 187.23C492.02 188.1 491.24 191.28 489.21 197.36C486.72 204.82 487.51 209 487.56 209.18C487.61 209.47 487.87 209.68 488.16 209.68C488.21 209.68 488.24 209.68 488.28 209.66C488.62 209.6 488.83 209.28 488.77 208.93C488.76 208.89 488.02 204.86 490.39 197.76C492.83 190.42 493.46 187.35 493.48 187.22C493.52 187.04 493.48 186.87 493.39 186.73L487.02 177.9L487.03 177.91ZM524.11 185.34C523.26 174.98 522.78 169.28 518.25 161.95C512.93 153.37 492.74 133.53 491.89 132.69C491.64 132.46 491.26 132.46 491.01 132.7C490.77 132.95 490.77 133.35 491.02 133.58C491.24 133.78 511.96 154.15 517.19 162.61C521.56 169.67 522.01 174.94 522.87 185.43C523.04 187.51 523.23 189.78 523.46 192.3C524.68 205.21 525.47 211.07 525.68 212.49L520.22 216.79C519.95 217 519.9 217.39 520.12 217.65C520.24 217.81 520.42 217.89 520.6 217.89C520.74 217.89 520.87 217.84 520.98 217.75L526.72 213.23C526.91 213.09 526.98 212.87 526.95 212.64C526.94 212.59 526.12 207.14 524.69 192.16C524.47 189.67 524.27 187.4 524.11 185.34ZM538.23 153.08C538.14 152.76 537.8 152.55 537.46 152.64C537.14 152.72 536.93 153.07 537.02 153.4C544.79 181.98 547.07 224.02 547.25 227.72L539.22 236.35C538.98 236.6 538.99 237 539.25 237.23C539.37 237.34 539.52 237.4 539.69 237.4C539.86 237.4 540.02 237.33 540.14 237.2L548.35 228.37C548.46 228.25 548.52 228.09 548.52 227.91C548.5 227.47 546.38 182.96 538.24 153.07L538.23 153.08ZM440.68 116.88C440.8 117.03 440.98 117.11 441.16 117.11C441.3 117.11 441.44 117.07 441.56 116.97C441.83 116.75 441.86 116.36 441.65 116.09L424.4 94.95C424.19 94.68 423.8 94.6499 423.53 94.8699C423.26 95.0799 423.23 95.47 423.44 95.74L440.69 116.88H440.68ZM440.86 146C440.98 146.17 441.17 146.26 441.37 146.26C441.49 146.26 441.62 146.23 441.72 146.15C442 145.95 442.06 145.57 441.87 145.29L413.55 105.87C413.34 105.59 412.96 105.54 412.68 105.72C412.4 105.93 412.35 106.31 412.53 106.59L440.86 146ZM423.2 138.22C430.3 147.74 440.13 163.06 440.21 163.22C440.32 163.41 440.53 163.51 440.73 163.51C440.84 163.51 440.97 163.47 441.07 163.41C441.36 163.22 441.43 162.84 441.26 162.55C441.16 162.39 431.31 147.04 424.2 137.48C417.15 128.02 411 112.13 410.94 111.97C410.83 111.66 410.46 111.49 410.15 111.61C409.83 111.73 409.66 112.1 409.79 112.41C409.85 112.59 416.07 128.62 423.21 138.23L423.2 138.22ZM392.72 190.94C392.11 184.47 392.51 122.46 392.51 121.83C392.51 121.49 392.24 121.21 391.9 121.2C391.56 121.2 391.28 121.47 391.28 121.81C391.26 124.37 390.87 184.52 391.49 191.05C392.1 197.71 395.36 202.25 395.51 202.43C395.63 202.61 395.82 202.69 396.02 202.69C396.14 202.69 396.28 202.66 396.37 202.57C396.66 202.37 396.71 201.99 396.51 201.71C396.49 201.68 393.33 197.25 392.73 190.94H392.72ZM387.06 216.72C386.97 216.68 378.13 211.78 377.53 198.76C376.93 185.4 381.99 122.51 382.05 121.87C382.08 121.53 381.83 121.22 381.48 121.2C381.15 121.18 380.83 121.43 380.81 121.77C380.76 122.4 375.69 185.39 376.29 198.83C376.91 212.57 386.08 217.62 386.47 217.82C386.56 217.87 386.66 217.89 386.76 217.89C386.99 217.89 387.2 217.77 387.31 217.56C387.47 217.26 387.34 216.88 387.05 216.72H387.06ZM421.98 145.94C421.69 145.76 421.31 145.86 421.13 146.16L402.86 177.16C402.68 177.45 402.79 177.84 403.09 178.01C403.18 178.06 403.29 178.1 403.4 178.1C403.62 178.1 403.82 177.99 403.94 177.79L422.21 146.8C422.38 146.49 422.28 146.1 421.98 145.94ZM402.25 150.89C402.34 150.95 402.46 150.98 402.57 150.98C402.78 150.98 402.98 150.88 403.1 150.68L413.77 133.64C413.96 133.35 413.86 132.96 413.58 132.79C413.29 132.61 412.9 132.7 412.73 132.98L402.05 150.03C401.86 150.33 401.95 150.72 402.25 150.89ZM413.86 193.84C413.92 193.86 414 193.87 414.06 193.87C414.31 193.87 414.55 193.71 414.65 193.46C414.95 192.69 425.26 171.76 429.19 163.76C429.35 163.46 429.22 163.08 428.91 162.93C428.61 162.78 428.23 162.91 428.08 163.21C425.69 168.09 413.69 192.43 413.47 193.05C413.37 193.39 413.54 193.73 413.85 193.84H413.86ZM224.68 263.94H354.95V251.34H224.68V263.94Z" fill="#E0B2D3"/>
<path d="M174.471 281.13C172.901 290.92 167.501 321.09 159.601 327.98C157.961 319.56 156.801 313.48 156.801 313.48L172.301 283.19C172.241 283.03 172.241 282.87 172.321 282.7C172.321 282.7 175.191 276.75 181.561 263.82C187.561 251.63 189.021 234.53 175.151 223.11C174.881 222.89 174.841 222.51 175.071 222.24C175.291 221.98 175.671 221.93 175.941 222.15C190.371 234.03 188.881 251.75 182.681 264.37C180.381 269.04 178.531 272.8 177.121 275.7C177.151 275.76 177.191 275.85 177.201 275.93L189.731 374.45C189.771 374.78 189.521 375.11 189.191 375.15H189.111C188.811 375.15 188.541 374.92 188.501 374.61L176.171 277.66C175.451 279.12 174.891 280.28 174.461 281.16L174.471 281.13ZM161.001 253.17C161.321 253.05 161.481 252.68 161.351 252.37C161.231 252.04 160.881 251.88 160.551 252.01L154.701 254.21C154.911 252.59 154.781 247.93 148.521 241.92L154.791 236.65C155.051 236.43 155.081 236.05 154.871 235.78C154.641 235.52 154.261 235.48 153.991 235.7L147.341 241.29C142.211 240.95 75.0812 236.34 63.5212 235.15C52.3712 234.02 49.0312 226.96 47.2312 220.22C47.1912 220.1 47.1212 219.99 47.0212 219.91C47.3012 219.43 47.5611 218.85 47.6511 218.2C47.7911 217.25 48.5913 213.55 49.0813 211.27L52.4211 218.78C52.5411 219.05 52.8511 219.21 53.1411 219.13L80.6511 212.14C80.9811 212.07 81.1813 211.71 81.1013 211.39C81.0113 211.05 80.6713 210.85 80.3513 210.94L53.3413 217.79L49.4512 209.03C49.3412 208.78 49.0913 208.63 48.8213 208.67C48.5513 208.69 48.3412 208.9 48.2812 209.15C48.2213 209.46 46.6412 216.59 46.4312 218.03C46.2912 219 45.5613 219.9 45.2812 220.23L23.3013 225.53C22.9613 225.6 22.7613 225.95 22.8313 226.28C22.8313 226.29 22.8413 226.3 22.8413 226.3L22.1311 226.48C22.1311 226.48 22.0612 230.88 22.9412 236.79C27.3912 229.49 33.5413 225.36 36.8013 223.56L45.7512 221.41C45.8512 221.39 45.9613 221.34 46.0413 221.24C46.0513 221.23 46.1012 221.18 46.1812 221.09C48.1312 228.08 51.7911 235.23 63.3911 236.39C74.3811 237.51 135.311 241.71 145.971 242.44L134.681 251.92C134.421 252.15 134.391 252.53 134.611 252.8C134.731 252.95 134.911 253.03 135.081 253.03C135.231 253.03 135.361 252.98 135.481 252.87L147.551 242.74C154.691 249.54 153.391 254.43 153.371 254.47C153.351 254.55 153.351 254.63 153.361 254.72L139.791 259.82C139.461 259.94 139.301 260.31 139.431 260.62C139.521 260.87 139.761 261.03 140.011 261.03C140.081 261.03 140.161 261.02 140.231 260.99L153.011 256.18C152.571 257.56 151.561 260.22 149.311 265.27C144.851 275.21 99.4912 364.92 99.0212 365.83C98.8612 366.13 98.9913 366.51 99.2913 366.66C99.3813 366.7 99.4813 366.72 99.5713 366.72C99.8013 366.72 100.031 366.6 100.131 366.39C100.591 365.48 145.961 275.74 150.431 265.78C152.681 260.76 154.011 257.38 154.421 255.64L161.031 253.18L161.001 253.17ZM106.311 201.88C106.401 201.86 115.461 199.89 122.211 202.08C122.271 202.1 122.331 202.11 122.401 202.11C122.661 202.11 122.911 201.94 122.991 201.68C123.081 201.35 122.911 201 122.581 200.89C115.521 198.6 106.411 200.59 106.031 200.66C105.701 200.74 105.491 201.07 105.561 201.41C105.641 201.73 105.991 201.95 106.311 201.88ZM156.261 109.32C156.641 111.41 157.041 113.57 159.281 114.66C161.761 115.87 167.291 116.21 167.511 116.22H167.551C167.871 116.22 168.141 115.96 168.161 115.64C168.181 115.31 167.921 114.99 167.581 114.98C167.571 114.98 167.361 114.97 167.031 114.94C168.881 112.06 168.381 105.91 168.301 105.14C168.271 104.81 167.971 104.55 167.621 104.58C167.291 104.61 167.031 104.91 167.061 105.26C167.271 107.36 167.371 113.17 165.551 114.79C164.831 114.71 164.001 114.59 163.161 114.45C163.641 113.77 164.361 112.36 164.461 109.87C164.601 106.4 163.601 102.2 163.541 102.03C163.471 101.7 163.121 101.49 162.791 101.57C162.451 101.64 162.251 101.99 162.321 102.32C162.331 102.37 163.331 106.52 163.191 109.81C163.071 112.88 161.891 114.02 161.891 114.02C161.851 114.07 161.821 114.11 161.791 114.17C161.021 113.99 160.321 113.77 159.781 113.51C158.091 112.71 157.791 111.01 157.431 109.07C157.361 108.62 157.261 108.15 157.161 107.72C156.961 106.86 157.101 106.24 157.301 105.83L157.961 108.11C158.051 108.43 158.411 108.63 158.731 108.54C159.051 108.45 159.251 108.1 159.161 107.77L158.201 104.42C158.151 104.23 158.021 104.09 157.841 104.01C157.671 103.94 157.481 103.95 157.301 104.04C157.231 104.08 155.331 105.18 155.981 108C156.121 108.46 156.191 108.88 156.271 109.33L156.261 109.32ZM152.101 113.6C153.271 114.36 156.971 116.47 157.121 116.56C157.221 116.61 157.331 116.63 157.421 116.63C157.641 116.63 157.861 116.53 157.961 116.32C158.141 116.03 158.031 115.64 157.731 115.48C157.691 115.46 153.901 113.3 152.761 112.55C151.741 111.89 150.771 110.37 150.751 110.34C150.571 110.05 150.191 109.96 149.901 110.14C149.611 110.32 149.521 110.7 149.701 110.99C149.761 111.08 150.831 112.77 152.091 113.59L152.101 113.6ZM112.161 59.0599C108.301 57.5299 108.051 54.14 108.041 53.99C108.021 53.65 107.761 53.3897 107.381 53.3997C107.051 53.4197 106.781 53.7199 106.801 54.0599C106.811 54.2399 107.081 58.38 111.711 60.22C111.781 60.26 111.871 60.2698 111.931 60.2698C112.181 60.2698 112.421 60.1199 112.511 59.8699C112.631 59.5499 112.471 59.1899 112.161 59.0599ZM120.421 42.47C120.421 41.68 119.771 41.0198 118.971 41.0198C118.171 41.0198 117.531 41.67 117.531 42.47C117.531 43.27 118.161 43.9197 118.971 43.9197C119.781 43.9197 120.421 43.26 120.421 42.47ZM74.7812 48.7596C74.7812 48.7596 84.4112 44.5898 86.4812 43.4998C88.5312 42.3998 87.1713 37.7498 87.3013 34.4598C87.4413 31.1698 90.1711 26.67 94.4211 25.7C98.6611 24.74 100.581 29.5297 101.251 31.4397C101.941 33.3497 103.581 34.3099 105.081 33.0799C106.591 31.8499 108.221 29.3897 110.001 27.6097C111.781 25.8297 117.261 26.7899 120.271 25.1399C123.281 23.4999 124.921 21.5799 124.921 21.5799C124.921 21.5799 126.971 24.7196 132.711 24.0496C138.451 23.3596 139.411 20.9096 138.871 20.0896C138.321 19.2696 134.631 18.5799 134.631 18.5799C134.631 18.5799 137.501 17.0697 137.371 16.3997C137.231 15.7097 132.451 14.6199 127.251 10.0999C122.051 5.5799 119.181 3.93964 113.021 1.33964C106.861 -1.26036 88.8111 0.379564 81.4111 4.75956C74.0211 9.13956 71.9711 26.3897 72.3811 31.4397C72.8011 36.5197 74.7812 48.7596 74.7812 48.7596ZM126.181 34.5799C124.061 33.5099 119.511 31.4598 118.781 33.2298C118.221 34.5898 123.461 37.2998 124.861 37.9798C125.261 36.9398 125.691 35.8899 126.181 34.5799ZM84.9612 65.9397C85.2012 66.9797 85.8713 70.07 86.3713 72.45L91.3911 66.8299C91.3911 66.8299 89.4813 64.9799 87.5613 63.8899C85.6513 62.7899 84.5512 64.1597 84.9512 65.9397H84.9612ZM106.261 161.56L103.931 118.73C103.901 118.39 103.601 118.12 103.271 118.14C102.931 118.17 102.661 118.46 102.691 118.8L105.021 161.64C105.041 161.96 105.311 162.22 105.631 162.22H105.661C106.001 162.2 106.271 161.91 106.251 161.56H106.261ZM36.4812 163.27L40.7212 164.63C40.7812 164.65 40.8411 164.66 40.9111 164.66C41.1611 164.66 41.4012 164.51 41.4812 164.26L56.6812 126.5C56.8012 126.19 56.6613 125.82 56.3313 125.69C56.0213 125.57 55.6512 125.71 55.5212 126.03L40.5513 163.26L36.8613 162.06C36.5413 161.96 36.1813 162.14 36.0913 162.47C35.9813 162.8 36.1512 163.16 36.4912 163.26L36.4812 163.27ZM21.4712 198.67L21.0012 199.17L19.7012 207.7C29.8112 206.24 49.6611 204.55 49.6611 204.55L21.4712 198.67ZM173.911 377.11C173.911 377.11 174.131 378.28 174.451 380.11C179.411 379.59 195.461 377.64 203.121 373.9C203.091 373.67 203.061 373.55 203.061 373.55L173.911 377.12V377.11ZM89.8911 361.81C93.8111 365.49 103.541 374.34 110.741 378.77C111.201 375.79 111.931 373.68 111.931 373.68L89.9111 361.64C89.9111 361.64 89.9111 361.69 89.9011 361.81H89.8911ZM108.191 173.36C108.311 173.5 108.481 173.56 108.651 173.56C108.801 173.56 108.961 173.51 109.071 173.39L114.211 168.67C114.461 168.44 114.481 168.05 114.241 167.8C114.011 167.55 113.621 167.53 113.371 167.77L108.231 172.48C107.971 172.72 107.961 173.11 108.201 173.36H108.191ZM373.631 58.72C373.631 57.75 372.851 56.97 371.881 56.97C370.911 56.97 370.131 57.75 370.131 58.72C370.131 59.69 370.911 60.47 371.881 60.47C372.851 60.47 373.631 59.68 373.631 58.72ZM434.051 161.44L428.201 153.41C428.261 153.23 428.231 153.04 428.131 152.87C428.081 152.82 423.961 147.04 419.081 140.81C414.301 134.7 412.111 124.34 412.091 124.24C412.021 123.91 411.681 123.69 411.351 123.76C411.021 123.82 410.801 124.16 410.871 124.49C410.961 124.93 413.151 135.25 418.101 141.58C421.141 145.46 423.871 149.15 425.521 151.4C426.651 156.16 428.831 166.83 428.361 176.53L434.051 161.43V161.44ZM378.961 73.0398C379.031 72.7098 378.821 72.3796 378.481 72.2996C378.151 72.2196 377.811 72.4398 377.741 72.7698C376.891 76.5298 372.831 77.0696 372.651 77.0896C372.321 77.1296 372.071 77.4396 372.111 77.7796C372.151 78.0996 372.421 78.3299 372.731 78.3299H372.811C372.811 78.3299 377.911 77.6596 378.951 73.0496L378.961 73.0398ZM397.371 52.9998C397.371 52.9998 398.371 53.2398 398.721 53.9998C398.971 54.5198 398.881 55.2299 398.451 56.0799C398.291 56.3799 398.421 56.76 398.731 56.91C398.811 56.95 398.911 56.97 399.011 56.97C399.241 56.97 399.461 56.8599 399.561 56.6399C400.161 55.4099 400.271 54.3398 399.841 53.4598C399.431 52.6198 398.671 52.1698 398.171 51.9598C398.381 49.9698 399.181 49 399.201 48.97C399.431 48.71 399.411 48.3196 399.151 48.0896C398.891 47.8696 398.491 47.8897 398.271 48.1497C398.231 48.1997 397.031 49.5797 396.891 52.3597C396.881 52.6597 397.091 52.93 397.381 52.99L397.371 52.9998ZM386.531 96.9598C386.281 97.1998 386.271 97.5899 386.521 97.8299C386.641 97.9499 386.801 98.0296 386.971 98.0296C387.141 98.0296 387.291 97.9697 387.411 97.8597L390.821 94.5496C394.461 95.4596 399.131 97.5098 401.651 102.25C402.631 99.3498 403.611 96.5896 403.611 96.5896L396.421 90.6497C396.421 90.6497 395.601 91.2596 392.521 92.0896C390.861 92.5396 388.941 93.1496 386.641 93.5696L385.611 93.8699C385.611 93.8699 387.181 93.8598 389.371 94.2698L386.541 96.9598H386.531ZM401.621 131.96H401.601C401.261 131.97 400.991 132.25 401.001 132.61C401.061 134.47 402.521 178.34 402.651 180.38C402.791 182.4 404.211 183.16 404.941 183.28C404.981 183.29 405.011 183.29 405.041 183.29C405.331 183.29 405.591 183.07 405.651 182.78C405.701 182.44 405.471 182.12 405.151 182.06C405.031 182.04 403.971 181.79 403.881 180.3C403.741 178.28 402.261 133.02 402.241 132.56C402.221 132.22 401.941 131.96 401.621 131.96ZM506.611 170.4C497.561 183.16 487.821 190.64 485.261 192.49C486.641 178.48 488.491 153.81 488.701 148.75C488.971 142.81 489.371 141.22 490.041 138.91C490.711 136.6 493.711 125.73 493.731 125.63C493.821 125.31 493.641 124.95 493.291 124.87C492.961 124.78 492.611 124.97 492.521 125.31C492.491 125.42 489.501 136.29 488.831 138.57C488.121 140.96 487.721 142.62 487.441 148.71C487.151 155.25 484.151 194.82 482.941 201.16C481.761 207.3 480.591 209.12 480.581 209.13C480.541 209.18 480.521 209.23 480.501 209.3C480.481 209.35 478.381 214.95 463.251 215.99C447.581 217.07 405.171 216.27 404.741 216.26H404.731C404.391 216.26 404.111 216.53 404.111 216.86C404.101 217.2 404.381 217.49 404.721 217.49C404.981 217.49 420.211 217.78 435.811 217.78C446.331 217.78 457.021 217.64 463.351 217.22C478.621 216.17 481.351 210.56 481.651 209.76C481.901 209.34 483.051 207.24 484.171 201.4C484.421 200.11 484.731 197.48 485.091 194.06C485.151 194.04 485.201 194.04 485.281 194C485.391 193.93 496.991 186.1 507.621 171.12C507.821 170.84 507.761 170.46 507.471 170.26C507.221 170.06 506.821 170.12 506.631 170.41L506.611 170.4ZM538.031 221.59C537.971 221.53 531.151 215.81 528.031 213.37L527.681 213.1C524.751 210.79 522.621 209.13 517.931 209.13H513.141C512.801 209.13 512.521 209.42 512.521 209.75C512.521 210.08 512.801 210.37 513.141 210.37H517.931C522.201 210.37 523.961 211.76 526.921 214.07L527.261 214.34C530.371 216.77 537.161 222.49 537.251 222.54C537.351 222.64 537.501 222.69 537.631 222.69C537.821 222.69 537.981 222.61 538.111 222.46C538.341 222.2 538.301 221.81 538.031 221.59ZM441.571 168.22C441.921 168.22 442.191 167.94 442.191 167.61L441.981 113.21C441.981 112.88 441.701 112.6 441.371 112.6C441.041 112.6 440.751 112.88 440.751 113.21L440.961 167.61C440.961 167.95 441.241 168.22 441.571 168.22ZM396.131 202.95C395.921 203.22 395.981 203.62 396.251 203.81C396.351 203.89 396.491 203.93 396.611 203.93C396.811 203.93 396.981 203.85 397.111 203.69C397.131 203.65 399.911 200.03 406.911 197.12C414.171 194.09 422.761 191.63 422.851 191.61C423.171 191.52 423.371 191.17 423.281 190.84C423.191 190.52 422.841 190.32 422.511 190.41C422.431 190.43 413.771 192.92 406.441 195.98C399.121 199.03 396.261 202.79 396.131 202.95ZM410.531 90.18C410.641 90.23 421.831 95.11 423.431 95.91C423.761 96.07 424.111 96.1497 424.491 96.1497C424.951 96.1497 425.461 96.0298 425.981 95.7898C427.191 95.2398 428.421 94.0498 428.621 93.2498C428.781 92.6198 431.501 83.9996 432.931 79.5296C433.031 79.2096 432.851 78.8498 432.521 78.7498C432.181 78.6598 431.841 78.83 431.741 79.16C431.571 79.69 427.631 92.1197 427.411 92.9397C427.341 93.2297 426.481 94.21 425.421 94.68C425.011 94.87 424.441 95.0296 423.971 94.7996C422.341 93.9796 411.471 89.2298 411.011 89.0398C410.701 88.8998 410.331 89.0397 410.191 89.3597C410.071 89.6797 410.211 90.05 410.521 90.18H410.531ZM398.261 364.95C398.311 365.26 398.581 365.47 398.871 365.47C398.901 365.47 398.931 365.47 398.971 365.46C399.301 365.41 399.531 365.09 399.471 364.75C399.311 363.79 383.651 268.57 382.241 257.01C380.851 245.59 384.631 233.58 384.681 233.47C384.771 233.15 384.601 232.79 384.271 232.69C383.941 232.6 383.591 232.77 383.491 233.1C383.451 233.22 379.561 245.48 381.001 257.18C382.431 268.75 398.081 363.99 398.241 364.95H398.261ZM436.651 361.58L406.291 364.82L394.371 366.1C394.371 366.1 394.521 366.73 394.771 367.79L406.351 370.54C406.561 374.38 406.861 379.48 407.101 382.18C407.441 386.11 406.621 392.02 395.521 398C392.011 399.88 388.821 401.51 385.991 402.92C380.051 405.92 376.121 407.89 374.791 409.66C372.791 412.33 373.611 415.97 373.661 416.13C373.721 416.41 373.981 416.61 374.261 416.61C374.301 416.61 374.351 416.6 374.411 416.59C374.751 416.52 374.951 416.17 374.881 415.85C374.861 415.82 374.141 412.6 375.791 410.41C376.941 408.88 380.971 406.84 386.561 404.02C389.391 402.59 392.601 400.98 396.111 399.09C404.921 394.35 408.921 388.77 408.341 382.07C408.041 378.54 407.611 370.94 407.411 367.38L437.281 368.14C436.931 364.43 436.671 361.59 436.671 361.59L436.651 361.58ZM439.071 250.93C438.731 250.95 438.461 251.25 438.491 251.59L439.101 261.85C439.121 262.18 439.391 262.44 439.721 262.44H439.751C440.081 262.42 440.351 262.12 440.331 261.78L439.721 251.52C439.711 251.18 439.441 250.9 439.061 250.93H439.071ZM429.281 256.05C429.031 255.8 428.651 255.8 428.411 256.05C428.161 256.3 428.161 256.67 428.411 256.92L436.201 264.73C436.321 264.84 436.481 264.91 436.641 264.91C436.801 264.91 436.951 264.85 437.081 264.73C437.331 264.48 437.331 264.1 437.081 263.85L429.291 256.05H429.281ZM342.641 247.79H325.121V251.35H342.641V247.79ZM282.981 247.79H265.471V251.35H282.981V247.79ZM367.271 267.37C367.271 269.41 365.621 271.06 363.581 271.06H303.571V389.56C303.571 390.06 303.601 390.53 303.631 391.02C303.771 391.12 303.841 391.3 303.841 391.48C303.841 391.65 303.781 391.8 303.661 391.92C304.551 406.59 313.951 414.94 329.771 414.94C336.181 414.94 341.231 412.95 344.391 409.2C347.621 405.37 348.841 399.65 347.771 393.51C346.881 388.4 343.721 385.84 341.251 384.58C337.191 382.54 331.691 382.46 327.851 384.37C324.541 386.02 322.041 389.87 321.631 393.96C321.311 397.01 322.231 399.61 324.141 401.12C326.261 402.78 328.611 403.19 330.611 402.22C332.371 401.38 333.531 399.59 333.531 397.77C333.531 397.44 333.811 397.16 334.151 397.16C334.491 397.16 334.761 397.44 334.761 397.77C334.761 400.05 333.311 402.29 331.141 403.34C328.711 404.53 325.871 404.07 323.351 402.09C321.101 400.31 320.021 397.3 320.391 393.83C320.851 389.27 323.561 385.12 327.301 383.26C331.521 381.14 337.361 381.23 341.811 383.47C344.551 384.84 348.011 387.67 349.001 393.28C350.131 399.78 348.801 405.88 345.351 409.99C341.951 414.05 336.561 416.18 329.781 416.18C313.231 416.18 303.401 407.44 302.431 392.11H289.901V413.1C289.901 413.43 289.621 413.71 289.281 413.71C288.941 413.71 288.671 413.43 288.671 413.1V392.11H276.261C275.291 407.44 265.451 416.18 248.911 416.18C242.131 416.18 236.751 414.05 233.341 409.99C229.881 405.88 228.541 399.78 229.691 393.28C230.671 387.67 234.131 384.84 236.871 383.47C241.321 381.23 247.151 381.14 251.381 383.26C255.101 385.12 257.821 389.27 258.301 393.83C258.651 397.3 257.561 400.31 255.321 402.09C252.821 404.06 249.981 404.52 247.541 403.34C245.371 402.29 243.911 400.05 243.911 397.77C243.911 397.44 244.191 397.16 244.531 397.16C244.871 397.16 245.141 397.44 245.141 397.77C245.141 399.59 246.321 401.38 248.071 402.22C250.061 403.19 252.421 402.78 254.531 401.12C256.431 399.61 257.361 397.01 257.051 393.96C256.631 389.87 254.121 386.02 250.821 384.37C246.991 382.46 241.481 382.53 237.431 384.58C234.941 385.84 231.791 388.4 230.911 393.51C229.841 399.65 231.071 405.37 234.291 409.2C237.451 412.97 242.501 414.94 248.911 414.94C265.561 414.94 275.111 405.69 275.111 389.57V271.07H218.011C215.971 271.07 214.321 269.42 214.321 267.38C214.321 265.34 215.971 263.69 218.011 263.69H363.601C365.641 263.69 367.281 265.33 367.281 267.38L367.271 267.37ZM288.651 390.84V271.06H276.321V389.56C276.321 390 276.291 390.41 276.281 390.85H288.651V390.84ZM302.331 389.55V271.06H289.901V390.85H302.391C302.361 390.41 302.331 390 302.331 389.55Z" fill="#3C3C3B"/>
</svg>
