<svg width="504" height="491" viewBox="0 0 504 491" fill="none" xmlns="http://www.w3.org/2000/svg">
<path d="M277.601 226.28C271.861 228.71 262.591 226.95 254.871 225.84C247.151 224.74 240.311 224.51 235.221 229.16C230.741 233.26 200.7 257.9 185.57 269.94L180.351 298.54C191.101 308.12 193.76 321.48 192.44 334.36C190.64 352.13 173.481 446.98 172.271 447.88C172.051 448.04 169.841 448.24 166.391 448.47C166.331 449.03 166.09 451.43 165.92 455.13C165.88 456.26 165.84 457.51 165.8 458.86C165.64 465.34 170.77 469.1 178.9 471.35C187.02 473.61 206.751 475.27 206.451 482.04C206.141 488.82 202.231 490.32 194.851 490.32H117.621C107.381 490.32 109.04 480.68 109.94 471.95C110.64 465.26 111.68 456.27 112.13 452.44C112.15 452.28 112.171 452.14 112.181 452C112.191 451.91 112.2 451.8 112.21 451.72C112.29 450.99 112.331 450.58 112.331 450.58L113.69 450.52L113.67 450.36C110.88 450.39 109.161 450.36 109.021 450.27C108.111 449.67 121.061 338.57 121.061 338.57H49.4106C35.8606 338.57 16.2807 336.76 12.6807 321.11C10.1907 310.35 11.8304 299.59 13.1104 293.91C10.9304 291.21 10.5203 287.42 12.5703 282.36C15.3003 275.63 19.4104 264.29 23.4404 252.88C22.4104 252.09 21.5205 251.35 20.8105 250.66C10.2705 240.42 9.67057 229.58 13.5806 216.04C15.2106 210.39 16.6803 206.06 17.8403 202.92C12.9603 199.34 8.11063 195.62 4.89062 192.89C4.78063 192.79 4.65029 192.69 4.55029 192.59C4.46029 192.51 4.36051 192.43 4.27051 192.36C4.16051 192.26 4.05043 192.16 3.94043 192.06C3.84043 191.97 3.72061 191.88 3.62061 191.79C3.47061 191.65 3.33066 191.52 3.18066 191.4C3.06066 191.29 2.93055 191.16 2.81055 191.05C2.67055 190.93 2.55043 190.81 2.44043 190.69C2.34043 190.59 2.22063 190.48 2.14062 190.39C2.02062 190.28 1.93057 190.17 1.83057 190.06C1.76057 189.98 1.67035 189.89 1.61035 189.82C1.51035 189.72 1.43061 189.61 1.37061 189.52C1.33061 189.47 1.28049 189.41 1.25049 189.36C1.16049 189.24 1.08029 189.11 1.05029 189.01C1.01029 188.82 0.980469 188.62 0.980469 188.37C0.980469 188.28 1.00051 188.17 1.02051 188.08C1.04051 187.92 1.05033 187.76 1.09033 187.6C1.12033 187.46 1.17047 187.31 1.23047 187.16C1.29047 187.01 1.33039 186.86 1.40039 186.69C1.47039 186.52 1.55037 186.34 1.63037 186.15C1.70037 186 1.78035 185.85 1.86035 185.68C1.96035 185.46 2.08045 185.24 2.21045 185.01C2.29045 184.86 2.39047 184.72 2.48047 184.55C2.63047 184.3 2.7907 184.03 2.9707 183.76C3.0407 183.62 3.14047 183.48 3.23047 183.33C3.44047 183.03 3.64035 182.72 3.86035 182.38C3.93035 182.28 4.01057 182.18 4.08057 182.08C4.34057 181.7 4.62064 181.3 4.91064 180.9C8.29064 176.23 13.4907 169.9 19.2007 162.09C29.6307 147.81 40.0605 135.72 56.0005 131.87C65.9405 129.48 85.5306 126.22 98.8306 124.12C98.8306 124.12 101.091 121.18 103.351 115.99C105.041 112.09 105.341 110.23 104.241 107.53C103.871 106.64 103.351 105.65 102.661 104.46C102.211 103.68 101.73 102.84 101.26 102C101.12 101.76 100.991 101.53 100.871 101.29C100.261 100.22 99.6506 99.16 99.0806 98.15C98.3106 96.81 97.6204 95.59 97.1104 94.67C96.5104 93.62 96.1304 92.9503 96.1304 92.9503C96.1304 92.9503 90.2603 91.6002 87.7803 84.6002C85.3003 77.6002 90.4907 73.0802 90.4907 73.0802C90.4907 73.0802 90.1705 72.0202 89.7505 67.3502C89.5605 65.1702 89.3404 62.1903 89.1304 58.1803C89.1104 57.7703 89.1003 57.3901 89.0903 57.0001C89.0603 51.0901 91.1205 45.3404 96.2705 40.7404C96.6205 40.4304 96.9803 40.13 97.3403 39.84C102.92 35.39 111.671 32.15 124.581 31.09C125.371 31.03 126.15 31.0001 126.9 31.0001C127.17 31.0001 127.43 31.0199 127.69 31.0299C128.15 31.0499 128.621 31.07 129.061 31.11C129.381 31.14 129.68 31.1801 130.01 31.2101C130.36 31.2601 130.731 31.31 131.081 31.38C131.421 31.44 131.781 31.5202 132.101 31.6002C132.381 31.6602 132.65 31.7502 132.92 31.8102C133.29 31.9102 133.661 32.03 134.021 32.15C134.171 32.2 134.31 32.2602 134.46 32.3102C144.41 36.0102 148.99 46.9902 151.15 57.8502C152.85 66.4302 153.061 74.92 153.241 79.65C153.691 92.07 154.591 92.5199 151.431 104.26C148.271 116 132.46 118.26 132.46 118.26C132.46 118.26 132.45 118.37 132.42 118.62C132.39 118.87 132.37 119.25 132.32 119.77C132.27 120.3 132.22 120.98 132.15 121.8C132.09 122.64 132.011 123.63 131.931 124.79C131.721 128.06 131.361 131.35 131.201 132.81C132.181 133.4 133.141 133.98 134.081 134.56C136.031 135.73 137.851 136.88 139.451 137.91C148.781 143.95 160.32 153.85 164.17 165.37C167.31 174.79 175.21 196.67 178.9 207.06C178.93 207.16 178.96 207.27 179 207.38C179.09 207.65 179.201 207.92 179.291 208.17L179.38 208.42C179.46 208.69 179.561 208.94 179.641 209.19C179.671 209.26 179.691 209.34 179.721 209.42C179.801 209.66 179.89 209.88 179.96 210.09C179.99 210.2 180.021 210.3 180.061 210.39C180.111 210.55 180.17 210.71 180.23 210.86C180.27 210.98 180.311 211.1 180.351 211.21C180.381 211.31 180.421 211.42 180.451 211.51C180.521 211.71 180.561 211.88 180.621 212.03C180.681 212.18 180.671 212.33 180.641 212.5V212.53C180.601 212.69 180.53 212.84 180.42 213C180.41 213.02 180.39 213.04 180.38 213.06C180.3 213.17 180.2 213.29 180.09 213.4C180.55 213.35 180.89 213.39 181 213.59C181.57 214.59 174.721 218.41 173.991 218.82L178.041 233.76C178.041 233.76 227.92 204.62 234.76 201.32C241.61 198 250.42 194.7 260.59 194.26C270.74 193.82 277.571 193.16 278.681 196.26C279.781 199.35 266.991 202.22 264.991 202.87C264.371 203.09 263.94 203.22 263.65 203.32C263.65 203.33 263.67 203.34 263.67 203.36C263.71 203.51 263.691 203.65 263.641 203.79C265.611 204.54 271.831 206.81 274.061 206.63C276.711 206.41 285.53 201.34 288.4 199.35C291.27 197.36 293.48 198.46 293.69 201.77C293.92 205.09 293.04 209.27 292.15 212.37C291.28 215.46 283.32 223.87 277.59 226.29L277.601 226.28ZM503.84 188.13C503.79 188.28 503.73 188.43 503.65 188.59C503.62 188.68 503.56 188.77 503.5 188.86C503.451 188.94 503.411 189.03 503.351 189.11C503.291 189.2 503.211 189.3 503.141 189.39C503.091 189.47 503.031 189.56 502.951 189.64C502.871 189.74 502.791 189.83 502.701 189.93C502.631 190.01 502.541 190.11 502.471 190.19C502.301 190.36 502.13 190.53 501.96 190.71C501.86 190.8 501.761 190.89 501.661 190.98C501.551 191.08 501.42 191.2 501.3 191.3C501.2 191.38 501.101 191.47 500.991 191.55C500.871 191.65 500.731 191.77 500.601 191.88C500.491 191.95 500.38 192.05 500.271 192.13C500.121 192.24 499.98 192.35 499.84 192.46C499.72 192.54 499.591 192.63 499.471 192.72C499.171 192.94 498.85 193.16 498.521 193.37C498.421 193.44 498.32 193.51 498.23 193.57C498.05 193.68 497.861 193.81 497.681 193.92C497.541 194 497.421 194.09 497.291 194.16C497.111 194.27 496.921 194.4 496.721 194.51C496.601 194.59 496.45 194.67 496.3 194.76C496.1 194.88 495.91 195 495.71 195.12C495.57 195.19 495.45 195.27 495.32 195.35C494.81 195.65 494.281 195.94 493.741 196.24C493.741 196.24 493.73 196.24 493.73 196.25C493.68 196.27 493.631 196.3 493.561 196.33C494.251 201.31 495.4 209.27 496.55 215.41C498.35 225.05 493.84 238.59 488.11 242.51C486.56 243.57 481.18 245.71 473.98 248.35C475.25 253.64 476.581 258.33 477.871 261.48C482.581 273 483.43 288.37 483.57 292.2C483.85 292.43 484.01 292.55 484.03 292.57C484.32 292.8 484.36 293.22 484.13 293.53C483.99 293.69 483.791 293.78 483.601 293.78C483.451 293.78 483.311 293.73 483.181 293.64C483.561 309.17 477.681 342.7 455.451 342.7H383.11C384 351.72 385.051 369.55 382.121 378.9C379.121 388.54 370.681 391.84 370.681 391.84L372.771 400.65L383.931 447.54C383.931 447.54 393.57 449.95 396.271 458.98C396.951 461.24 397.431 463.07 397.791 464.56C398.271 464.31 398.541 464.17 398.541 464.17C398.541 464.17 401.021 474.11 401.701 478.4C401.751 478.72 401.78 479.05 401.8 479.39C401.8 479.47 401.811 479.56 401.811 479.63C401.821 479.91 401.821 480.21 401.811 480.49C401.811 480.55 401.81 480.6 401.8 480.67C401.75 481.42 401.62 482.16 401.38 482.89C400.39 486.01 397.541 488.77 391.311 488.77H323.82C323.82 488.77 323.801 488.78 323.791 488.78C323.781 488.78 323.781 488.77 323.771 488.77H298.041C291.721 488.77 291.04 481.32 294.88 478.38C298.22 475.83 307.531 471.74 315.541 468.05C315.641 468 315.75 467.96 315.84 467.91C316.26 467.71 316.661 467.53 317.061 467.35C317.221 467.28 317.371 467.2 317.521 467.13C318.031 466.88 318.54 466.65 319.05 466.41C319.54 466.18 320 465.94 320.42 465.69C320.57 465.61 320.691 465.52 320.811 465.44C321.111 465.26 321.381 465.09 321.661 464.9C321.781 464.81 321.93 464.71 322.05 464.62C322.31 464.42 322.55 464.24 322.8 464.04C322.89 463.96 323.01 463.86 323.11 463.78C323.42 463.51 323.72 463.23 323.98 462.94C324.06 462.86 324.131 462.77 324.201 462.68C324.401 462.47 324.561 462.25 324.741 462.04C324.841 461.92 324.941 461.78 325.021 461.65C325.141 461.47 325.27 461.31 325.38 461.12C325.47 460.97 325.561 460.83 325.641 460.68C325.731 460.51 325.821 460.35 325.911 460.17C325.981 460.01 326.07 459.86 326.13 459.7C326.2 459.52 326.271 459.35 326.331 459.18C326.441 458.86 326.561 458.54 326.641 458.21C326.661 458.11 326.691 457.99 326.721 457.88C326.771 457.66 326.81 457.44 326.86 457.21C326.88 457.12 326.89 457.02 326.9 456.93C326.93 456.68 326.96 456.45 326.98 456.2V456.14C327.04 455.27 327.021 454.38 326.911 453.49C326.751 452.21 326.45 450.92 326.03 449.69C323.99 443.82 312.25 416.04 312.25 416.04C312.25 416.04 286.28 367.73 279.51 355.08C272.73 342.43 271.15 325.5 275.44 312.4C279.73 299.3 290.35 294.33 299.15 290.72C299.15 290.72 299.261 290.71 299.451 290.69C299.891 290.2 300.38 289.83 300.96 289.6C309.92 286.09 349.85 271.15 360.59 267.13C354.69 266.61 351.15 265.6 344.17 260.55C335.44 254.22 329.41 241.28 328.21 233.74C327.22 227.64 324.43 207.19 323.4 199.67C322.2 199.3 313.491 196.46 314.061 195.2C313.851 194.68 314.221 190.53 314.951 184.59C315.031 183.92 315.131 183.25 315.221 182.55C315.241 182.4 315.26 182.25 315.28 182.11C315.35 181.46 315.451 180.78 315.541 180.09C315.551 180.04 315.551 180 315.561 179.95C317.071 168.87 319.48 154.13 321.88 144.01C325.03 130.77 329.181 122.72 337.061 116.73C337.491 116.41 337.941 116.11 338.391 115.78C338.531 115.69 338.64 115.59 338.78 115.51C339.33 115.14 339.891 114.77 340.471 114.42C342.331 113.28 344.34 112.21 346.57 111.19C349.69 109.76 353.171 108.38 356.721 107.1C356.581 107.02 356.5 106.95 356.5 106.95C356.5 106.95 370.02 102.85 374.42 98.8702C374.88 98.4502 375.241 98.0503 375.471 97.6403C375.481 97.6203 375.49 97.61 375.5 97.59C375.59 97.42 375.66 97.25 375.71 97.09C375.72 97.05 375.741 97.0003 375.741 96.9503C375.781 96.7603 375.801 96.5903 375.771 96.4103C375.611 95.2503 375.48 94.1901 375.36 93.2501C371.2 93.2001 368.84 89.9401 368.84 89.9401C368.84 89.9401 367.321 91.1502 363.561 90.1002C359.801 89.0402 359.19 83.3199 359.19 83.3199C359.19 83.3199 355.87 82.72 354.98 79.4C354.08 76.08 356.03 72.7799 356.03 72.7799C356.03 72.7799 354.38 72.3202 353.63 68.1002C352.87 63.8902 353.931 61.6202 353.931 59.3702C353.931 58.9802 353.9 58.4099 353.86 57.7599C351.7 55.9899 348.28 52.64 348.07 49.13C347.76 44.02 351.991 40.7003 351.991 40.7003C351.991 40.7003 350.781 30.1602 354.101 18.1202C354.681 15.9902 355.561 14.11 356.661 12.42C356.571 12.4 356.5 12.3903 356.5 12.3903C356.5 12.3903 358.02 6.52009 364.78 3.96009C371.56 1.39009 385.1 -1.00978 393.53 1.10022C401.96 3.21022 411.141 11.4899 412.5 20.0699C413.85 28.6499 412.951 36.9303 412.951 36.9303C414.831 38.0703 417.621 40.8099 417.621 47.0099C417.621 54.0899 412.961 57.0099 410.701 58.0099C410.701 58.0299 411.301 61.0203 410.701 65.2203C410.101 69.4403 408.59 69.1403 408.59 69.1403C408.59 69.1403 409.801 71.8502 407.991 75.6202C406.191 79.3802 402.121 80.9 402.121 80.9C402.121 80.9 401.83 84.1702 399.17 86.3102C399.37 87.3902 399.61 88.5699 399.86 89.7799C400.77 93.9899 402.271 98.51 407.991 99.42C413.721 100.33 425.451 102.74 425.451 102.74L425.36 102.78C430.42 103.22 435.89 103.68 441.61 104.19C441.85 104.2 442.08 104.22 442.32 104.24C443.03 104.3 443.71 104.38 444.38 104.44C453.22 105.33 458.881 106.82 462.831 108.83C463.951 109.4 464.931 110.01 465.791 110.67C470.731 114.38 472.261 119.42 476.331 125.62C481.061 132.81 489.361 152.26 495.701 167.44C496.091 167.42 496.481 167.41 496.811 167.4C498.151 170.6 499.4 173.61 500.51 176.28C500.17 176.27 499.791 176.28 499.391 176.3C501.401 181.09 502.941 184.79 503.721 186.45C504.021 186.97 504.021 187.51 503.831 188.08L503.84 188.13ZM369.181 449.67L356.73 398.16L355.931 394.88C355.931 394.88 349.721 393.59 343.661 390.06L348.181 405.05L361.73 456.08C361.97 456.15 362.191 456.26 362.431 456.33C364.961 451.45 369.181 449.68 369.181 449.68V449.67ZM493.561 196.25C493.561 196.25 493.551 196.18 493.541 196.14C493.551 196.18 493.551 196.22 493.561 196.25Z" fill="#BAE0E6"/>
<path d="M115.37 275.649C115.37 275.649 117.77 280.159 113.56 281.069C109.35 281.969 104.83 285.28 98.7997 287.99C92.7897 290.7 89.77 287.989 84.35 285.279C78.93 282.569 31.3599 260.89 20.8299 250.66C10.2899 240.42 9.68996 229.579 13.6 216.039C17.52 202.489 20.5199 196.47 20.5199 196.47C20.5199 196.47 39.1899 203.699 48.5199 212.729L41.2997 228.7L88.2699 260.31C88.2699 260.31 107.24 259.71 111.16 260.91C115.07 262.12 112.96 264.229 112.96 264.229C112.96 264.229 116.28 268.15 114.48 269.35C114.47 269.35 117.18 274.159 115.37 275.669V275.649ZM292.16 212.37C293.05 209.27 293.93 205.079 293.7 201.769C293.48 198.449 291.28 197.35 288.41 199.35C285.54 201.34 276.72 206.409 274.07 206.629C271.42 206.859 263.03 203.539 263.03 203.539L265.02 202.87C267.02 202.22 279.81 199.349 278.71 196.259C277.61 193.159 270.77 193.829 260.62 194.259C250.46 194.699 241.64 198.009 234.79 201.319C227.95 204.639 178.07 233.759 178.07 233.759L173.22 215.879L135.49 226.919C135.49 226.919 135.63 227.859 135.88 229.499L164.46 234.979L191.87 235.58L185.59 269.91C200.71 257.86 230.76 233.229 235.24 229.129C240.32 224.489 247.16 224.71 254.89 225.81C262.62 226.91 271.89 228.679 277.62 226.249C283.36 223.849 291.3 215.449 292.18 212.359L292.16 212.37ZM151.41 104.249C154.57 92.4995 153.67 92.0496 153.22 79.6396C152.77 67.2196 152.09 28.8293 124.54 31.0893C96.9899 33.3493 88.4099 45.5394 89.0799 58.1894C89.7599 70.8294 90.4398 73.0893 90.4398 73.0893C90.4398 73.0893 85.2498 77.6093 87.7298 84.6093C90.2098 91.6093 96.0897 92.9594 96.0897 92.9594C96.0897 92.9594 99.9197 99.7394 102.63 104.479C105.34 109.219 105.57 110.799 103.31 115.999C101.05 121.189 98.7997 124.129 98.7997 124.129L116.41 155.97L131.09 133.609C131.09 133.609 131.64 129.18 131.91 124.81C132.22 120.13 132.44 118.259 132.44 118.259C132.44 118.259 148.26 116.029 151.42 104.279L151.41 104.249ZM496.56 215.419C494.75 205.779 492.94 191.64 492.94 191.64L455.31 201.58L461.03 221.45C461.03 221.45 411.64 244.63 408.64 246.14C405.64 247.66 401.11 244.339 398.4 239.529C395.69 234.709 391.77 230.489 384.24 230.799C376.71 231.099 367.08 232.6 365.27 234.41C363.46 236.22 360.46 242.249 360.46 242.249L355.35 228.39L352.64 202.799L323.05 196.93C323.05 196.93 327.04 226.279 328.25 233.819C329.45 241.349 335.47 254.299 344.21 260.629C352.94 266.949 356.26 266.949 365.59 267.549C374.91 268.149 388.47 268.149 388.47 268.149C397.8 274.769 405.93 272.959 415.28 269.049C424.61 265.129 482.43 246.469 488.15 242.549C493.87 238.609 498.38 225.059 496.58 215.419H496.56ZM355.64 59.1596C355.64 59.1596 357.75 71.2094 359.25 78.4194C360.76 85.6494 374.9 88.9594 374.9 88.9594C374.9 88.9594 375.21 91.9597 375.81 96.4897C376.41 101.01 356.54 107.019 356.54 107.019C356.54 107.019 367.98 114.549 380.32 115.459L390.86 139.539L394.47 115.759L425.49 102.819C425.49 102.819 413.75 100.419 408.03 99.4995C402.31 98.5995 400.81 94.0793 399.9 89.8593C399 85.6493 398.39 81.7294 398.39 81.7294C398.39 81.7294 408.92 70.8893 409.52 58.5493C409.52 58.5493 417.65 56.4393 417.65 47.1093C417.65 37.7793 411.33 36.2695 411.33 36.2695C411.33 36.2695 412.54 32.3494 410.12 19.7094C407.72 7.05942 397.48 0.739497 383.62 1.0395C369.77 1.3495 357.44 6.15965 354.12 18.1997C350.8 30.2497 352.01 40.7895 352.01 40.7895C352.01 40.7895 347.79 44.1097 348.09 49.2197C348.39 54.3397 355.63 59.1596 355.63 59.1596H355.64ZM377.32 299.129C368.06 290.329 349.99 297.779 349.99 297.779L337.57 306.359C337.57 306.359 329.67 298.679 322.67 293.709C315.67 288.749 299.18 290.779 299.18 290.779C290.38 294.389 279.76 299.359 275.47 312.459C271.18 325.559 272.76 342.49 279.54 355.14C286.31 367.79 312.28 416.1 312.28 416.1L348.19 405.039L343.67 390.049C340.02 387.919 336.41 384.989 334.26 381.019C328.54 370.489 323.73 347.599 324.62 346.089L326.73 345.779C328.25 349.699 333.06 353.309 344.19 351.509C355.32 349.699 357.74 331.33 367.08 330.43C376.41 329.52 382.13 333.139 383.04 341.859C383.06 342.049 383.08 342.279 383.1 342.459H399.22C405.1 342.459 410.06 335.909 404.87 330.499C399.65 325.089 386.54 307.929 377.29 299.129H377.32Z" fill="#E98467"/>
<path d="M112.95 159.42L93.3703 124.98C95.2603 124.68 97.09 124.38 98.8 124.12L116.42 155.96L131.1 133.6C131.1 133.6 131.13 133.32 131.19 132.83C133.14 134 135.06 135.16 136.8 136.25L120.18 160.32L112.96 159.42H112.95ZM1.04022 189.01C1.56022 190.58 9.62007 196.81 17.8801 202.86C19.4901 198.5 20.51 196.47 20.51 196.47C20.51 196.47 39.8501 204.75 49.1901 213.79L52.7302 204.61C52.7302 204.61 25.5503 183.29 4.8703 180.93C2.0703 184.79 0.539971 187.52 1.02997 189.02L1.04022 189.01ZM173.2 215.91L173.51 217.09C178.09 215.18 181.07 213.39 180.62 212.07C180.23 210.87 179.28 208.19 178.02 204.68C162.57 205.79 138.24 216.63 138.24 216.63L135.45 226.94L173.19 215.9L173.2 215.91ZM178.9 471.36C170.77 469.1 165.65 465.34 165.8 458.87C165.95 452.39 166.4 448.34 166.4 448.34L112.35 450.6C112.35 450.6 110.84 463.24 109.95 471.97C109.05 480.7 107.39 490.34 117.63 490.34H194.86C202.24 490.34 206.15 488.83 206.46 482.06C206.74 475.29 187.01 473.63 178.89 471.37L178.9 471.36ZM473.99 248.36C462.03 252.75 445.04 258.51 432.18 262.94C432.18 262.94 441.55 263.33 455.55 272.59C469.55 281.85 483.59 293.11 483.59 293.11C483.59 293.11 483.28 274.74 477.86 261.49C476.58 258.34 475.26 253.65 473.98 248.36H473.99ZM503.77 186.52C500.45 179.59 483.9 137.13 476.37 125.69C468.84 114.25 470.05 106.72 442.35 104.31C436.36 103.79 430.66 103.3 425.39 102.84L394.48 115.75L390.87 139.53L380.33 115.45C368.93 114.61 358.31 108.13 356.77 107.16C353.22 108.44 349.74 109.81 346.62 111.25C332.16 117.86 326.13 126.3 321.92 144.07C317.71 161.83 313.49 193.75 314.09 195.25C314.28 195.73 317.7 196.83 323.04 198.26C322.92 197.24 323.41 196.75 323.41 196.75L352.63 202.76L355.34 228.35L360.45 242.21C360.45 242.21 363.45 236.19 365.26 234.37C367.07 232.56 376.7 231.05 384.23 230.76C391.76 230.45 395.67 234.68 398.39 239.49C401.1 244.3 405.62 247.62 408.63 246.1C411.63 244.59 461.02 221.41 461.02 221.41L455.3 201.54L492.93 191.6C492.93 191.6 493.17 193.47 493.56 196.3C500.14 192.76 504.99 189.1 503.76 186.52H503.77ZM353.69 68.1899C354.44 72.3999 356.09 72.8701 356.09 72.8701C356.09 72.8701 354.14 76.1802 355.04 79.4902C355.94 82.8002 359.25 83.4102 359.25 83.4102C359.25 83.4102 359.85 89.13 363.62 90.1899C367.38 91.24 368.89 90.0298 368.89 90.0298C368.89 90.0298 371.3 93.3501 375.51 93.3501C379.72 93.3501 381.08 91.2402 381.08 91.2402C381.08 91.2402 385 93.3501 389.21 91.3901C393.42 89.4401 392.82 86.8799 392.82 86.8799C392.82 86.8799 396.14 88.6798 398.99 86.5698C401.85 84.4598 402.15 81 402.15 81C402.15 81 406.22 79.49 408.02 75.73C409.83 71.97 408.62 69.25 408.62 69.25C408.62 69.25 410.13 69.5601 410.73 65.3301C411.33 61.1201 410.73 58.1099 410.73 58.1099L408.62 58.8599C408.62 58.8599 407.41 40.8001 407.27 39.8901C407.11 38.9901 411.33 36.2798 411.33 36.2798L412.98 37.04C412.98 37.04 413.88 28.7602 412.53 20.1802C411.17 11.6002 401.99 3.31997 393.56 1.20997C385.12 -0.900031 371.58 1.50983 364.81 4.06983C358.04 6.62983 356.53 12.5 356.53 12.5C356.53 12.5 367.07 14.4499 372.18 13.3999C377.3 12.3499 384.99 9.18985 388.44 7.83985C391.91 6.47985 394.92 8.13987 394.17 13.1099C393.41 18.0799 393.41 22.29 397.33 26.96C401.25 31.64 404.41 33.8899 404.7 36.6099C405.01 39.3199 405.61 43.5298 403.05 47.2998C400.49 51.0598 392.21 59.04 392.21 59.04C392.21 59.04 378.66 54.5202 372.34 56.1802C366.02 57.8402 358.18 60.25 358.18 60.25C358.18 60.25 354.42 57.3901 353.07 49.5601C353.07 49.5601 353.97 57.2302 353.97 59.4902C353.99 61.7402 352.93 63.99 353.69 68.21V68.1899ZM389.66 28.8999C389.36 26.0399 376.72 25.1402 376.56 28.7402C376.46 31.0202 389.97 31.7499 389.66 28.8999ZM368.12 28.6201C367.43 25.8201 354.79 26.6202 355.12 30.2202C355.34 32.4902 368.8 31.4201 368.12 28.6201ZM398.55 464.21C398.55 464.21 391.09 468.28 383.64 469.63C376.19 470.99 374.38 459.92 361.74 456.08L348.19 405.05L312.28 416.11C312.28 416.11 324.02 443.88 326.06 449.76C328.09 455.63 327.64 462.41 319.06 466.47C310.47 470.54 298.73 475.51 294.89 478.44C291.05 481.38 291.73 488.83 298.05 488.83H391.32C400.58 488.83 402.39 482.73 401.71 478.44C401.02 474.15 398.54 464.21 398.54 464.21H398.55Z" fill="#2A306E"/>
<path d="M337.08 116.79C338.14 115.99 339.29 115.22 340.5 114.48C341.87 116.35 344.34 119.03 348.44 121.59C354.82 125.56 366.46 129.93 386.29 129.09L388.05 133.08C385.71 133.22 383.45 133.3 381.3 133.3C352.59 133.3 341.09 122.39 337.08 116.78V116.79ZM446.23 104.72C445 104.57 443.72 104.44 442.36 104.31C442.12 104.29 441.89 104.27 441.65 104.26C440.05 106.68 437.46 109.97 433.5 113.34C426.53 119.29 413.79 126.66 392.52 128.64L391.89 132.83C428.37 129.74 442.14 111.84 446.22 104.71L446.23 104.72ZM419.5 137.26L410.42 139.86C409.94 139.98 409.77 140.59 410.09 140.96L418.25 150.23C418.66 150.68 419.39 150.43 419.45 149.82L420.38 137.95C420.42 137.48 419.97 137.12 419.52 137.25L419.5 137.26ZM446.52 122.46C446.37 122.01 445.82 121.83 445.45 122.12L437.96 127.89C437.57 128.19 437.62 128.8 438.06 129.03L449.05 134.64C449.59 134.92 450.19 134.41 450.02 133.84L446.53 122.46H446.52ZM455.67 113.43L467.77 115.9C468.36 116.02 468.81 115.37 468.48 114.87L465.84 110.74C464.1 109.42 461.92 108.28 459.05 107.32L455.27 112.35C454.97 112.74 455.19 113.33 455.68 113.42L455.67 113.43ZM367.71 140.12C367.22 140.02 366.78 140.46 366.9 140.94L369.72 152.97C369.86 153.54 370.62 153.69 370.96 153.18L377.38 143.16C377.63 142.75 377.41 142.22 376.95 142.13L367.71 140.12ZM343.07 131.18C342.62 130.96 342.1 131.3 342.1 131.8L342.16 144.15C342.16 144.75 342.89 145.05 343.32 144.63L351.81 136.28C352.14 135.95 352.06 135.39 351.62 135.18L343.05 131.18H343.07ZM496.86 167.48C491.09 167.58 477.43 169.34 450.03 179.89L452.74 189.15C452.74 189.15 489.39 176.19 500.56 176.35C499.45 173.69 498.2 170.68 496.86 167.47V167.48ZM350.45 188.92L349.54 178.98C330.43 174.75 320.57 174.65 316.31 174.99C315.8 178.47 315.34 181.76 314.99 184.63C319.28 183.06 350.46 188.92 350.46 188.92H350.45ZM401.71 478.44C401.93 479.84 401.89 481.44 401.39 482.95L323.8 482.73L292.74 482.28L298.17 476.4C303.43 473.5 312.23 469.7 319.06 466.47C325.83 463.27 327.52 458.37 326.95 453.57C329.85 453.62 336.36 454.38 339.71 459.82C344.12 466.92 349.65 466.47 352.03 466.14C354.39 465.81 356.99 465.12 356.99 465.12C356.99 465.12 356.47 466.5 354.41 468.44C359.66 463.69 359.31 456.87 359.31 456.87L361.74 456.07C374.38 459.91 376.19 470.98 383.64 469.62C391.09 468.27 398.55 464.2 398.55 464.2C398.55 464.2 401.03 474.14 401.71 478.43V478.44ZM335.32 477.98C341.21 476.26 346.14 474.38 351.06 470.99C348.57 472.59 345.07 474.31 340.18 475.82C334.55 477.57 330.84 478.99 328.38 480.08C330.12 479.48 332.38 478.82 335.32 477.97V477.98ZM114.16 225.37L107.47 260.39C109.09 260.5 110.4 260.67 111.15 260.9C115.06 262.11 112.95 264.22 112.95 264.22C112.95 264.22 116.27 268.14 114.47 269.34C114.47 269.34 117.18 274.15 115.37 275.66C115.37 275.66 117.77 280.17 113.56 281.08C110.26 281.79 106.79 283.96 102.56 286.16L101.51 291.62C101.51 291.62 130.13 295.84 144.26 298.85C158.42 301.85 162.03 304.57 162.03 304.57L179.79 301.57L191.84 235.64L164.43 235.04L114.15 225.38L114.16 225.37Z" fill="#FBD0B0"/>
<path d="M89.0897 58.18C88.4197 45.53 96.9996 33.3399 124.55 31.0799C130.36 30.5999 134.97 31.9398 138.63 34.4598C137.26 35.2898 135.32 36.1497 132.53 36.8797C124.4 38.9897 113.27 40.0398 113.27 40.0398C113.27 40.0398 112.96 41.5496 111.91 48.0096C110.86 54.4796 105.43 58.0996 104.54 63.0696C103.64 68.0296 104.09 72.2499 102.13 74.0599C100.18 75.8699 96.7098 70.4499 94.4598 71.0599C92.2098 71.6699 90.47 73.0896 90.47 73.0896C90.47 73.0896 89.7699 70.82 89.0999 58.18H89.0897ZM122.59 72.0198C122.59 73.1398 123.49 74.0496 124.62 74.0496C125.75 74.0496 126.65 73.1498 126.65 72.0198C126.65 70.8898 125.75 69.99 124.62 69.99C123.49 69.99 122.59 70.8898 122.59 72.0198ZM147.57 70.97C147.57 69.85 146.67 68.9397 145.54 68.9397C144.41 68.9397 143.51 69.84 143.51 70.97C143.51 72.1 144.41 72.9998 145.54 72.9998C146.67 72.9998 147.57 72.09 147.57 70.97ZM131.77 60.4099C131.73 56.6499 115.93 57.7298 116.12 61.4998C116.27 64.1298 131.82 64.1799 131.77 60.4099ZM151.89 62.2596C151.68 60.7996 151.42 59.3196 151.13 57.8196C146.53 56.7996 139.04 57.5199 138.96 60.0999C138.91 62.0499 147.39 63.2796 151.89 62.2596ZM137.77 69.3899C137.44 69.5799 137.31 69.9896 137.5 70.3196C137.56 70.4296 139.1 73.1697 143.19 77.1097C144.08 77.9597 144.45 78.7799 144.32 79.6199C144.08 81.2499 141.92 82.6699 141.1 83.0799C140.77 83.2499 140.63 83.66 140.8 83.99C140.92 84.23 141.15 84.3597 141.41 84.3597C141.51 84.3597 141.61 84.3398 141.71 84.2898C141.86 84.2298 145.26 82.4896 145.67 79.8196C145.87 78.5296 145.35 77.2697 144.14 76.1097C140.21 72.3297 138.7 69.6799 138.69 69.6399C138.5 69.3299 138.09 69.1999 137.76 69.3899H137.77ZM137.79 98.0799C138.17 98.0799 138.48 97.7797 138.48 97.3997C138.48 97.0197 138.19 96.71 137.8 96.7C131.51 96.63 128.59 93.7398 127.87 92.0398C127.59 91.3898 127.57 90.8098 127.83 90.5398C128.1 90.2398 128.77 90.2196 129.61 90.5096C135.11 92.3396 141.1 91.6196 141.35 91.5896C141.72 91.5396 141.99 91.2096 141.94 90.8196C141.89 90.4496 141.56 90.1798 141.17 90.2298C141.11 90.2398 135.23 90.9398 130.04 89.2098C128.14 88.5798 127.21 89.1897 126.83 89.6297C126.19 90.3197 126.11 91.3996 126.62 92.5896C127.77 95.2496 131.67 97.9796 137.79 98.0696V98.0799ZM97.0799 85.4998C97.1999 85.6698 97.3999 85.7498 97.5999 85.7498C97.7499 85.7498 97.9099 85.6999 98.0398 85.5799C98.3198 85.3299 98.3599 84.8999 98.1199 84.6199C96.9699 83.2599 97.2599 81.9197 97.5599 80.6097C97.8299 79.3597 98.1398 77.9398 96.7898 76.9798C94.2699 75.1698 91.3998 77.6798 91.2698 77.7698C90.9898 78.0198 90.97 78.46 91.22 78.74C91.46 79.02 91.8997 79.0396 92.1898 78.7996C92.2097 78.7796 94.3698 76.9199 95.9998 78.0799C96.5598 78.4699 96.51 79.0096 96.22 80.2996C95.91 81.6896 95.4899 83.62 97.0799 85.49V85.4998ZM104.21 107.53C103.9 104.59 103.45 100.3 103.16 98.1399C102.71 94.6699 100.16 93.1697 96.0897 92.9397C96.0897 92.9397 99.9197 99.7198 102.63 104.46C103.32 105.64 103.84 106.63 104.21 107.53ZM131.68 127.99C131.77 126.97 131.85 125.88 131.92 124.8C132.23 120.12 132.45 118.25 132.45 118.25C132.45 118.25 128.61 118.18 123.19 117.42C117.98 116.7 123.11 125.58 131.68 127.99ZM134.76 229.76C134.84 229.79 134.93 229.81 135.01 229.81C135.28 229.81 135.54 229.64 135.64 229.36C141.7 213.66 145.81 183.68 145.85 183.36C145.89 182.99 145.63 182.65 145.27 182.6C144.89 182.55 144.55 182.81 144.5 183.18C144.46 183.47 140.38 213.31 134.39 228.86C134.23 229.21 134.41 229.61 134.76 229.74V229.76ZM48.8597 214.36C48.9597 214.42 49.0798 214.45 49.1898 214.45C49.4298 214.45 49.6596 214.33 49.7796 214.11C55.3996 204.22 62.1898 183.48 62.2498 183.27C62.3598 182.91 62.1699 182.52 61.8099 182.4C61.4499 182.29 61.0598 182.48 60.9398 182.84C60.8798 183.05 54.1199 203.67 48.5799 213.43C48.3999 213.76 48.5199 214.18 48.8499 214.37L48.8597 214.36ZM19.5399 198.66C20.1599 197.18 20.5198 196.46 20.5198 196.46C20.5198 196.46 2.45991 185.55 1.09991 187.8C0.779909 188.34 1.52991 189.55 2.84991 191.07C5.72991 193.75 11.8099 198.47 17.8899 202.93L19.5399 198.66ZM181.01 213.61C180.41 212.56 173.2 215.9 173.2 215.9L173.93 218.88C173.93 218.88 181.61 214.67 181.01 213.61ZM290.93 211.29C290.74 211.26 288.96 211.1 285.22 213.9C277.22 219.91 275.01 219.81 274.45 219.5C272.39 218.36 258.9 213.35 258.33 213.13C257.97 213.01 257.58 213.18 257.45 213.55C257.33 213.9 257.5 214.29 257.87 214.42C258.01 214.47 271.84 219.61 273.81 220.7C274.1 220.87 274.48 220.99 274.99 220.99C276.58 220.99 279.61 219.85 286.07 215.01C289.17 212.68 290.63 212.65 290.75 212.65H290.76C291.12 212.7 291.48 212.45 291.53 212.07C291.56 211.69 291.3 211.34 290.94 211.29H290.93ZM293 206.64C292.78 206.5 290.72 205.37 286.43 207.75C282.38 210.01 275.6 214.74 275.53 214.79C275.23 215.01 275.15 215.43 275.36 215.75C275.5 215.94 275.71 216.04 275.92 216.04C276.06 216.04 276.2 216 276.31 215.92C276.37 215.87 283.1 211.18 287.09 208.96C290.66 206.97 292.26 207.82 292.27 207.82C292.58 208.03 293.02 207.92 293.21 207.61C293.42 207.28 293.31 206.86 293 206.65V206.64ZM275.92 210.62C276.06 210.62 276.2 210.58 276.31 210.5C276.39 210.44 285.05 204.45 288.08 203.6C290.79 202.82 291.97 203.69 291.97 203.69C292.25 203.93 292.69 203.89 292.93 203.6C293.17 203.31 293.13 202.87 292.84 202.64C292.67 202.49 291.1 201.3 287.69 202.28C284.46 203.22 275.88 209.13 275.53 209.38C275.22 209.6 275.15 210.02 275.35 210.34C275.5 210.53 275.71 210.63 275.92 210.63V210.62ZM257.8 205.62L263.19 204.21C263.55 204.12 263.77 203.74 263.68 203.37C263.59 203.01 263.21 202.79 262.84 202.88L257.45 204.3C257.09 204.39 256.87 204.77 256.96 205.13C257.04 205.44 257.32 205.64 257.63 205.64C257.69 205.65 257.75 205.64 257.81 205.62H257.8ZM83.91 277.61C81.95 273.47 79.8998 268.75 80.7898 265.2C81.5698 262.07 86.7398 261.21 86.7898 261.2C87.1599 261.14 87.4097 260.78 87.3597 260.41C87.2997 260.04 86.9396 259.79 86.5696 259.84C86.3296 259.88 80.4698 260.86 79.4598 264.87C78.4598 268.85 80.59 273.84 82.66 278.2C84.92 282.93 86.2796 285.87 86.2796 285.87C86.3796 286.12 86.6399 286.26 86.8899 286.26C86.9799 286.26 87.09 286.24 87.18 286.2C87.52 286.04 87.6696 285.64 87.5096 285.3C87.5196 285.3 86.1697 282.36 83.8997 277.62L83.91 277.61ZM112.65 264.48C112.6 264.11 112.26 263.85 111.88 263.91L88.8597 267.07C88.4897 267.12 88.2296 267.46 88.2796 267.84C88.3296 268.19 88.6098 268.43 88.9598 268.43C88.9898 268.43 89.0196 268.43 89.0496 268.42L112.07 265.26C112.43 265.21 112.7 264.87 112.65 264.48ZM113.98 269.84C113.9 269.47 113.51 269.25 113.15 269.34L92.3699 274.76C92.0099 274.85 91.7897 275.24 91.8797 275.6C91.9597 275.9 92.2396 276.11 92.5496 276.11C92.6096 276.11 92.6598 276.1 92.7298 276.09L113.5 270.67C113.87 270.57 114.09 270.19 113.99 269.84H113.98ZM115.11 275.66C115 275.3 114.61 275.1 114.25 275.22L94.3899 281.78C94.0299 281.89 93.8398 282.28 93.9398 282.64C94.0297 282.92 94.3097 283.11 94.5897 283.11C94.6597 283.11 94.7399 283.1 94.8099 283.08L114.67 276.53C115.03 276.39 115.22 276.01 115.11 275.66ZM182.03 480.74L180.36 479.99C176.82 478.42 171.98 476.26 164.81 473.93C156.93 471.38 149.15 468.48 147.87 463.58C147.07 460.52 147.67 456.03 148.25 452.98L165.92 455.12C166.12 450.86 166.41 448.32 166.41 448.32L156.63 448.73C156.78 448.63 156.89 448.47 156.92 448.27C157.06 447.36 170.27 356.32 172.28 335.09C174.32 313.53 163.9 304.4 163.45 304.02C163.17 303.78 162.73 303.81 162.49 304.1C162.24 304.39 162.27 304.82 162.56 305.06C162.65 305.15 172.87 314.17 170.9 334.97C168.89 356.16 155.68 447.16 155.56 448.07C155.52 448.36 155.65 448.62 155.89 448.76L148.81 449.05C148.73 448.98 148.62 448.9 148.52 448.86C148.25 448.79 147.97 448.89 147.8 449.09L112.34 450.58C112.34 450.58 112.25 451.41 112.08 452.79L146.41 455.61C146.05 458.36 145.89 461.5 146.52 463.93C147.99 469.51 155.79 472.46 164.36 475.25C171.47 477.56 176.27 479.7 179.79 481.26L181.47 482.01C184.54 483.35 183.78 488 183.78 488.03C183.73 488.4 183.97 488.76 184.34 488.82C184.38 488.83 184.42 488.83 184.46 488.83C184.79 488.83 185.07 488.59 185.14 488.26C185.16 488.03 186.07 482.53 182.01 480.76L182.03 480.74ZM153.89 300.25C153.89 300.25 153.95 300.26 153.99 300.26C154.32 300.26 154.6 300.02 154.66 299.68L163.7 236.68C163.74 236.31 163.49 235.95 163.12 235.9C162.75 235.86 162.39 236.11 162.34 236.48L153.31 299.49C153.25 299.85 153.51 300.2 153.89 300.25ZM66.6697 277.24L12.7 288.76C12.33 288.83 12.0997 289.2 12.1697 289.57C12.2297 289.89 12.5196 290.11 12.8196 290.11C12.8696 290.11 12.91 290.1 12.97 290.1L66.9398 278.58C67.3098 278.51 67.54 278.14 67.47 277.77C67.41 277.4 67.0297 277.16 66.6697 277.24ZM34.9197 226.87C34.9197 226.87 37.91 227.11 39.99 228.55C40.11 228.63 40.2499 228.67 40.3699 228.67C40.5899 228.67 40.81 228.57 40.93 228.37C41.15 228.07 41.0798 227.64 40.7698 227.42C38.3798 225.75 35.1398 225.5 34.9998 225.49C34.6298 225.47 34.2998 225.75 34.2698 226.12C34.2498 226.5 34.5197 226.83 34.8997 226.86L34.9197 226.87ZM382.81 43.7898C383.77 43.7898 384.55 43.0196 384.55 42.0496C384.55 41.0796 383.77 40.3196 382.81 40.3196C381.85 40.3196 381.07 41.0896 381.07 42.0496C381.07 43.0096 381.86 43.7898 382.81 43.7898ZM360.68 44.7098C361.64 44.7098 362.41 43.93 362.41 42.97C362.41 42.01 361.64 41.2298 360.68 41.2298C359.72 41.2298 358.94 42.01 358.94 42.97C358.94 43.93 359.72 44.7098 360.68 44.7098ZM364.92 52.1097C366.19 54.6897 371.6 55.7999 372.22 55.9099C372.26 55.9199 372.31 55.9197 372.36 55.9197C372.67 55.9197 372.96 55.6899 373.04 55.3699C373.11 55.0099 372.86 54.6396 372.5 54.5696C371.02 54.2896 366.99 53.1798 366.17 51.4998C365.97 51.1198 365.98 50.7198 366.2 50.2698C368 46.6698 370.27 40.9397 370.3 40.8797C370.45 40.5297 370.27 40.13 369.92 39.99C369.56 39.85 369.17 40.0197 369.03 40.3797C369.01 40.4297 366.76 46.1097 365 49.6497C364.57 50.4697 364.56 51.3096 364.95 52.0896L364.92 52.1097ZM367.04 63.74C366.92 64.1 367.1 64.4899 367.46 64.6199C367.51 64.6399 370.19 65.5599 373.67 65.5599C377.15 65.5599 381.4 64.6498 384.61 60.9598C384.86 60.6798 384.83 60.25 384.56 59.99C384.28 59.74 383.84 59.7796 383.58 60.0496C377.8 66.6896 368.01 63.3599 367.92 63.3099C367.58 63.1999 367.18 63.38 367.06 63.74H367.04ZM385.6 52.4397C385.65 52.4497 385.69 52.4598 385.75 52.4598C386.07 52.4598 386.34 52.25 386.42 51.93C386.51 51.57 386.27 51.1997 385.91 51.1097C381.15 49.9897 378.39 45.4397 378.36 45.3997C378.16 45.0797 377.75 44.9697 377.42 45.1697C377.09 45.3597 376.99 45.7797 377.18 46.1097C377.3 46.3197 380.25 51.1897 385.6 52.4397ZM359.25 52.4598C359.34 52.4598 359.45 52.4397 359.54 52.3997C364.73 50.0397 366.04 45.6898 366.09 45.4998C366.18 45.1498 365.99 44.7599 365.62 44.6599C365.25 44.5599 364.87 44.7497 364.77 45.1297C364.76 45.1697 363.56 49.0697 358.97 51.1697C358.62 51.3197 358.47 51.7296 358.63 52.0696C358.75 52.3096 359 52.4598 359.25 52.4598ZM372.05 256.44C373.61 256.09 376.37 256.06 379.28 256.02C381.62 256 384.02 255.98 385.96 255.78C388.44 255.51 389.43 254 389.49 252.67C389.6 250.91 388.28 249.2 386.49 248.77C384.66 248.35 381.9 248.43 379 248.51C377 248.56 374.96 248.62 373.05 248.53C370.77 248.42 369.44 247.1 369.36 245.9C369.28 244.87 370.11 244.07 371.57 243.79C374.83 243.14 380.02 242.83 383.44 242.64C384.69 242.57 385.73 242.5 386.39 242.44C388.15 242.27 389.22 240.61 389.33 239.09C389.44 237.51 388.6 236.26 387.17 235.89C385.64 235.52 382.55 235.66 379.3 235.81C376.55 235.95 373.71 236.08 371.95 235.87C370.94 235.76 370.29 235.46 370.07 235.03C369.8 234.49 370.19 233.75 370.21 233.73C370.4 233.41 370.28 232.99 369.96 232.8C369.64 232.6 369.22 232.72 369.02 233.05C368.99 233.09 368.24 234.41 368.85 235.64C369.29 236.52 370.27 237.05 371.79 237.24C373.66 237.46 376.56 237.32 379.37 237.19C382.38 237.04 385.5 236.89 386.83 237.23C387.95 237.5 387.99 238.55 387.96 239C387.89 239.94 387.26 240.99 386.26 241.08C385.62 241.14 384.59 241.19 383.35 241.27C379.89 241.48 374.66 241.77 371.28 242.44C368.68 242.96 367.87 244.69 367.97 246.01C368.11 247.83 369.87 249.75 372.96 249.9C374.91 249.99 376.99 249.94 379.01 249.88C381.84 249.81 384.51 249.73 386.17 250.12C387.46 250.41 388.18 251.61 388.11 252.59C388.05 253.61 387.21 254.26 385.78 254.42C383.92 254.62 381.53 254.64 379.23 254.67C376.24 254.7 373.41 254.72 371.69 255.12C370.04 255.49 368.95 256.85 369.02 258.37C369.08 259.59 369.95 261.12 372.21 261.43C375.17 261.82 383.08 262.38 385.26 262.53C385.47 263.67 386.11 266.3 387.87 268.56C388.01 268.74 388.21 268.82 388.41 268.82C388.57 268.82 388.71 268.78 388.84 268.68C389.13 268.44 389.18 268.01 388.94 267.71C386.91 265.12 386.53 261.85 386.53 261.82C386.49 261.5 386.22 261.24 385.9 261.21C385.8 261.21 375.72 260.53 372.4 260.1C370.98 259.9 370.44 259.06 370.39 258.33C370.37 257.57 370.86 256.71 372.02 256.44H372.05ZM461.78 222.13C461.85 222.13 461.93 222.12 461.99 222.1L469.45 219.61C469.8 219.5 470 219.1 469.88 218.75C469.76 218.4 469.37 218.2 469.01 218.32L461.56 220.8C461.21 220.92 461.01 221.31 461.13 221.67C461.23 221.94 461.49 222.13 461.78 222.13ZM489.66 191.9C475.06 195.11 459.78 200.39 456.38 201.6L446.41 166.16C446.31 165.8 445.94 165.59 445.57 165.69C445.2 165.79 445 166.17 445.1 166.53L455.26 202.67C455.31 202.85 455.44 203 455.6 203.1C455.7 203.15 455.81 203.17 455.92 203.17C456 203.17 456.07 203.16 456.15 203.13C456.33 203.07 473.02 197.04 489.15 193.41L493.74 196.26C498.97 193.39 503.1 190.48 503.84 188.13C502.23 187.78 493.55 190.58 489.65 191.89L489.66 191.9ZM323.73 197.79L351.67 203.37H351.71L351.8 204.13C351.84 204.47 352.13 204.73 352.49 204.73H352.57C352.94 204.69 353.2 204.35 353.17 203.97L348.87 166.94C348.84 166.56 348.48 166.29 348.12 166.34C347.75 166.38 347.48 166.72 347.52 167.09L351.55 201.94L319.58 195.55C319.49 195.53 319.39 195.53 319.3 195.55C316.92 194.97 314.4 194.55 314.1 195.23C313.5 196.59 323.58 199.75 323.58 199.75L323.73 197.79ZM385.24 273.38C384.87 273.4 384.55 273.66 384.53 274.03C384.53 274.08 384.26 279.32 379.24 282.03C377.74 282.85 374.77 284.38 371.01 286.31C361.17 291.38 346.28 299.05 338.11 303.95C325.82 311.32 320.16 329.32 324.94 345.82C325.03 346.12 325.29 346.31 325.58 346.31C325.64 346.31 325.7 346.3 325.78 346.28C326.14 346.19 326.35 345.79 326.25 345.44C321 327.29 328.81 311.12 338.82 305.11C346.95 300.23 361.8 292.59 371.63 287.52C375.4 285.58 378.39 284.04 379.89 283.23C385.59 280.15 385.89 274.31 385.9 274.07C385.92 273.71 385.63 273.39 385.25 273.37L385.24 273.38ZM350.32 336.35C352.89 332.85 353.37 327.86 353.39 327.65C353.42 327.27 353.15 326.94 352.77 326.9C352.41 326.88 352.07 327.15 352.03 327.52C352.03 327.57 351.56 332.34 349.22 335.53C348.99 335.84 349.06 336.27 349.37 336.49C349.48 336.58 349.63 336.63 349.78 336.63C349.99 336.62 350.2 336.53 350.33 336.35H350.32ZM298.31 327.35C297.95 327.35 297.61 327.63 297.59 328C297.59 328.05 297.35 333.48 295.45 336.22C295.24 336.52 295.31 336.96 295.63 337.17C295.75 337.25 295.88 337.29 296.01 337.29C296.23 337.29 296.44 337.19 296.57 336.99C298.69 333.93 298.94 328.3 298.95 328.05C298.97 327.69 298.68 327.36 298.31 327.34V327.35ZM370.69 391.87L355.93 394.88L356.73 398.16L372.78 400.67L370.69 391.87ZM382.45 447.55C376.85 450.14 370.49 449.31 370.42 449.31C370.03 449.26 369.69 449.53 369.64 449.89C369.59 450.26 369.86 450.62 370.22 450.66C370.33 450.67 371.4 450.82 373.03 450.82C375.55 450.82 379.39 450.49 383.02 448.8C383.37 448.63 383.51 448.24 383.36 447.9C383.19 447.55 382.8 447.4 382.45 447.56V447.55ZM359.55 456.54C359.2 456.5 358.83 456.77 358.8 457.15C358.79 457.24 357.6 467.85 349.75 471.04C347.05 472.14 344.39 473.29 341.82 474.39C336.49 476.67 331.48 478.84 327.23 480.04C325.11 480.64 323.69 481.73 323 483.26C321.9 485.7 323.15 488.33 323.2 488.45C323.32 488.69 323.55 488.83 323.81 488.83C323.91 488.83 324.01 488.81 324.1 488.76C324.44 488.59 324.59 488.19 324.43 487.86C324.42 487.84 323.41 485.68 324.25 483.82C324.77 482.68 325.89 481.86 327.61 481.37C331.93 480.13 336.99 477.95 342.36 475.64C344.92 474.54 347.57 473.39 350.26 472.3C358.9 468.81 360.12 457.76 360.17 457.29C360.21 456.91 359.93 456.58 359.56 456.54H359.55ZM464.09 281.18C463.99 280.81 463.59 280.61 463.24 280.71C462.88 280.81 462.67 281.21 462.78 281.56L468.81 302.03C468.9 302.33 469.16 302.52 469.46 302.52C469.52 302.52 469.58 302.51 469.65 302.49C470.02 302.39 470.22 302 470.11 301.65L464.09 281.18ZM400.25 325.25C401.32 329.12 402.83 337.59 397.36 342.48H399.21C405.09 342.48 410.05 335.93 404.86 330.51C403.69 329.29 402.08 327.44 400.24 325.25H400.25ZM88.91 239.14C89.05 238.79 88.8598 238.4 88.4998 238.27C74.7698 233.19 59.06 229.55 58.91 229.51C58.55 229.43 58.1799 229.66 58.0999 230.02C58.0199 230.38 58.2397 230.76 58.6097 230.84C58.7597 230.88 74.3896 234.5 88.0296 239.55C88.1096 239.57 88.1998 239.58 88.2698 239.58C88.5398 239.59 88.81 239.43 88.91 239.14ZM389.21 91.3699C385 93.3299 381.08 91.22 381.08 91.22C381.08 91.22 379.72 93.3299 375.51 93.3299H375.41C375.52 94.2699 375.67 95.33 375.83 96.49C375.92 97.27 375.39 98.11 374.47 98.95C380.91 97.44 389.8 94.35 394.04 88.2C394.23 87.94 394.38 87.68 394.53 87.43C393.52 87.21 392.83 86.8499 392.83 86.8499C392.83 86.8499 393.43 89.4097 389.22 91.3597L389.21 91.3699ZM412.62 39.5398C412.48 39.6298 409.25 41.83 409.38 45.22C409.43 46.55 409.86 47.2899 410.17 47.8299C410.59 48.5399 410.82 48.9298 409.68 50.9598C409.49 51.2798 409.61 51.7099 409.95 51.8899C410.04 51.9499 410.17 51.9798 410.28 51.9798C410.52 51.9798 410.75 51.8599 410.88 51.6399C412.29 49.0999 412 48.2499 411.35 47.1399C411.07 46.6599 410.78 46.1697 410.74 45.1897C410.64 42.5697 413.34 40.72 413.37 40.7C413.69 40.48 413.78 40.0698 413.56 39.7498C413.35 39.4298 412.94 39.3296 412.62 39.5496V39.5398ZM349.87 46.1697C350.03 46.2297 351.49 46.8598 351.23 48.7098C350.87 51.3698 352.04 53.7497 352.09 53.8597C352.2 54.0997 352.44 54.2298 352.69 54.2298C352.79 54.2298 352.9 54.2099 353 54.1599C353.33 53.9899 353.48 53.5798 353.3 53.2498C353.29 53.2298 352.27 51.1399 352.58 48.9099C352.9 46.5099 351.25 45.2397 350.33 44.8997C349.97 44.7597 349.58 44.9498 349.45 45.2898C349.33 45.6498 349.49 46.05 349.86 46.18L349.87 46.1697ZM453.86 270.85C439.08 261.48 432.38 262.23 432.1 262.26C431.72 262.3 431.47 262.64 431.51 263.02C431.56 263.39 431.89 263.67 432.27 263.61C432.33 263.6 438.86 262.97 453.13 272C467.68 281.21 483.03 293.51 483.17 293.63C483.29 293.72 483.45 293.78 483.61 293.78C483.81 293.78 484 293.69 484.14 293.53C484.37 293.23 484.33 292.8 484.04 292.57C483.88 292.45 468.48 280.1 453.86 270.85ZM355.05 251.6C355.16 251.67 355.29 251.7 355.41 251.7C355.64 251.7 355.87 251.59 355.99 251.39L360.96 243.48C361.17 243.17 361.06 242.74 360.75 242.54C360.43 242.33 360 242.44 359.8 242.76L354.83 250.66C354.62 250.97 354.73 251.41 355.04 251.6H355.05ZM341.94 226.43C341.58 226.51 341.34 226.88 341.43 227.24C341.5 227.56 341.79 227.77 342.1 227.77C342.15 227.77 342.2 227.76 342.26 227.75C344.38 227.27 350.28 226.26 352.12 227.44C352.44 227.65 352.87 227.55 353.08 227.22C353.28 226.91 353.18 226.48 352.86 226.27C350.21 224.61 342.79 226.23 341.95 226.43H341.94Z" fill="#3C3C3B"/>
</svg>
