<svg width="277" height="553" viewBox="0 0 277 553" fill="none" xmlns="http://www.w3.org/2000/svg">
<path d="M244.021 475.26C244.121 472.83 244.21 470.73 244.28 469.05C244.28 468.96 244.28 468.86 244.28 468.77C244.33 467.74 244.36 466.88 244.4 466.23C244.4 466.14 244.4 466.07 244.4 465.99C244.4 465.87 244.4 465.75 244.4 465.64C244.4 465.37 244.42 465.15 244.42 465C262.53 464.62 275.65 464.01 276.13 463.15C277.29 461.04 271.79 418.72 268.75 396.11C268.52 389.13 265.46 297.57 255 264.31C244.11 229.74 236.431 210.21 236.431 210.21C236.431 210.21 236.07 210.28 235.42 210.42C236.14 208.79 236.71 207.32 237.07 206.05C240.63 193.58 241.711 182.46 236.991 165.33C236.861 165.71 236.72 166.05 236.55 166.39C236.06 164.12 234.6 157.88 232.11 149.86C231.87 149.11 231.63 148.34 231.38 147.56C231.35 147.51 231.341 147.44 231.331 147.39C230.831 145.84 230.29 144.23 229.71 142.59C229.69 142.54 229.66 142.48 229.65 142.41C229.36 141.59 229.06 140.74 228.75 139.9C227.78 137.25 226.721 134.52 225.561 131.78C223.721 127.41 221.61 123.87 219.36 120.97C219.52 120.91 219.701 120.83 219.851 120.77C215.491 114.92 209.761 110.29 198.181 105.85C199.581 104.12 201.251 100.27 198.181 98.6802C194.941 97.0002 183.53 94.3599 183.53 94.3599C183.53 94.3599 181.131 93.0299 178.971 94.3599C177.731 95.1199 176.88 96.8098 176.28 98.8398C168.82 96.5398 166.971 95.9199 166.971 95.9199C163.771 94.0099 162.17 88.5601 162.17 88.5601C162.17 88.5601 161.33 84.8698 162.53 80.0698C163.73 75.2698 168.291 66.98 168.291 66.98C168.291 66.98 176.33 64.0902 176.94 55.9302C177.26 51.4702 175.38 49.46 173.59 48.54C174.9 44.01 174.771 39.8501 174.771 39.8501C174.771 39.8501 174.88 39.8301 175.03 39.8101H175.061C175.151 39.8101 175.25 39.7798 175.38 39.7598H175.4C176.05 39.6598 177.15 39.4598 178.46 39.0298C181.31 38.1098 185.041 36.1802 186.911 32.1602C190.161 25.2002 188.95 12.8301 179.23 9.6001C169.5 6.3501 161.461 11.1598 159.661 16.3198C159.661 16.3198 148.97 11.1599 136.84 13.4399C124.71 15.7199 112.71 24.9701 113.3 38.8901C113.28 38.3301 113.301 37.7998 113.331 37.2598C112.891 40.3998 113.07 42.6201 113.07 42.6201C113.07 42.6201 108.03 42.7399 107.78 50.8999C107.54 59.0599 114.021 61.7002 114.021 61.7002C114.021 61.7002 114.51 64.2301 115.94 75.6401C116.1 76.9901 116.361 78.2199 116.701 79.3599C107.811 77.2999 99.0607 78.0099 93.9707 78.9399C90.6807 79.5499 86.0906 80.7598 81.6606 82.0298C81.6006 82.0498 81.5405 82.0601 81.4805 82.0801C81.1005 82.1901 80.7003 82.2999 80.3203 82.4199C80.2503 82.4399 80.1603 82.47 80.0703 82.48C79.6503 82.61 79.2206 82.7299 78.8105 82.8599C78.7906 82.8599 78.7805 82.8599 78.7705 82.8599C78.3205 82.9999 77.8707 83.13 77.4307 83.25C77.3907 83.25 77.3503 83.2698 77.3203 83.2798C77.0203 83.3698 76.7307 83.4598 76.4307 83.5498V83.27C76.4307 83.27 75.5006 83.37 74.4106 83.5H74.3706C74.1306 83.52 73.8904 83.5498 73.6504 83.5898C73.5704 83.5898 73.4804 83.6101 73.4004 83.6201C73.2204 83.6501 73.0303 83.6699 72.8604 83.6899C72.7204 83.6899 72.6105 83.72 72.4805 83.73C72.3605 83.75 72.2306 83.7698 72.1206 83.7798C71.8906 83.8198 71.6805 83.8501 71.5005 83.8701C70.0605 84.1101 69.9404 82.1899 69.9404 82.1899C75.9404 78.7099 76.1803 69.0999 75.8203 58.4199V58.3198C76.9503 57.5898 78.0105 56.49 78.7705 54.75C80.6605 50.44 79.6607 43.4501 76.6807 40.0601C76.0207 39.3101 75.2805 38.7499 74.4805 38.3799C73.7705 34.1699 72.6106 30.0399 70.6606 26.1299C69.7406 24.3199 68.2107 22.4998 66.2007 20.7998C65.2207 19.9698 64.1207 19.1902 62.9307 18.4302C62.8907 18.4102 62.8605 18.3801 62.8105 18.3701C61.6505 17.6401 60.4006 16.9701 59.0806 16.3501C59.0006 16.3101 58.9306 16.29 58.8506 16.25C57.5406 15.66 56.1707 15.1199 54.7407 14.6499C54.6407 14.6099 54.5404 14.5801 54.4404 14.5601C53.8004 14.3601 53.1405 14.17 52.4805 14C52.4005 13.97 52.3305 13.9499 52.2505 13.9399C51.5305 13.7699 50.7903 13.61 50.0503 13.46C49.9403 13.43 49.8305 13.4202 49.7305 13.4102C49.0905 13.2902 48.4505 13.1901 47.8105 13.1201C47.6605 13.0901 47.5204 13.0798 47.3804 13.0698C46.6404 12.9898 45.9006 12.9201 45.1406 12.8901H44.9404C44.2704 12.8601 43.6004 12.8601 42.9404 12.8901C42.7604 12.8901 42.5706 12.8902 42.3906 12.9102C41.6706 12.9502 40.9505 12.9898 40.2305 13.0698H40.1807C39.4507 13.1598 38.7207 13.2899 37.9907 13.4199C37.8007 13.4599 37.6104 13.5 37.4404 13.54C36.8304 13.67 36.2104 13.81 35.6104 14C35.4804 14.04 35.3407 14.0599 35.2207 14.1099C34.5107 14.3199 33.8004 14.5899 33.1104 14.8599C32.9504 14.9299 32.7906 15.0001 32.6206 15.0601C32.0506 15.3101 31.4904 15.5701 30.9404 15.8701C30.8304 15.9201 30.7306 15.9698 30.6206 16.0298C30.6206 15.7798 30.6504 15.54 30.6504 15.29C30.7004 7.00004 23.9504 0.25 15.6304 0.25C7.31037 0.25 0.570312 6.99006 0.570312 15.3101C0.570312 23.6301 7.31037 30.3799 15.6304 30.3799C16.5504 30.3799 17.4603 30.2801 18.3403 30.1201C14.8003 39.4901 17.4704 48.7599 18.6104 51.9199C18.6104 51.9199 18.6104 51.94 18.6104 51.96C18.7804 52.43 18.9107 52.7599 18.9907 52.9199C18.9907 52.9199 18.9969 52.9369 19.0103 52.9702C19.0403 53.0202 19.0605 53.0698 19.0605 53.0698C19.0605 53.0698 14.7404 57.27 17.8604 66.52C20.9804 75.77 31.6704 73.48 31.6704 73.48C31.6704 73.48 39.2403 83.3301 42.8403 88.3701C45.8503 92.5801 44.5107 96.8699 43.9707 98.1699C42.6707 99.0999 40.5005 100.71 37.8105 102.81C32.8505 106.68 26.1107 112.27 19.7007 118.67C7.53068 130.84 4.98035 143.97 5.61035 160.29C6.25035 176.61 9.45033 193.9 10.0903 196.79C10.1503 197.1 10.6204 197.33 11.3604 197.49C11.3804 197.49 11.4107 197.49 11.4307 197.51C12.2707 197.68 13.4707 197.78 14.9307 197.8H15.0806C15.5506 197.82 16.0403 197.82 16.5703 197.8C17.6603 197.8 18.8503 197.75 20.0903 197.7C20.1403 197.7 20.1805 197.7 20.2305 197.7C20.8305 197.66 21.4606 197.65 22.0806 197.6H22.1006C22.2106 197.6 22.3207 197.6 22.4507 197.58C25.2907 203.64 30.3203 213.65 35.0303 219.49C39.5103 225.04 45.2004 227.45 51.1104 226.84C50.8404 236.31 50.5503 249.19 50.7603 250.59C50.8203 251.06 53.5603 251.51 58.0903 251.9C58.0103 255.13 57.8004 264.19 57.4404 276.26C52.8504 278.6 49.4205 282.99 48.4805 288.36L2.59033 545.98C2.16033 548.35 3.74035 550.62 6.11035 551.04C8.48035 551.47 10.7504 549.89 11.1704 547.52L57.0005 290.21C56.2305 313.84 55.1106 343.4 53.6206 365.23C50.7306 407.81 50.7304 438.86 49.4604 469.28C48.1805 499.69 48.1807 513.14 48.1807 516.67C48.1807 516.8 48.2506 516.96 48.3706 517.12C48.5306 517.37 48.8405 517.62 49.2505 517.89C49.4605 518.03 49.6907 518.17 49.9507 518.31H49.9707C50.3507 518.52 50.7805 518.74 51.2705 518.95C50.2005 521.38 47.9105 525.38 44.0205 526.9C38.2505 529.14 31.5306 529.14 26.0806 532.35C22.5406 534.44 21.7204 538.15 23.4404 541.02C23.4804 541.07 23.5203 541.14 23.5503 541.19C23.6503 541.36 23.7706 541.52 23.8906 541.68C23.9406 541.76 24.0206 541.83 24.0806 541.91C24.2206 542.07 24.3603 542.23 24.5103 542.38C24.6803 542.56 24.8806 542.73 25.0806 542.88C25.1806 542.97 25.3104 543.04 25.4204 543.12C25.5804 543.23 25.7504 543.36 25.9204 543.46C26.0304 543.52 26.1603 543.6 26.2803 543.66C26.4903 543.77 26.7004 543.87 26.9204 543.97C27.0404 544.02 27.1403 544.07 27.2603 544.12C27.6103 544.26 27.9603 544.39 28.3403 544.5C35.0703 546.42 57.4703 550.59 67.0903 551.54C67.7903 551.6 68.4406 551.65 69.0806 551.68C69.2706 551.68 69.4506 551.68 69.6406 551.68C70.0806 551.68 70.5004 551.68 70.9204 551.68C71.0904 551.68 71.2807 551.68 71.4507 551.65C71.8707 551.63 72.2907 551.59 72.6807 551.53C72.7907 551.53 72.9003 551.5 73.0103 551.49C73.5103 551.42 73.9907 551.33 74.4307 551.22C74.4607 551.2 74.4803 551.19 74.5103 551.19C74.9203 551.08 75.2906 550.95 75.6406 550.82C75.7206 550.78 75.8004 550.75 75.8804 550.72C76.1904 550.58 76.4803 550.44 76.7603 550.29C76.8103 550.25 76.8704 550.24 76.9204 550.2C77.5704 549.81 78.1206 549.35 78.5806 548.85C79.6206 547.64 80.1307 546.14 80.2407 544.52C80.4807 541.17 80.7306 530.84 80.8306 525.84C82.3206 525.92 83.6404 525.92 84.7104 525.79C84.7505 525.79 84.7903 525.79 84.8403 525.79C85.0603 525.76 85.2807 525.74 85.4907 525.69C85.5507 525.69 85.6304 525.66 85.6904 525.65C85.8804 525.62 86.0507 525.58 86.2207 525.51C86.2807 525.49 86.3406 525.48 86.3906 525.46C86.5506 525.41 86.6903 525.35 86.8203 525.3C86.8703 525.27 86.9004 525.25 86.9404 525.24C87.0704 525.17 87.1903 525.1 87.3003 525.01C87.4203 524.91 87.5303 524.81 87.6104 524.68C90.4903 520.2 98.5003 420.64 100.09 402.71C101.69 384.77 105.851 361.73 108.411 338.03C110.971 314.35 111.61 302.17 113.86 298.01C116.1 293.85 122.51 298.01 124.11 302.81C124.4 303.67 126 307.23 128.42 312.48C128.05 316.87 127.78 320.95 127.63 324.57C127.31 333.01 127.36 343.7 127.63 354.91C118.13 428.37 103.711 540.66 102.831 547.5C102.531 549.9 104.211 552.08 106.601 552.39C106.791 552.41 106.98 552.43 107.17 552.43C109.33 552.43 111.211 550.82 111.491 548.62C111.651 547.28 121.06 474.06 129.8 406.35C130.09 411.51 130.351 415.81 130.541 418.87C129.371 443.58 130.83 463.34 132.46 464.49C132.79 464.73 136.221 464.93 141.791 465.1C142.301 468.61 147.88 506.9 149.11 516.68C150.04 524.12 148.931 530.54 144.951 534.73C144.571 535.12 144.181 535.48 143.771 535.83C143.771 535.85 143.74 535.85 143.73 535.86C143.34 536.18 142.921 536.49 142.491 536.78C142.441 536.82 142.401 536.85 142.351 536.87C141.951 537.13 141.53 537.36 141.09 537.6C141 537.65 140.92 537.69 140.84 537.74C140.32 538 139.771 538.23 139.201 538.44C130.551 541.64 126.391 543.56 126.391 547.09C126.391 550.62 129.59 551.25 132.48 551.25H174.73C175.14 551.25 175.5 551.2 175.84 551.14C175.94 551.11 176.041 551.08 176.141 551.06C176.371 551 176.591 550.91 176.791 550.81C176.881 550.76 176.98 550.72 177.07 550.67C177.28 550.55 177.481 550.4 177.661 550.25C177.701 550.2 177.761 550.17 177.811 550.12C178.021 549.91 178.221 549.66 178.391 549.41C178.441 549.33 178.481 549.24 178.541 549.14C178.661 548.94 178.771 548.73 178.871 548.5C178.921 548.39 178.96 548.27 179.01 548.14C179.08 547.9 179.17 547.67 179.23 547.41C179.27 547.29 179.29 547.18 179.32 547.05C179.4 546.69 179.471 546.31 179.521 545.91C179.521 545.79 179.541 545.65 179.561 545.52C179.591 545.23 179.61 544.93 179.63 544.61C179.63 544.42 179.661 544.22 179.661 544.02C179.661 543.75 179.661 543.48 179.661 543.2V542.56C179.661 542.28 179.66 541.97 179.63 541.66C179.63 541.26 179.601 540.85 179.581 540.42C179.581 540.17 179.55 539.93 179.53 539.68C179.51 539.35 179.48 539.01 179.46 538.67C179.46 538.51 179.421 538.33 179.411 538.17C179.171 535.55 178.82 532.79 178.57 530.11C177.87 522.74 178.57 490.75 178.96 474.7C178.96 474.25 178.98 473.81 179 473.38C179 473.12 179.001 472.87 179.021 472.62C179.041 472.37 179.021 472.11 179.041 471.88C179.061 471.55 179.07 471.24 179.07 470.94C179.07 470.67 179.07 470.4 179.09 470.15V470.08C179.11 469.58 179.12 469.09 179.13 468.67V468.64C179.13 468.22 179.16 467.83 179.17 467.49C179.17 467.43 179.17 467.35 179.17 467.29C179.17 467 179.17 466.73 179.19 466.5V466.46C179.19 466.26 179.21 466.1 179.21 465.96C179.21 465.76 179.21 465.62 179.21 465.55C188.04 465.57 197.45 465.57 206.8 465.51C207.39 469.56 212.64 505.1 214.75 520.19C215.98 528.96 214.22 533.58 211.13 536.93C210.81 537.26 210.49 537.59 210.15 537.9C210.15 537.92 210.12 537.93 210.11 537.94C209.77 538.25 209.411 538.56 209.061 538.86C207.291 540.32 205.271 541.61 203.221 543.05C203.171 543.09 203.101 543.13 203.061 543.17C202.581 543.51 202.111 543.84 201.641 544.2C193.961 549.96 196.84 552.52 196.84 552.52H235.59C236.07 552.52 236.51 552.48 236.94 552.43C237.09 552.4 237.21 552.38 237.34 552.35C237.61 552.3 237.881 552.25 238.121 552.18C238.271 552.13 238.391 552.09 238.521 552.03C238.731 551.95 238.931 551.86 239.121 551.76C239.251 551.7 239.37 551.62 239.5 551.55C239.66 551.44 239.831 551.32 239.991 551.19C240.091 551.1 240.201 551.02 240.291 550.92C240.441 550.77 240.561 550.62 240.701 550.46C240.781 550.36 240.87 550.27 240.94 550.17C241.09 549.96 241.221 549.72 241.351 549.47C241.391 549.4 241.43 549.32 241.48 549.26C241.63 548.96 241.75 548.64 241.86 548.31C241.9 548.16 241.93 548.02 241.98 547.87C242.04 547.64 242.101 547.42 242.141 547.18C242.181 547 242.211 546.82 242.241 546.63C242.281 546.4 242.32 546.18 242.36 545.94C242.38 545.74 242.41 545.54 242.42 545.34C242.45 545.1 242.471 544.85 242.471 544.61C242.471 544.4 242.511 544.18 242.521 543.96C242.521 543.7 242.55 543.44 242.55 543.17C242.55 542.94 242.55 542.72 242.55 542.48V541.64C242.55 541 242.55 540.35 242.51 539.67V539.45C242.46 537.61 242.35 535.65 242.3 533.6C242.07 526.02 243.32 493.94 244.05 476.37C243.96 476.03 243.981 475.66 243.991 475.31L244.021 475.26ZM75.6304 41.0601C78.2504 44.0301 79.1407 50.4099 77.4907 54.1899C77.0307 55.2299 76.4603 56.0001 75.8203 56.5801C75.6603 51.2401 75.5706 45.7201 74.8306 40.3101C75.1106 40.5201 75.3806 40.7701 75.6406 41.0601H75.6304Z" fill="#E0B2D3"/>
<path d="M255.03 264.311C244.14 229.741 236.46 210.211 236.46 210.211C236.46 210.211 228.99 211.791 217.41 213.781V214.281C217.41 215.241 216.7 216.441 216.45 218.841C216.21 221.251 215.25 232.291 215.25 232.291C215.25 232.291 203 242.141 198.19 241.651C193.39 241.161 186.25 233.201 186.25 233.201L190.96 217.781C175.12 219.861 157.19 221.591 140.73 221.711C140.73 221.711 128.89 291.821 127.61 324.481C126.34 357.141 130.81 423.731 130.81 423.731C130.81 423.731 146.5 404.831 150.66 400.991C154.82 397.161 160.27 395.231 166.03 400.991C171.8 406.761 181.08 415.391 185.57 419.571C190.05 423.731 197.74 424.051 201.9 418.601C206.06 413.151 212.46 405.151 215.34 401.311C218.23 397.471 225.27 394.581 229.1 400.031C232.94 405.481 239.67 412.511 244.79 417.961C249.91 423.411 254.72 420.841 257.27 417.321C259.83 413.801 268.8 396.511 268.8 396.511C268.8 396.511 265.93 298.891 255.04 264.311H255.03ZM198.38 269.451L178.05 258.001L182.85 245.991L206.71 255.991L198.38 269.441V269.451Z" fill="#1A1B37"/>
<path d="M107.45 208.94C110.97 199.98 112.9 194.54 110.65 179.16C109.62 172.09 107.78 162.31 107.02 152.62C115.11 149.6 120.11 142.17 116.57 137.94C112.97 133.61 110.33 130.49 115.86 130.26C121.39 130.02 125.22 125.69 124.27 120.64C123.68 117.54 122.63 114.33 121.91 112.35C128.73 105.51 134.68 100.72 134.68 100.72L146.55 133.29C147.24 135.18 149.87 135.25 150.67 133.41L167.01 95.92C167.01 95.92 170.85 97.2 189.74 102.96C207.25 108.3 214.58 113.65 219.89 120.77C217.49 121.63 213.93 123.77 211.43 129.05C207.35 137.7 210.47 143.45 215.04 144.18C219.6 144.89 222 150.65 218.16 154.5C214.33 158.34 215.28 167.71 224.17 169.63C232.05 171.33 235.39 170.01 237.06 165.33C241.77 182.46 240.71 193.57 237.14 206.05C233.3 219.5 206.72 256 206.72 256L183.04 246.08C183.04 246.08 183.36 243.17 186.3 233.23C187.34 233.1 190.91 232.57 191.52 231.34C192.23 229.9 193.92 240.47 203.76 236.38C213.61 232.29 214.82 227.5 211.44 223.41C208.09 219.33 208.32 214.76 211.93 214.05C215.54 213.33 216.26 205.4 209.29 199.88C203.64 195.4 198.48 199.75 196.72 201.57L201.37 187.64L195.84 170.34C192.01 179.47 186.48 162.41 176.87 170.83C167.26 179.24 180.96 186.92 176.38 190.52C171.82 194.13 164.62 200.85 171.58 208.53C178.54 216.21 185.52 208.76 187.67 209.24C189.48 209.64 191.79 212.4 192.48 213.29L191.18 217.3C176.98 221.73 140.76 221.73 140.76 221.73C140.19 221.26 139.9 220.62 139.78 219.95C138.85 221.45 137.2 222.45 135.31 222.45C132.39 222.45 130.02 220.08 130.02 217.16C130.02 214.24 132.39 211.87 135.31 211.87C137.45 211.87 139.29 213.16 140.12 215C140.17 209.79 140.35 193.86 140.35 193.86C140.35 193.86 136.74 194.1 134.82 195.78C132.9 197.46 134.33 201.79 133.85 205.14C133.39 208.39 131.59 205.37 125.42 204.94C120.68 204.62 116.55 208.2 115.99 212.9C114.83 222.55 118.82 228.87 123.53 226.51C127.37 224.59 129.29 228.19 126.17 229.39C123.33 230.48 121.5 237.94 125.18 239.62L114.81 255.64L93.0403 244.12C93.0403 244.12 103.92 217.89 107.44 208.93L107.45 208.94ZM134.1 19.7901C134.1 19.7901 139.98 25.8002 150.19 32.8902C160.4 39.9702 163.04 39.7403 163.04 39.7403L168.92 51.7501L170.71 47.7799C170.71 47.7799 171.79 47.7802 173.59 48.6202C174.92 44.0602 174.8 39.8502 174.8 39.8502C174.8 39.8502 183.68 39.14 186.92 32.17C190.17 25.21 188.97 12.8402 179.24 9.60018C169.52 6.36018 161.47 11.1602 159.67 16.3302C159.67 16.3302 148.98 11.1703 136.85 13.4503C124.72 15.7303 112.73 24.98 113.32 38.9C124.84 29.65 134.09 19.7999 134.09 19.7999L134.1 19.7901ZM137.94 37.69C137.35 38.53 137.45 39.4799 138.3 39.8399C139.14 40.2099 141.91 39.1299 146.46 39.3599C151.02 39.5899 154.03 42.4799 154.75 41.7598C155.47 41.0398 150.55 37.6803 146.82 36.7203C143.1 35.7603 137.94 37.69 137.94 37.69ZM120.77 38.2901C116.21 39.8501 114.41 41.9003 114.89 42.4903C115.63 43.4103 116.57 41.6499 120.77 41.0499C124.97 40.4499 127.98 42.1201 129.29 40.8101C130.6 39.5001 125.33 36.7199 120.77 38.2799V38.2901ZM189.81 187.4C186.89 187.4 184.52 189.77 184.52 192.69C184.52 195.61 186.89 197.97 189.81 197.97C192.73 197.97 195.1 195.61 195.1 192.69C195.08 189.77 192.73 187.4 189.81 187.4ZM230.38 150.18C231 150.18 231.59 150.06 232.14 149.86C231.17 146.76 230.04 143.39 228.77 139.88C226.65 140.57 225.09 142.53 225.09 144.89C225.11 147.81 227.46 150.18 230.38 150.18ZM44.0501 526.86C38.2801 529.1 31.5601 529.1 26.1101 532.31C20.6601 535.5 21.6301 542.56 28.3601 544.47C35.0901 546.39 57.4903 550.56 67.1003 551.52C76.7104 552.48 79.9105 548.96 80.2205 544.47C80.5505 539.99 80.8601 523.02 80.8601 523.02C80.8601 523.02 73.5003 516.93 52.0403 516.93C52.0403 516.93 49.8103 524.61 44.0403 526.86H44.0501ZM84.3801 113.69L83.0803 81.65C75.3903 83.81 67.7405 86.3199 67.7405 86.3199L45.3401 97.21C45.3401 97.21 42.3003 99.3099 37.8303 102.8L76.4705 117.06L84.3904 113.69H84.3801ZM241.43 546.43L206.1 288.97C204.97 280.64 197.76 274.36 189.35 274.36H65.1301C56.9101 274.36 49.9205 280.24 48.4905 288.32L2.62037 545.94C2.19037 548.31 3.77039 550.58 6.14039 551C8.51039 551.43 10.7804 549.85 11.2004 547.48L57.0901 289.85C57.7801 285.94 61.1601 283.11 65.1301 283.11H139.63C137.8 285.5 136.34 288.47 135.78 292.21C134.19 302.99 104.08 537.47 102.8 547.44C102.5 549.83 104.18 552.02 106.57 552.33C106.76 552.35 106.95 552.36 107.14 552.36C109.31 552.36 111.18 550.76 111.46 548.55C111.77 546.11 142.85 304.19 144.42 293.47C145.43 286.56 152.33 283.76 154.21 283.11H189.34C193.41 283.11 196.89 286.14 197.44 290.17L232.78 547.63C233.08 549.82 234.95 551.4 237.09 551.4C237.29 551.4 237.48 551.4 237.68 551.35C240.08 551.04 241.74 548.83 241.41 546.44L241.43 546.43Z" fill="#7B8CC6"/>
<path d="M175.28 103.601C175.87 99.7705 176.84 95.6705 179.01 94.3705C181.16 93.0405 183.57 94.3705 183.57 94.3705C183.57 94.3705 194.971 97.0104 198.221 98.6904C201.461 100.37 199.42 104.57 197.98 106.13C196.54 107.69 194.021 109.621 192.451 109.491C190.891 109.371 190.661 108.05 190.661 108.05C190.661 108.05 190.17 109.49 187.9 109.73C185.62 109.97 184.78 106.971 184.78 106.971C184.78 106.971 184.19 108.89 182.5 109.13C180.81 109.37 179.38 107.21 179.38 107.21C178.28 109.12 174.68 107.451 175.28 103.601ZM118.13 148.98C117.41 146.57 114.641 147.42 114.641 147.42C114.641 147.42 117.4 145.861 116.69 143.701C115.97 141.541 113.8 141.911 113.8 141.911C113.8 141.911 115.36 138.42 111.76 139.75C108.15 141.08 102.64 145.4 100.48 150.44C98.3304 155.48 96.0305 161.001 94.1205 162.681C92.2005 164.371 56.3002 185.86 56.3002 185.86L55.3305 183.221C31.4405 185.981 20.1605 192.46 20.1605 192.46C20.1605 192.46 27.9604 210.7 35.0404 219.48C42.1304 228.25 52.2104 229.201 61.4604 222.721C70.7004 216.241 94.8406 191.141 100.241 185.741C105.641 180.341 109.85 174.46 109.85 174.46L109.01 166.78C109.01 166.78 118.381 157.06 118.141 155.01C117.901 152.97 116.09 154.05 116.09 154.05C116.09 154.05 118.871 151.4 118.141 149L118.13 148.98ZM31.6903 73.4604C31.6903 73.4604 39.2603 83.3105 42.8603 88.3505C46.4703 93.3905 43.8305 98.5502 43.8305 98.5502L76.4906 109.121V83.3002C76.4906 83.3002 73.0002 83.6606 71.5702 83.8906C70.1402 84.1206 70.0102 82.2104 70.0102 82.2104C76.0102 78.7304 76.2505 69.1204 75.8905 58.4404C75.5205 47.7504 75.7606 36.2406 70.7206 26.1406C65.6906 16.0506 41.0706 5.72021 25.7006 19.5302C10.3306 33.3402 19.1005 53.0302 19.1005 53.0302C19.1005 53.0302 14.7705 57.2304 17.8905 66.4804C21.0105 75.7304 31.6806 73.4404 31.6806 73.4404L31.6903 73.4604ZM83.3104 262.67C81.6304 264.59 76.1003 267.471 74.4203 271.911C72.7403 276.361 71.7806 277.79 70.2206 283.081C68.6606 288.361 74.4205 285.96 75.6205 283.67C76.8305 281.39 77.6705 279.11 78.8705 276.71C80.0705 274.31 80.7906 274.07 84.9906 274.07H104.681L105.52 271.661L86.3104 259.181C86.3104 259.181 84.9904 260.741 83.3104 262.661V262.67ZM99.8803 279.25C99.8803 277.81 97.9605 276.971 96.8905 278.891C96.8905 278.891 95.2103 275.53 92.6903 277.81C92.6903 277.81 90.4104 274.451 88.0004 277.451L85.6005 280.44C85.6005 280.44 85.6003 279.24 85.1103 277.32C84.6203 275.41 81.5003 275.04 80.4203 278.65C79.9303 280.3 79.7104 282.26 79.4604 285.02C79.2204 287.77 79.9505 289.461 81.6205 289.581C83.3005 289.701 84.3705 286.82 84.3705 286.82C84.3705 286.82 84.8603 289.351 86.9003 289.221C88.9503 289.101 89.7904 286.82 89.7904 286.82C89.7904 286.82 90.7502 289.351 92.7802 289.221C94.8202 289.101 95.3104 286.94 95.3104 286.94C95.3104 286.94 96.5106 289.1 97.9506 288.86C99.4006 288.62 102.991 283.21 102.991 283.21H99.8705V279.25H99.8803ZM171.8 268.69C169.88 272.04 169.04 273.971 169.04 273.971V296.79C169.04 301.24 171.2 301.59 173 300.75C174.8 299.91 175.05 296.92 175.05 296.92C175.05 296.92 178.29 299.32 179.85 295.13C179.85 295.13 182.84 296.2 184.65 292.13C184.65 292.13 188.13 292.49 189.33 289.13C190.53 285.78 190.66 278.811 191.25 275.451C191.84 272.091 195.21 267.77 195.21 267.77L178.04 258.04C178.04 258.04 173.71 265.331 171.79 268.701L171.8 268.69ZM130.371 91.2304C124.971 91.1104 117.401 87.0303 115.971 75.6303C114.531 64.2303 114.05 61.7006 114.05 61.7006C114.05 61.7006 107.58 59.0603 107.81 50.9003C108.05 42.7403 113.1 42.6103 113.1 42.6103C113.1 42.6103 112.94 40.3902 113.36 37.2602C113.36 37.8002 113.31 38.3406 113.34 38.8906C124.87 29.6506 134.11 19.8002 134.11 19.8002C134.11 19.8002 139.991 25.8103 150.201 32.9003C160.411 39.9803 163.05 39.7504 163.05 39.7504L168.931 51.7602L170.721 47.7905C170.721 47.7905 171.8 47.7903 173.6 48.6303C173.6 48.6103 173.6 48.5902 173.63 48.5702C175.41 49.4902 177.301 51.5004 176.971 55.9604C176.381 64.1204 168.33 67.0102 168.33 67.0102C168.33 67.0102 163.77 75.3003 162.56 80.1103C161.36 84.9103 162.201 88.5903 162.201 88.5903L135.951 94.6806C135.951 94.6806 135.771 91.3904 130.371 91.2704V91.2304ZM138.3 39.8403C139.14 40.2103 141.91 39.1303 146.46 39.3603C151.02 39.5903 154.03 42.4802 154.75 41.7602C155.47 41.0402 150.55 37.6806 146.82 36.7206C143.1 35.7606 137.94 37.6904 137.94 37.6904C137.34 38.5204 137.45 39.4803 138.3 39.8403ZM120.77 38.2905C116.21 39.8505 114.411 41.9007 114.891 42.4907C115.631 43.4107 116.57 41.6502 120.77 41.0502C124.97 40.4502 127.98 42.1205 129.29 40.8105C130.6 39.5005 125.33 36.7202 120.77 38.2802V38.2905ZM244.471 464.741L230.23 464.86L241.42 546.431C241.75 548.821 240.081 551.02 237.701 551.34C237.501 551.38 237.3 551.391 237.11 551.391C234.97 551.391 233.09 549.811 232.8 547.621L221.451 464.94L206.71 465.06C206.71 465.06 212.471 504.12 214.721 520.13C216.961 536.14 209.27 538.371 201.6 544.141C193.91 549.901 196.8 552.46 196.8 552.46H235.54C243.86 552.46 242.58 544.141 242.27 533.56C241.93 523 244.491 464.73 244.491 464.73L244.471 464.741ZM179.17 465.38L141.701 464.741C141.701 464.741 147.79 506.35 149.07 516.61C150.35 526.86 147.791 535.181 139.141 538.371C130.501 541.571 126.34 543.49 126.34 547.02C126.34 550.55 129.53 551.181 132.42 551.181H174.681C181.721 551.181 179.48 539.98 178.52 530.05C177.56 520.13 179.17 465.38 179.17 465.38Z" fill="#FBD0B0"/>
<path d="M92.9907 245.3L87.4604 258.991C87.3504 259.261 87.0805 259.451 86.7905 259.451C86.7005 259.451 86.6105 259.43 86.5205 259.4C86.1505 259.25 85.9706 258.82 86.1206 258.46L87.9604 253.9L59.3906 252.491C58.9906 252.471 58.6904 252.13 58.6904 251.73C58.7204 251.33 59.0504 251.03 59.4604 251.03L88.5303 252.46L91.6406 244.75C91.7906 244.38 92.2106 244.201 92.5806 244.351C92.9606 244.511 93.1405 244.94 92.9805 245.3H92.9907ZM107.92 141.53C108.32 141.53 108.641 141.22 108.661 140.82C108.891 123.62 121.231 113.38 121.351 113.28C121.661 113.01 121.711 112.57 121.451 112.26C121.191 111.95 120.751 111.901 120.431 112.161C120.301 112.261 107.441 122.901 107.201 140.811C107.201 141.211 107.51 141.53 107.92 141.53ZM96.7007 278.661C96.3107 278.561 95.9105 278.791 95.8105 279.181C95.7906 279.251 95.3207 281.07 94.4707 285.84C94.4107 286.23 94.6605 286.621 95.0605 286.681C95.1105 286.701 95.1504 286.701 95.1904 286.701C95.5404 286.701 95.8404 286.45 95.9004 286.09C96.7204 281.39 97.2104 279.57 97.2104 279.55C97.3104 279.17 97.0804 278.761 96.6904 278.661H96.7007ZM92.3804 277.51C92.0004 277.35 91.5806 277.511 91.4106 277.871C91.3606 278.001 90.0506 280.891 89.0806 286.221C89.0206 286.611 89.2704 286.991 89.6704 287.061C89.7204 287.061 89.7605 287.061 89.8105 287.061C90.1605 287.061 90.4605 286.811 90.5205 286.471C91.4505 281.361 92.7307 278.511 92.7407 278.471C92.9007 278.101 92.7404 277.67 92.3804 277.51ZM84.3804 287.53C84.7604 287.53 85.0706 287.261 85.1006 286.871C85.3406 284.231 85.6904 280.991 85.6904 280.991L84.2407 280.831C84.2407 280.831 83.8704 284.081 83.6304 286.721C83.6004 287.131 83.9003 287.48 84.3003 287.51C84.3503 287.51 84.3606 287.51 84.3706 287.51L84.3804 287.53ZM175.28 296.661C175.66 296.661 175.97 296.38 176 296.01L177.331 282.431C177.361 282.031 177.06 281.68 176.67 281.63C176.28 281.6 175.921 281.901 175.871 282.291L174.55 295.84C174.51 296.25 174.811 296.6 175.201 296.65C175.231 296.65 175.251 296.65 175.271 296.65L175.28 296.661ZM181.601 282.121C181.191 282.071 180.841 282.36 180.791 282.76L179.46 294.041C179.41 294.441 179.701 294.801 180.101 294.851H180.19C180.55 294.851 180.86 294.58 180.9 294.21L182.23 282.931C182.28 282.551 181.99 282.181 181.59 282.121H181.601ZM186.96 282.38C186.58 282.31 186.181 282.551 186.101 282.951L184.661 289.911C184.581 290.301 184.821 290.69 185.221 290.78C185.271 290.78 185.321 290.78 185.371 290.78C185.711 290.78 186.01 290.54 186.07 290.19L187.51 283.23C187.6 282.84 187.35 282.451 186.96 282.371V282.38ZM201.55 187.121C201.6 186.981 201.59 186.85 201.55 186.71C201.46 186.41 192.051 156.291 190.991 152.741C189.881 149.061 187.16 145.031 187.05 144.851C186.83 144.521 186.381 144.44 186.041 144.67C185.701 144.89 185.621 145.341 185.851 145.681C185.871 145.731 188.571 149.71 189.601 153.17C190.621 156.58 199.26 184.26 200.11 186.96L190.811 216.25C190.691 216.63 190.901 217.06 191.291 217.17C191.361 217.19 191.44 217.201 191.51 217.201C191.81 217.201 192.1 217.001 192.21 216.701L201.11 188.82L201.561 187.141L201.55 187.121ZM184.021 94.5405C183.651 94.3705 183.221 94.4903 183.041 94.8604C182.951 95.0204 180.94 98.9807 179.26 105.951C179.17 106.341 179.411 106.73 179.791 106.82C179.851 106.84 179.91 106.851 179.96 106.851C180.28 106.851 180.591 106.62 180.661 106.28C182.301 99.5003 184.3 95.5605 184.32 95.5205C184.5 95.1705 184.37 94.7305 184.01 94.5405H184.021ZM185.01 106.92C185.08 106.95 185.171 106.971 185.241 106.971C185.551 106.971 185.831 106.78 185.931 106.48L189.3 96.7603C189.44 96.3803 189.241 95.9603 188.851 95.8403C188.471 95.7103 188.051 95.9105 187.931 96.2905L184.561 106.021C184.431 106.391 184.62 106.81 185.01 106.94V106.92ZM191.311 107.75C191.411 107.8 191.501 107.811 191.601 107.811C191.881 107.811 192.15 107.651 192.26 107.371L195.871 99.2207C196.041 98.8407 195.87 98.4103 195.5 98.2603C195.12 98.1003 194.701 98.2606 194.541 98.6406L190.94 106.8C190.77 107.16 190.941 107.6 191.311 107.75ZM115.01 153.86C108.74 157.3 105.81 163.54 105.69 163.8C105.52 164.16 105.69 164.601 106.05 164.771C106.15 164.821 106.251 164.831 106.351 164.831C106.621 164.831 106.89 164.67 107.01 164.4C107.05 164.35 109.87 158.33 115.71 155.13C116.06 154.94 116.2 154.491 116 154.141C115.8 153.791 115.36 153.67 115 153.86H115.01ZM114.561 148.4C114.891 148.19 115.011 147.74 114.791 147.4C114.581 147.06 114.131 146.951 113.791 147.161C113.521 147.341 106.861 151.541 103.451 157.891C103.271 158.241 103.401 158.69 103.741 158.88C103.861 158.93 103.97 158.96 104.09 158.96C104.36 158.96 104.6 158.831 104.73 158.581C107.95 152.571 114.491 148.441 114.561 148.391V148.4ZM103.641 151.86C107.641 144.68 113.14 142.85 113.19 142.84C113.57 142.71 113.78 142.31 113.67 141.92C113.54 141.54 113.14 141.331 112.75 141.451C112.5 141.521 106.661 143.43 102.371 151.15C102.181 151.5 102.301 151.951 102.641 152.141C102.761 152.201 102.881 152.221 102.991 152.221C103.261 152.221 103.5 152.091 103.63 151.851L103.641 151.86ZM130.181 71.2705C129.791 71.1805 129.391 71.4205 129.311 71.8105C129.221 72.2005 129.461 72.6004 129.851 72.6904C129.971 72.7204 131.201 73.0005 132.951 73.0005C135.741 73.0005 139.851 72.3007 142.931 68.7407C143.201 68.4407 143.171 67.9707 142.871 67.7207C142.561 67.4607 142.101 67.4805 141.851 67.7905C137.381 72.9105 130.251 71.3003 130.181 71.2803V71.2705ZM143.641 52.8105C144.671 52.8105 145.51 51.9807 145.51 50.9507C145.51 49.9207 144.681 49.0806 143.641 49.0806C142.601 49.0806 141.78 49.9107 141.78 50.9507C141.78 51.9907 142.601 52.8105 143.641 52.8105ZM122.75 54.2505C123.78 54.2505 124.621 53.4306 124.621 52.3906C124.621 51.3506 123.79 50.5205 122.75 50.5205C121.71 50.5205 120.891 51.3506 120.891 52.3906C120.891 53.4306 121.73 54.2505 122.75 54.2505ZM110.5 54.8906C109.88 52.0206 110.16 48.3804 111.9 46.9604C114.68 44.7104 123.82 45.0106 127.11 46.1206C128.78 46.6706 129.65 48.0907 130.11 49.4907C131.05 49.1507 132.861 48.7306 134.681 49.3306C134.681 49.2806 134.681 49.2006 134.681 49.1406C134.901 46.8306 135.71 45.3303 137.05 44.8203C140.59 43.4203 151.121 43.2906 153.621 44.6206C154.621 45.1406 155.43 46.3703 155.9 48.0703C156.03 48.5203 156.13 49.0403 156.19 49.5903L169.84 47.0605C170.22 46.9805 170.611 47.2504 170.681 47.6504C170.751 48.0504 170.49 48.4207 170.09 48.4907L156.3 51.0303C156.35 52.9703 155.991 55.1505 154.851 57.0205C153.681 58.9505 151.17 59.8903 149.26 60.3403C147.73 60.7103 146.08 60.8706 144.5 60.8706C141.91 60.8706 139.49 60.4103 138.11 59.5303C136.01 58.2003 134.74 54.2706 134.61 50.8506C132.97 50.1006 131.17 50.6104 130.42 50.9004C130.52 51.5104 130.561 52.0604 130.581 52.4604C130.641 52.4604 130.711 52.4903 130.771 52.5103C131.131 52.6903 131.281 53.1107 131.101 53.4907C131.081 53.5307 129.33 57.1704 128.76 59.9204C128.65 60.4804 128.811 60.7604 128.951 60.9204C129.591 61.6804 131.381 61.8105 131.991 61.8105C132.441 61.8105 132.73 62.1103 132.73 62.5103C132.73 62.9103 132.43 63.2505 132.03 63.2505H131.891C131.271 63.2505 128.921 63.1606 127.831 61.8506C127.611 61.5806 127.38 61.1604 127.32 60.6104C125.86 60.8204 122.84 61.2007 119.82 61.2007C118.06 61.2007 116.321 61.0607 114.911 60.7007C112.781 60.1507 111.161 58.0304 110.491 54.8804L110.5 54.8906ZM138.931 58.3306C140.811 59.5006 145.401 59.7904 148.971 58.9404C151.281 58.3904 152.94 57.4503 153.65 56.2803C155.11 53.9003 155.13 50.6304 154.53 48.4604C154.17 47.1805 153.601 46.2306 152.971 45.9106C152.061 45.4206 149.34 45.1807 146.36 45.1807C143.01 45.1807 139.351 45.5004 137.601 46.1904C136.841 46.4904 136.31 47.6303 136.15 49.3003C135.82 52.8203 137.171 57.2303 138.931 58.3403V58.3306ZM111.931 54.5806C112.481 57.1306 113.74 58.8905 115.32 59.3105C119.07 60.3005 125.7 59.3904 127.5 59.1304C127.99 57.0704 128.961 54.7904 129.491 53.6304C129.301 53.4904 129.171 53.2703 129.181 53.0103C129.181 52.9603 129.34 48.3907 126.67 47.4907C123.43 46.4107 115.061 46.3006 112.831 48.0806C111.751 48.9506 111.351 51.8706 111.931 54.5806ZM18.3604 30.1006C14.0004 41.6406 19.0703 53.0405 19.0703 53.0405C19.0703 53.0405 21.6007 51.2505 22.4307 51.2505C23.2607 51.2505 29.1607 57.8504 30.2407 57.1304C31.3107 56.4104 35.4004 38.9907 35.4004 38.9907C35.4004 38.9907 57.1507 35.5403 66.2407 20.8203C58.2407 14.0803 42.8404 9.48051 30.6704 16.0205C30.6904 15.7705 30.7104 15.5303 30.7104 15.2803C30.7104 6.96027 23.9706 0.220703 15.6606 0.220703C7.35064 0.220703 0.600586 6.96027 0.600586 15.2803C0.600586 23.6003 7.34064 30.3506 15.6606 30.3506C16.5906 30.3506 17.4906 30.2603 18.3706 30.0903L18.3604 30.1006ZM54.2603 52.4507C53.4603 52.4507 52.8203 53.0906 52.8203 53.8906C52.8203 54.6906 53.4603 55.3306 54.2603 55.3306C55.0603 55.3306 55.7007 54.6906 55.7007 53.8906C55.7007 53.0906 55.0603 52.4507 54.2603 52.4507ZM69.6206 51.2505C70.4206 51.2505 71.0605 50.6105 71.0605 49.8105C71.0605 49.0105 70.4206 48.3706 69.6206 48.3706C68.8206 48.3706 68.1807 49.0105 68.1807 49.8105C68.1807 50.6105 68.8206 51.2505 69.6206 51.2505ZM70.2603 38.1807C72.7403 37.4507 74.9705 38.1106 76.7305 40.0806C79.7005 43.4706 80.7003 50.4605 78.8203 54.7705C77.0303 58.8805 73.5806 59.5806 71.4106 59.5806C70.7006 59.5806 70.1505 59.5107 69.8105 59.4507C69.3805 60.8107 68.1805 62.0104 67.2905 62.6304C67.1605 62.7204 67.0204 62.7705 66.8804 62.7705C66.6504 62.7705 66.4205 62.6507 66.2905 62.4507C66.0505 62.1307 66.1404 61.6604 66.4604 61.4404C66.5005 61.4104 69.4407 59.3103 68.2007 57.5303C66.5707 55.2103 63.1506 51.6504 63.1206 51.6104C62.8406 51.3304 62.8506 50.8603 63.1406 50.5903C63.3006 50.4303 63.5207 50.3704 63.7207 50.4004C63.7007 50.1704 63.6907 49.9003 63.6807 49.5703C62.5407 49.3903 61.6906 50.2503 61.6606 50.2803C61.6106 50.3303 61.5705 50.3506 61.5205 50.3906C62.2905 53.2806 62.2603 56.4706 61.3403 59.1606C60.2603 62.2606 57.2607 64.4006 53.7007 64.5806C53.5407 64.5806 53.3804 64.5806 53.2104 64.5806C49.6504 64.5806 46.6005 62.5706 44.9805 59.1006C42.7005 54.2306 42.8904 48.6705 45.4404 45.2505C47.2904 42.7805 50.1907 41.7007 53.6807 42.2207C56.2807 42.6107 58.4803 44.1504 60.0103 46.6904C60.4203 47.3804 60.7603 48.1306 61.0503 48.8906C61.5703 48.4906 62.5107 47.9706 63.7207 48.0806C63.9207 44.7806 65.0905 39.7004 70.2705 38.1704L70.2603 38.1807ZM58.7305 47.4604C57.8205 45.9604 56.1604 44.0807 53.4204 43.6807C52.9204 43.6007 52.4207 43.5703 51.9507 43.5703C49.6707 43.5703 47.8306 44.4406 46.5806 46.1406C44.3706 49.0906 44.2605 54.1807 46.2705 58.4907C47.7105 61.5607 50.4404 63.2904 53.6104 63.1304C56.5204 62.9804 59.0607 61.1907 59.9307 58.6807C61.1407 55.2207 60.6405 50.6007 58.7305 47.4507V47.4604ZM70.6704 39.5903C64.0404 41.5503 65.1707 50.8307 65.1807 50.9307C65.2207 51.1607 65.1305 51.3705 64.9805 51.5205C66.1205 52.7505 68.1804 55.0205 69.3804 56.7305C69.6804 57.1605 69.8604 57.6005 69.9204 58.0405C70.7204 58.2005 75.4007 58.9907 77.4907 54.2207C79.1507 50.4207 78.2504 44.0306 75.6304 41.0806C74.2704 39.5206 72.6004 39.0203 70.6704 39.5903ZM67.6406 67.4106C68.0106 67.2506 68.1803 66.8204 68.0103 66.4604C67.8503 66.0805 67.4305 65.9306 67.0605 66.0806C62.6605 68.0106 59.4606 65.1405 59.3306 65.0205C59.0406 64.7505 58.5805 64.7603 58.3105 65.0703C58.0405 65.3603 58.0506 65.8203 58.3506 66.0903C58.4706 66.2103 60.6803 68.2207 64.0303 68.2207C65.1203 68.2207 66.3404 67.9906 67.6504 67.4106H67.6406ZM74.4507 83.5303C73.4207 83.6503 72.2405 83.7906 71.5405 83.9106C70.1005 84.1506 69.9805 82.2305 69.9805 82.2305C66.3805 83.7905 60.7503 84.5105 56.7803 83.5605C52.8903 82.6205 66.9807 92.7205 74.4507 83.5405V83.5303ZM25.9004 64.4907C26.2104 65.0107 26.8604 65.6405 28.1304 65.7905H28.2104C28.5805 65.7905 28.8904 65.5206 28.9204 65.1406C28.9704 64.7406 28.6703 64.3806 28.2803 64.3306C27.7203 64.2706 27.3506 64.0704 27.1406 63.7104C26.6106 62.8605 27.0207 61.2807 27.2007 60.7407C27.3007 60.4807 27.2405 60.1807 27.0405 59.9907C24.1005 56.9407 20.9404 58.2406 19.6704 59.3506C19.3704 59.6206 19.3504 60.0706 19.6104 60.3706C19.8704 60.6706 20.3304 60.7107 20.6304 60.4307C20.8904 60.2107 23.1407 58.3804 25.6807 60.6904C25.4407 61.5204 25.1104 63.2407 25.8804 64.4907H25.9004ZM41.7905 45.6504C41.9005 45.7004 42.0104 45.7207 42.1304 45.7207C42.3904 45.7207 42.6405 45.5706 42.7705 45.3306C42.8705 45.1306 45.4005 40.5006 51.5405 41.1606C51.9305 41.2006 52.2903 40.9105 52.3403 40.5205C52.3903 40.1305 52.0907 39.7707 51.7007 39.7207C44.5807 38.9707 41.5205 44.6204 41.5005 44.6704C41.3105 45.0304 41.4503 45.4604 41.8003 45.6504H41.7905ZM62.5303 39.3906C62.3503 39.7606 62.4906 40.1906 62.8506 40.3706C62.9506 40.4206 63.0707 40.4507 63.1807 40.4507C63.4507 40.4507 63.6906 40.3005 63.8306 40.0605C63.9106 39.9005 65.8907 36.1406 70.9907 36.1406C71.3907 36.1406 71.7104 35.8106 71.7104 35.4106C71.7104 35.0106 71.3907 34.6807 70.9907 34.6807C64.9707 34.6807 62.6303 39.2006 62.5303 39.3906ZM134.69 100.291C134.39 100.561 134.37 101.021 134.63 101.311C134.78 101.471 134.981 101.561 135.181 101.561C135.351 101.561 135.52 101.51 135.67 101.38C137.49 99.7804 138.031 98.1105 138.041 96.7104C142.261 95.0805 146.921 93.0903 147.911 91.8203C149.831 89.4203 146.84 87.6306 141.8 89.9106C139.33 91.0306 135.831 91.4503 132.931 91.5903C134.621 92.1003 135.361 93.0405 135.681 93.7305C135.711 93.8405 135.731 93.9505 135.811 94.0405C135.811 94.0405 135.811 94.0706 135.831 94.0806C135.931 94.3906 135.96 94.6206 135.96 94.6206C135.96 94.6206 136.34 95.2206 136.57 96.1606C136.7 97.3206 136.381 98.8205 134.701 100.291H134.69ZM150.021 151.46C151.001 151.46 151.791 150.67 151.791 149.69C151.791 148.71 151.001 147.931 150.021 147.931C149.041 147.931 148.25 148.72 148.25 149.69C148.27 150.67 149.061 151.46 150.021 151.46ZM156.271 178.991C155.301 178.991 154.51 179.78 154.51 180.76C154.51 181.74 155.301 182.521 156.271 182.521C157.241 182.521 158.041 181.73 158.041 180.76C158.041 179.79 157.241 178.991 156.271 178.991ZM158.831 216.13C159.811 216.13 160.601 215.341 160.601 214.371C160.601 213.401 159.811 212.601 158.831 212.601C157.851 212.601 157.061 213.391 157.061 214.371C157.061 215.351 157.851 216.13 158.831 216.13ZM174.8 39.8403C174.8 39.8403 176.39 39.7103 178.48 39.0303C177.56 31.6503 170.67 25.6304 170.67 25.6304C175.79 32.3504 174.8 39.8306 174.8 39.8306V39.8403ZM57.4907 184.23C57.2907 183.88 56.8407 183.76 56.4907 183.96L41.4404 192.92C41.0904 193.12 40.9807 193.581 41.1807 193.931C41.3107 194.151 41.5603 194.291 41.8003 194.291C41.9303 194.291 42.0707 194.25 42.1807 194.19L57.2305 185.23C57.5805 185.03 57.6907 184.58 57.4907 184.23ZM56.2104 183.561C56.2804 183.561 56.3506 183.561 56.4106 183.541C56.7906 183.431 57.0204 183.041 56.9204 182.641L46.8306 146.94C46.7206 146.55 46.3207 146.321 45.9307 146.431C45.5507 146.551 45.3307 146.941 45.4307 147.331L55.5103 183.041C55.6003 183.361 55.8904 183.561 56.2104 183.561ZM10.6904 197.26C12.2604 197.91 16.8406 197.871 22.1206 197.561L20.1504 192.44C20.1504 192.44 12.6404 195.22 10.6904 197.25V197.26ZM134.57 254.36C134.95 254.23 135.161 253.82 135.021 253.44C134.881 253.06 134.481 252.851 134.101 252.991C127.691 255.191 119.561 255.14 116.311 255.03C124.781 242.43 140.35 219.551 140.53 219.271C140.68 219.051 140.68 218.79 140.59 218.57C140.8 214.36 142.201 184.971 140.891 181.391C140.061 179.131 137.291 176.42 134.081 173.28C131.861 171.1 129.561 168.841 127.681 166.541C123.341 161.171 123.521 151.5 123.521 151.4C123.521 151 123.22 150.671 122.82 150.661C122.41 150.621 122.091 150.96 122.081 151.36C122.061 151.78 121.891 161.661 126.561 167.451C128.491 169.831 130.82 172.12 133.09 174.32C136.04 177.2 138.831 179.931 139.541 181.891C140.581 184.731 139.591 209.431 139.141 218.701C139.141 218.721 139.141 218.73 139.141 218.75C137.311 221.43 122.47 243.271 114.59 254.991C114.32 255.081 114.11 255.321 114.09 255.621C114.09 255.661 114.09 255.681 114.09 255.721C112.48 258.141 111.191 260.071 110.431 261.201C105.891 268.151 104.88 270.591 104.84 270.701C104.7 271.071 104.88 271.501 105.25 271.641C105.33 271.671 105.421 271.69 105.521 271.69C105.811 271.69 106.081 271.521 106.201 271.221C106.201 271.201 107.22 268.771 111.65 261.991C112.4 260.851 113.72 258.881 115.36 256.431C116.06 256.471 117.3 256.51 118.9 256.51C122.97 256.51 129.261 256.161 134.581 254.331L134.57 254.36ZM164.11 542.541C159.59 534.241 151.12 533.701 144.88 534.661C143.38 536.231 141.491 537.51 139.121 538.38C130.471 541.58 126.311 543.5 126.311 547.03C126.311 550.56 129.51 551.19 132.4 551.19H174.661C180.081 551.19 180 544.54 179.23 536.94L164.11 542.541ZM240.32 538.351L241.431 546.431C241.761 548.821 240.09 551.02 237.71 551.34C237.51 551.38 237.311 551.391 237.121 551.391C234.981 551.391 233.101 549.811 232.811 547.621L231.8 540.28L229.201 540.86C224.011 534.65 215.47 535.75 211.09 536.88C208.54 539.64 205.071 541.541 201.601 544.161C193.911 549.921 196.8 552.48 196.8 552.48H235.541C242.701 552.48 242.75 546.331 242.42 537.891L240.331 538.36L240.32 538.351ZM230.23 464.86L231.44 473.601L243.98 476.541C244.27 469.501 244.48 464.75 244.48 464.75L230.23 464.86ZM222.34 471.471L221.44 464.94L206.701 465.061C206.701 465.061 206.86 466.1 207.11 467.9L222.34 471.471ZM178.911 474.75C179.051 469.1 179.161 465.38 179.161 465.38L141.69 464.741C141.69 464.741 141.821 465.67 142.061 467.26L178.911 474.76V474.75ZM50.8403 518.681L52.0503 516.92C52.0503 516.92 49.8406 516.771 48.4106 517.041C48.7606 517.531 49.6103 518.101 50.8403 518.681ZM80.8706 523.01L80.6504 525.771C83.8604 525.951 86.3003 525.74 87.2803 524.94C86.1103 523.27 80.8604 523.01 80.8604 523.01H80.8706ZM127.871 63.6006C127.751 63.6706 125.071 65.3807 123.721 69.4307C123.591 69.8107 123.801 70.2306 124.181 70.3506C124.261 70.3706 124.341 70.3804 124.411 70.3804C124.711 70.3804 125.001 70.1906 125.101 69.8906C126.271 66.3706 128.61 64.8506 128.63 64.8306C128.97 64.6206 129.07 64.1706 128.86 63.8306C128.65 63.4906 128.201 63.3906 127.871 63.6006ZM138.291 60.9404C137.901 60.8904 137.53 61.1603 137.46 61.5503C137.41 61.9403 137.68 62.3106 138.07 62.3706C138.12 62.3906 144.251 63.3407 147.561 66.9507C147.711 67.1107 147.901 67.1904 148.101 67.1904C148.281 67.1904 148.45 67.1205 148.59 67.0005C148.88 66.7305 148.911 66.2707 148.641 65.9707C144.991 62.0007 138.551 60.9807 138.291 60.9507V60.9404ZM173.34 51.9404C173.09 51.6104 172.64 51.5605 172.32 51.7905L168.491 54.6704C168.321 54.8104 168.211 55.0107 168.201 55.2207C168.191 55.4307 168.28 55.6503 168.44 55.8003C168.69 56.0203 170.75 58.0304 168.65 60.9204C168.41 61.2504 168.491 61.7007 168.811 61.9307C168.951 62.0207 169.091 62.0703 169.241 62.0703C169.461 62.0703 169.691 61.9705 169.831 61.7705C171.781 59.0905 170.981 56.6804 169.991 55.3604L173.201 52.9507C173.541 52.7107 173.59 52.2604 173.36 51.9404H173.34ZM23.1807 540.431C24.0107 542.201 25.7406 543.721 28.3506 544.471C35.0806 546.391 57.4906 550.56 67.1006 551.51C73.2206 552.13 76.7403 550.921 78.5703 548.791C71.4203 547.841 62.2604 544.811 45.6504 539.351C31.6804 534.761 25.7207 537.49 23.1807 540.44V540.431Z" fill="#2A306E"/>
</svg>
