<svg width="458" height="567" viewBox="0 0 458 567" fill="none" xmlns="http://www.w3.org/2000/svg">
<path d="M456.59 528.44L445.69 506.63L445.58 506.43L447.66 505.23C447.66 505.23 417.41 444.09 410.79 429.28C404.17 414.47 395.65 398.7 394.08 374.44C392.5 350.17 389.35 313.29 387.15 293.12C386.43 286.54 384.77 278.93 382.86 271.64C382.83 271.56 382.81 271.5 382.8 271.41C382.48 270.19 382.15 268.97 381.83 267.78L383.38 267.73C383.38 267.73 378.81 240.98 371.43 217.2C372.35 214.42 372.91 211.47 372.98 208.41C373.16 199.05 373.34 177.65 373.41 168.49C373.46 168.45 373.53 168.43 373.58 168.39C373.6 168.39 373.63 168.35 373.65 168.34L373.68 168.93C373.68 168.93 385.74 161.6 385.26 159.23C385.24 159.1 385.17 159.02 385.09 158.96C385.09 158.92 385.09 158.9 385.09 158.87C385.09 158.74 385.07 158.63 385.01 158.52C384.78 158.04 384.52 157.54 384.27 156.99C384.22 156.86 384.14 156.73 384.09 156.6C383.88 156.17 383.68 155.74 383.46 155.28C379.54 146.91 373.57 133.13 366.34 122.59C358.06 110.53 351.45 105.1 336.31 102.26C328.52 100.79 320.98 97.8398 315.5 95.2998C313.01 94.1598 310.96 93.0898 309.49 92.2998L302.04 74.3599L303.22 69.3999C303.22 69.3999 305.82 67.7398 308.88 62.7798C311.96 57.8198 308.65 53.0899 308.65 53.0899C310.65 48.4299 312.31 43.8502 313.28 39.4502C314.79 40.0602 316.59 40.3902 319.75 39.1402C325.19 37.0102 326.02 32.9899 327.32 30.1499C328.62 27.3199 333.82 24.9498 333.46 19.0498C333.11 13.1398 327.67 12.0698 326.02 9.81984C324.36 7.58984 324.49 2.84992 318.93 1.89992C313.37 0.949917 310.06 4.9698 308.18 6.0298C306.29 7.0898 302.27 5.33007 298.37 7.56007C295.31 9.32007 294.72 12.09 294.61 13.21C282.9 10.96 268.29 11.3398 260.66 15.0098C250.21 20.0298 250.38 36.6403 250.78 42.4902C250.51 46.6102 250.73 49.52 250.73 49.52C250.73 49.52 245.28 51.8901 245.53 57.3301C245.77 62.7701 251.68 65.8399 251.68 65.8399C252.86 85.6999 256.64 90.67 264.45 94.21C272.26 97.75 282.66 93.0298 282.66 93.0298L284.06 108.15L284.09 108.24C283.32 108.91 282.53 109.6 281.69 110.34C281.65 110.36 281.62 110.39 281.59 110.41C280.76 111.13 279.91 111.89 279.01 112.66L278.97 112.7C274.36 116.73 269.24 121.29 265.62 124.7C257.34 132.51 254.75 148.57 252.15 161.11C251.1 166.17 250.21 170.42 249.53 173.7C249.3 174.79 249.1 175.76 248.93 176.63C248.86 176.96 248.79 177.27 248.73 177.57C248.65 177.98 248.58 178.35 248.5 178.7C248.45 178.96 248.4 179.2 248.35 179.43C248.25 179.93 248.16 180.34 248.11 180.64C248.03 181.05 247.97 181.27 247.97 181.27L250.98 181.76L250.65 183.35L249.58 188.55L212.98 189.49C205.281 180.42 195.82 178.55 194.96 178.41C194.96 178.3 194.91 178.2 194.85 178.11C194.47 176.04 191.63 162.79 179.13 161.06C174.48 160.41 168.73 160.14 162.53 160.38C164.44 158.81 166.35 156.82 168.26 154.28C174 146.64 170.43 135.05 168.72 130.6C167.41 125.92 166.22 122.92 166.22 122.92C170.16 111.74 161.34 107.32 161.34 107.32C161.34 107.32 157.71 96.2898 150.15 87.2998C142.59 78.3198 124.62 75.1702 108.39 85.8902C106.43 87.1802 104.86 88.74 103.59 90.46C100.56 92.86 93 100.58 93.42 109.21C93.87 118.53 99.8002 127.08 100.16 127.61C98.7702 130.52 97.5502 135.21 100.2 140.41C104.03 147.92 112.1 146.8 114.19 146.37C115.56 148.42 117.3 150.34 120.21 152.39C120.46 152.56 120.73 152.75 121.02 152.95C122.25 156.26 124.39 162.04 125.87 166.09C126.11 166.76 126.31 167.4 126.46 168.05C126.27 168.14 126.06 168.22 125.87 168.29C108.85 176.17 114.84 187.84 114.84 187.84C114.84 187.84 110.75 190.36 98.4502 199.19C86.1702 208.01 80.1804 218.74 83.3204 234.5C86.3704 249.74 93.2505 279.75 93.6905 281.68C93.6905 281.7 93.6905 281.72 93.6905 281.73L62.5196 237.02C62.5196 237.02 57.4005 229.22 51.7305 221.89C46.0605 214.56 31.6303 208.18 28.3203 206.28C25.0103 204.4 23.8302 208.89 25.9502 210.54C27.7602 211.94 34.5003 216.74 36.4903 218.16C36.4203 218.27 36.3596 218.37 36.3496 218.49C34.3496 218.26 28.4503 217.51 23.8203 215.97C18.1603 214.08 13.8896 211.23 11.0596 210.05C8.2196 208.88 6.79984 211.94 6.79984 211.94C6.79984 211.94 3.30023 212.17 3.95023 214.97C3.95023 214.99 3.95023 215 3.95023 215.01C3.70023 215.05 0.469917 215.59 1.37992 218.09C1.37992 218.09 -0.290082 219.75 1.37992 222.34C3.03992 224.94 7.04003 229.66 12.25 233.21C17.45 236.75 32.3398 241.49 38.0098 244.32C43.6698 247.15 45.4903 251.8 45.4903 251.8C45.4903 251.8 73.8498 308.54 82.0498 321.77C88.0598 331.47 95.8802 334.04 99.6602 334.75C83.2202 340.49 63.3903 347.54 52.7403 352.35C33.1903 361.17 33.1898 381.98 37.2998 397.41C37.3498 397.57 37.4 397.78 37.46 397.95C28.04 414.81 22.5303 435.06 22.5303 456.82C22.5303 484.81 31.6398 510.3 46.4698 529.28C45.4398 532.32 44.8496 535.61 44.8496 539.09C44.8496 553.8 55.0805 565.72 67.6905 565.72C74.0305 565.72 79.7604 562.69 83.9004 557.84C92.5104 561.17 101.68 563 111.19 563C120.7 563 129.37 561.29 137.76 558.12H141.88C146 562.82 151.61 565.72 157.84 565.72C170.46 565.72 180.68 553.81 180.68 539.09C180.68 534.55 179.7 530.27 177.99 526.54C180.75 522.76 183.28 518.75 185.57 514.53C201.4 543.68 228.82 563 259.96 563C267.17 563 274.19 561.96 280.9 559.99C281.74 562.68 284.36 562.9 289.42 562.9H344.26C352.45 562.9 352.45 553.45 351.82 548.72C351.48 546.14 350.86 541.71 350.36 538.2L353.71 538C353.71 538 349.85 512.96 345.5 484.59C347.52 475.74 348.61 466.45 348.61 456.84C348.61 434.47 342.79 413.72 332.9 396.59C331.6 374.43 333.54 349.52 333.54 349.52C333.54 349.52 355.921 420.75 370.73 452.58C385.54 484.41 412.66 525.38 412.66 525.38L417.67 522.49C417.72 522.7 417.79 522.92 417.85 523.17C417.89 523.29 417.91 523.41 417.93 523.52C417.97 523.65 417.99 523.77 418.02 523.91C418.06 524.07 418.09 524.24 418.13 524.41C418.15 524.52 418.18 524.62 418.18 524.73C418.22 524.92 418.25 525.13 418.29 525.32C418.29 525.41 418.32 525.49 418.34 525.58C418.37 525.8 418.4 526.02 418.44 526.26C418.44 526.33 418.47 526.4 418.47 526.48C418.5 526.73 418.52 526.98 418.54 527.24C418.54 527.29 418.56 527.37 418.56 527.42C418.58 527.7 418.61 527.96 418.61 528.24V528.38C418.61 528.68 418.64 528.97 418.64 529.27C418.62 532.56 417.77 536.11 414.87 538.63C407.93 544.62 401.63 548.4 395.01 551.87C388.39 555.34 390.92 561.01 396.59 561.01H412.98C422.431 561.01 432.21 554.08 439.45 549.36C443.85 546.49 450.23 541.42 454.56 537.86C457.37 535.56 458.2 531.66 456.59 528.43V528.44ZM300.43 490.18L265.62 460.54C265.62 460.54 265.65 460.44 265.67 460.4L295.14 462.09C296.91 471.77 298.71 481.29 300.43 490.18ZM294.88 460.65L265.77 458.98C265.74 458.75 265.72 458.52 265.65 458.3L290 432.75C291.52 441.87 293.18 451.31 294.88 460.64V460.65ZM283.46 385.15C284.45 396.99 286.79 413.33 289.71 431L265.01 456.92C264.74 456.53 264.4 456.19 263.99 455.91V411.3C275.61 411.26 282.18 404.65 279.35 392.07C277.86 385.4 274.69 372.07 271.61 358.87C274.97 359.46 278.28 360.27 281.51 361.34C282.18 369.6 282.82 377.67 283.46 385.15ZM280.92 353.69C277.32 352.64 273.64 351.85 269.89 351.36C267.83 342.38 265.96 334.09 264.91 328.81C262.06 314.5 254.89 311.63 244.87 311.63C245.4 311.63 245.93 311.63 246.45 311.67L250.83 285.24H261.23C262.551 287.34 264.71 288.32 264.71 288.32H275.98C277.09 303.49 278.96 328.83 280.91 353.69H280.92ZM223.34 212.89C223.34 212.89 250.52 214.3 259.27 214.07C267.79 213.84 273.59 209.57 274.98 202.15C276.16 208.78 276.49 219.29 276.29 228.73C276.12 236.8 275.28 255.68 274.88 264.88C271.67 266.09 268.19 267.4 265.65 268.45C262.75 269.64 261.47 272.09 260.87 274.83H238.68C238.44 273.25 238.14 271.59 237.76 269.79C234.19 253.13 228.1 231.97 222.12 209.5C222.9 211.74 223.34 212.89 223.34 212.89ZM233.66 298.47C236.47 296.06 238.88 292.24 239.31 285.23H240.28L235.91 311.62H233.97L233.65 298.46L233.66 298.47ZM233.98 435.49L257.03 455.11H233.98V435.49ZM225.47 411.3V426.36L207.77 411.3H225.47ZM205.56 411.3L225.47 428.26V455.11H199.85C199.63 439.46 196.58 424.62 191.27 411.3H205.56ZM185.75 416.9C189.99 428.53 192.45 441.33 192.67 454.77L185.75 454.37V416.89V416.9ZM155.3 411.3H177.24V418.7C173.58 430.04 171.5 442.3 171.32 455.11H153.26L155.3 411.3ZM96.4102 515.94C96.6302 516.55 98.6301 522.5 94.3301 526.5C93.1901 527.56 91.4802 528.66 89.4502 529.77L89.2305 505.11C91.4905 506.36 93.0899 506.8 93.0899 506.8L96.2403 515.94H96.4004H96.4102ZM146.78 411.3L145.13 446.82C145.1 446.76 145.06 446.71 145.03 446.65C143.12 438.45 138.96 420.67 136.57 411.3H146.78ZM50.0596 522.21C37.3996 504.77 29.6905 481.89 29.6905 456.84C29.6905 438.79 33.7097 421.87 40.6797 407.3C49.8697 431.47 72.7599 481.77 77.3399 491.99C78.5399 494.66 79.9896 496.87 81.5196 498.7L81.3897 517.81C77.5897 514.48 72.8498 512.49 67.7198 512.49C60.6198 512.49 54.2596 516.27 50.0596 522.22V522.21ZM173.85 520.09C169.72 515.38 164.09 512.47 157.86 512.47C155.3 512.47 152.84 512.98 150.56 513.89L152.88 463.62H171.48C172.301 479.06 175.89 493.61 181.66 506.58C179.36 511.36 176.73 515.87 173.84 520.09H173.85ZM185.6 497.29C181.75 486.89 179.35 475.54 178.68 463.63H192.55C191.88 475.55 189.46 486.89 185.61 497.29H185.6ZM189.52 506.56C195.28 493.6 198.88 479.07 199.69 463.63H258.61L200.57 524.54C196.36 519.08 192.65 513.06 189.53 506.57L189.52 506.56ZM262.58 555.77C261.71 555.81 260.85 555.85 259.99 555.85C237.04 555.85 216.29 544.26 201.46 525.65L260.59 463.62H261.55C261.9 463.62 262.23 463.56 262.57 463.48V555.77H262.58ZM262.58 455.26C262.25 455.18 261.91 455.12 261.56 455.12H259.24L233.98 433.63V411.32H262.58V455.27V455.26ZM264.01 555.74V462.85C264.38 462.58 264.7 462.26 264.97 461.89L300.87 492.45C304.6 511.64 307.88 527.64 309.5 535.42C296.76 547.3 281.07 554.73 264.01 555.74ZM341.49 456.84C341.49 457.23 341.49 457.61 341.47 458.01C339.28 443.71 337.25 430.28 335.79 420.5C339.46 431.76 341.49 444.02 341.49 456.84Z" fill="#E0B2D3"/>
<path d="M234.611 356.15C237.451 372.54 221.691 395.55 201.831 395.55H141.31C135.32 395.55 133.44 401.221 135 405.641C136.58 410.051 146.031 451.021 146.031 451.021L142.25 515.94H96.2505L93.1001 506.8C93.1001 506.8 82.7003 503.961 77.3403 491.991C71.9703 480.011 41.4 412.87 37.31 397.44C33.21 382 33.2105 361.201 52.7505 352.371C72.2905 343.541 122.72 327.16 126.5 325.26C130.28 323.38 130.281 320.53 130.281 320.53C130.281 320.53 147.92 319.431 169.3 319.771L153.371 338.891L168.731 355.67L209.361 322.541C216.111 323.531 222.38 324.82 227.68 326.51C227.68 326.51 231.781 339.761 234.611 356.141V356.15ZM410.79 429.26C404.171 414.45 395.651 398.691 394.081 374.431C392.501 350.161 389.351 313.28 387.151 293.11C386.301 285.36 384.151 276.17 381.821 267.78L383.361 267.73C383.361 267.73 378.16 237.241 369.89 212.411C361.61 187.581 361.611 175.291 361.611 175.291C361.611 175.291 386.66 161.82 385.01 158.51C381.22 150.94 374.61 134.641 366.34 122.581C358.06 110.521 351.45 105.09 336.31 102.25C321.18 99.4105 307 90.9004 307 90.9004L289.981 103.19C289.981 103.19 273.91 116.9 265.63 124.69C257.35 132.5 254.761 148.571 252.161 161.101C249.561 173.631 247.96 181.25 247.96 181.25L268.46 184.491C268.46 184.491 272.711 193.23 274.371 199.38C276.031 205.53 276.5 217.811 276.25 228.701C276.02 239.571 274.59 270.061 274.59 270.061L278.031 269.971L274.911 274.161C274.911 274.161 279.64 340.021 283.43 385.101C287.21 430.171 310.531 540.48 310.531 540.48L353.72 537.951C353.72 537.951 337.65 433.63 334.17 409.67C330.71 385.72 333.54 349.471 333.54 349.471C333.54 349.471 355.921 420.7 370.731 452.53C385.541 484.36 412.661 525.331 412.661 525.331L447.64 505.161C447.64 505.161 417.39 444.071 410.77 429.241L410.79 429.26Z" fill="#BAE0E6"/>
<path d="M51.7305 221.88C57.3905 229.2 62.5196 237.009 62.5196 237.009L45.5 251.82C45.5 251.82 43.6796 247.17 38.0196 244.34C32.3496 241.5 17.4498 236.78 12.2598 233.23C7.0598 229.69 3.02968 224.95 1.38968 222.36C-0.280317 219.77 1.38968 218.11 1.38968 218.11C0.439683 215.52 3.99027 215.029 3.99027 215.029C3.28027 212.199 6.83011 211.96 6.83011 211.96C6.83011 211.96 8.24011 208.89 11.0801 210.08C13.9201 211.25 18.1696 214.1 23.8496 215.99C29.5096 217.87 37.0801 218.58 37.0801 218.58C37.0801 218.58 28.1005 212.199 25.9805 210.549C23.8505 208.889 25.0299 204.4 28.3399 206.29C31.6399 208.18 46.0603 214.56 51.7403 221.89L51.7305 221.88ZM166.22 122.91C170.16 111.73 161.34 107.31 161.34 107.31C161.34 107.31 157.71 96.2797 150.15 87.2897C142.59 78.3097 124.62 75.1496 108.39 85.8796C92.1597 96.5996 102.09 124.48 102.09 124.48C102.09 124.48 95.7802 131.73 100.2 140.4C104.61 149.07 114.71 146.24 114.71 146.24L120.07 150.33C120.07 150.33 123.7 160.1 125.91 166.09C128.12 172.09 126.53 177.12 126.53 177.12L136.78 188.94L162.31 168.759C162.31 168.759 158.37 168.14 157.43 165.14C157.11 164.11 156.92 163.6 156.8 163.35C168.19 159.5 172.24 146.5 170.51 137.88C168.75 129.22 166.24 122.91 166.24 122.91H166.22ZM135.4 344.56C124.53 347.16 117.67 351.42 111.29 355.43C104.91 359.46 106.33 361.58 108.68 361.58C109.99 361.58 111.74 360.93 113.04 360.35C111.27 361.33 108.85 362.99 109.15 364.65C109.6 367.12 117.04 363.849 117.81 363.509C117.13 363.829 111.99 366.22 112.22 368.21C112.45 370.34 123.32 366.549 123.32 366.549C123.32 366.549 118.36 368.43 118.59 370.09C118.82 371.76 119.77 372.22 123.79 371.04C127.82 369.86 136.56 367.01 142.71 365.37C148.86 363.71 159.26 365.61 168.71 355.68L153.36 338.9C153.36 338.9 146.29 341.96 135.41 344.549L135.4 344.56ZM251.71 65.8698C252.89 85.7298 256.671 90.6999 264.48 94.2399C272.29 97.7799 282.69 93.0597 282.69 93.0597L284.09 108.18L290.47 123.54L309.61 92.5798L302.05 74.3698L303.22 69.4098C303.22 69.4098 305.83 67.7497 308.89 62.7897C311.96 57.8297 308.65 53.0998 308.65 53.0998C308.65 53.0998 314.57 37.0296 308.42 26.6296C302.27 16.2296 288.58 11.7397 268.49 15.0397C248.4 18.3497 250.77 49.5495 250.77 49.5495C250.77 49.5495 245.32 51.9195 245.57 57.3595C245.81 62.7895 251.72 65.8595 251.72 65.8595L251.71 65.8698ZM275.1 201.56C275.1 201.56 273.22 192.11 268.48 184.54C258.081 182.66 250.99 181.7 250.99 181.7L249.58 188.56L212.71 189.509C212.71 189.509 217.2 194.95 219.57 202.04C221.93 209.13 223.35 212.91 223.35 212.91C223.35 212.91 250.53 214.33 259.28 214.09C268.01 213.85 273.92 209.36 275.1 201.56ZM339.87 179.57L340.34 208.18C340.34 208.18 285.26 260.65 282.66 261.84C280.06 263.02 270.85 266.33 265.64 268.46C260.44 270.59 260.44 276.74 260.2 281.46C259.97 286.2 264.69 288.32 264.69 288.32H283.61C287.86 288.32 287.86 285.24 287.86 285.24C287.86 285.24 282.19 285.01 282.19 280.04C282.19 275.07 286.22 274.84 288.1 274.84H294.72C297.33 274.84 298.75 278.16 298.75 278.16C298.75 278.16 302.78 272.01 307.97 269.64C313.17 267.27 351.47 240.32 358.09 235.6C364.71 230.87 372.741 220.47 372.98 208.42C373.22 196.36 373.45 164.21 373.45 164.21C373.45 164.21 362.09 167.98 339.87 179.56V179.57Z" fill="#9B5D22"/>
<path d="M100.19 127.65C100.19 127.65 93.89 118.83 93.42 109.21C92.95 99.6004 102.4 91.0805 104.44 89.8305C106.49 88.5705 112.96 91.2402 112.01 99.2802C111.06 107.32 109.01 120.871 108.38 122.451C107.76 124.031 113.26 134.271 114.22 137.101C115.17 139.941 125.73 137.26 135.49 140.57C135.49 140.57 155.03 128.91 167.94 128.76C167.94 128.76 175.51 144.68 168.26 154.29C161.01 163.9 153.92 165.8 146.51 165.32C139.1 164.85 125.55 156.171 120.18 152.391C114.82 148.611 113.41 145.301 111.04 140.741C108.67 136.171 105.05 126.23 104.26 125.3C103.49 124.35 100.18 127.67 100.18 127.67L100.19 127.65ZM134.94 107.471C133.76 104.641 122.17 111.021 123.71 114.451C124.7 116.671 136.12 110.311 134.94 107.471ZM158.81 102.621C158.7 99.9006 147 101.091 147.24 103.681C147.42 105.821 158.93 105.341 158.81 102.621ZM146.29 201.851C146.27 201.951 143.67 212.77 142.97 222.65C142.26 232.49 142.26 256.04 142.26 256.26C142.26 256.66 142.581 256.98 142.981 256.98C143.381 256.98 143.7 256.66 143.7 256.26C143.7 256.02 143.72 232.531 144.41 222.741C145.1 213.001 147.68 202.281 147.71 202.181C147.8 201.791 147.56 201.41 147.18 201.32C146.78 201.22 146.4 201.46 146.3 201.84L146.29 201.851ZM129.56 200.621C129.18 200.511 128.79 200.751 128.69 201.121C128.62 201.381 121.59 227.911 123.58 255.601C123.61 255.981 123.92 256.27 124.29 256.27H124.34C124.73 256.24 125.02 255.9 125.01 255.5C123.03 228.05 130.01 201.75 130.07 201.48C130.18 201.12 129.94 200.711 129.57 200.621H129.56ZM174.47 183.51C174.55 183.51 182.29 184.64 188.69 188.61C194.98 192.51 198.49 199.06 202.43 209.07C206.23 218.74 218.62 263.18 219.88 271.63C221.12 280.08 221.55 288.511 213.1 298.971C205.4 308.491 171.45 343.89 164.52 351.13L165.49 352.17C172.27 345.1 206.45 309.471 214.21 299.871C223.03 288.971 222.6 280.19 221.3 271.42C220.05 262.92 207.59 218.25 203.77 208.55C199.73 198.26 196.08 191.501 189.46 187.411C182.79 183.281 175.02 182.15 174.68 182.11C174.29 182.05 173.92 182.33 173.87 182.71C173.82 183.09 174.09 183.45 174.47 183.51ZM184.17 178.3C191.9 180.28 204.18 187.511 207.15 195.971C210.27 204.861 224.81 255.9 227.62 266.98C230.88 279.84 229.38 290.88 223.15 299.811C217.5 307.93 187.2 338 171.44 353.48L183.52 343.57C199.55 327.67 219.76 307.17 224.34 300.63C230.81 291.35 232.38 279.911 229.01 266.641C226.2 255.551 211.62 204.41 208.51 195.5C205.38 186.58 192.56 178.981 184.53 176.911C184.14 176.811 183.76 177.051 183.66 177.431C183.56 177.801 183.79 178.2 184.18 178.29L184.17 178.3ZM261.56 455.11H233.981V411.3H225.47V455.11H185.75V411.3H177.231V455.11H153.27L155.29 411.3H146.78L141.92 516.25L96.3702 515.88C96.3702 515.88 98.8504 522.28 94.3204 526.5C93.1804 527.56 91.4705 528.66 89.4405 529.77L89.2198 505.11C86.9898 503.89 84.13 501.871 81.5 498.701L81.2696 533.661C76.9596 535.531 72.5902 537.241 69.6202 538.601C62.9802 541.621 64.0998 548.96 70.0098 549C71.6498 549 77.7302 549.06 85.7002 549.13C83.6202 549.55 82.0498 551.38 82.0498 553.59C82.0498 556.1 84.0897 558.141 86.5997 558.141H143.05C145.56 558.141 147.6 556.1 147.6 553.59C147.6 553 147.47 552.44 147.27 551.92C148.22 551.17 148.86 550.07 148.92 548.78L152.86 463.63H261.54C263.9 463.63 265.79 461.72 265.79 459.38C265.83 457.02 263.92 455.121 261.58 455.121L261.56 455.11ZM381.65 151.36C379.77 151.46 377.71 151.691 375.81 152.221C370.15 153.801 338.94 168.92 338.94 168.92L339.89 179.56C362.11 167.98 373.46 164.201 373.46 164.201C373.46 164.201 373.46 165.84 373.42 168.5C379.66 164.64 385.89 160.24 385.04 158.53C384.08 156.63 382.94 154.171 381.65 151.351V151.36ZM294.81 133L315.52 95.3105C313.04 94.1705 310.98 93.1005 309.5 92.3105L309.61 92.5805L290.47 123.54L284.12 108.26C282.58 109.6 280.83 111.111 279 112.721L285.981 134.25L294.81 133.01V133ZM249.62 173.451C248.58 178.461 247.981 181.28 247.981 181.28L268.481 184.53L264.54 175.54L249.62 173.451ZM456.59 528.44L445.58 506.431L417.68 522.51C418.69 526.1 420.15 534.091 414.88 538.641C407.95 544.631 401.64 548.41 395.02 551.88C388.4 555.35 390.93 561.02 396.6 561.02H412.99C422.44 561.02 432.22 554.091 439.45 549.371C443.85 546.501 450.23 541.431 454.56 537.871C457.36 535.571 458.19 531.67 456.58 528.44H456.59ZM350.39 538.201L312.76 540.391C311.63 542.681 309.2 545.141 304.26 546.831C292.28 550.921 280.62 552.5 280.62 557.55C280.62 562.6 283.15 562.911 289.44 562.911H344.28C352.47 562.911 352.47 553.46 351.84 548.73C351.5 546.15 350.88 541.721 350.38 538.201H350.39ZM297.22 275.96C296.34 275.26 295.23 274.831 294.02 274.831H288.1C286.22 274.831 282.19 275.07 282.19 280.03C282.19 284.99 287.86 285.23 287.86 285.23H294.01C296.87 285.23 299.21 282.9 299.21 280.03C299.21 279.32 299.07 278.64 298.81 278.03C298.76 278.09 298.74 278.13 298.74 278.13C298.74 278.13 298.2 276.91 297.21 275.96H297.22ZM244.87 311.621C245.4 311.621 245.93 311.621 246.45 311.661L250.83 285.23H261.231C260.601 284.23 260.16 282.981 260.22 281.451C260.33 279.361 260.38 277.001 260.86 274.831H238.68C239.29 278.911 239.47 282.35 239.3 285.23H240.27L235.9 311.621H244.87Z" fill="white"/>
<path d="M162.201 167.95L165.63 164.529C165.91 164.249 166.361 164.249 166.651 164.529C166.941 164.799 166.921 165.259 166.651 165.549L163.22 168.97C163.08 169.11 162.9 169.18 162.72 169.18C162.54 169.18 162.36 169.12 162.22 168.97C161.92 168.69 161.921 168.23 162.201 167.95ZM157.39 165.149C157.07 164.119 156.98 164.03 156.92 164.04C146.36 166.57 137.781 163.009 137.781 163.009C145.851 171.429 156.21 169.66 160.76 168.31C159.53 167.84 157.94 166.91 157.39 165.14V165.149ZM262.63 274.75C262.23 274.77 261.931 275.09 261.951 275.5C261.951 275.859 262.3 284.619 264.97 287.609C265.11 287.769 265.31 287.85 265.51 287.85C265.68 287.85 265.851 287.799 265.991 287.669C266.291 287.399 266.311 286.95 266.041 286.66C264.111 284.49 263.47 277.84 263.38 275.45C263.35 275.04 263.02 274.69 262.63 274.75ZM250.321 190.04L258.51 194.77C258.63 194.84 258.751 194.859 258.871 194.859C259.121 194.859 259.361 194.729 259.481 194.509C259.681 194.169 259.56 193.739 259.22 193.529L251.031 188.79C250.691 188.6 250.26 188.709 250.06 189.049C249.86 189.409 249.981 189.84 250.321 190.04ZM267.731 274.43C267.331 274.43 267.001 274.719 266.991 275.109C266.991 275.429 266.71 283.03 270.97 287.6C271.11 287.75 271.291 287.83 271.491 287.83C271.661 287.83 271.841 287.759 271.991 287.629C272.271 287.369 272.3 286.91 272.02 286.62C268.18 282.49 268.441 275.24 268.441 275.16C268.441 274.77 268.131 274.439 267.741 274.419L267.731 274.43ZM270.8 188.66L269.51 186.37C269.71 186.12 269.731 185.779 269.531 185.509C262.211 175.769 264.91 148.469 264.93 148.189C264.98 147.799 264.681 147.449 264.291 147.399C263.901 147.369 263.55 147.639 263.51 148.049C263.39 149.119 261.05 172.929 267.06 184.279L255.571 182.35C252.671 181.9 251 181.68 251 181.68L250.661 183.339L272.401 192.33L270.81 188.649L270.8 188.66ZM234.451 353.779L234.291 312.339C233.511 320.699 227.68 326.52 227.68 326.52C230.36 333.14 234.451 353.779 234.451 353.779ZM185.831 238.629C184.061 234.199 181.311 233.51 181.191 233.48C180.811 233.39 180.431 233.62 180.331 234C180.241 234.38 180.47 234.77 180.84 234.87C180.94 234.89 183.021 235.479 184.491 239.169C185.081 240.639 186.46 243.86 188.06 247.6C191.03 254.54 194.72 263.2 195.72 266.08C196.72 269.04 197.67 272.069 198.14 273.609C198.4 274.469 198.321 275.38 197.911 276.18C196.721 278.49 194.221 283.169 190.831 288.399C186.051 295.729 168.81 318.609 168.63 318.839C168.39 319.159 168.46 319.61 168.77 319.85C168.9 319.94 169.061 319.99 169.201 319.99C169.421 319.99 169.631 319.89 169.781 319.7C169.951 319.47 187.211 296.549 192.031 289.169C195.471 283.889 197.991 279.169 199.201 276.819C199.781 275.689 199.88 274.399 199.52 273.189C199.04 271.629 198.091 268.589 197.081 265.609C196.071 262.669 192.37 254 189.38 247.02C187.8 243.3 186.43 240.08 185.84 238.62L185.831 238.629ZM159.571 190.98C159.701 191.24 159.951 191.399 160.231 191.399C160.331 191.399 160.441 191.37 160.531 191.33C160.661 191.28 171.571 186.2 180.481 177.93C181.681 178.04 188.251 178.57 194.191 179.22H194.27C194.63 179.22 194.94 178.939 194.97 178.569C195.02 178.179 194.741 177.83 194.331 177.79C189.531 177.28 184.32 176.819 181.84 176.609C182.72 175.729 183.58 174.83 184.39 173.89C184.65 173.59 184.621 173.129 184.321 172.879C184.021 172.619 183.571 172.65 183.321 172.95C174.311 183.34 160.06 189.96 159.92 190.02C159.57 190.19 159.411 190.61 159.581 190.97L159.571 190.98ZM233.661 298.47L209.361 322.549L186.701 340.779C215.311 336.059 233.67 298.47 233.67 298.47H233.661ZM266.281 77.7993C265.891 77.8493 265.601 78.2094 265.651 78.5894C265.701 78.9594 266.011 79.2295 266.361 79.2295H266.441C272.911 78.4995 276.071 75.4794 276.621 73.6294C276.851 72.8594 276.68 72.1695 276.17 71.7495C275.66 71.3295 274.611 71.0496 272.651 72.0996C267.611 74.7796 262.031 74.0496 261.981 74.0396C261.581 73.9796 261.22 74.2597 261.17 74.6397C261.11 75.0297 261.39 75.3997 261.77 75.4497C262 75.4897 267.85 76.2694 273.31 73.3594C274.59 72.6794 275.16 72.7794 275.26 72.8594C275.28 72.8594 275.311 72.9997 275.231 73.2197C274.891 74.4397 272.221 77.1493 266.281 77.7993ZM255.72 59.1397C256.83 59.1397 257.741 58.2296 257.741 57.1196C257.741 56.0096 256.83 55.1094 255.72 55.1094C254.61 55.1094 253.71 56.0096 253.71 57.1196C253.71 58.2296 254.61 59.1397 255.72 59.1397ZM155.361 117.12C156.461 117.12 157.35 116.229 157.35 115.129C157.35 114.029 156.461 113.14 155.361 113.14C154.261 113.14 153.371 114.029 153.371 115.129C153.371 116.229 154.261 117.12 155.361 117.12ZM303.14 53.3296C303.53 53.2496 303.78 52.8798 303.71 52.4898C303.64 52.0998 303.241 51.8494 302.871 51.9194C301.381 52.2094 298.48 53.7597 298.27 57.6597C298.24 58.0297 298.52 58.3597 298.88 58.4097C298.9 58.4097 299.941 58.5695 300.491 59.4395C300.941 60.1495 300.95 61.1495 300.55 62.4595C300.43 62.8395 300.64 63.2294 301.02 63.3594C301.08 63.3894 301.161 63.3994 301.241 63.3994C301.551 63.3994 301.83 63.2094 301.92 62.8994C302.47 61.1794 302.391 59.7597 301.701 58.6797C301.151 57.8197 300.34 57.3995 299.75 57.1895C300.21 53.9495 303 53.3494 303.13 53.3394L303.14 53.3296ZM272.75 21.4297C272.75 21.4297 274.881 29.7095 279.361 38.2095C283.851 46.7195 294.25 51.9194 294.25 51.9194C294.25 51.9194 303.7 45.2996 308.68 53.0996C310.68 48.4396 312.35 43.8595 313.31 39.4595C314.83 40.0695 316.621 40.3994 319.791 39.1494C325.231 37.0194 326.05 32.9997 327.35 30.1597C328.66 27.3297 333.85 24.9596 333.5 19.0596C333.15 13.1396 327.7 12.0796 326.06 9.82961C324.4 7.59961 324.53 2.85968 318.97 1.90968C313.41 0.959683 310.1 4.97957 308.21 6.03957C306.33 7.09957 302.301 5.33935 298.401 7.56935C295.341 9.32935 294.751 12.0997 294.651 13.2197C282.941 10.9697 268.331 11.3495 260.701 15.0195C247.931 21.1695 251.01 44.5596 251.01 44.5596L272.741 21.4097L272.75 21.4297ZM339.871 180.29C339.871 180.29 339.951 180.29 340 180.29C340.391 180.22 340.65 179.84 340.59 179.45L334.92 147.379C334.85 146.989 334.481 146.729 334.081 146.799C333.691 146.859 333.43 147.239 333.5 147.629L339.161 179.7C339.231 180.04 339.531 180.29 339.871 180.29ZM275.731 56.6094C275.731 55.4994 274.83 54.5996 273.71 54.5996C272.59 54.5996 271.701 55.4994 271.701 56.6094C271.701 57.7194 272.6 58.6294 273.71 58.6294C274.82 58.6294 275.731 57.7194 275.731 56.6094ZM281.77 46.9697C282 46.6497 281.91 46.1995 281.59 45.9795C272.42 39.6595 266.16 46.7396 266.1 46.8096C265.84 47.1096 265.87 47.5694 266.18 47.8194C266.32 47.9394 266.481 47.9898 266.651 47.9898C266.861 47.9898 267.05 47.9098 267.18 47.7398C267.41 47.4898 272.651 41.5597 280.781 47.1597C281.101 47.3797 281.55 47.2997 281.77 46.9697ZM278.1 287.839C278.29 287.839 278.471 287.759 278.611 287.609C278.881 287.319 278.871 286.869 278.581 286.609C273.281 281.599 274.331 275.539 274.371 275.279C274.441 274.889 274.19 274.509 273.8 274.439C273.42 274.369 273.03 274.62 272.96 275.02C272.91 275.3 271.691 282.08 277.581 287.64C277.721 287.78 277.911 287.839 278.081 287.839H278.1ZM261.6 70.5894C261.65 70.5894 261.71 70.6094 261.76 70.6094C262.08 70.6094 262.371 70.3796 262.451 70.0596C262.541 69.6696 262.301 69.2897 261.911 69.1997C259.411 68.6097 257.88 67.4896 257.47 66.6196C257.28 66.2396 257.39 66.0297 257.42 65.9697C257.6 65.6297 257.72 65.3396 257.84 65.0396C258.25 64.1196 258.601 63.3397 260.191 61.2197C262.461 58.1897 262.001 53.9198 261.981 53.7398C261.931 53.3398 261.571 53.0594 261.191 53.1094C260.801 53.1594 260.511 53.5097 260.571 53.8897C260.571 53.9297 260.98 57.7894 259.05 60.3594C257.37 62.5994 256.97 63.4997 256.55 64.4497C256.43 64.7297 256.31 64.9996 256.14 65.3096C255.84 65.8996 255.86 66.5597 256.17 67.2197C256.86 68.6597 258.93 69.9594 261.6 70.5894ZM258.71 49.0694C258.99 49.3293 259.45 49.3095 259.71 49.0195C259.98 48.7195 259.961 48.2795 259.661 48.0195C258.371 46.8295 257.011 46.3195 255.651 46.4595C253.421 46.7095 252.04 48.6795 251.97 48.7695C251.74 49.0895 251.831 49.5393 252.151 49.7593C252.281 49.8493 252.42 49.8897 252.56 49.8897C252.79 49.8897 253.011 49.7796 253.151 49.5796C253.151 49.5596 254.251 48.0494 255.821 47.8794C256.771 47.7694 257.74 48.1794 258.71 49.0694ZM290.941 88.3194C288.811 89.7393 282.661 93.0596 282.661 93.0596L283.571 102.689C286.431 99.0895 289.961 94.6693 291.401 92.8194C294.011 89.5094 293.06 86.9096 290.93 88.3296L290.941 88.3194ZM114.52 365.529C114.64 365.529 114.761 365.489 114.861 365.439C114.951 365.389 123.68 360.569 128.77 358.879C129.15 358.749 129.35 358.359 129.22 357.979C129.1 357.599 128.701 357.39 128.321 357.52C123.121 359.26 114.53 363.99 114.17 364.2C113.83 364.39 113.7 364.82 113.89 365.16C114.02 365.39 114.26 365.529 114.51 365.529H114.52ZM350.39 538.2C350.47 538.72 350.531 539.28 350.621 539.85L309.43 544.919C295.29 556.339 278.271 563.009 259.981 563.009C228.841 563.009 201.42 543.69 185.59 514.54C183.29 518.76 180.75 522.769 178 526.549C179.72 530.289 180.701 534.56 180.701 539.1C180.701 553.81 170.471 565.729 157.861 565.729C148.961 565.729 141.28 559.799 137.5 551.169C137.21 551.269 136.931 551.34 136.621 551.39L130.52 558.129H137.8C129.42 561.299 120.481 563.009 111.231 563.009C101.981 563.009 92.5509 561.18 83.9409 557.85C79.8109 562.71 74.0809 565.729 67.7309 565.729C55.111 565.729 44.8901 553.82 44.8901 539.1C44.8901 535.63 45.4803 532.34 46.5103 529.29C31.6803 510.31 22.5708 484.82 22.5708 456.83C22.5708 435.07 28.0805 414.809 37.5005 397.959C38.1405 400.219 39.2502 403.41 40.7202 407.27C33.7502 421.86 29.731 438.769 29.731 456.819C29.731 481.839 37.4401 504.719 50.1001 522.189C54.3001 516.239 60.6402 512.45 67.7602 512.45C77.6302 512.45 86.0204 519.76 89.2104 529.99C83.2204 533.28 74.6102 536.579 69.7202 538.839C68.8302 539.249 68.101 539.739 67.4809 540.279C66.7909 540.889 66.2609 541.57 65.9009 542.27C65.8709 542.32 65.8501 542.369 65.8101 542.419C65.7201 542.619 65.6508 542.799 65.5708 543C65.5508 543.08 65.5207 543.159 65.4907 543.229C65.4407 543.419 65.3901 543.59 65.3501 543.77C65.3201 543.86 65.3103 543.949 65.3003 544.029C65.2703 544.199 65.2505 544.37 65.2505 544.54V544.83C65.2505 544.99 65.25 545.15 65.27 545.31C65.29 545.42 65.3106 545.519 65.3306 545.629C65.3506 545.769 65.3804 545.93 65.4204 546.06C65.4904 546.29 65.5604 546.5 65.6704 546.72C65.7204 546.82 65.7706 546.89 65.8306 546.99C65.9006 547.13 65.9701 547.249 66.0601 547.379C66.12 547.459 66.2 547.529 66.27 547.609C66.38 547.729 66.4803 547.839 66.5903 547.939C66.6703 548.009 66.7403 548.079 66.8403 548.149C66.9703 548.249 67.0809 548.349 67.2309 548.419C67.3209 548.479 67.4102 548.54 67.5102 548.6C67.6602 548.67 67.8307 548.739 67.9907 548.819C68.0907 548.869 68.1903 548.9 68.3003 548.95C68.4903 549 68.6901 549.049 68.8901 549.089C68.9901 549.119 69.0809 549.14 69.1909 549.16C69.5009 549.21 69.8302 549.24 70.1802 549.24H81.3306C81.1606 548.19 80.5009 541.919 88.7309 538.259L89.5308 537.91C97.8108 534.23 108.121 529.64 114.821 525.7C120.421 522.4 120.57 517.51 115.35 508.37C113.68 508 106.55 505.93 101.93 496.7C96.9902 486.8 68.2309 415.04 62.1909 399.24C56.3509 383.98 56.33 363.45 75.52 355.77C94.23 348.28 145.321 330.719 145.831 330.549C146.211 330.419 146.61 330.61 146.75 330.99C146.88 331.37 146.68 331.76 146.3 331.89C145.79 332.06 94.7403 349.619 76.0503 357.089C57.8303 364.379 57.9208 384.08 63.5308 398.72C69.5808 414.49 98.2804 486.169 103.21 496.029C108.04 505.679 115.84 506.98 115.92 507C116.14 507.03 116.32 507.15 116.43 507.35C120.68 514.72 123.531 522.209 115.541 526.919C108.791 530.909 98.4308 535.51 90.1108 539.2L89.3101 539.56C81.48 543.04 82.6905 548.819 82.7505 549.069C82.7705 549.119 82.7505 549.169 82.7505 549.229H88.8608C88.8408 549.289 88.8108 549.37 88.7808 549.43C103.751 549.6 128.89 549.889 135.96 549.979C136.32 549.959 136.661 549.9 136.981 549.81C135.731 546.52 135.031 542.89 135.031 539.08C135.031 532.39 137.16 526.28 140.68 521.6C141.88 492.74 143.751 447.67 143.781 447.02C143.781 446.62 144.17 446.33 144.52 446.33C144.93 446.35 145.221 446.69 145.201 447.08C145.181 447.72 143.39 490.86 142.18 519.77C146.28 515.25 151.8 512.459 157.88 512.459C163.96 512.459 169.751 515.379 173.871 520.089C176.771 515.859 179.391 511.349 181.691 506.569C175.081 491.729 171.331 474.8 171.331 456.85C171.331 398.31 211.11 350.68 260.01 350.68C308.91 350.68 348.691 398.31 348.691 456.85C348.691 490.67 335.4 520.829 314.75 540.279L350.411 538.22L350.39 538.2ZM88.2007 558.14C87.8207 557.37 86.9002 556.409 85.7602 555.419C85.2902 556.119 84.8 556.809 84.27 557.459C84.95 557.879 85.7604 558.14 86.6304 558.14H88.2104H88.2007ZM341.21 464.74L265.43 460.39L327.121 512.91C335.041 499 340.06 482.53 341.21 464.74ZM324.56 396.52L265.081 458.93L341.321 463.319C341.441 461.179 341.51 459.03 341.51 456.85C341.51 434.17 335.17 413.249 324.56 396.529V396.52ZM264.01 457.97L323.76 395.279C309.6 373.679 288.18 359.389 264.01 357.959V457.979V457.97ZM187.63 411.299H191.281C196.591 424.619 199.651 439.459 199.861 455.109H198.52L261.26 458.709L192.96 400.58C191.01 404 189.22 407.589 187.63 411.299ZM178.52 453.959L192.68 454.77C192.45 441.14 189.95 428.179 185.59 416.419C181.33 427.949 178.84 440.619 178.52 453.959ZM200.56 524.529L261.89 460.18L178.491 455.39C178.491 455.87 178.451 456.349 178.451 456.839C178.451 471.239 181.03 484.929 185.59 497.279C189.44 486.879 191.871 475.54 192.531 463.62H199.68C198.87 479.06 195.28 493.599 189.51 506.549C192.63 513.039 196.34 519.07 200.55 524.52L200.56 524.529ZM262.581 461.54L201.46 525.649C216.28 544.239 237.041 555.85 259.991 555.85C260.851 555.85 261.711 555.8 262.581 555.77V461.54ZM262.581 357.91C261.711 357.88 260.851 357.839 259.991 357.839C234.781 357.839 212.201 371.82 197.231 393.72H237.151C247.031 393.72 250.05 384.239 250.17 383.819C250.29 383.439 250.69 383.229 251.06 383.339C251.44 383.449 251.65 383.849 251.55 384.229C251.51 384.339 248.121 395.129 237.161 395.129H196.31C195.42 396.489 194.55 397.88 193.72 399.29L262.611 457.93V357.91H262.581ZM326.39 514.16L264.01 461.069V555.75C289.72 554.219 312.33 538.139 326.39 514.169V514.16ZM124.64 353.649C124.48 353.279 124.051 353.129 123.691 353.279C119.441 355.169 111.04 360.359 110.68 360.569C110.36 360.779 110.241 361.229 110.451 361.549C110.591 361.769 110.82 361.89 111.05 361.89C111.18 361.89 111.32 361.86 111.43 361.79C111.52 361.74 120.11 356.429 124.27 354.589C124.63 354.439 124.79 354.01 124.63 353.64L124.64 353.649ZM4.17041 215.98C4.59041 216.25 14.5502 222.69 22.9702 224.47C23.0202 224.47 23.0806 224.47 23.1206 224.47C23.4406 224.47 23.7401 224.239 23.8101 223.899C23.8901 223.499 23.6502 223.129 23.2603 223.049C15.1003 221.319 5.04068 214.82 4.95068 214.77C4.62068 214.54 4.17068 214.64 3.95068 214.97C3.73068 215.3 3.82064 215.75 4.16064 215.97L4.17041 215.98ZM19.5308 227.919C12.7908 226.089 2.88052 217.859 2.79052 217.779C2.47052 217.529 2.03076 217.56 1.78076 217.87C1.53076 218.19 1.5606 218.629 1.8706 218.879C2.2806 219.219 12.1306 227.4 19.1606 229.31C19.2306 229.33 19.2901 229.33 19.3501 229.33C19.6701 229.33 19.9508 229.12 20.0308 228.81C20.1308 228.43 19.9008 228.04 19.5308 227.93V227.919ZM373.441 164.209L373.67 168.95C373.67 168.95 385.73 161.62 385.25 159.25C384.78 156.88 373.441 164.209 373.441 164.209ZM445.581 506.419L417.68 522.5C418.13 524.109 418.661 526.609 418.651 529.259L445.451 507.419C445.451 507.419 445.56 507.099 445.68 506.609L445.571 506.41L445.581 506.419ZM7.61084 212.919C8.02084 213.169 17.531 219.16 25.981 220.35C26.021 220.35 26.0506 220.35 26.0806 220.35C26.4406 220.35 26.7505 220.09 26.7905 219.73C26.8405 219.34 26.5709 218.979 26.1909 218.919C18.0509 217.779 8.49087 211.75 8.40087 211.7C8.07087 211.48 7.62064 211.579 7.41064 211.919C7.18064 212.249 7.2806 212.689 7.6206 212.919H7.61084ZM326.6 311.339C328.49 315.949 329.401 324.889 330.361 334.339C330.821 338.879 331.3 343.579 331.92 348.049C331.97 348.399 332.271 348.669 332.621 348.669C332.661 348.669 332.691 348.669 332.731 348.649C333.121 348.599 333.39 348.24 333.34 347.85C332.74 343.41 332.26 338.74 331.8 334.2C330.83 324.63 329.901 315.61 327.941 310.81C325.061 303.78 320.951 300.55 320.781 300.43C320.461 300.19 320.011 300.25 319.781 300.56C319.541 300.87 319.591 301.329 319.911 301.569C319.941 301.609 323.88 304.709 326.6 311.359V311.339ZM121.46 367.899C121.57 367.899 121.681 367.87 121.781 367.83C121.841 367.79 128.591 364.519 134.151 362.509C134.531 362.369 134.711 361.959 134.581 361.589C134.441 361.229 134.04 361.03 133.67 361.16C128.02 363.2 121.211 366.52 121.151 366.54C120.801 366.71 120.651 367.14 120.821 367.49C120.941 367.74 121.2 367.899 121.46 367.899ZM38.7505 227.379C38.8405 227.699 39.1302 227.91 39.4302 227.91C39.5002 227.91 39.5606 227.909 39.6206 227.879C40.0006 227.779 40.2306 227.379 40.1206 227.009L37.7603 218.37C37.6502 217.99 37.2604 217.77 36.8804 217.87C36.5004 217.98 36.2804 218.37 36.3804 218.75L38.7505 227.379ZM140.371 130.879C140.581 130.879 140.79 130.79 140.93 130.62C143.86 126.95 144.371 122.859 144.401 122.689C144.451 122.299 144.17 121.939 143.77 121.899C143.38 121.849 143.02 122.129 142.97 122.529C142.97 122.569 142.471 126.4 139.821 129.73C139.571 130.04 139.62 130.48 139.93 130.73C140.07 130.84 140.23 130.879 140.38 130.879H140.371ZM136.68 123.5C137.78 123.5 138.67 122.609 138.67 121.509C138.67 120.409 137.78 119.52 136.68 119.52C135.58 119.52 134.691 120.409 134.691 121.509C134.691 122.609 135.58 123.5 136.68 123.5ZM142.72 141.52C142.45 142.16 142.661 142.909 143.281 143.569C144.141 144.459 146.251 145.56 149.581 145.56C151.591 145.56 154.051 145.149 156.941 144.069C157.311 143.929 157.501 143.52 157.361 143.14C157.221 142.77 156.81 142.58 156.43 142.72C150.01 145.13 145.601 143.91 144.321 142.58C144.071 142.31 144.021 142.12 144.041 142.08C144.081 142.01 144.37 141.759 145.35 141.759C150.66 141.759 156.091 138.96 156.331 138.85C156.681 138.66 156.82 138.23 156.64 137.89C156.46 137.54 156.02 137.39 155.68 137.58C155.63 137.6 150.331 140.339 145.371 140.339C143.511 140.319 142.911 141.079 142.731 141.529L142.72 141.52ZM132.691 282.64C132.781 282.64 132.881 282.619 132.981 282.589C133.771 282.249 152.651 273.969 161.411 261.419C161.641 261.099 161.561 260.65 161.231 260.43C160.911 260.2 160.461 260.279 160.241 260.609C151.711 272.829 132.601 281.189 132.411 281.279C132.041 281.439 131.891 281.87 132.031 282.22C132.161 282.48 132.421 282.64 132.701 282.64H132.691ZM155.5 125.52C156.27 126.16 156.63 126.77 156.63 127.41C156.61 128.83 154.771 130.46 153.151 131.73C152.841 131.97 152.79 132.42 153.02 132.74C153.16 132.92 153.38 133.009 153.59 133.009C153.74 133.009 153.901 132.96 154.031 132.87C156.011 131.31 158.02 129.46 158.06 127.45C158.06 126.37 157.521 125.35 156.411 124.43C153.621 122.11 148.691 117.42 148.651 117.37C148.361 117.09 147.92 117.1 147.63 117.39C147.36 117.68 147.371 118.14 147.661 118.41C147.711 118.45 152.681 123.16 155.491 125.52H155.5ZM118.21 278.689C119.78 281.909 119.821 283.35 120.031 289.45C120.071 290.44 120.091 291.56 120.161 292.83C120.191 293.76 120.21 294.73 120.25 295.74C120.48 304.8 120.77 316.09 129.52 320.74C129.63 320.79 129.74 320.81 129.85 320.81C130.1 320.81 130.351 320.669 130.481 320.439C130.661 320.089 130.53 319.66 130.18 319.47C122.17 315.2 121.901 304.4 121.661 295.7C121.641 294.69 121.611 293.71 121.571 292.77C121.521 291.5 121.481 290.39 121.441 289.39C121.231 283.22 121.181 281.56 119.491 278.06C117.641 274.23 102.3 233.269 102.14 232.859C102 232.499 101.59 232.3 101.22 232.45C100.85 232.59 100.65 232.99 100.8 233.37C101.45 235.06 116.32 274.82 118.22 278.7L118.21 278.689ZM100.231 291.47C100.371 291.67 100.601 291.77 100.821 291.77C100.961 291.77 101.111 291.72 101.231 291.64C101.551 291.41 101.631 290.959 101.401 290.649L94.9409 281.5C94.7109 281.18 94.2609 281.1 93.9409 281.33C93.6209 281.56 93.54 282.01 93.77 282.33L100.231 291.47ZM126.071 177.209C126.211 177.209 126.34 177.18 126.46 177.1C126.79 176.88 126.88 176.43 126.67 176.1C125.33 174.04 125.361 172.69 125.361 172.64C125.391 172.25 125.101 171.91 124.701 171.87C124.291 171.84 123.95 172.129 123.93 172.529C123.91 172.719 123.83 174.379 125.46 176.879C125.6 177.099 125.83 177.2 126.06 177.2L126.071 177.209ZM161.89 122.85C162.29 122.85 162.611 122.529 162.611 122.129C162.611 121.729 162.29 121.41 161.89 121.41C157.45 121.41 153.59 118.74 153.55 118.7C153.23 118.47 152.78 118.55 152.56 118.87C152.33 119.19 152.421 119.639 152.731 119.859C152.891 119.999 156.98 122.85 161.89 122.85ZM126.281 198.029C126.401 198.089 126.521 198.129 126.651 198.129C126.881 198.129 127.13 198 127.26 197.79C127.47 197.45 127.37 197.02 127.02 196.81C121.71 193.58 115.73 188.089 115.67 188.029C115.38 187.769 114.931 187.78 114.661 188.08C114.401 188.37 114.42 188.829 114.71 189.089C114.94 189.319 120.84 194.74 126.27 198.04L126.281 198.029ZM381.821 267.79L368.01 268.209L362.81 250.25L359.741 267.979L345.451 268.33L308.991 268.75C308.591 268.75 308.281 269.08 308.281 269.47C308.281 269.86 308.6 270.18 309 270.18H309.02L335.321 269.859L363.611 270.899C363.451 271.089 363.4 271.37 363.5 271.62L373.59 294.939C373.71 295.219 373.971 295.379 374.241 295.379C374.331 295.379 374.441 295.349 374.531 295.319C374.901 295.159 375.051 294.739 374.911 294.379L364.821 271.06C364.821 271.06 364.77 270.989 364.75 270.939L382.89 271.62C382.55 270.32 382.19 269.04 381.84 267.77L381.821 267.79Z" fill="#424144"/>
</svg>
