<svg width="360" height="567" viewBox="0 0 360 567" fill="none" xmlns="http://www.w3.org/2000/svg">
<path d="M304.2 335.2C301.11 335.2 298.09 335.71 295.15 336.68C295.59 327.34 295.92 318.43 296.14 312.38C296.53 301.9 289.13 294.73 280.88 291.99C288.98 288.62 296.57 276.86 293.13 265.31C290.37 256.05 281.89 236.74 278.35 228.81C278.69 228.48 279.04 228.16 279.36 227.86C279.41 227.81 279.48 227.75 279.55 227.69C279.86 227.39 280.16 227.09 280.45 226.8L280.64 226.61C280.92 226.31 281.2 226.03 281.46 225.75C281.5 225.71 281.54 225.65 281.58 225.61C283.06 224.02 284.09 222.65 284.49 221.62C284.7 221.07 284.75 220.61 284.57 220.27C282.05 215.49 271.23 198.13 256.39 180.25C244.66 166.15 235.13 160.98 224.45 156.95C224.53 155.3 224.56 148.83 220.4 145.77C216.96 143.24 209.38 140.33 203.6 139.64C203.54 139.62 203.49 139.61 203.41 139.61C201.23 139.36 199.3 139.42 197.98 139.98C196.35 140.66 195.41 143.86 194.98 147.37C194.72 147.3 194.49 147.24 194.25 147.15C193.02 146.17 191.87 144.72 191.87 142.74C191.87 138.53 191.19 133.01 191.19 133.01C191.19 133.01 193.37 130.49 196.4 124.62C199.42 118.75 201.77 109.68 201.77 109.68C207.13 109.35 213.68 104.64 212.17 97.94C211.2 93.61 207.65 92.7803 205.24 92.7203C206.2 91.3903 207.98 88.54 209.61 84.17C210.55 81.64 211.44 78.6001 212.08 75.0201C214.35 62.4401 201.25 53.8702 183.39 50.8702C183.39 50.8702 183.39 50.8401 183.39 50.7901C183.39 50.7501 183.41 50.68 183.41 50.61V50.5602C183.41 50.4602 183.41 50.3703 183.41 50.2403V50.19C183.45 48.36 183.17 43.18 179.26 39.67C178.33 38.84 177.22 38.0999 175.84 37.5299C167.28 33.9999 156.95 41.0602 158.47 52.8902C158.47 52.8902 146.43 56.2402 145.08 73.0802C145.08 73.2202 145.05 73.3501 145.04 73.5001C144.99 74.3501 144.95 75.2302 144.94 76.1402V76.2003C144.94 77.0603 144.97 77.9602 145.03 78.8902C145.03 79.1202 145.05 79.36 145.07 79.59C145.14 80.56 145.23 81.54 145.37 82.59L146.04 90.7301C146.04 90.7301 143.67 91.7899 142.12 94.5699C139.06 91.0399 136.34 87.9899 134.47 86.0299C126.41 77.6299 107.29 77.31 94.8697 79.65C91.7097 80.25 88.7297 80.8099 86.0297 81.2999C85.7797 81.3399 85.5497 81.39 85.3097 81.42C85.0597 81.46 84.8097 81.5102 84.5697 81.5602C84.2297 81.6202 83.8997 81.6803 83.5597 81.7403C83.3497 81.7803 83.1396 81.8202 82.9196 81.8502C82.5896 81.9102 82.2697 81.9599 81.9597 82.0299C81.7797 82.0699 81.6196 82.0802 81.4696 82.1202C81.1196 82.1902 80.7697 82.2402 80.4397 82.3102L80.1797 81.3199C80.1797 81.3199 87.4796 71.5001 87.4796 64.4601C87.4796 60.8101 87.0097 57.0301 86.5497 54.2301C87.1297 53.3801 87.6097 52.4501 87.9497 51.5001C88.3997 50.2401 88.5696 48.61 88.4696 46.94C89.0396 45.76 89.4197 44.1799 89.2497 42.0499C88.8597 37.3799 86.2197 35.4299 85.0297 34.7799C85.5297 29.1599 86.1797 17.23 82.9497 12.86C78.6597 7.06997 70.1096 7.31993 70.1096 7.31993C64.8196 -1.23007 46.9597 -2.75007 33.6096 6.81993C20.2696 16.3899 13.4697 33.0001 16.4897 40.5401C19.3097 47.5901 24.9696 55.5099 25.7196 56.5299C25.0296 58.4999 24.7097 61.13 26.0497 63.94C28.8297 69.74 36.8797 68.4703 36.8797 68.4703C36.8797 68.4703 45.4397 79.0499 47.7097 81.5699C49.5997 83.6599 47.9997 87.5103 47.3997 88.7203C46.1997 89.2303 44.6897 89.88 42.9597 90.61C36.7097 93.23 27.5297 97.0002 19.0197 100.1C4.23968 105.48 -2.46033 122.6 2.56967 142.73C7.60967 162.85 11.9597 176.96 14.3197 182.67C15.0997 184.55 16.4597 185.92 18.0597 186.88C18.0597 186.88 18.0797 186.88 18.0797 186.9C18.3897 187.08 18.6997 187.25 18.9997 187.4C19.0197 187.4 19.0296 187.4 19.0396 187.4C19.3496 187.55 19.6797 187.68 19.9897 187.81C20.0097 187.83 20.0296 187.83 20.0396 187.84C20.3696 187.96 20.6797 188.07 20.9897 188.18C21.0097 188.18 21.0297 188.18 21.0597 188.2C21.3797 188.3 21.6897 188.39 22.0097 188.46C22.0397 188.46 22.0497 188.46 22.0797 188.46C22.3997 188.53 22.7197 188.6 23.0297 188.65C23.0497 188.65 23.0597 188.65 23.0697 188.65C23.4097 188.71 23.7197 188.76 24.0297 188.78C24.4897 188.82 24.9296 188.86 25.3596 188.87C29.1196 194.61 34.2697 202.18 38.8997 207.9C44.8097 215.22 53.8497 215.66 60.8697 212.5L74.7196 258.16L76.8997 257.37L77.3997 262.35L77.5396 262.33L84.3797 315.9C81.3097 317.13 78.1697 318.43 74.8797 319.89C67.9997 322.96 63.1996 328.36 60.4796 335.19C60.3396 335.19 60.1697 335.17 60.0297 335.17C28.9497 335.17 4.60965 385.71 4.60965 450.25C4.60965 514.79 28.9697 565.33 60.0497 565.33C63.8097 565.33 67.4597 564.58 70.9897 563.16C72.0397 565.1 74.0697 566.42 76.4297 566.42C79.8697 566.42 82.6397 563.64 82.6397 560.21V555.67C85.3197 553.25 87.8997 550.41 90.3197 547.18C91.5197 547.56 92.7897 547.75 94.0797 547.75H202.53C208.42 547.75 213.53 543.57 214.71 537.81L218.4 519.78V560.21C218.4 563.65 221.18 566.42 224.61 566.42C228.04 566.42 230.82 563.64 230.82 560.21V517.25C230.82 513.82 228.04 511.04 224.61 511.04C222.6 511.04 220.83 512.01 219.68 513.51L232.24 452.09H248.83C249.29 515.73 273.44 565.33 304.23 565.33C335.02 565.33 359.65 514.79 359.65 450.25C359.65 385.71 335.28 335.19 304.2 335.19V335.2ZM86.9196 49.0499C86.8496 49.7599 86.7297 50.4301 86.5297 51.0001C86.4297 51.3101 86.2896 51.6102 86.1696 51.8902C85.9296 50.6402 85.7497 49.8702 85.7497 49.8702C85.7497 49.8702 86.2697 49.6299 86.9297 49.0499H86.9196ZM348.9 445.52H309.78C309.5 444.34 308.82 443.33 307.91 442.61L335.27 375.99C343 393.25 348.35 417.12 348.9 445.52ZM306.48 346.04C316.45 347.38 326.55 357.43 334.41 374.09L306.58 441.82C306.58 441.82 306.52 441.8 306.48 441.79V346.03V346.04ZM267.79 390.26C272.31 389.96 276.3 389.14 279.68 387.73L302.89 441.45H259.63C260.33 421.88 263.33 404.58 267.8 390.26H267.79ZM217.87 154.31L220.31 155.43C219.46 155.13 218.6 154.84 217.74 154.54C217.83 154.4 217.87 154.31 217.87 154.31ZM161.58 151.7C161.24 151.78 161.02 152.06 161 152.38C160.89 152.44 160.83 152.48 160.83 152.48L160.88 152.59L160.26 152.73L157.86 147.37L161.57 151.7H161.58ZM115.08 464.04C120.94 473.58 125.55 481 127.7 484.45C128.91 486.65 130.61 489.81 132.46 493.61C135.77 500.38 129.91 509.02 124.19 512.8C123.53 513.23 122.87 513.63 122.23 513.91C117.78 515.96 109.78 519.9 103.13 523.22C103.17 523.2 103.19 523.18 103.22 523.17C109.61 506.75 113.84 486.48 115.08 464.05V464.04ZM97.0097 250.12L97.1397 250.08V250.1L97.0297 250.14L97.0097 250.12ZM94.4696 429.97C96.7696 433.84 99.0796 437.69 101.35 441.45H94.2397L94.4696 429.97ZM94.0097 452.12H104.78C104.63 472.86 101.91 491.28 97.5497 506.59L94.2296 498.59C94.0696 498.2 93.6196 498.03 93.2296 498.18C93.1596 498.2 93.1197 498.25 93.0597 498.29L94.0097 452.11V452.12ZM93.0396 499.67L96.8797 508.9C95.5697 513.23 94.1496 517.32 92.5996 521.1L93.0297 499.67H93.0396ZM64.8297 452.06V553.99C63.2397 554.43 61.6397 554.68 60.0597 554.68C51.0997 554.68 41.8797 547.44 34.1397 534.54L63.7097 450.3C64.1297 450.77 64.6196 451.16 65.1696 451.46C64.9796 451.59 64.8297 451.81 64.8297 452.06ZM82.0597 514.68C81.0797 512.55 78.9297 511.07 76.4297 511.07C72.9897 511.07 70.2196 513.85 70.2196 517.28V551.68C68.9396 552.44 67.6396 553.04 66.3496 553.53V452.09C66.3496 452.04 66.3197 451.98 66.3097 451.94C66.7397 452.05 67.1996 452.13 67.6696 452.13H69.2497C69.0797 452.35 69.0296 452.66 69.1696 452.93L81.5097 478.1C81.6397 478.37 81.9097 478.52 82.1897 478.52C82.2997 478.52 82.4197 478.5 82.5297 478.44C82.6397 478.39 82.7197 478.31 82.7997 478.21L82.0697 514.68H82.0597ZM82.8297 477.27L70.5597 452.23C70.5597 452.23 70.4996 452.15 70.4696 452.12H83.3596L82.8297 477.27ZM83.5697 441.45H70.3297C70.5197 441.39 70.6997 441.29 70.7997 441.1L84.1096 415.23L83.5697 441.45ZM84.1197 414.46C84.0597 414.33 83.9497 414.21 83.8097 414.14C83.4397 413.95 82.9797 414.1 82.7797 414.48L69.4397 440.4C69.2497 440.77 69.3997 441.23 69.7797 441.43C69.8097 441.46 69.8597 441.43 69.8897 441.46H67.6997C67.4997 441.46 67.2996 441.5 67.1096 441.51C67.1096 441.49 67.1096 441.47 67.1096 441.46V390.93C67.1096 390.51 66.7697 390.16 66.3397 390.16C65.9097 390.16 65.5697 390.5 65.5697 390.93V441.46C65.5697 441.61 65.6297 441.73 65.6997 441.85C63.7297 442.64 62.3397 444.55 62.3397 446.79C62.3397 447.61 62.5397 448.38 62.8797 449.08C62.6397 449.14 62.4397 449.31 62.3397 449.55L33.1096 532.82C22.7296 514.5 15.2797 485.69 15.2797 450.28C15.2797 449.27 15.2997 448.28 15.3197 447.29H61.5497C61.9697 447.29 62.3197 446.95 62.3197 446.52C62.3197 446.09 61.9797 445.75 61.5497 445.75H15.3397C15.9097 414.19 22.4297 388.18 31.5497 370.61L62.6096 442.79C62.7296 443.07 63.0197 443.25 63.3097 443.25C63.4197 443.25 63.5196 443.22 63.6096 443.19C63.9996 443.02 64.1697 442.57 64.0097 442.2L32.4597 368.91C39.9497 355.21 49.0596 347.05 58.0396 345.99C58.1196 344.96 58.2496 343.98 58.4096 342.99C57.1796 350.94 58.1897 360.08 61.5597 369.51C62.2097 371.35 63.2397 373.72 64.5597 376.5C60.5097 381.12 60.7097 390.64 69.8596 390.64H71.8697C75.4497 397.23 79.6597 404.67 84.1497 412.42L84.1096 414.48L84.1197 414.46ZM204.24 535.68C204.07 536.49 203.35 537.09 202.52 537.09H181.34L181.38 537.05H182.98C187.84 537.05 193.21 532.69 199.75 527.33C205.47 522.65 206.95 521.29 207.25 521.01L204.25 535.68H204.24ZM210.21 506.47L210.02 506.42L210.05 506.28L210.32 504.84L200 469.05L206.29 464.24L202.77 452.12H221.32L210.2 506.47H210.21ZM223.5 441.45H199.67L184.82 390.39H233.92L223.49 441.45H223.5ZM242.58 441.45H234.39L242.57 401.38V441.45H242.58ZM248.79 273.43C248.6 263.9 248.41 255.9 248.35 253.21L256.38 267.09C256.38 267.09 253.31 269.67 248.79 273.44V273.43ZM253.24 404.28V390.41H256.62C255.35 394.84 254.22 399.47 253.24 404.28ZM259.46 452.12H302.34L272.84 523.93C265 506.12 259.68 481.44 259.46 452.12ZM304.94 554.63C304.69 554.65 304.44 554.68 304.2 554.68C293.38 554.68 282.19 544.17 273.7 525.85L304 452.11H304.62C304.73 452.11 304.83 452.08 304.95 452.07V554.62L304.94 554.63ZM304.94 441.48C304.83 441.46 304.73 441.44 304.61 441.44H304.53L281.04 387.08C287.74 383.79 291.81 377.96 292.86 369C293.51 363.48 294.05 356.23 294.49 348.59C297.7 346.8 300.96 345.86 304.18 345.86C304.43 345.86 304.68 345.9 304.92 345.9V441.47L304.94 441.48ZM306.48 554.52V451.77C306.73 451.67 306.97 451.56 307.2 451.43L337.03 520.46C328.88 540.7 317.6 553.03 306.49 554.52H306.48ZM308.44 450.49C309.31 449.58 309.86 448.38 309.92 447.04H348.91C348.91 448.12 348.95 449.19 348.95 450.27C348.95 477.49 344.56 500.79 337.81 518.44L308.44 450.48V450.49Z" fill="#BAE0E6"/>
<path d="M248.32 252.22C248.32 252.22 249.83 314.39 249.08 318.66C248.32 322.94 242.03 327.219 194.21 320.919C176.07 318.539 161.42 314.709 150.21 310.859L85.8203 326.959L76.9302 257.33L122.58 240.97C112.89 237.23 94.2502 229.85 94.7902 228.54C95.5402 226.78 107.63 196.08 113.92 184.49C120.21 172.91 130.78 160.08 144.62 156.81C158.47 153.54 164.01 152.029 164.01 152.029L184.65 144.47C184.65 144.47 201.02 148.749 215.61 153.779C230.21 158.819 241.53 162.34 256.39 180.2C271.24 198.08 282.05 215.44 284.57 220.22C287.09 225.02 248.33 252.189 248.33 252.189L248.32 252.22ZM78.4202 118.7L86.0303 81.2896C78.1403 82.7396 72.7402 83.6797 72.7402 83.6797L50.5903 87.3696C50.5903 87.3696 47.5802 88.6994 42.9902 90.6294L73.8303 120.16C75.3903 121.66 77.9902 120.83 78.4202 118.7ZM200.46 92.8896L204.53 93.6597C204.53 93.6597 207.23 90.5497 209.6 84.1797C200.09 68.8797 174.06 60.4297 174.06 60.4297H173.81L173.06 60.4995C181.03 58.5295 183.37 50.8794 183.37 50.8794C183.37 50.8794 184.06 43.9897 179.24 39.6797C178.13 51.0497 168.01 60.9395 168.01 60.9395L179.6 72.2695L200.45 92.8896H200.46ZM148.39 83.1396L157.47 71.7593L167.04 60.9297L163.01 59.4194C163.01 59.4194 151.37 63.6395 145.35 70.6895C144.85 74.0195 144.78 77.9496 145.39 82.5796L148.39 83.1494V83.1396ZM149.58 85.4995C149.24 85.7695 149.19 86.2296 149.44 86.5596C149.59 86.7496 149.82 86.8594 150.05 86.8594C150.21 86.8594 150.38 86.8197 150.52 86.6997C150.56 86.6597 155.26 83.1197 160.04 85.4097C160.42 85.5897 160.88 85.4296 161.06 85.0396C161.25 84.6496 161.09 84.2095 160.7 84.0195C155.06 81.3395 149.8 85.3295 149.59 85.4995H149.58ZM172.06 82.0493C171.7 82.2693 171.58 82.7194 171.79 83.0894C172.01 83.4494 172.48 83.5794 172.83 83.3594C172.9 83.3194 180.01 79.2897 187.19 85.1797C187.32 85.2897 187.5 85.3496 187.67 85.3496C187.89 85.3496 188.11 85.2596 188.27 85.0796C188.53 84.7596 188.48 84.2795 188.16 83.9995C180.15 77.4595 172.14 81.9993 172.06 82.0493ZM184.64 509.529C175.42 505.499 166.01 509.359 166.01 509.359C166.01 509.359 159.29 514.57 153.09 516.24C146.88 517.92 142.69 517.419 142.69 517.419C135.41 511.039 128.1 511.7 124.18 512.79C123.52 513.22 122.86 513.609 122.23 513.899C116.02 516.749 102.94 523.29 96.2202 526.64C89.5002 529.99 91.8502 537.04 98.5602 537.04H182.96C187.82 537.04 193.19 532.68 199.73 527.31C206.28 521.95 207.29 520.939 207.29 520.939L210.03 506.27L195.38 517.75C195.38 517.75 193.88 513.559 184.65 509.529H184.64ZM138.92 153.56C139.99 153.56 140.86 152.7 140.86 151.62V147.759C140.86 146.699 140 145.83 138.92 145.83C137.84 145.83 136.98 146.689 136.98 147.759V151.62C137 152.7 137.85 153.56 138.92 153.56Z" fill="#E0B2D3"/>
<path d="M239.77 316.649C239.77 316.649 241.78 330.499 241.78 339.799C241.78 349.099 231.46 370.75 211.08 370.75H179.11L206.29 464.22L199.92 469.08C199.92 469.08 184.4 488.8 182.64 489.04C180.87 489.3 129.02 486.529 129.02 486.529C129.02 486.529 69.3696 391.38 61.5696 369.49C53.7696 347.6 58.5596 327.199 74.9096 319.899C91.2796 312.599 104.86 308.57 115.93 305.04C127.01 301.52 126 296.729 126 296.729C208.02 291.979 239.75 316.629 239.75 316.629L239.77 316.649ZM248.32 252.22L239.35 239.56C239.35 239.56 230.28 241.399 221.9 232.169C213.51 222.949 201.1 226.13 193.04 230.99C184.98 235.85 173.4 236.859 164.01 228.979C154.61 221.099 143.37 223.27 135.31 226.64C127.26 229.99 125.08 231.849 123.23 232.509C123.23 232.509 115.35 266.91 125.24 261.2C135.14 255.49 144.53 255.16 151.91 259.87C159.29 264.57 172.21 266.909 184.97 261.879C197.72 256.839 209.97 258.68 219.7 266.24C229.43 273.8 248.73 272.109 248.73 272.109L248.31 252.229L248.32 252.22ZM178.43 193.439L202.52 149.279L190.69 148.529L165.03 151.549L156.97 153.56L175.45 193.339C176.02 194.589 177.77 194.639 178.44 193.439H178.43Z" fill="white"/>
<path d="M112.649 291.07C101.579 293.08 93.8593 281.34 94.8693 267.92C95.8793 254.5 100.579 230.34 100.579 230.34L111.909 233.11C111.909 233.11 118.709 212.47 121.729 201.9C124.749 191.33 125.759 186.29 130.539 179.76C135.329 173.21 136.579 172.45 139.609 169.94C142.629 167.42 144.649 169.94 142.129 172.95C139.609 175.97 137.339 179.76 137.339 179.76C137.339 179.76 141.369 179.5 143.139 176.98C144.899 174.46 148.169 169.68 150.179 167.67C152.189 165.66 154.469 166.66 154.469 166.66C157.739 165.15 158.989 166.92 158.989 166.92C161.259 165.15 163.279 167.67 163.279 167.67C163.279 167.67 166.049 167.17 165.289 171.45C164.529 175.73 163.779 182.02 158.739 185.55C153.699 189.08 144.559 191.76 144.229 194.77C143.889 197.79 136.169 256.53 134.159 269.94C132.129 283.36 123.739 289.06 112.659 291.07H112.649ZM293.129 265.31C289.599 253.48 276.759 225.29 276.759 225.29C276.759 225.29 259.139 231.58 245.299 247.94L256.379 267.07C256.379 267.07 219.379 298.28 213.079 301.55C206.789 304.83 196.969 305.33 191.449 306.33C185.909 307.34 173.569 310.86 173.319 313.38C173.059 315.9 175.079 314.89 177.599 314.14C180.119 313.38 185.399 311.62 185.399 311.62C185.399 311.62 174.069 315.65 174.319 317.41C174.579 319.17 180.619 317.66 180.619 317.66C180.619 317.66 176.589 319.17 177.339 321.19C178.099 323.2 185.139 320.94 185.139 320.94C185.139 320.94 180.109 322.95 180.859 324.21C181.619 325.47 186.899 324.71 191.939 323.71C196.969 322.7 198.479 321.45 206.539 321.45C214.599 321.45 220.639 316.16 222.909 314.65C225.169 313.14 271.989 295.26 280.289 292.25C288.579 289.22 296.629 277.14 293.109 265.31H293.129ZM103.359 158.84C105.879 158.34 117.199 155.31 121.729 155.31C126.259 155.31 132.809 155.81 136.079 156.06C139.349 156.32 140.109 153.05 137.329 152.04C134.559 151.03 128.269 148.51 128.269 148.51L130.789 141.21C130.789 141.21 138.839 145.49 141.359 147.25C143.879 149.02 146.399 145.49 143.879 143.48C141.359 141.47 134.319 134.67 131.539 134.42C128.769 134.16 119.459 132.91 114.679 133.41C109.889 133.91 99.0593 137.93 94.2793 142.47C89.4993 147 56.0193 179.47 56.0193 179.47L49.2192 163.35C33.1092 165.13 20.0293 180.49 20.0293 180.49C20.0293 180.49 30.3493 197.35 38.9193 207.92C47.4693 218.49 62.5693 214.72 68.6093 206.41C74.6493 198.1 92.2592 172.43 95.7892 166.64C99.3192 160.85 100.829 159.34 103.349 158.84H103.359ZM26.0893 63.9502C28.8593 69.7402 36.9193 68.48 36.9193 68.48C36.9193 68.48 45.4693 79.0499 47.7493 81.5699C50.0093 84.0899 47.2493 89.1202 47.2493 89.1202L73.4193 112.03L80.7093 83.3301L80.2093 81.3199C80.2093 81.3199 87.5093 71.5 87.5093 64.46C87.5093 57.42 85.7493 49.8702 85.7493 49.8702C85.7493 49.8702 89.7693 48.0999 89.2693 42.0699C88.7693 36.0299 84.4893 34.5098 84.4893 34.5098C84.4893 34.5098 82.7293 13.3701 67.3793 9.60013C52.0293 5.83013 33.6593 13.8802 27.8693 20.6802C22.0793 27.4802 24.8493 43.8302 27.6193 53.1402C27.5993 53.1402 23.3293 58.17 26.1093 63.96L26.0893 63.9502ZM161.329 477.5C150.589 483.21 125.749 481.02 125.749 481.02C125.749 481.02 128.769 486.06 132.469 493.61C135.779 500.38 129.919 509.02 124.199 512.8C128.119 511.71 135.419 511.06 142.709 517.44C142.709 517.44 146.909 517.94 153.109 516.26C159.319 514.58 166.029 509.38 166.029 509.38C166.029 509.38 175.419 505.53 184.659 509.56C193.879 513.58 195.389 517.77 195.389 517.77L210.049 506.29L210.319 504.85L199.919 468.78C199.919 468.78 183.309 479.34 161.329 477.5ZM140.849 100.79C140.349 93.2301 146.059 90.7203 146.059 90.7203L145.389 82.5899C145.389 82.5899 156.299 63.8799 168.379 60.8599C168.379 60.8599 197.409 83.0002 202.949 92.9102C202.949 92.9102 210.669 91.2202 212.179 97.9502C213.689 104.67 207.139 109.36 201.779 109.69C201.779 109.69 199.429 118.76 196.409 124.63C193.389 130.5 191.199 133.02 191.199 133.02C191.199 133.02 191.879 138.56 191.879 142.75C191.879 145.1 193.509 146.72 194.959 147.68C195.379 144.04 196.329 140.69 197.999 139.97C202.789 137.96 215.619 142.24 220.389 145.77C225.179 149.29 224.419 157.35 224.419 157.35L217.869 154.33C217.869 154.33 214.859 159.37 213.849 160.37C212.839 161.37 211.839 162.63 209.819 162.38C207.809 162.12 208.809 159.6 208.809 159.6C208.809 159.6 207.799 161.37 206.289 161.61C204.779 161.87 204.029 159.09 204.029 159.09C204.029 159.09 203.269 160.35 201.249 160.1C199.239 159.85 199.489 157.84 199.489 157.84C199.489 157.84 195.719 160.61 194.959 156.33C194.799 155.44 194.709 154.24 194.689 152.93L178.079 181.99C177.589 182.86 176.319 182.83 175.859 181.94L160.809 152.47C160.809 152.47 161.199 152.28 161.779 151.93L149.149 137.2L157.219 132.15C155.729 131.24 154.379 130.04 153.429 128.46C149.579 122.08 147.719 109.17 147.719 109.17C147.719 109.17 141.359 108.36 140.849 100.8V100.79ZM171.789 83.0899C172.009 83.4499 172.479 83.5799 172.829 83.3599C172.899 83.3199 180.009 79.2902 187.189 85.1802C187.319 85.2902 187.499 85.3501 187.669 85.3501C187.889 85.3501 188.109 85.2601 188.269 85.0801C188.529 84.7601 188.479 84.28 188.159 84C180.159 77.44 172.139 81.9998 172.059 82.0498C171.699 82.2698 171.569 82.7399 171.789 83.0899ZM149.439 86.5601C149.589 86.7501 149.819 86.8599 150.049 86.8599C150.209 86.8599 150.379 86.8202 150.519 86.7002C150.559 86.6602 155.259 83.1202 160.039 85.4102C160.419 85.5902 160.879 85.4301 161.059 85.0401C161.249 84.6501 161.089 84.2101 160.699 84.0201C155.059 81.3301 149.799 85.31 149.589 85.5C149.249 85.77 149.179 86.2301 149.449 86.5601H149.439Z" fill="#FBD0B0"/>
<path d="M304.199 335.2C273.119 335.2 248.779 385.75 248.779 450.28C248.779 514.81 273.119 565.36 304.199 565.36C335.279 565.36 359.619 514.81 359.619 450.28C359.619 385.75 335.279 335.2 304.199 335.2ZM273.889 374.32L304.649 445.509H259.519C260.069 416.219 265.749 391.71 273.889 374.32ZM348.899 445.52H306.709L335.269 375.99C342.999 393.25 348.349 417.12 348.899 445.52ZM334.399 374.09L306.479 442.08V346.04C316.449 347.38 326.549 357.43 334.399 374.09ZM304.199 345.88C304.449 345.88 304.699 345.92 304.939 345.92V442.38L274.749 372.5C283.109 355.56 293.829 345.87 304.199 345.87V345.88ZM259.489 447.04H304.439L272.849 523.93C264.849 505.75 259.449 480.41 259.449 450.28C259.449 449.19 259.449 448.12 259.489 447.05V447.04ZM273.699 525.86L304.939 449.8V554.64C304.689 554.64 304.439 554.68 304.199 554.68C293.379 554.68 282.189 544.16 273.699 525.85V525.86ZM306.479 554.52V449.759L337.019 520.46C328.869 540.7 317.589 553.03 306.479 554.52ZM337.809 518.45L306.959 447.04H348.909C348.909 448.12 348.949 449.19 348.949 450.27C348.949 477.47 344.569 500.79 337.809 518.44V518.45ZM85.1789 544.03C86.6389 545.51 88.3889 546.58 90.3089 547.19C87.8789 550.43 85.3089 553.26 82.6289 555.68V560.22C82.6289 563.66 79.8489 566.43 76.4189 566.43C74.0589 566.43 72.0389 565.1 70.9789 563.17C67.4589 564.59 63.7889 565.34 60.0489 565.34C28.9689 565.34 4.62891 514.799 4.62891 450.259C4.62891 385.719 28.9689 335.18 60.0489 335.18C60.1889 335.18 60.3589 335.2 60.4989 335.2C59.1989 338.49 58.3589 342.1 58.0389 345.97C49.0589 347.03 39.9589 355.2 32.4589 368.89L64.0089 442.17C64.1789 442.56 64.0089 443 63.6089 443.17C63.4989 443.21 63.4189 443.22 63.3089 443.22C63.0089 443.22 62.7389 443.049 62.6089 442.759L31.5389 370.58C22.4489 388.18 15.9189 414.18 15.3489 445.74H61.5589C61.9789 445.74 62.3289 446.079 62.3289 446.509C62.3289 446.939 61.9889 447.28 61.5589 447.28H15.3289C15.3089 448.27 15.2889 449.26 15.2889 450.27C15.2889 485.67 22.7189 514.49 33.1189 532.81L62.3489 449.54C62.4889 449.14 62.9189 448.93 63.3189 449.07C63.7289 449.21 63.9289 449.64 63.7889 450.04L34.1289 534.53C41.8489 547.44 51.0789 554.67 60.0489 554.67C61.6389 554.67 63.2289 554.43 64.8189 553.98V452.06C64.8189 451.64 65.1589 451.29 65.5889 451.29C66.0189 451.29 66.3489 451.63 66.3489 452.06V553.5C67.6489 553.01 68.9389 552.41 70.2189 551.65V517.25C70.2189 513.81 72.9989 511.04 76.4289 511.04C79.8589 511.04 82.6389 513.82 82.6389 517.25V540.18C83.2189 541.58 84.0689 542.87 85.1689 543.99L85.1789 544.03ZM92.5989 521.1C94.1389 517.32 95.5689 513.23 96.8789 508.9L92.8189 499.17C92.6589 498.78 92.8489 498.34 93.2389 498.17C93.6289 498.01 94.0789 498.2 94.2389 498.59L97.5589 506.59C101.919 491.28 104.639 472.87 104.789 452.12H107.789C110.349 456.33 112.799 460.35 115.069 464.03C113.829 486.47 109.599 506.73 103.209 523.15C100.569 524.47 98.1189 525.7 96.2089 526.64C94.0189 527.73 92.8189 529.21 92.3789 530.71L92.5889 521.09L92.5989 521.1ZM96.8989 536.88C96.8589 536.94 96.8389 537.01 96.7889 537.08H94.0689C93.4289 537.08 93.0089 536.74 92.8189 536.55C92.6289 536.36 92.3089 535.94 92.3189 535.29L92.3589 533.05C92.8289 534.87 94.4589 536.39 96.9089 536.88H96.8989ZM230.789 517.27V560.23C230.789 563.66 228.009 566.44 224.579 566.44C221.149 566.44 218.369 563.66 218.369 560.23V517.27C218.369 513.83 221.149 511.05 224.579 511.05C228.009 511.05 230.789 513.83 230.789 517.27ZM25.8289 56.6599L27.5989 53.1296C27.5989 53.1296 29.8589 54.1399 31.6189 55.3899C33.3889 56.6499 35.1489 58.9199 35.6489 57.1599C35.7989 56.6299 36.0789 54.7296 36.4089 52.3396L47.7489 52.2595C47.8289 53.2695 48.0289 54.2499 48.4089 55.1799C49.6489 58.2399 51.8289 60.4996 54.5889 61.5896C55.7889 62.0596 57.0689 62.2995 58.3989 62.2995C60.2089 62.2995 62.0889 61.8695 63.9189 61.0095C67.1789 59.4695 69.1289 54.5596 68.5189 49.8396C68.6089 49.8196 68.7089 49.8195 68.7889 49.7595C68.8289 49.7195 69.8189 49.1199 71.0289 49.3699L71.4589 50.1897C71.5089 50.2997 72.7589 53.0396 74.5289 55.8196C74.8589 56.3496 74.7989 56.7097 74.7189 56.9397C74.3289 58.0597 72.3189 58.9897 71.6389 59.2297C71.2289 59.3697 71.0289 59.7999 71.1689 60.1999C71.2789 60.5099 71.5689 60.7199 71.8889 60.7199C71.9689 60.7199 72.0689 60.6997 72.1489 60.6697C72.4189 60.5797 74.4489 59.8097 75.5689 58.4397C76.5289 58.7097 77.4489 58.8396 78.3389 58.8396C82.9789 58.8396 86.5689 55.4795 87.9589 51.5295C89.0489 48.4395 88.6189 43.1999 86.0189 40.1399C84.6989 38.5999 82.9889 37.7599 80.9589 37.6799C82.3989 37.3199 83.4789 36.7896 83.4489 36.1496C83.3789 34.2596 72.9589 33.8299 73.5589 37.1799C73.7089 37.9799 75.5289 38.2496 77.5689 38.1496C72.5089 39.7196 71.2589 44.1495 70.9489 46.5095C70.7589 46.4495 70.5589 46.4598 70.3789 46.5598C70.0089 46.7498 69.8689 47.2096 70.0589 47.5896L70.1689 47.7898C69.2789 47.8398 68.5689 48.1298 68.1989 48.3298C67.6189 46.0598 65.7789 41.8099 60.1889 40.6199C60.8189 40.2099 61.2289 39.7495 61.2589 39.2595C61.5189 36.2595 46.7689 37.4097 47.3089 41.4997C47.4289 42.4397 49.1489 42.7998 51.3389 42.7698C50.7689 43.3198 50.2489 43.9496 49.7689 44.6496C48.5189 46.5296 47.8289 48.6698 47.6989 50.7698L36.5689 50.8498C37.2889 45.3398 38.1289 38.3196 38.1289 38.3196C55.0089 38.7596 70.6089 12.5896 70.6089 12.5896C70.6089 12.5896 74.6389 15.3599 78.9189 22.9099C83.2089 30.4699 84.7189 37.7698 84.7189 37.7698C84.7189 37.7698 87.2389 18.6396 82.9489 12.8596C78.6689 7.0696 70.1089 7.31956 70.1089 7.31956C64.8289 -1.24044 46.9589 -2.75044 33.6189 6.81956C20.2789 16.3896 13.4789 32.9898 16.4989 40.5398C19.5289 48.0798 25.8189 56.6399 25.8189 56.6399L25.8289 56.6599ZM79.3189 39.2898C81.6389 38.8798 83.4989 39.4998 84.8589 41.0998C86.9989 43.6298 87.4589 48.3497 86.5189 50.9997C85.1189 54.9697 81.1589 58.2298 76.2289 57.0198C76.3489 56.3498 76.2289 55.6497 75.7989 54.9997C74.0889 52.3097 72.8489 49.5798 72.8089 49.5198L72.3889 48.7199C72.3889 48.5999 72.3489 48.4699 72.2789 48.3699C72.3489 48.2499 72.3889 48.0999 72.3889 47.9499C72.3889 47.6399 72.1289 40.5395 79.3189 39.2995V39.2898ZM51.0589 45.4797C51.9689 44.1297 53.0689 43.1197 54.2689 42.4997C55.3289 42.3397 56.3689 42.1098 57.3489 41.8298C62.4089 41.9098 65.7989 44.4899 66.8189 48.9499C67.8089 53.2799 66.1489 58.2498 63.2589 59.5998C60.4189 60.9298 57.6189 61.1196 55.1389 60.1496C52.7789 59.2196 50.8989 57.2496 49.8189 54.5896C49.4789 53.7196 49.2889 52.8096 49.2489 51.8596C49.3189 51.7496 49.3689 51.6097 49.3689 51.4597C49.3689 51.2997 49.3189 51.1798 49.2389 51.0398C49.3089 49.1698 49.9289 47.1999 51.0789 45.4699L51.0589 45.4797ZM76.9189 48.8596C76.9189 47.8896 77.7089 47.0896 78.6789 47.0896C79.6489 47.0896 80.4389 47.8896 80.4389 48.8596C80.4389 49.8296 79.6489 50.6199 78.6789 50.6199C77.7089 50.6199 76.9189 49.8296 76.9189 48.8596ZM57.5389 51.8796C57.5389 50.9096 58.3389 50.1096 59.3089 50.1096C60.2789 50.1096 61.0689 50.9096 61.0689 51.8796C61.0689 52.8496 60.2789 53.6399 59.3089 53.6399C58.3389 53.6399 57.5389 52.8496 57.5389 51.8796ZM70.5089 67.6496C66.6689 67.6496 63.6689 65.3297 63.4989 65.1897C63.1589 64.9197 63.1089 64.4399 63.3689 64.1199C63.6389 63.7899 64.1189 63.7297 64.4489 63.9997C64.6489 64.1597 69.5289 67.9198 74.4189 65.0798C74.7789 64.8698 75.2489 64.9798 75.4589 65.3498C75.6689 65.7098 75.5489 66.1799 75.1889 66.3899C73.5689 67.2999 71.9789 67.6399 70.5089 67.6399V67.6496ZM55.1489 86.8596C55.1489 86.8596 73.1489 91.2696 80.1889 81.3196L80.6889 83.3298L78.8089 90.74C77.5189 92.22 76.0289 93.3299 74.4089 93.6599C66.3489 95.2899 58.4189 91.1396 55.1489 86.8596ZM178.859 94.5398C177.819 94.5398 176.979 93.6896 176.979 92.6496C176.979 91.6096 177.819 90.7698 178.859 90.7698C179.899 90.7698 180.749 91.6096 180.749 92.6496C180.749 93.6896 179.899 94.5398 178.859 94.5398ZM154.319 93.6599C154.319 92.6199 155.169 91.7795 156.209 91.7795C157.249 91.7795 158.089 92.6199 158.089 93.6599C158.089 94.6999 157.249 95.5495 156.209 95.5495C155.169 95.5495 154.319 94.6999 154.319 93.6599ZM152.419 100.86C152.399 100.44 152.729 100.08 153.139 100.06C153.349 100.06 158.579 99.7495 160.399 95.0095C160.539 94.6195 160.979 94.4198 161.379 94.5798C161.769 94.7298 161.969 95.1698 161.809 95.5598C159.639 101.25 153.469 101.58 153.199 101.6H153.169C152.759 101.6 152.439 101.27 152.409 100.87L152.419 100.86ZM181.829 101.09C176.439 100.68 173.529 95.2498 173.409 95.0198C173.219 94.6498 173.359 94.19 173.729 93.99C174.109 93.8 174.559 93.9498 174.759 94.3098C174.789 94.3498 177.409 99.2298 181.949 99.5598C182.369 99.5998 182.669 99.9699 182.649 100.37C182.609 100.78 182.279 101.09 181.889 101.09H181.839H181.829ZM174.409 111.8C174.599 111.43 175.069 111.28 175.439 111.49C175.809 111.68 175.939 112.15 175.749 112.52C173.389 116.89 168.779 117.69 165.759 117.69C164.139 117.69 162.979 117.47 162.849 117.44C162.429 117.36 162.169 116.96 162.249 116.55C162.329 116.14 162.739 115.88 163.139 115.96C163.219 115.96 171.319 117.52 174.409 111.81V111.8ZM178.179 110.15C174.239 109.88 168.949 106.27 168.739 106.11C168.399 105.87 168.299 105.4 168.549 105.05C168.789 104.71 169.259 104.61 169.609 104.86C169.649 104.9 174.769 108.4 178.289 108.62C178.709 108.64 179.009 109.01 178.999 109.43C178.969 109.83 178.629 110.14 178.239 110.14C178.219 110.14 178.199 110.14 178.189 110.14L178.179 110.15ZM160.829 106.43C160.159 105.8 159.549 105.02 159.279 104.09C158.989 103.05 159.179 102.03 159.839 101.03C162.079 97.6895 165.199 92.55 165.229 92.49C165.449 92.14 165.919 92.02 166.279 92.24C166.629 92.45 166.749 92.9198 166.539 93.2898C166.499 93.3398 163.359 98.4999 161.109 101.87C160.689 102.49 160.579 103.07 160.739 103.68C161.149 105.12 163.099 106.33 163.819 106.68C164.199 106.87 164.359 107.32 164.169 107.7C164.049 107.97 163.769 108.13 163.479 108.13C163.369 108.13 163.269 108.11 163.149 108.07C163.109 108.04 162.609 107.8 161.999 107.39C161.979 107.42 161.959 107.43 161.949 107.46C161.909 107.48 158.979 109.94 156.939 113.08C156.789 113.31 156.549 113.42 156.289 113.42C156.159 113.42 156.009 113.37 155.869 113.29C155.519 113.06 155.429 112.59 155.659 112.24C157.579 109.32 160.119 107.03 160.809 106.42L160.829 106.43ZM161.889 153.18C161.889 153.18 161.779 153.18 161.739 153.18C161.389 153.18 161.069 152.93 160.999 152.56C160.919 152.15 161.189 151.75 161.589 151.67C163.129 151.36 165.959 149.76 166.789 145.72C167.159 143.93 167.419 142.59 167.589 141.64L168.019 137.41C163.039 136.65 157.269 133.74 156.989 133.59C156.609 133.4 156.459 132.94 156.649 132.56C156.839 132.18 157.299 132.03 157.679 132.22C157.759 132.26 165.469 136.2 170.409 136.05C170.539 136.05 170.659 136.09 170.759 136.13C171.629 136.17 172.709 136.22 174.069 136.3C178.219 136.56 179.489 137.93 175.839 139.7C173.469 140.84 170.629 142.03 168.929 142.73C168.759 143.6 168.549 144.67 168.279 146.02C167.279 150.85 163.789 152.78 161.879 153.17L161.889 153.18ZM143.809 96.4299C143.539 96.0999 143.559 95.6298 143.879 95.3498C144.189 95.0698 144.679 95.0897 144.959 95.4197L146.969 97.6799C147.249 97.9899 147.229 98.4695 146.919 98.7595C146.649 99.0095 145.949 99.8499 146.019 100.64C146.059 101.16 146.419 101.64 147.079 102.09C147.429 102.31 147.529 102.8 147.279 103.14C147.139 103.35 146.889 103.48 146.649 103.48C146.499 103.48 146.369 103.43 146.229 103.35C145.159 102.63 144.559 101.76 144.489 100.74C144.409 99.68 144.949 98.7499 145.379 98.1799L143.819 96.4197L143.809 96.4299ZM203.189 103.95C202.919 103.62 202.979 103.15 203.299 102.88C205.309 101.25 203.949 99.2295 203.789 99.0095C203.669 98.8395 203.609 98.6197 203.669 98.4197C203.709 98.2097 203.829 98.0297 204.009 97.9197L207.789 95.5198C208.139 95.2898 208.609 95.3995 208.839 95.7595C209.069 96.1095 208.949 96.5798 208.599 96.8098L205.439 98.8196C206.089 100.17 206.379 102.36 204.259 104.07C204.119 104.18 203.949 104.25 203.769 104.25C203.549 104.25 203.329 104.15 203.179 103.96L203.189 103.95ZM158.019 54.5696C157.849 54.1796 158.039 53.7298 158.409 53.5598C158.799 53.3898 159.249 53.5599 159.419 53.9499C159.559 54.2599 162.859 61.4497 171.829 60.1697C180.859 58.8797 182.579 52.1096 182.649 51.8196C182.749 51.4096 183.149 51.1595 183.559 51.2595C183.979 51.3495 184.219 51.7597 184.129 52.1697C184.129 52.2297 183.189 55.9297 179.449 58.7497C183.159 59.2997 191.989 61.3195 200.499 68.5295C200.819 68.7995 200.849 69.2798 200.589 69.5998C200.439 69.7798 200.219 69.8699 200.009 69.8699C199.829 69.8699 199.659 69.8199 199.519 69.6799C189.039 60.7799 177.689 60.0595 177.579 60.0495C177.519 60.0495 177.469 60.0295 177.419 60.0095C175.949 60.7595 174.189 61.3699 172.059 61.6799C171.259 61.7899 170.499 61.8596 169.779 61.8596C161.329 61.8596 158.069 54.6598 158.029 54.5798L158.019 54.5696ZM204.029 140.759C204.029 140.759 201.229 145.21 200.259 156.52C200.219 156.92 199.889 157.22 199.499 157.22H199.429C199.009 157.18 198.709 156.82 198.729 156.4C199.739 144.64 202.639 140.12 202.759 139.94C202.989 139.59 203.479 139.49 203.809 139.72C204.149 139.94 204.259 140.409 204.029 140.759ZM209.709 142.89C209.669 142.94 205.779 149.26 205.039 157.4C204.999 157.8 204.669 158.1 204.279 158.1H204.219C203.799 158.06 203.489 157.68 203.529 157.27C204.299 148.76 208.259 142.35 208.429 142.09C208.659 141.74 209.129 141.63 209.479 141.85C209.819 142.07 209.929 142.54 209.709 142.89ZM216.029 143.99C216.369 144.23 216.479 144.7 216.229 145.04C216.189 145.11 211.629 151.93 210.179 158.25C210.099 158.6 209.789 158.84 209.439 158.84C209.389 158.84 209.329 158.84 209.269 158.81C208.849 158.72 208.609 158.31 208.699 157.9C210.219 151.3 214.789 144.46 214.969 144.18C215.219 143.85 215.689 143.76 216.029 143.99ZM218.109 154.24C217.799 153.96 217.779 153.48 218.069 153.17L219.829 151.28C220.119 150.97 220.609 150.96 220.909 151.24C221.219 151.52 221.229 152.01 220.949 152.32L219.179 154.2C219.039 154.37 218.829 154.45 218.619 154.45C218.429 154.45 218.239 154.38 218.109 154.24ZM155.059 168.17C153.529 176.35 146.729 183.72 146.429 184.03C146.279 184.19 146.079 184.27 145.859 184.27C145.679 184.27 145.489 184.2 145.349 184.07C145.039 183.78 145.029 183.3 145.309 182.99C145.379 182.92 152.099 175.63 153.559 167.89C153.639 167.47 154.039 167.2 154.449 167.28C154.859 167.36 155.129 167.77 155.049 168.17H155.059ZM152.349 184.62C152.019 184.37 151.949 183.89 152.199 183.56C155.469 179.19 158.209 168.34 158.239 168.23C158.349 167.81 158.749 167.57 159.169 167.67C159.589 167.77 159.819 168.19 159.719 168.6C159.609 169.06 156.869 179.88 153.429 184.47C153.279 184.66 153.049 184.78 152.819 184.78C152.649 184.78 152.489 184.73 152.349 184.62ZM157.459 182.59C161.199 176.91 161.989 169.29 161.989 169.22C162.029 168.8 162.399 168.5 162.819 168.54C163.239 168.58 163.539 168.95 163.509 169.37C163.469 169.69 162.699 177.43 158.729 183.44C158.579 183.65 158.339 183.78 158.079 183.78C157.929 183.78 157.799 183.74 157.659 183.66C157.319 183.42 157.229 182.95 157.459 182.6V182.59ZM104.499 146.23C103.249 144.44 103.709 142.9 104.479 142.09C105.379 141.15 106.789 140.99 107.899 141.72C109.689 142.86 110.719 143.77 110.759 143.8C111.079 144.07 111.099 144.56 110.829 144.88C110.549 145.2 110.069 145.22 109.749 144.95C109.749 144.95 108.749 144.089 107.069 143.009C106.499 142.639 105.899 142.82 105.569 143.17C105.079 143.68 105.129 144.5 105.719 145.34C107.469 147.83 108.499 149.31 111.669 150.6C113.229 151.23 114.569 151.29 115.449 150.74C116.439 150.12 116.729 148.83 116.789 147.87C117.039 144.34 116.179 138.65 116.179 138.6C116.109 138.18 116.389 137.8 116.819 137.73C117.239 137.66 117.619 137.94 117.689 138.37C117.729 138.61 118.579 144.28 118.339 147.97C118.229 149.52 117.769 150.52 117.219 151.2C118.779 151.34 121.209 151.34 122.349 150.39C122.779 150.02 122.999 149.56 122.999 148.92C122.999 144.72 122.509 138.6 122.499 138.54C122.459 138.12 122.769 137.75 123.199 137.72C123.609 137.7 123.989 137.99 124.019 138.42C124.019 138.48 124.519 144.67 124.519 148.93C124.519 149.49 124.399 150.01 124.179 150.48C125.299 150.59 127.399 150.44 128.319 147.8C129.759 143.71 129.419 137.84 129.409 137.79C129.379 137.37 129.699 137.01 130.119 136.98C130.539 136.95 130.899 137.27 130.929 137.69C130.929 137.95 131.289 143.94 129.749 148.31C128.719 151.24 126.429 152.03 124.629 152.03C124.009 152.03 123.459 151.93 123.029 151.81C122.999 151.81 122.989 151.78 122.969 151.78C121.779 152.58 120.109 152.82 118.679 152.82C117.249 152.82 116.169 152.63 115.929 152.59C115.769 152.57 115.639 152.48 115.539 152.38C115.049 152.55 114.539 152.67 113.979 152.67C113.109 152.67 112.139 152.47 111.119 152.04C107.519 150.56 106.259 148.74 104.499 146.25V146.23ZM41.8889 140.45L50.5789 163.22C50.7289 163.61 50.5389 164.05 50.1489 164.2C50.0489 164.24 49.9589 164.24 49.8689 164.24C49.5589 164.24 49.2789 164.06 49.1589 163.75L40.4689 140.98C40.3289 140.59 40.5189 140.14 40.9089 139.99C41.3089 139.85 41.7389 140.04 41.8889 140.44V140.45ZM20.0389 180.5L25.1989 188.81C25.1989 188.81 24.7389 188.81 24.0589 188.81C21.4689 188.54 18.4689 187.6 16.3489 185.58C16.6889 183.33 20.0389 180.5 20.0389 180.5ZM120.939 112.16C120.739 111.79 120.859 111.32 121.219 111.12C121.589 110.92 122.059 111.04 122.259 111.4L135.599 134.68C135.799 135.05 135.679 135.52 135.319 135.72C135.209 135.79 135.059 135.83 134.939 135.83C134.669 135.83 134.409 135.69 134.279 135.45L120.939 112.16ZM222.279 217.17C222.039 216.83 222.119 216.35 222.469 216.1C222.809 215.86 223.289 215.94 223.529 216.29L245.849 247.62C246.099 247.96 246.019 248.45 245.669 248.69C245.529 248.78 245.379 248.82 245.219 248.82C244.979 248.82 244.749 248.71 244.599 248.5L222.279 217.17ZM278.309 228.83L276.749 225.29C276.749 225.29 283.709 221.34 284.469 221.6C283.839 223.28 281.509 225.87 278.299 228.83H278.309ZM76.9189 257.34L97.0589 249.78L95.7189 259.17L77.4289 262.37L76.9189 257.33V257.34ZM100.229 231.84C97.5489 230.6 95.6089 229.58 94.9989 228.97C96.2689 228.52 100.589 230.33 100.589 230.33L100.239 231.84H100.229ZM239.769 316.65C239.769 316.65 245.679 318.77 248.169 320.64C246.159 323.21 240.669 323.59 240.669 323.59L239.779 316.64L239.769 316.65ZM125.999 296.77C125.889 297.64 125.669 298.3 125.489 298.78C125.609 298.93 125.689 299.13 125.679 299.35C125.639 299.75 125.309 300.05 124.919 300.05H124.849C122.909 299.87 122.229 298.43 122.149 297.69L122.979 287.8C123.019 287.38 123.369 287.06 123.809 287.1C124.229 287.14 124.529 287.5 124.509 287.92L123.679 297.46C124.639 297.04 125.999 296.759 125.999 296.759V296.77ZM199.109 316.92C199.179 317.34 198.899 317.72 198.469 317.79C192.839 318.65 184.629 322 184.549 322.02C184.459 322.06 184.359 322.08 184.269 322.08C183.969 322.08 183.689 321.89 183.549 321.61C183.389 321.22 183.579 320.77 183.969 320.61C184.309 320.48 192.429 317.16 198.239 316.29C198.649 316.23 199.049 316.5 199.109 316.92ZM179.159 318.06C179.009 317.67 179.199 317.23 179.589 317.08C179.959 316.95 188.519 313.65 193.689 312.64C194.099 312.56 194.499 312.83 194.579 313.24C194.659 313.66 194.389 314.05 193.979 314.13C188.939 315.12 180.219 318.47 180.139 318.5C180.049 318.54 179.959 318.54 179.869 318.54C179.559 318.54 179.279 318.35 179.159 318.05V318.06ZM179.819 312.56C180.089 312.45 186.629 309.74 190.809 309.11C191.229 309.05 191.609 309.34 191.679 309.75C191.749 310.17 191.449 310.55 191.029 310.62C187.019 311.22 180.449 313.93 180.389 313.97C180.299 314.01 180.199 314.03 180.109 314.03C179.809 314.03 179.529 313.85 179.389 313.56C179.229 313.15 179.419 312.71 179.809 312.55L179.819 312.56ZM256.479 266.84C256.269 266.47 256.389 266 256.749 265.8L262.919 262.15C263.269 261.93 263.739 262.05 263.959 262.41C264.179 262.78 264.049 263.25 263.689 263.45L257.519 267.1C257.399 267.17 257.269 267.21 257.129 267.21C256.859 267.21 256.619 267.09 256.479 266.85V266.84ZM111.559 232.9C111.949 233.06 112.139 233.49 111.979 233.9L100.529 262.59C100.419 262.89 100.129 263.07 99.8189 263.07C99.7189 263.07 99.6289 263.07 99.5289 263.02C99.1389 262.86 98.9489 262.42 99.1089 262.02L110.559 233.33C110.729 232.94 111.169 232.75 111.559 232.91V232.9ZM176.259 361.2C176.259 361.2 184.309 368.11 195.469 370.77H179.109L176.259 361.2ZM244.209 370.86H217.539C217.119 370.86 216.769 370.52 216.769 370.09C216.769 369.66 217.109 369.32 217.539 369.32H244.209C255.989 369.32 271.159 343.31 278.459 330.81C279.719 328.63 280.729 326.91 281.489 325.71C281.719 325.36 282.189 325.25 282.539 325.47C282.889 325.69 282.999 326.16 282.779 326.52C282.039 327.69 281.039 329.4 279.769 331.57C272.349 344.34 256.859 370.85 244.219 370.85L244.209 370.86ZM66.3489 390.14C66.7689 390.14 67.1189 390.48 67.1189 390.91V441.44C67.1189 441.86 66.7789 442.21 66.3489 442.21C65.9189 442.21 65.5889 441.87 65.5889 441.44V390.91C65.5889 390.49 65.9289 390.14 66.3489 390.14ZM69.1889 452.9C69.0089 452.52 69.1689 452.06 69.5489 451.88C69.9189 451.69 70.3789 451.84 70.5689 452.23L82.9089 477.41C83.0889 477.78 82.9289 478.24 82.5589 478.43C82.4489 478.48 82.3389 478.509 82.2189 478.509C81.9389 478.509 81.6689 478.35 81.5289 478.09L69.1889 452.9ZM84.1389 415.17L70.7989 441.09C70.6589 441.35 70.3889 441.5 70.1189 441.5C70.0089 441.5 69.8789 441.48 69.7789 441.42C69.3989 441.23 69.2489 440.77 69.4389 440.39L82.7789 414.47C82.9689 414.09 83.4289 413.94 83.8089 414.13C84.1889 414.32 84.3289 414.78 84.1389 415.16V415.17ZM243.539 396.67L242.879 399.93L242.799 400.21L233.409 392.99L233.929 390.39H253.239V399.59L243.549 396.66L243.539 396.67ZM234.969 442.67L233.209 450.47C233.129 450.83 232.819 451.07 232.469 451.07C232.409 451.07 232.359 451.05 232.289 451.04C231.879 450.95 231.629 450.54 231.719 450.13L233.479 442.32C233.569 441.91 233.969 441.65 234.399 441.75C234.799 441.85 235.059 442.25 234.969 442.66V442.67ZM94.5389 451.32C94.1189 451.32 93.7689 450.98 93.7689 450.55V442.5C93.7689 442.08 94.1089 441.73 94.5389 441.73C94.9689 441.73 95.2989 442.07 95.2989 442.5V450.55C95.2989 450.97 94.9589 451.32 94.5389 451.32ZM177.799 537.09L188.709 547.76H111.249L98.5889 537.09H137.689C137.689 537.09 137.629 537.05 137.619 537.01C137.579 536.93 134.569 529.24 142.049 525.95C148.059 523.31 159.599 516.939 164.719 509.759C164.759 509.689 169.759 500.83 167.459 492.63C165.719 486.4 164.549 484.52 162.429 481.11C161.729 479.98 160.929 478.7 159.979 477.04C155.439 469.13 118.259 404 105.269 379.7C97.3289 364.84 98.2689 353.43 100.449 346.5C102.769 339.15 107.639 333.14 113.809 330C122.559 325.56 134.829 319.85 142.939 316.07C145.609 314.83 147.839 313.78 149.409 313.04C155.089 310.34 154.539 306.98 154.519 306.83C154.439 306.41 154.709 306.02 155.129 305.94C155.549 305.86 155.929 306.13 156.019 306.52C156.059 306.71 156.899 311.17 150.049 314.41C148.489 315.16 146.239 316.2 143.569 317.44C135.469 321.22 123.219 326.93 114.489 331.35C108.669 334.3 104.089 339.98 101.899 346.95C99.8089 353.6 98.9089 364.57 106.599 378.97C119.569 403.25 156.739 468.36 161.289 476.27C162.229 477.9 163.009 479.18 163.709 480.3C165.899 483.84 167.109 485.78 168.909 492.22C171.429 501.23 165.999 510.58 165.949 510.66C160.979 517.62 150.299 524 142.649 527.35C136.529 530.03 138.909 536.18 139.019 536.44C139.109 536.67 139.079 536.9 138.969 537.09H177.789H177.799Z" fill="#2A306E"/>
</svg>
