<svg width="1920" height="1344" viewBox="0 0 1920 1344" fill="none" xmlns="http://www.w3.org/2000/svg">
<g clip-path="url(#clip0_542_5303)">
<g opacity="0.3">
<path d="M1703.94 -306.141C1683.2 -306.141 1663.17 -303.161 1644.18 -297.701L1487.02 -494.311C1362.36 -650.201 1184.5 -748.211 986.158 -770.321C787.988 -792.381 592.778 -735.951 436.858 -611.351C280.988 -486.731 182.948 -308.861 160.838 -110.531C138.788 87.8291 195.238 282.899 319.838 438.769L753.898 981.729C744.018 1006.49 738.528 1033.48 738.528 1061.76C738.528 1181.09 835.258 1277.83 954.598 1277.83C1073.94 1277.83 1170.67 1181.09 1170.67 1061.76C1170.67 942.429 1073.93 845.689 954.598 845.689C925.928 845.689 898.588 851.329 873.558 861.459L451.528 333.529C355.018 212.799 311.298 61.7291 328.348 -91.8609C345.468 -245.481 421.398 -383.221 542.098 -479.721C662.798 -576.231 813.458 -619.961 967.518 -602.841C1121.08 -585.721 1258.85 -509.791 1355.35 -389.091L1513.21 -191.621C1497.06 -161.351 1487.88 -126.791 1487.88 -90.0909C1487.88 29.2391 1584.62 125.979 1703.95 125.979C1823.28 125.979 1920.01 29.2391 1920.01 -90.0909C1920.01 -209.421 1823.28 -306.161 1703.95 -306.161" fill="#BAE0E6"/>
<path d="M1166.11 215.849C1175.99 191.089 1181.49 164.099 1181.49 135.809C1181.49 16.4793 1084.75 -80.2607 965.42 -80.2607C846.09 -80.2607 749.35 16.4793 749.35 135.809C749.35 255.139 846.09 351.879 965.42 351.879C994.08 351.879 1021.42 346.249 1046.45 336.109L1468.53 864.029C1667.74 1113.25 1627.09 1478.07 1377.89 1677.28C1257.13 1773.76 1106.32 1817.26 952.48 1800.4C798.91 1783.28 661.2 1707.35 564.7 1586.65L406.81 1389.18C422.96 1358.9 432.14 1324.35 432.14 1287.65C432.14 1168.32 335.41 1071.58 216.07 1071.58C96.73 1071.58 0 1168.31 0 1287.65C0 1406.99 96.74 1503.72 216.07 1503.72C236.81 1503.72 256.84 1500.73 275.83 1495.28L433.02 1691.89C557.62 1847.79 735.49 1945.8 933.82 1967.91C962.02 1971.04 990.11 1972.6 1018.04 1972.6C1186.8 1972.6 1349.37 1915.84 1483.12 1808.94C1804.9 1551.71 1857.4 1080.62 1600.2 758.809L1166.11 215.859V215.849Z" fill="#BAE0E6"/>
</g>
</g>
<defs>
<clipPath id="clip0_542_5303">
<rect width="1920" height="1344" fill="white"/>
</clipPath>
</defs>
</svg>
