<svg width="1517" height="2170" viewBox="0 0 1517 2170" fill="none" xmlns="http://www.w3.org/2000/svg">
<g opacity="0.28">
<path d="M1345.51 370.245C1329.13 370.245 1313.31 372.595 1298.32 376.905L1174.22 221.655C1075.79 98.5549 935.339 21.155 778.719 3.69498C622.239 -13.725 468.089 30.8348 344.969 129.225C221.889 227.625 144.469 368.085 127.009 524.695C109.599 681.335 154.169 835.365 252.559 958.445L595.309 1387.18C587.509 1406.73 583.169 1428.04 583.169 1450.38C583.169 1544.61 659.549 1621.01 753.779 1621.01C848.009 1621.01 924.399 1544.61 924.399 1450.38C924.399 1356.15 848.009 1279.78 753.779 1279.78C731.139 1279.78 709.549 1284.22 689.789 1292.22L356.529 875.345C280.319 780.015 245.789 660.725 259.269 539.435C272.789 418.135 332.749 309.365 428.059 233.165C523.369 156.955 642.339 122.425 763.989 135.945C885.249 149.465 994.039 209.425 1070.24 304.735L1194.89 460.665C1182.14 484.565 1174.89 511.855 1174.89 540.835C1174.89 635.065 1251.28 711.445 1345.5 711.445C1439.72 711.445 1516.11 635.055 1516.11 540.835C1516.11 446.615 1439.73 370.225 1345.5 370.225" fill="#2A306E"/>
<path d="M920.81 782.425C928.61 762.875 932.95 741.565 932.95 719.225C932.95 624.995 856.56 548.615 762.33 548.615C668.1 548.615 591.72 625.005 591.72 719.225C591.72 813.445 668.11 889.835 762.33 889.835C784.96 889.835 806.55 885.385 826.31 877.385L1159.6 1294.26C1316.91 1491.06 1284.8 1779.13 1088.03 1936.44C992.68 2012.62 873.59 2046.98 752.11 2033.66C630.85 2020.14 522.11 1960.18 445.9 1864.87L321.22 1708.94C333.97 1685.03 341.22 1657.75 341.22 1628.77C341.22 1534.54 264.84 1458.16 170.61 1458.16C76.38 1458.16 0 1534.54 0 1628.77C0 1723 76.39 1799.38 170.62 1799.38C187 1799.38 202.82 1797.02 217.81 1792.71L341.94 1947.96C440.33 2071.06 580.78 2148.46 737.39 2165.92C759.66 2168.39 781.84 2169.62 803.89 2169.62C937.15 2169.62 1065.52 2124.81 1171.14 2040.4C1425.23 1837.28 1466.69 1465.28 1263.59 1211.17L920.82 782.425H920.81Z" fill="#2A306E"/>
</g>
</svg>
