<svg width="274" height="115" viewBox="0 0 274 115" fill="none" xmlns="http://www.w3.org/2000/svg">
<path d="M125.659 37.8799C147.999 37.8799 164.289 53.6501 164.289 75.3301V104.9C164.289 109.63 161.139 112.78 156.269 112.78C151.669 112.78 148.519 109.63 148.519 104.9V100.96C142.609 108.32 133.929 112.79 122.769 112.79C101.609 112.79 87.0293 97.0198 87.0293 75.3398C87.0293 53.6598 103.189 37.8901 125.659 37.8901M125.789 100.29C138.929 100.29 148.519 90.2998 148.519 75.3198C148.519 60.3398 138.929 50.3501 125.789 50.3501C112.649 50.3501 103.189 60.2098 103.189 75.3198C103.189 90.4298 112.649 100.29 125.789 100.29Z" fill="#1A1B37"/>
<path d="M273.259 104.891C273.259 109.621 270.239 112.771 265.379 112.771C260.519 112.771 257.499 109.621 257.499 104.891V103.84C251.849 109.36 243.969 112.78 234.899 112.78C217.029 112.78 204.279 101.221 204.279 85.4507V45.6406C204.279 41.0406 207.429 37.8906 212.299 37.8906C216.899 37.8906 220.049 41.1806 220.049 45.6406V82.8306C220.049 92.9506 227.669 100.44 238.579 100.44C249.489 100.44 257.499 92.9507 257.499 82.7007V45.6504C257.499 41.0504 260.649 37.9004 265.519 37.9004C270.119 37.9004 273.269 41.0504 273.269 45.6504V104.911L273.259 104.891Z" fill="#1A1B37"/>
<path d="M184.44 0.970703C178.72 0.970703 175.01 4.56053 175.01 9.79053V104.13C175.01 109.51 178.72 113.101 184.28 113.101C189.84 113.101 193.55 109.51 193.55 104.13V9.79053C193.55 4.56053 189.84 0.970703 184.43 0.970703M184.31 109.9C180.54 109.9 177.49 106.691 177.49 102.741C177.49 98.7907 180.55 95.5806 184.31 95.5806C188.07 95.5806 191.13 98.7907 191.13 102.741C191.13 106.691 188.07 109.9 184.31 109.9Z" fill="#1A1B37"/>
<path d="M40.8499 114.21C33.2999 114.21 26.5898 113.16 20.7198 111.06C14.8498 108.96 9.23989 105.5 3.88989 100.68C2.72989 99.8402 1.86992 98.8199 1.28992 97.6099C0.709917 96.4099 0.419922 95.1702 0.419922 93.9102C0.419922 91.9202 1.14987 90.1401 2.61987 88.5601C4.08987 86.9901 5.91988 86.2002 8.12988 86.2002C9.80988 86.2002 11.3799 86.7802 12.8499 87.9302C16.8299 91.6002 20.9999 94.38 25.3499 96.27C29.6999 98.16 34.8098 99.1001 40.6898 99.1001C44.8798 99.1001 48.7399 98.4201 52.2499 97.0601C55.7599 95.7001 58.5699 93.8598 60.6599 91.5498C62.7599 89.2398 63.8099 86.5698 63.8099 83.5298C63.8099 79.7598 62.7298 76.6399 60.5898 74.1699C58.4398 71.7099 55.3499 69.66 51.3099 68.04C47.2699 66.42 42.4199 65.0301 36.7599 63.8701C31.5199 62.9301 26.8199 61.6199 22.6799 59.9399C18.5399 58.2599 14.9999 56.1398 12.0599 53.5698C9.11994 50.9998 6.86993 47.9301 5.29993 44.3701C3.72993 40.8101 2.93982 36.6599 2.93982 31.9399C2.93982 25.5499 4.61985 20.0402 7.96985 15.4302C11.3198 10.8202 15.8899 7.24998 21.6499 4.72998C27.4199 2.20998 33.9199 0.959961 41.1499 0.959961C47.7599 0.959961 53.9398 1.97979 59.7098 4.02979C65.4798 6.06979 70.1398 8.83004 73.7098 12.29C76.2298 14.49 77.4799 16.8501 77.4799 19.3701C77.4799 21.2601 76.7198 23.0101 75.1998 24.6401C73.6798 26.2701 71.9199 27.0801 69.9299 27.0801C68.4599 27.0801 67.1999 26.6598 66.1599 25.8198C64.4799 24.0398 62.2299 22.44 59.3999 21.02C56.5699 19.6 53.5499 18.42 50.3599 17.48C47.1599 16.54 44.0899 16.0601 41.1599 16.0601C36.4399 16.0601 32.3999 16.7198 29.0499 18.0298C25.6899 19.3398 23.1198 21.1199 21.3398 23.3799C19.5598 25.6399 18.6699 28.2798 18.6699 31.3198C18.6699 34.8898 19.6899 37.8199 21.7399 40.1299C23.7799 42.4399 26.6399 44.3 30.3099 45.71C33.9799 47.13 38.1699 48.4101 42.8899 49.5601C48.6599 50.8201 53.8199 52.2301 58.3799 53.8101C62.9399 55.3801 66.7898 57.4001 69.9398 59.8701C73.0898 62.3301 75.4999 65.3998 77.1799 69.0698C78.8599 72.7398 79.6998 77.3 79.6998 82.75C79.6998 89.04 77.9199 94.5498 74.3499 99.2598C70.7799 103.98 66.0899 107.65 60.2699 110.27C54.4499 112.89 47.9699 114.2 40.8499 114.2V114.21Z" fill="#1A1B37"/>
</svg>
