<svg width="489" height="417" viewBox="0 0 489 417" fill="none" xmlns="http://www.w3.org/2000/svg">
<path d="M488.48 326.78C488.48 376.45 448.01 416.86 398.26 416.86C348.51 416.86 308.05 376.45 308.05 326.78C308.05 287.05 333.94 253.28 369.75 241.33L372.15 249.68C339.97 260.58 316.74 291.01 316.74 326.78C316.74 371.67 353.32 408.19 398.27 408.19C443.22 408.19 479.79 371.67 479.79 326.78C479.79 281.89 443.21 245.38 398.27 245.38C392.18 245.38 386.24 246.07 380.54 247.34L403 325.58C403.66 327.89 402.32 330.29 400.02 330.95C399.62 331.07 399.21 331.12 398.82 331.12C396.93 331.12 395.19 329.87 394.65 327.97L366.98 231.55L250.19 320.82C251.59 323.57 252.52 326.6 252.89 329.81C253.42 330.92 253.96 331.96 254.5 332.75C255.08 333.59 255.64 334.16 256.16 334.28C258.82 334.89 276.67 335.71 280.36 335.92C282.01 336.01 283.63 337.05 284.58 338.31C285.76 339.87 285.97 341.78 284.05 342.69C283.04 343.16 279.85 344.56 275.72 346.32L273.83 347.97C274.1 348.18 274.33 348.45 274.47 348.8L275.76 351.97C276.18 352.99 275.68 354.14 274.66 354.54L254.58 362.66C253.56 363.08 252.41 362.58 252 361.57L250.71 358.41C250.46 357.79 250.55 357.15 250.87 356.62C248.74 357.45 247.12 358.03 246.32 358.26C243.84 358.93 241.55 359.09 239.38 357.35H239.36C239.08 357.12 238.79 356.86 238.51 356.56C234.87 358.42 230.78 359.48 226.42 359.48C225.86 359.48 225.32 359.44 224.77 359.4C224.73 359.63 224.69 359.84 224.67 360.08C224.47 361.85 224.7 363.9 225.6 366.86C227.64 373.62 232.56 386.73 235.03 392.46C235.99 394.69 235.66 396.33 234.75 397.29C234.64 397.41 234.53 397.52 234.4 397.62C234.23 397.75 234.07 397.85 233.87 397.94C233.87 397.94 233.87 397.94 233.85 397.94C232.31 398.69 230.1 398.28 228.66 396.54C227.61 395.27 224.59 391.66 221 387.34C220.9 387.71 220.69 388.06 220.38 388.33L217.78 390.56C216.95 391.26 215.69 391.18 214.98 390.35L200.83 373.96C200.12 373.13 200.21 371.87 201.04 371.17L203.63 368.94C204.32 368.35 205.29 368.31 206.01 368.79C205.37 367.94 204.85 367.21 204.45 366.64C201.83 362.8 199.87 359.76 199.73 356.15C199.71 355.73 199.73 355.29 199.76 354.84C199.87 353.43 200.25 351.93 200.97 350.26L202.9 345.41C202.87 345.35 202.84 345.3 202.82 345.24L179.18 341.7C172.03 384.29 134.88 416.86 90.23 416.86C40.47 416.86 0 376.45 0 326.78C0 277.11 40.47 236.69 90.22 236.69C114.07 236.69 135.78 246 151.92 261.15L185.31 230.13L177.2 191.38L176.26 190.93C172.77 191.24 164.69 191.98 158.04 192.71C149.29 193.67 138.89 175.38 149.15 175.38C157.83 175.38 165.22 175.58 167.29 175.63C157.15 158.89 163.11 142.33 170.2 135.23C177.59 127.86 184.43 122.26 184.43 122.26C184.43 122.26 182.5 113.25 187.98 104.24C188.23 103.82 188.57 103.34 188.93 102.84C188.95 102.81 188.97 102.78 188.99 102.75C189.93 101.46 191.19 99.93 192.7 98.22C192.73 98.18 192.77 98.15 192.8 98.11C194.32 96.4 196.09 94.5 198.02 92.5L198.1 92.42C198.74 91.76 199.39 91.08 200.06 90.4C211.28 78.94 226.47 64.99 231.2 60.27C231.67 59.8 232.15 59.38 232.64 58.98C233.05 58.65 233.47 58.3401 233.9 58.0601C234.1 57.9301 234.3 57.8101 234.49 57.6901C234.74 57.5301 235.01 57.37 235.27 57.22C235.49 57.1 235.7 56.98 235.92 56.87C236.17 56.74 236.44 56.62 236.69 56.5C236.9 56.41 237.12 56.3001 237.34 56.2001C237.61 56.0801 237.9 55.98 238.18 55.87C238.38 55.79 238.57 55.71 238.77 55.64C239.22 55.48 239.67 55.3301 240.12 55.2101C240.32 55.1501 240.53 55.1001 240.73 55.0501C241 54.9701 241.29 54.91 241.57 54.84C241.78 54.79 242 54.7401 242.21 54.7001C242.48 54.6401 242.74 54.5901 242.99 54.5501C243.2 54.5101 243.41 54.4701 243.62 54.4401C243.89 54.3901 244.16 54.3501 244.43 54.3201C244.61 54.2901 244.79 54.27 244.96 54.24C245.38 54.19 245.8 54.14 246.2 54.1C246.32 54.1 246.43 54.0801 246.55 54.0701C246.86 54.0401 247.16 54.02 247.45 54C247.61 53.98 247.76 53.97 247.92 53.97C248.17 53.97 248.4 53.9401 248.63 53.9301C248.77 53.9301 248.91 53.93 249.05 53.91C249.3 53.91 249.54 53.89 249.77 53.88C249.86 53.88 249.97 53.86 250.06 53.86C250.37 53.86 250.66 53.84 250.93 53.84C251.52 53.82 252.03 53.81 252.4 53.77C255.4 53.49 257.45 51.79 257.45 51.79C257.45 51.79 259.54 50.0801 260.33 49.1901C260.23 48.7601 260.19 48.3001 260.25 47.8201C260.66 44.7501 259.9 41.48 259.9 41.48V41.4401C258.22 41.0501 253.17 39.3301 252.94 32.9501C252.75 27.7101 256.69 26.3201 259.16 25.9601C258.82 25.9901 258.02 26.07 257.07 26.47V21.8201H257.04C256.86 11.7901 261.12 4.93008 271.65 2.20008C272.35 2.02008 273.07 1.84997 273.83 1.71997C274.11 1.65997 274.4 1.60005 274.7 1.55005C275 1.50005 275.29 1.46004 275.6 1.41004C276.32 1.30004 277.07 1.20001 277.84 1.13001C289.44 0.0300086 292.57 5.92998 293.4 8.72998V8.75C293.46 8.95 293.51 9.14006 293.55 9.31006V9.33008C293.58 9.50008 293.62 9.64 293.63 9.75V9.78003C293.66 9.90003 293.66 9.98004 293.67 10.04V10.0601C293.67 10.1101 293.67 10.15 293.67 10.15C293.67 10.15 298.94 9.74006 302.35 10.5601C303.92 10.9301 305.18 11.4001 304.96 12.3201C304.86 12.7401 304.49 13.23 303.7 13.86C303.7 13.86 303.68 13.86 303.67 13.88C303.55 13.97 303.42 14.0701 303.29 14.1801C303.26 14.2001 303.23 14.23 303.21 14.25C303.09 14.33 302.97 14.43 302.83 14.51C302.79 14.54 302.74 14.58 302.69 14.61C302.57 14.69 302.44 14.78 302.31 14.86C302.25 14.9 302.17 14.94 302.11 14.98C301.98 15.06 301.85 15.15 301.7 15.23C301.62 15.28 301.55 15.32 301.46 15.37C301.32 15.45 301.18 15.54 301.03 15.62C300.95 15.67 300.84 15.73 300.76 15.78C300.61 15.86 300.45 15.96 300.29 16.03C300.18 16.09 300.08 16.1501 299.97 16.2101C299.81 16.2901 299.63 16.4 299.44 16.5C299.33 16.56 299.22 16.62 299.11 16.66C298.92 16.76 298.71 16.87 298.52 16.97C298.4 17.03 298.29 17.09 298.17 17.15C297.95 17.27 297.71 17.38 297.47 17.5C297.36 17.55 297.26 17.61 297.15 17.66C296.79 17.84 296.43 18.0201 296.06 18.1901C296.08 18.1701 296.1 18.16 296.12 18.16C296.42 21 296.76 25.1301 296.67 28.5701C296.67 28.5701 299.68 29.11 299.54 33.48C299.4 37.86 296.26 39.76 296.26 39.76C296.26 39.76 296.43 40.5701 296.95 43.4401C297.46 46.3101 298.28 47.84 297.26 50.09C296.23 52.34 294.08 52.65 293.46 55.41C292.85 58.17 290.08 61.97 285.56 60.53C281.04 59.11 278.69 61.8701 273.87 60.3301C273.21 60.1301 272.65 59.8601 272.15 59.5801L268.6 64.0801L273.02 68.9601L268.64 76.88L268.82 81.67L269.14 84.8301L269.73 86.42C269.91 86.51 270.04 86.67 270.07 86.88L270.21 87.6901L277.67 107.72L280.94 116.34C281.35 117.41 282.69 117.77 283.57 117.05C290.52 111.42 315.15 91.41 316.09 90.25C317.18 88.88 318.55 87.51 318.69 84.37C318.83 81.23 319.38 71.2701 320.34 67.3101C321.3 63.3501 323.49 64.8501 323.49 67.3101C323.49 69.4601 324.01 74.49 324.14 75.76C324.2 75.7 324.27 75.66 324.34 75.62C324.86 74.35 326.47 70.43 328.27 66.49C330.45 61.71 333.47 57.8901 334.83 58.5701C336.19 59.2501 335.51 60.61 335.51 60.61C335.51 60.61 337.7 59.24 337.16 61.85C337.16 61.85 339.34 61.44 338.93 63.76C338.93 63.76 340.3 63.9001 339.75 66.0801C339.2 68.2601 338.51 69.35 337.97 72.91C337.43 76.46 336.88 83.5601 335.23 88.2001C333.59 92.8401 329.63 96.8 324.71 101.99C319.79 107.18 295.6 132.44 295.6 132.44C295.6 132.44 319.67 145.27 323.08 146.64C326.5 148.01 333.06 148.56 338.52 149.37C343.99 150.19 346.31 154.97 346.45 157.84C346.47 158.21 346.47 158.6 346.45 158.98C352.11 160.28 356.78 164.56 358.43 170.28L373.19 221.71C373.67 222.45 373.9 223.29 373.89 224.12L378.14 238.93C384.62 237.45 391.35 236.64 398.27 236.64C448.04 236.67 488.51 277.08 488.51 326.75L488.48 326.78ZM194.53 231.72L198.71 251.71H203.09L195.27 231.33L194.53 231.72ZM170.57 340.41L89.97 328.33C88.32 328.08 86.95 326.92 86.46 325.33C85.97 323.73 86.43 322 87.65 320.86L145.54 267.06C131 253.61 111.55 245.37 90.21 245.37C45.25 245.37 8.69 281.9 8.69 326.77C8.69 371.64 45.26 408.18 90.21 408.18C130.52 408.18 164.05 378.84 170.57 340.42V340.41ZM171.74 326.78C171.74 306.32 164.13 287.63 151.61 273.3L154.07 271.01L100.18 321.08L171.56 331.78C171.68 330.13 171.74 328.46 171.74 326.78ZM203.85 318.67L187.39 240.05L157.98 267.39C171.95 283.26 180.45 304.03 180.45 326.78C180.45 328.9 180.35 331 180.2 333.08L199.93 336.04C199.8 335 199.73 333.93 199.73 332.86C199.73 327.64 201.24 322.78 203.84 318.67H203.85ZM221.13 303.61C218.36 293.67 216.27 286.09 216.27 286.09L206.42 260.39H200.53L211.14 311.06C213.67 309.29 216.52 307.94 219.58 307.13L221.14 303.6L221.13 303.61ZM241.64 260.35C240.1 260.38 238.52 260.39 236.92 260.39H234.05L236.87 270.08L237.05 269.7C237.05 269.7 239.37 264.87 241.63 260.35H241.64ZM244.85 246.21C243.63 244.88 229.1 229.08 223.8 223.31L230.25 247.37L231.51 251.7H236.9C240.12 251.7 243.19 251.64 246.13 251.53C246.72 249.57 246.06 247.54 244.84 246.2L244.85 246.21ZM253.67 193.99C255.52 196.1 269.05 213.44 279.17 227.37C283.09 232.76 285.27 237.95 286.26 242.74C287.27 242.16 288.27 241.59 289.2 240.96C301.18 232.99 349.15 202.2 357.07 197.12L350.06 172.7C349.35 170.23 347.42 168.35 345.05 167.61C344.63 168.88 343.62 169.53 342.29 169.84C342.19 169.91 342.07 169.96 341.94 169.96C341.91 169.96 341.88 169.94 341.86 169.94C340.5 170.19 338.89 170.15 337.3 170.15H336.22C336.22 170.15 336.2 170.15 336.19 170.18C336.11 170.21 336.02 170.22 335.93 170.22C335.85 170.22 335.76 170.19 335.68 170.14H329.51C327.69 170.14 327.6 167.77 329.51 167.25H321.44C319.04 167.25 317.09 165.31 317.09 162.91C317.09 160.51 319.04 158.57 321.44 158.57H323.2C321.75 157.71 316.82 154.79 316.24 154.44C315.55 154.04 312.68 152.94 309.54 152.4C306.39 151.86 267.56 142.57 263.32 141.21C259.08 139.84 257.3 135.61 254.43 130.42C252.9 127.66 251.95 125.51 251.4 124.12C251.38 124.14 251.36 124.16 251.35 124.19L251.42 124.42C251.42 124.42 251.3 124.45 251.1 124.49C248.49 127.64 242.79 134.51 238.3 139.77C238.27 139.79 238.26 139.82 238.24 139.84C236.06 142.38 234.18 144.56 233.08 145.71C228.98 150.09 221.6 149.81 221.6 149.81C221.6 149.81 221.25 152 223.92 155.89C226.6 159.79 250.59 190.1 253.67 193.99ZM364.38 222.58L359.58 205.83C347.4 213.65 305.13 240.8 294.02 248.18C291.76 249.69 289.32 251.05 286.73 252.26C286.32 255.87 285.3 259.1 283.95 261.78C280.52 268.65 260.81 298.03 255.66 305.68L364.38 222.57V222.58Z" fill="#7B8CC6"/>
<path d="M236.969 141.34C229.129 135.75 196.839 110.78 188.109 104.01C190.019 100.98 194.549 95.99 200.039 90.39L247.959 128.29C244.689 132.21 240.289 137.46 236.959 141.34H236.969ZM242.939 124.29L245.539 124.43L274.199 118.23L272.339 105.87L238.839 111.6L242.929 124.3L242.939 124.29ZM237.199 62.99C237.479 62.58 245.809 58.22 254.289 59.85L250.919 53.84C247.019 53.94 238.779 54.03 232.629 58.98C233.699 60.07 236.969 63.34 237.199 62.99ZM231.319 92.75C233.639 95.62 234.189 97.67 234.189 97.67L270.009 93.7101L268.639 79.92L230.899 83.88L226.049 84.25C226.129 81.44 226.609 78.08 228.029 75.13L221.299 69.6901C218.309 72.5301 214.959 75.72 211.549 79L211.489 79.09L226.389 90.28C226.389 90.28 228.989 89.86 231.319 92.73V92.75ZM225.579 366.85C224.679 363.9 224.449 361.85 224.649 360.07C215.799 356.07 212.019 362.1 210.609 359.69C209.469 357.72 204.519 349.76 202.579 346.63C201.829 348.3 201.269 349.56 200.969 350.26C200.039 352.48 199.669 354.39 199.739 356.15L233.839 397.95C235.369 397.21 236.239 395.31 235.019 392.45C232.549 386.72 227.629 373.61 225.589 366.85H225.579ZM280.339 335.92C276.649 335.72 258.799 334.89 256.139 334.28C255.619 334.16 255.049 333.59 254.489 332.75C254.179 336.93 255.689 344.76 253.279 346.16C251.289 347.33 239.919 350.93 235.749 352.24C236.919 354.75 238.129 356.36 239.359 357.35L284.569 338.32C283.599 337.06 281.989 336.02 280.349 335.93L280.339 335.92Z" fill="#E0B2D3"/>
<path d="M345.209 166.89C344.799 170.3 340.969 170.16 337.279 170.16H329.489C327.449 170.16 327.569 167.16 330.309 167.16C333.049 167.16 335.089 165.66 335.089 163.06C335.089 160.46 332.489 158.83 330.309 158.83H323.599C323.599 158.83 316.899 154.87 316.219 154.46C315.529 154.05 312.659 152.96 309.519 152.42C306.369 151.88 267.539 142.58 263.299 141.23C259.059 139.86 257.279 135.63 254.409 130.44C251.539 125.25 250.719 122.25 250.719 122.25L273.829 117.2L272.459 109.55L277.659 107.77L280.929 116.39C281.339 117.45 282.669 117.81 283.559 117.09C290.499 111.47 315.139 91.4601 316.079 90.3001C317.169 88.9301 318.539 87.5601 318.679 84.4201C318.819 81.2801 319.369 71.31 320.329 67.36C321.289 63.4 323.469 64.9 323.469 67.36C323.469 69.82 324.159 76.1 324.159 76.1C324.159 76.1 326.079 71.3201 328.259 66.5401C330.449 61.7701 333.459 57.94 334.819 58.63C336.189 59.31 335.509 60.6701 335.509 60.6701C335.509 60.6701 337.689 59.3001 337.149 61.9001C337.149 61.9001 339.339 61.4901 338.929 63.8201C338.929 63.8201 340.299 63.9601 339.749 66.1401C339.209 68.3301 338.509 69.42 337.969 72.98C337.429 76.54 336.879 83.6301 335.229 88.2701C333.589 92.9101 329.619 96.8601 324.709 102.05C319.779 107.25 295.589 132.5 295.589 132.5C295.589 132.5 319.659 145.33 323.069 146.7C326.499 148.06 333.049 148.61 338.519 149.43C343.989 150.25 346.309 155.03 346.449 157.9C346.579 160.75 345.619 163.47 345.209 166.89ZM260.429 41.5501C260.429 41.5501 261.119 48.2401 260.429 49.0601C259.749 49.8801 257.429 51.7901 257.429 51.7901L268.569 64.1501L272.599 59.0301C272.599 59.0301 272.459 54.6501 273.969 54.9301C275.469 55.2001 286.139 54.7901 287.779 54.5201C289.429 54.2401 292.019 48.24 292.019 48.24L296.259 39.7701C296.259 39.7701 299.409 37.85 299.539 33.49C299.679 29.11 296.669 28.5701 296.669 28.5701C296.749 25.1401 296.419 21.0101 296.119 18.1701C296.099 18.1701 296.079 18.1901 296.059 18.2001C287.779 15.3401 265.779 19.9001 265.779 19.9001L261.849 20.7701L261.129 25.85C261.129 25.85 252.649 25.3101 252.929 32.9501C253.189 40.5901 260.439 41.5301 260.439 41.5301L260.429 41.5501ZM253.669 193.99C251.819 191.88 241.979 201.43 233.769 208.53C225.569 215.63 221.879 221.23 221.879 221.23C221.879 221.23 243.339 244.57 244.849 246.21C246.349 247.85 247.029 250.59 245.529 252.9C244.029 255.22 237.049 269.69 237.049 269.69L236.869 270.06L234.049 260.37H206.409L216.259 286.07L231.969 280.65L227.069 291.25L254.419 307.5C254.419 307.5 279.989 269.68 283.949 261.76C287.919 253.85 289.279 241.29 279.169 227.35C269.049 213.45 255.509 196.12 253.669 194V193.99ZM223.379 223.83C223.379 223.83 212.919 231.48 211.489 229.84C210.059 228.19 207.249 224.79 207.249 224.79L195.219 231.2L203.089 251.71H231.529L223.389 223.83H223.379Z" fill="#AF7141"/>
<path d="M297.261 50.12C296.231 52.37 294.081 52.6701 293.461 55.4401C292.851 58.2001 290.081 62.0001 285.561 60.5601C281.051 59.1301 278.691 61.89 273.871 60.35C269.051 58.82 269.371 55.03 266.281 54.11C263.211 53.19 259.821 50.9001 260.231 47.8301C260.641 44.7601 259.881 41.48 259.881 41.48L259.291 25.9401C259.291 25.9401 258.261 25.9401 257.041 26.4601V21.64L265.761 19.9C265.761 19.9 263.711 25.02 263.391 26.86C263.081 28.7 263.601 30.03 265.341 34.53C267.081 39.04 267.591 39.85 269.651 40.17C271.691 40.48 282.781 40.78 282.781 40.78C282.781 40.78 286.981 43.24 289.341 40.98L296.241 39.75C296.241 39.75 296.411 40.5601 296.931 43.4301C297.451 46.3201 298.271 47.85 297.241 50.1L297.261 50.12ZM212.241 230.24C213.081 230.83 217.821 227.82 223.811 223.33C222.611 222.03 221.891 221.24 221.891 221.24C221.891 221.24 225.581 215.64 233.781 208.54C241.981 201.44 251.831 191.88 253.681 194C250.611 190.11 226.611 159.8 223.941 155.91C221.271 152.02 221.621 149.83 221.621 149.83L184.421 122.25C184.421 122.25 177.581 127.85 170.201 135.22C162.821 142.6 156.671 160.2 168.561 177.61C170.831 180.93 177.631 190.75 177.631 190.75L187.431 202.18L194.471 231.73L207.371 225.23C209.911 228.01 211.691 229.83 212.251 230.23L212.241 230.24ZM271.171 25.1C271.201 26.03 279.581 25.85 279.301 23.53C279.041 21.21 271.101 22.92 271.171 25.1ZM289.011 23.74C288.641 25.2 294.471 26.67 294.891 25.16C295.311 23.67 289.561 21.62 289.011 23.74ZM280.821 1.02002C279.981 1.05002 279.171 1.07998 278.391 1.09998C278.191 1.11998 278.011 1.12001 277.801 1.14001C275.531 1.35001 273.491 1.72007 271.631 2.20007C270.491 4.06007 267.851 9.06001 265.971 18.14C265.921 18.38 276.161 10.3 293.661 10.15C293.681 10.15 293.021 1.15002 280.831 1.02002H280.821ZM199.731 356.14C199.701 355.29 199.761 354.4 199.941 353.47C199.761 354.4 199.691 355.29 199.731 356.14ZM204.451 366.63C208.341 372.36 225.781 393.06 228.651 396.53C230.081 398.28 232.301 398.68 233.841 397.93L199.741 356.13C199.871 359.76 201.831 362.78 204.461 366.63H204.451ZM234.841 397.17C234.561 397.48 234.221 397.75 233.861 397.93C234.241 397.74 234.561 397.48 234.841 397.17ZM254.461 332.75C252.091 329.27 249.561 321.18 249.561 321.18L242.761 326.56C248.881 316.51 254.431 307.53 254.431 307.53L228.061 291.38L232.961 280.02L216.281 286.09C216.281 286.09 218.571 294.43 221.551 305.09C214.211 321.07 202.881 345.77 200.961 350.27C201.271 349.55 201.831 348.29 202.571 346.63C204.511 349.76 209.461 357.73 210.601 359.69C212.001 362.1 215.801 356.07 224.641 360.08C224.891 357.8 225.851 355.99 227.011 353.34C227.551 352.09 229.711 348.32 232.591 343.46C233.231 345.54 233.781 347.23 234.181 348.42C234.691 349.89 235.211 351.14 235.721 352.24C239.901 350.94 251.251 347.34 253.241 346.18C255.651 344.76 254.151 336.93 254.451 332.75H254.461ZM236.011 352.81C236.191 353.17 236.371 353.51 236.541 353.83C236.361 353.51 236.181 353.17 236.011 352.81ZM236.011 352.81C235.981 352.72 235.931 352.63 235.881 352.54C235.921 352.64 235.961 352.73 236.011 352.81ZM235.731 352.23C235.771 352.34 235.821 352.44 235.881 352.55C235.831 352.44 235.791 352.33 235.731 352.23ZM237.321 355.06C237.121 354.75 236.911 354.44 236.711 354.09C236.911 354.44 237.121 354.76 237.321 355.06ZM237.321 355.06C237.381 355.15 237.441 355.23 237.501 355.31C237.441 355.23 237.381 355.16 237.321 355.06ZM239.351 357.34C241.531 359.08 243.811 358.92 246.301 358.25C250.801 357.02 280.541 344.32 284.041 342.69C285.971 341.78 285.751 339.87 284.571 338.31L239.361 357.34H239.351ZM237.931 355.9C237.781 355.71 237.631 355.52 237.481 355.31C237.631 355.52 237.781 355.72 237.931 355.9ZM238.781 356.84C238.921 356.98 239.071 357.1 239.211 357.22C239.071 357.1 238.921 356.97 238.781 356.84ZM239.341 357.34C239.341 357.34 239.261 357.26 239.211 357.22C239.251 357.26 239.301 357.3 239.341 357.34ZM238.151 356.15C238.291 356.31 238.431 356.47 238.571 356.62C238.431 356.48 238.291 356.31 238.151 356.15Z" fill="#BAE0E6"/>
<path d="M157.962 267.39C171.932 283.26 180.432 304.03 180.432 326.78C180.432 328.9 180.332 331 180.182 333.08L171.562 331.79C171.662 330.13 171.732 328.47 171.732 326.78C171.732 306.32 164.122 287.63 151.602 273.3L157.962 267.39ZM90.2217 408.17C45.2617 408.17 8.70172 371.65 8.70172 326.76C8.70172 281.87 45.2717 245.36 90.2217 245.36C111.562 245.36 131.002 253.6 145.562 267.05L151.932 261.13C135.782 245.98 114.072 236.67 90.2317 236.67C40.4817 236.67 0.0117188 277.09 0.0117188 326.77C0.0117188 376.45 40.4817 416.85 90.2317 416.85C134.882 416.85 172.032 384.28 179.182 341.69L170.582 340.4C164.062 378.82 130.532 408.16 90.2317 408.16L90.2217 408.17ZM398.262 236.69C391.352 236.69 384.612 237.5 378.132 238.98L380.532 247.33C386.252 246.06 392.172 245.36 398.262 245.36C443.222 245.36 479.782 281.89 479.782 326.76C479.782 371.63 443.212 408.17 398.262 408.17C353.312 408.17 316.742 371.65 316.742 326.76C316.742 291 339.982 260.57 372.152 249.67L369.752 241.32C333.942 253.26 308.052 287.04 308.052 326.76C308.052 376.44 348.512 416.85 398.262 416.85C448.012 416.85 488.482 376.44 488.482 326.76C488.482 277.1 448.022 236.69 398.272 236.69H398.262ZM291.032 33.5C291.692 33.5 292.232 32.9701 292.232 32.3001C292.232 31.6301 291.702 31.1 291.032 31.1C290.362 31.1 289.832 31.6301 289.832 32.3001C289.832 32.9701 290.372 33.5 291.032 33.5ZM276.892 33.5C277.552 33.5 278.092 32.9701 278.092 32.3001C278.092 31.6301 277.562 31.1 276.892 31.1C276.222 31.1 275.692 31.6301 275.692 32.3001C275.692 32.9701 276.222 33.5 276.892 33.5ZM275.742 37.9201C275.842 38.1501 276.062 38.28 276.302 38.28C276.392 38.28 276.482 38.26 276.552 38.22C281.332 36.05 281.692 32.4701 281.712 32.3201C281.742 31.9901 281.482 31.69 281.142 31.65C280.822 31.63 280.502 31.8801 280.472 32.2101C280.472 32.3301 280.132 35.25 276.042 37.09C275.722 37.23 275.582 37.6101 275.732 37.9101L275.742 37.9201ZM287.892 31.85C287.542 31.88 287.292 32.16 287.302 32.5C287.302 32.54 287.592 36.8601 292.472 38.1901C292.532 38.2101 292.582 38.2101 292.642 38.2101C292.912 38.2101 293.172 38.03 293.242 37.75C293.322 37.43 293.132 37.08 292.812 37C288.822 35.91 288.552 32.6101 288.542 32.4401C288.512 32.0901 288.222 31.85 287.882 31.85H287.892ZM286.202 27.61C285.882 27.47 285.512 27.6101 285.382 27.9201C285.312 28.0901 283.632 31.96 286.112 35.75C286.772 36.77 287.312 37.53 287.732 38.13C288.792 39.62 288.992 39.94 288.892 40.64C288.842 40.98 289.072 41.29 289.422 41.34C289.452 41.34 289.482 41.34 289.502 41.34C289.812 41.34 290.062 41.1201 290.112 40.8101C290.302 39.5901 289.852 38.94 288.742 37.4C288.332 36.81 287.802 36.0501 287.152 35.0601C285.042 31.8501 286.452 28.5601 286.512 28.4101C286.652 28.1001 286.512 27.73 286.202 27.6V27.61ZM278.432 42.6901C278.272 42.3901 277.902 42.2701 277.592 42.4401C277.282 42.6001 277.162 42.97 277.322 43.28C277.342 43.33 279.242 46.87 283.512 46.87C284.652 46.87 285.982 46.6101 287.482 45.9501C287.802 45.8101 287.952 45.45 287.812 45.14C287.672 44.83 287.302 44.6801 286.992 44.8101C280.992 47.4101 278.532 42.9001 278.432 42.7001V42.6901ZM258.862 36.84C259.092 36.59 259.062 36.19 258.802 35.97C258.342 35.57 258.132 35.18 258.122 34.74C258.102 33.93 258.872 33.2101 258.872 33.2101C259.012 33.0801 259.082 32.9 259.082 32.73C259.032 31.5 258.632 30.58 257.912 29.98C256.892 29.14 255.612 29.33 255.562 29.34C255.222 29.38 254.992 29.7001 255.042 30.0401C255.092 30.3801 255.402 30.6201 255.742 30.5701C255.742 30.5701 256.542 30.4601 257.122 30.9501C257.512 31.2801 257.732 31.8 257.822 32.52C257.472 32.91 256.862 33.73 256.872 34.75C256.872 35.56 257.252 36.28 257.972 36.9C258.092 37 258.242 37.0501 258.382 37.0501C258.552 37.0501 258.732 36.99 258.852 36.85L258.862 36.84ZM283.962 12.26C274.972 13.8 268.402 18.07 265.922 19.88C267.722 19.52 288.162 15.4501 296.072 18.2001C302.412 15.1701 304.722 13.4101 304.972 12.3101C302.432 10.6601 293.172 10.67 283.962 12.25V12.26ZM326.452 83.4C326.532 83.65 326.772 83.8201 327.042 83.8201C327.112 83.8201 327.182 83.8201 327.242 83.7801C327.562 83.6601 327.732 83.32 327.612 82.99L325.152 76.02C325.032 75.7 324.682 75.53 324.362 75.65C324.032 75.77 323.872 76.1201 323.992 76.4401L326.452 83.4101V83.4ZM330.932 70.9501C331.002 70.9801 331.062 70.98 331.132 70.98C331.392 70.98 331.642 70.8101 331.722 70.5601C331.742 70.4901 333.912 64.04 335.492 61.4C335.672 61.1 335.572 60.7301 335.282 60.5501C334.992 60.3701 334.602 60.47 334.422 60.76C332.772 63.52 330.632 69.9001 330.542 70.1601C330.422 70.4801 330.602 70.8401 330.932 70.9401V70.9501ZM334.272 72.2001C334.322 72.2001 334.362 72.22 334.412 72.22C334.692 72.22 334.942 72.03 335.012 71.75C336.212 66.65 337.582 62.8401 337.592 62.8001C337.712 62.4801 337.552 62.12 337.222 62.01C336.902 61.89 336.542 62.06 336.432 62.38C336.432 62.42 335.042 66.3001 333.812 71.4601C333.732 71.7701 333.942 72.1101 334.282 72.1901L334.272 72.2001ZM336.502 73.4301C336.502 73.4301 336.572 73.4301 336.612 73.4301C336.912 73.4301 337.172 73.2101 337.222 72.9101C338.152 67.4701 339.222 64.88 339.232 64.85C339.362 64.54 339.202 64.1701 338.892 64.0401C338.582 63.9101 338.212 64.06 338.082 64.38C338.032 64.48 336.942 67.1001 335.982 72.7101C335.942 73.0301 336.162 73.3501 336.502 73.4101V73.4301ZM335.672 169.06C335.362 169.2 335.222 169.56 335.362 169.87C335.462 170.1 335.682 170.23 335.922 170.23C336.012 170.23 336.092 170.21 336.182 170.19C337.822 169.46 338.952 168.27 339.562 166.66C341.092 162.61 338.652 157.3 338.542 157.07C338.402 156.76 338.032 156.63 337.722 156.76C337.412 156.9 337.282 157.27 337.412 157.57C337.442 157.62 339.732 162.65 338.392 166.21C337.912 167.5 336.982 168.45 335.672 169.04V169.06ZM341.652 169.91C341.742 169.95 341.832 169.97 341.922 169.97C342.152 169.97 342.382 169.84 342.482 169.62C344.742 164.97 343.142 157.52 343.072 157.2C343.002 156.87 342.672 156.66 342.332 156.73C341.992 156.8 341.792 157.14 341.862 157.48C341.882 157.55 343.432 164.83 341.362 169.09C341.222 169.39 341.342 169.76 341.652 169.91ZM295.322 131.4L276.242 121.17C275.652 120.86 275.232 120.3 275.112 119.66L274.812 118.14L270.082 86.9301C270.032 86.5801 269.692 86.35 269.372 86.4C269.032 86.45 268.792 86.76 268.842 87.11L273.582 118.34L273.882 119.88C274.082 120.9 274.722 121.76 275.642 122.25L294.722 132.48C294.802 132.53 294.922 132.55 295.022 132.55C295.232 132.55 295.452 132.43 295.572 132.23C295.722 131.92 295.622 131.53 295.322 131.38V131.4ZM262.182 133.9C261.982 133.62 261.592 133.56 261.312 133.76C261.032 133.96 260.962 134.35 261.162 134.63L263.482 137.91C263.602 138.07 263.802 138.17 264.002 138.17C264.132 138.17 264.252 138.13 264.362 138.05C264.642 137.85 264.712 137.46 264.502 137.18L262.182 133.9ZM269.262 74.9301C267.872 63.7601 259.382 60.5 259.022 60.37C258.702 60.25 258.332 60.4 258.212 60.73C258.092 61.05 258.262 61.41 258.572 61.53C258.912 61.66 266.722 64.68 268.032 75.09C268.062 75.4 268.342 75.63 268.642 75.63H268.722C269.072 75.58 269.312 75.2701 269.262 74.9301ZM218.872 113.58C218.932 113.58 218.982 113.58 219.042 113.56L236.952 108.64C237.002 108.64 237.042 108.6 237.092 108.57C239.712 116.07 242.722 124.62 242.762 124.77C242.822 124.92 242.942 125.03 243.082 125.1C243.352 126.35 251.422 124.43 251.422 124.43L250.742 122.25C250.742 122.25 245.902 123.26 243.922 124.29C243.402 122.82 236.482 103.12 234.792 98.1601C232.952 92.7901 228.902 90.7901 228.732 90.7001C228.422 90.5601 228.052 90.68 227.912 90.99C227.762 91.3 227.882 91.6701 228.192 91.8201C228.232 91.8401 231.942 93.6801 233.622 98.5601C234.212 100.25 235.382 103.64 236.722 107.44H236.652L218.742 112.36C218.402 112.44 218.212 112.79 218.312 113.12C218.372 113.4 218.622 113.58 218.892 113.58H218.872ZM232.032 209.15C232.152 209.33 232.342 209.43 232.542 209.43C232.662 209.43 232.782 209.4 232.892 209.32C233.182 209.12 233.252 208.73 233.062 208.45C232.752 207.99 202.222 162.72 195.202 151.4C193.992 149.43 193.132 147.47 192.542 145.55C192.682 145.47 192.772 145.35 192.812 145.2L196.502 131.55C196.582 131.22 196.392 130.88 196.062 130.8C195.732 130.7 195.392 130.9 195.312 131.23L191.992 143.47C190.232 135.46 192.762 128.84 192.802 128.76C192.932 128.45 192.772 128.07 192.442 127.95C192.112 127.83 191.752 127.98 191.632 128.31C191.582 128.43 186.952 140.48 194.142 152.08C201.192 163.43 231.732 208.71 232.042 209.16L232.032 209.15ZM212.522 230.3C213.842 230.33 218.282 227.46 223.812 223.31L221.952 221.29L221.892 221.22C221.892 221.22 214.902 226.8 212.522 230.29V230.3ZM207.372 225.24L187.432 202.19L199.902 229.01L207.372 225.24ZM158.022 192.7C166.772 191.74 178.022 190.76 178.022 190.76C173.542 185.95 167.872 175.64 167.872 175.64C167.872 175.64 159.392 175.36 149.142 175.36C138.892 175.36 149.282 193.66 158.022 192.7ZM227.012 353.33C225.972 355.71 225.092 357.42 224.752 359.39C225.302 359.42 225.842 359.47 226.402 359.47C241.132 359.47 253.062 347.55 253.062 332.86C253.062 327.18 251.272 321.93 248.232 317.6C240.582 330.09 228.402 350.12 227.012 353.33ZM218.902 311.73L236.952 271.05C237.092 270.73 236.952 270.36 236.642 270.23C236.322 270.09 235.952 270.23 235.822 270.54L219.592 307.13C208.182 310.14 199.752 320.5 199.752 332.85C199.752 337.49 200.952 341.85 203.032 345.65C206.402 338.22 212.882 324.24 218.522 312.04C218.692 311.98 218.842 311.9 218.912 311.73H218.902ZM221.902 326.9C221.972 325.28 222.042 323.61 222.482 322.33C222.922 321 224.232 320.07 225.612 319.09C227.312 317.89 229.232 316.51 229.882 314.1C230.972 310 231.252 306.49 231.262 306.35C231.292 306 231.032 305.71 230.682 305.69C230.322 305.66 230.042 305.91 230.022 306.26C230.022 306.3 229.732 309.8 228.682 313.79C228.152 315.77 226.492 316.95 224.892 318.08C223.412 319.14 221.882 320.23 221.302 321.94C220.822 323.4 220.742 325.15 220.672 326.86C220.582 328.96 220.472 331.14 219.542 332.08C219.032 332.58 218.212 333.01 217.272 333.53C214.952 334.77 211.792 336.46 211.162 340.61C211.112 340.95 211.352 341.26 211.692 341.31C211.722 341.31 211.752 341.31 211.782 341.31C212.092 341.31 212.342 341.1 212.392 340.78C212.922 337.25 215.542 335.84 217.852 334.61C218.852 334.08 219.792 333.58 220.422 332.94C221.692 331.66 221.792 329.34 221.902 326.89V326.9ZM227.792 338.13C229.072 336.85 229.172 334.54 229.282 332.08C229.352 330.46 229.422 328.79 229.852 327.51C230.302 326.18 231.612 325.25 232.992 324.27C234.692 323.07 236.602 321.69 237.262 319.28C238.362 315.18 238.632 311.67 238.642 311.53C238.672 311.18 238.422 310.89 238.072 310.87C237.722 310.84 237.432 311.09 237.412 311.44C237.412 311.48 237.122 314.98 236.062 318.97C235.532 320.95 233.882 322.13 232.282 323.26C230.802 324.32 229.262 325.41 228.692 327.13C228.212 328.58 228.122 330.34 228.052 332.04C227.972 334.14 227.862 336.32 226.922 337.26C226.422 337.76 225.602 338.19 224.652 338.71C222.332 339.95 219.162 341.64 218.542 345.79C218.492 346.13 218.732 346.44 219.072 346.49C219.102 346.49 219.132 346.49 219.152 346.49C219.462 346.49 219.722 346.28 219.762 345.96C220.292 342.42 222.912 341.02 225.232 339.79C226.212 339.26 227.152 338.76 227.782 338.12L227.792 338.13Z" fill="#2A306E"/>
</svg>
